%TF.GenerationSoftware,KiCad,Pcbnew,8.0.5*%
%TF.CreationDate,2025-04-10T23:54:24-07:00*%
%TF.ProjectId,ESP32,45535033-322e-46b6-9963-61645f706362,rev?*%
%TF.SameCoordinates,Original*%
%TF.FileFunction,Drillmap*%
%TF.FilePolarity,Positive*%
%FSLAX45Y45*%
G04 Gerber Fmt 4.5, Leading zero omitted, Abs format (unit mm)*
G04 Created by KiCad (PCBNEW 8.0.5) date 2025-04-10 23:54:24*
%MOMM*%
%LPD*%
G01*
G04 APERTURE LIST*
%ADD10C,0.050000*%
%ADD11C,0.508000*%
%ADD12C,0.200000*%
%ADD13C,0.100000*%
%ADD14C,0.106680*%
G04 APERTURE END LIST*
D10*
X11176000Y-10247000D02*
G75*
G02*
X11376000Y-10047000I200000J0D01*
G01*
X14026000Y-10047000D02*
G75*
G02*
X14226000Y-10247000I0J-200000D01*
G01*
X11376000Y-15147000D02*
G75*
G02*
X11176000Y-14947000I0J200000D01*
G01*
X14226000Y-14947000D02*
G75*
G02*
X14026000Y-15147000I-200000J0D01*
G01*
X11176000Y-14947000D02*
X11176000Y-10247000D01*
X14226000Y-10247000D02*
X14226000Y-14947000D01*
X11376000Y-10047000D02*
X14026000Y-10047000D01*
X14026000Y-15147000D02*
X11376000Y-15147000D01*
D11*
X11501790Y-13532040D02*
X11433210Y-13532040D01*
X11501790Y-14192040D02*
X11433210Y-14192040D01*
D12*
D13*
X11316000Y-12190000D02*
X11346000Y-12220000D01*
X11346000Y-12190000D02*
X11316000Y-12220000D01*
X11345000Y-12862000D02*
X11375000Y-12892000D01*
X11375000Y-12862000D02*
X11345000Y-12892000D01*
X11411000Y-12481000D02*
X11441000Y-12511000D01*
X11441000Y-12481000D02*
X11411000Y-12511000D01*
X11533521Y-12019931D02*
X11563521Y-12049931D01*
X11563521Y-12019931D02*
X11533521Y-12049931D01*
X11600000Y-14170000D02*
X11630000Y-14200000D01*
X11630000Y-14170000D02*
X11600000Y-14200000D01*
X11602000Y-13890000D02*
X11632000Y-13920000D01*
X11632000Y-13890000D02*
X11602000Y-13920000D01*
X11612500Y-13667040D02*
X11642500Y-13697040D01*
X11642500Y-13667040D02*
X11612500Y-13697040D01*
X11793740Y-12185000D02*
X11823740Y-12215000D01*
X11823740Y-12185000D02*
X11793740Y-12215000D01*
X11814000Y-12414000D02*
X11844000Y-12444000D01*
X11844000Y-12414000D02*
X11814000Y-12444000D01*
X11939000Y-12231000D02*
X11969000Y-12261000D01*
X11969000Y-12231000D02*
X11939000Y-12261000D01*
X11960000Y-12835000D02*
X11990000Y-12865000D01*
X11990000Y-12835000D02*
X11960000Y-12865000D01*
X12009000Y-12348000D02*
X12039000Y-12378000D01*
X12039000Y-12348000D02*
X12009000Y-12378000D01*
X12019000Y-11208000D02*
X12049000Y-11238000D01*
X12049000Y-11208000D02*
X12019000Y-11238000D01*
X12070000Y-13939000D02*
X12100000Y-13969000D01*
X12100000Y-13939000D02*
X12070000Y-13969000D01*
X12090000Y-14059000D02*
X12120000Y-14089000D01*
X12120000Y-14059000D02*
X12090000Y-14089000D01*
X12160000Y-11958853D02*
X12190000Y-11988853D01*
X12190000Y-11958853D02*
X12160000Y-11988853D01*
X12160000Y-12710000D02*
X12190000Y-12740000D01*
X12190000Y-12710000D02*
X12160000Y-12740000D01*
X12168000Y-12189000D02*
X12198000Y-12219000D01*
X12198000Y-12189000D02*
X12168000Y-12219000D01*
X12203000Y-14059000D02*
X12233000Y-14089000D01*
X12233000Y-14059000D02*
X12203000Y-14089000D01*
X12355000Y-11954000D02*
X12385000Y-11984000D01*
X12385000Y-11954000D02*
X12355000Y-11984000D01*
X12376000Y-13665000D02*
X12406000Y-13695000D01*
X12406000Y-13665000D02*
X12376000Y-13695000D01*
X12471000Y-12090000D02*
X12501000Y-12120000D01*
X12501000Y-12090000D02*
X12471000Y-12120000D01*
X12491000Y-14048000D02*
X12521000Y-14078000D01*
X12521000Y-14048000D02*
X12491000Y-14078000D01*
X12554000Y-14441000D02*
X12584000Y-14471000D01*
X12584000Y-14441000D02*
X12554000Y-14471000D01*
X12726000Y-11951000D02*
X12756000Y-11981000D01*
X12756000Y-11951000D02*
X12726000Y-11981000D01*
X12737000Y-14940000D02*
X12767000Y-14970000D01*
X12767000Y-14940000D02*
X12737000Y-14970000D01*
X12750000Y-13339000D02*
X12780000Y-13369000D01*
X12780000Y-13339000D02*
X12750000Y-13369000D01*
X12798000Y-14513000D02*
X12828000Y-14543000D01*
X12828000Y-14513000D02*
X12798000Y-14543000D01*
X12802000Y-14835000D02*
X12832000Y-14865000D01*
X12832000Y-14835000D02*
X12802000Y-14865000D01*
X13017000Y-13666000D02*
X13047000Y-13696000D01*
X13047000Y-13666000D02*
X13017000Y-13696000D01*
X13177000Y-13300000D02*
X13207000Y-13330000D01*
X13207000Y-13300000D02*
X13177000Y-13330000D01*
X13310000Y-13310000D02*
X13340000Y-13340000D01*
X13340000Y-13310000D02*
X13310000Y-13340000D01*
X13459000Y-14256000D02*
X13489000Y-14286000D01*
X13489000Y-14256000D02*
X13459000Y-14286000D01*
X12158100Y-14939000D02*
G75*
G02*
X12081900Y-14939000I-38100J0D01*
G01*
X12081900Y-14939000D02*
G75*
G02*
X12158100Y-14939000I38100J0D01*
G01*
X12358100Y-14939000D02*
G75*
G02*
X12281900Y-14939000I-38100J0D01*
G01*
X12281900Y-14939000D02*
G75*
G02*
X12358100Y-14939000I38100J0D01*
G01*
X11306000Y-10219000D02*
X11306000Y-10299000D01*
X11266000Y-10259000D02*
X11346000Y-10259000D01*
X11306000Y-10473000D02*
X11306000Y-10553000D01*
X11266000Y-10513000D02*
X11346000Y-10513000D01*
X13238000Y-13778000D02*
X13238000Y-13858000D01*
X13198000Y-13818000D02*
X13278000Y-13818000D01*
X14046000Y-10565000D02*
X14046000Y-10645000D01*
X14006000Y-10605000D02*
X14086000Y-10605000D01*
X14047000Y-10310000D02*
X14047000Y-10390000D01*
X14007000Y-10350000D02*
X14087000Y-10350000D01*
X11394713Y-11793683D02*
X11394713Y-11723637D01*
X11324667Y-11723637D01*
X11324667Y-11793683D01*
X11394713Y-11793683D01*
X11394713Y-12043683D02*
X11394713Y-11973637D01*
X11324667Y-11973637D01*
X11324667Y-12043683D01*
X11394713Y-12043683D01*
D14*
X11700000Y-10463340D02*
X11753340Y-10410000D01*
X11700000Y-10356660D01*
X11646660Y-10410000D01*
X11700000Y-10463340D01*
X11700000Y-10717340D02*
X11753340Y-10664000D01*
X11700000Y-10610660D01*
X11646660Y-10664000D01*
X11700000Y-10717340D01*
X11954000Y-10463340D02*
X12007340Y-10410000D01*
X11954000Y-10356660D01*
X11900660Y-10410000D01*
X11954000Y-10463340D01*
X11954000Y-10717340D02*
X12007340Y-10664000D01*
X11954000Y-10610660D01*
X11900660Y-10664000D01*
X11954000Y-10717340D01*
X12208000Y-10463340D02*
X12261340Y-10410000D01*
X12208000Y-10356660D01*
X12154660Y-10410000D01*
X12208000Y-10463340D01*
X12208000Y-10717340D02*
X12261340Y-10664000D01*
X12208000Y-10610660D01*
X12154660Y-10664000D01*
X12208000Y-10717340D01*
X12462000Y-10463340D02*
X12515340Y-10410000D01*
X12462000Y-10356660D01*
X12408660Y-10410000D01*
X12462000Y-10463340D01*
X12462000Y-10717340D02*
X12515340Y-10664000D01*
X12462000Y-10610660D01*
X12408660Y-10664000D01*
X12462000Y-10717340D01*
X12716000Y-10463340D02*
X12769340Y-10410000D01*
X12716000Y-10356660D01*
X12662660Y-10410000D01*
X12716000Y-10463340D01*
X12716000Y-10717340D02*
X12769340Y-10664000D01*
X12716000Y-10610660D01*
X12662660Y-10664000D01*
X12716000Y-10717340D01*
X12970000Y-10463340D02*
X13023340Y-10410000D01*
X12970000Y-10356660D01*
X12916660Y-10410000D01*
X12970000Y-10463340D01*
X12970000Y-10717340D02*
X13023340Y-10664000D01*
X12970000Y-10610660D01*
X12916660Y-10664000D01*
X12970000Y-10717340D01*
X13224000Y-10463340D02*
X13277340Y-10410000D01*
X13224000Y-10356660D01*
X13170660Y-10410000D01*
X13224000Y-10463340D01*
X13224000Y-10717340D02*
X13277340Y-10664000D01*
X13224000Y-10610660D01*
X13170660Y-10664000D01*
X13224000Y-10717340D01*
X13478000Y-10463340D02*
X13531340Y-10410000D01*
X13478000Y-10356660D01*
X13424660Y-10410000D01*
X13478000Y-10463340D01*
X13478000Y-10717340D02*
X13531340Y-10664000D01*
X13478000Y-10610660D01*
X13424660Y-10664000D01*
X13478000Y-10717340D01*
X13732000Y-10463340D02*
X13785340Y-10410000D01*
X13732000Y-10356660D01*
X13678660Y-10410000D01*
X13732000Y-10463340D01*
X13732000Y-10717340D02*
X13785340Y-10664000D01*
X13732000Y-10610660D01*
X13678660Y-10664000D01*
X13732000Y-10717340D01*
D12*
X11434277Y-15460984D02*
X11434277Y-15260984D01*
X11434277Y-15260984D02*
X11481896Y-15260984D01*
X11481896Y-15260984D02*
X11510467Y-15270508D01*
X11510467Y-15270508D02*
X11529515Y-15289555D01*
X11529515Y-15289555D02*
X11539039Y-15308603D01*
X11539039Y-15308603D02*
X11548562Y-15346698D01*
X11548562Y-15346698D02*
X11548562Y-15375269D01*
X11548562Y-15375269D02*
X11539039Y-15413365D01*
X11539039Y-15413365D02*
X11529515Y-15432412D01*
X11529515Y-15432412D02*
X11510467Y-15451460D01*
X11510467Y-15451460D02*
X11481896Y-15460984D01*
X11481896Y-15460984D02*
X11434277Y-15460984D01*
X11634277Y-15460984D02*
X11634277Y-15327650D01*
X11634277Y-15365746D02*
X11643801Y-15346698D01*
X11643801Y-15346698D02*
X11653324Y-15337174D01*
X11653324Y-15337174D02*
X11672372Y-15327650D01*
X11672372Y-15327650D02*
X11691420Y-15327650D01*
X11758086Y-15460984D02*
X11758086Y-15327650D01*
X11758086Y-15260984D02*
X11748562Y-15270508D01*
X11748562Y-15270508D02*
X11758086Y-15280031D01*
X11758086Y-15280031D02*
X11767610Y-15270508D01*
X11767610Y-15270508D02*
X11758086Y-15260984D01*
X11758086Y-15260984D02*
X11758086Y-15280031D01*
X11881896Y-15460984D02*
X11862848Y-15451460D01*
X11862848Y-15451460D02*
X11853324Y-15432412D01*
X11853324Y-15432412D02*
X11853324Y-15260984D01*
X11986658Y-15460984D02*
X11967610Y-15451460D01*
X11967610Y-15451460D02*
X11958086Y-15432412D01*
X11958086Y-15432412D02*
X11958086Y-15260984D01*
X12215229Y-15460984D02*
X12215229Y-15260984D01*
X12215229Y-15260984D02*
X12281896Y-15403841D01*
X12281896Y-15403841D02*
X12348562Y-15260984D01*
X12348562Y-15260984D02*
X12348562Y-15460984D01*
X12529515Y-15460984D02*
X12529515Y-15356222D01*
X12529515Y-15356222D02*
X12519991Y-15337174D01*
X12519991Y-15337174D02*
X12500943Y-15327650D01*
X12500943Y-15327650D02*
X12462848Y-15327650D01*
X12462848Y-15327650D02*
X12443801Y-15337174D01*
X12529515Y-15451460D02*
X12510467Y-15460984D01*
X12510467Y-15460984D02*
X12462848Y-15460984D01*
X12462848Y-15460984D02*
X12443801Y-15451460D01*
X12443801Y-15451460D02*
X12434277Y-15432412D01*
X12434277Y-15432412D02*
X12434277Y-15413365D01*
X12434277Y-15413365D02*
X12443801Y-15394317D01*
X12443801Y-15394317D02*
X12462848Y-15384793D01*
X12462848Y-15384793D02*
X12510467Y-15384793D01*
X12510467Y-15384793D02*
X12529515Y-15375269D01*
X12624753Y-15327650D02*
X12624753Y-15527650D01*
X12624753Y-15337174D02*
X12643801Y-15327650D01*
X12643801Y-15327650D02*
X12681896Y-15327650D01*
X12681896Y-15327650D02*
X12700943Y-15337174D01*
X12700943Y-15337174D02*
X12710467Y-15346698D01*
X12710467Y-15346698D02*
X12719991Y-15365746D01*
X12719991Y-15365746D02*
X12719991Y-15422888D01*
X12719991Y-15422888D02*
X12710467Y-15441936D01*
X12710467Y-15441936D02*
X12700943Y-15451460D01*
X12700943Y-15451460D02*
X12681896Y-15460984D01*
X12681896Y-15460984D02*
X12643801Y-15460984D01*
X12643801Y-15460984D02*
X12624753Y-15451460D01*
X12805705Y-15441936D02*
X12815229Y-15451460D01*
X12815229Y-15451460D02*
X12805705Y-15460984D01*
X12805705Y-15460984D02*
X12796182Y-15451460D01*
X12796182Y-15451460D02*
X12805705Y-15441936D01*
X12805705Y-15441936D02*
X12805705Y-15460984D01*
X12805705Y-15337174D02*
X12815229Y-15346698D01*
X12815229Y-15346698D02*
X12805705Y-15356222D01*
X12805705Y-15356222D02*
X12796182Y-15346698D01*
X12796182Y-15346698D02*
X12805705Y-15337174D01*
X12805705Y-15337174D02*
X12805705Y-15356222D01*
D13*
X11143500Y-15774500D02*
X11173500Y-15804500D01*
X11173500Y-15774500D02*
X11143500Y-15804500D01*
D12*
X11472372Y-15680984D02*
X11491420Y-15680984D01*
X11491420Y-15680984D02*
X11510467Y-15690508D01*
X11510467Y-15690508D02*
X11519991Y-15700031D01*
X11519991Y-15700031D02*
X11529515Y-15719079D01*
X11529515Y-15719079D02*
X11539039Y-15757174D01*
X11539039Y-15757174D02*
X11539039Y-15804793D01*
X11539039Y-15804793D02*
X11529515Y-15842888D01*
X11529515Y-15842888D02*
X11519991Y-15861936D01*
X11519991Y-15861936D02*
X11510467Y-15871460D01*
X11510467Y-15871460D02*
X11491420Y-15880984D01*
X11491420Y-15880984D02*
X11472372Y-15880984D01*
X11472372Y-15880984D02*
X11453324Y-15871460D01*
X11453324Y-15871460D02*
X11443801Y-15861936D01*
X11443801Y-15861936D02*
X11434277Y-15842888D01*
X11434277Y-15842888D02*
X11424753Y-15804793D01*
X11424753Y-15804793D02*
X11424753Y-15757174D01*
X11424753Y-15757174D02*
X11434277Y-15719079D01*
X11434277Y-15719079D02*
X11443801Y-15700031D01*
X11443801Y-15700031D02*
X11453324Y-15690508D01*
X11453324Y-15690508D02*
X11472372Y-15680984D01*
X11624753Y-15861936D02*
X11634277Y-15871460D01*
X11634277Y-15871460D02*
X11624753Y-15880984D01*
X11624753Y-15880984D02*
X11615229Y-15871460D01*
X11615229Y-15871460D02*
X11624753Y-15861936D01*
X11624753Y-15861936D02*
X11624753Y-15880984D01*
X11700943Y-15680984D02*
X11824753Y-15680984D01*
X11824753Y-15680984D02*
X11758086Y-15757174D01*
X11758086Y-15757174D02*
X11786658Y-15757174D01*
X11786658Y-15757174D02*
X11805705Y-15766698D01*
X11805705Y-15766698D02*
X11815229Y-15776222D01*
X11815229Y-15776222D02*
X11824753Y-15795269D01*
X11824753Y-15795269D02*
X11824753Y-15842888D01*
X11824753Y-15842888D02*
X11815229Y-15861936D01*
X11815229Y-15861936D02*
X11805705Y-15871460D01*
X11805705Y-15871460D02*
X11786658Y-15880984D01*
X11786658Y-15880984D02*
X11729515Y-15880984D01*
X11729515Y-15880984D02*
X11710467Y-15871460D01*
X11710467Y-15871460D02*
X11700943Y-15861936D01*
X11948562Y-15680984D02*
X11967610Y-15680984D01*
X11967610Y-15680984D02*
X11986658Y-15690508D01*
X11986658Y-15690508D02*
X11996182Y-15700031D01*
X11996182Y-15700031D02*
X12005705Y-15719079D01*
X12005705Y-15719079D02*
X12015229Y-15757174D01*
X12015229Y-15757174D02*
X12015229Y-15804793D01*
X12015229Y-15804793D02*
X12005705Y-15842888D01*
X12005705Y-15842888D02*
X11996182Y-15861936D01*
X11996182Y-15861936D02*
X11986658Y-15871460D01*
X11986658Y-15871460D02*
X11967610Y-15880984D01*
X11967610Y-15880984D02*
X11948562Y-15880984D01*
X11948562Y-15880984D02*
X11929515Y-15871460D01*
X11929515Y-15871460D02*
X11919991Y-15861936D01*
X11919991Y-15861936D02*
X11910467Y-15842888D01*
X11910467Y-15842888D02*
X11900943Y-15804793D01*
X11900943Y-15804793D02*
X11900943Y-15757174D01*
X11900943Y-15757174D02*
X11910467Y-15719079D01*
X11910467Y-15719079D02*
X11919991Y-15700031D01*
X11919991Y-15700031D02*
X11929515Y-15690508D01*
X11929515Y-15690508D02*
X11948562Y-15680984D01*
X12139039Y-15680984D02*
X12158086Y-15680984D01*
X12158086Y-15680984D02*
X12177134Y-15690508D01*
X12177134Y-15690508D02*
X12186658Y-15700031D01*
X12186658Y-15700031D02*
X12196182Y-15719079D01*
X12196182Y-15719079D02*
X12205705Y-15757174D01*
X12205705Y-15757174D02*
X12205705Y-15804793D01*
X12205705Y-15804793D02*
X12196182Y-15842888D01*
X12196182Y-15842888D02*
X12186658Y-15861936D01*
X12186658Y-15861936D02*
X12177134Y-15871460D01*
X12177134Y-15871460D02*
X12158086Y-15880984D01*
X12158086Y-15880984D02*
X12139039Y-15880984D01*
X12139039Y-15880984D02*
X12119991Y-15871460D01*
X12119991Y-15871460D02*
X12110467Y-15861936D01*
X12110467Y-15861936D02*
X12100943Y-15842888D01*
X12100943Y-15842888D02*
X12091420Y-15804793D01*
X12091420Y-15804793D02*
X12091420Y-15757174D01*
X12091420Y-15757174D02*
X12100943Y-15719079D01*
X12100943Y-15719079D02*
X12110467Y-15700031D01*
X12110467Y-15700031D02*
X12119991Y-15690508D01*
X12119991Y-15690508D02*
X12139039Y-15680984D01*
X12291420Y-15880984D02*
X12291420Y-15747650D01*
X12291420Y-15766698D02*
X12300943Y-15757174D01*
X12300943Y-15757174D02*
X12319991Y-15747650D01*
X12319991Y-15747650D02*
X12348563Y-15747650D01*
X12348563Y-15747650D02*
X12367610Y-15757174D01*
X12367610Y-15757174D02*
X12377134Y-15776222D01*
X12377134Y-15776222D02*
X12377134Y-15880984D01*
X12377134Y-15776222D02*
X12386658Y-15757174D01*
X12386658Y-15757174D02*
X12405705Y-15747650D01*
X12405705Y-15747650D02*
X12434277Y-15747650D01*
X12434277Y-15747650D02*
X12453324Y-15757174D01*
X12453324Y-15757174D02*
X12462848Y-15776222D01*
X12462848Y-15776222D02*
X12462848Y-15880984D01*
X12558086Y-15880984D02*
X12558086Y-15747650D01*
X12558086Y-15766698D02*
X12567610Y-15757174D01*
X12567610Y-15757174D02*
X12586658Y-15747650D01*
X12586658Y-15747650D02*
X12615229Y-15747650D01*
X12615229Y-15747650D02*
X12634277Y-15757174D01*
X12634277Y-15757174D02*
X12643801Y-15776222D01*
X12643801Y-15776222D02*
X12643801Y-15880984D01*
X12643801Y-15776222D02*
X12653324Y-15757174D01*
X12653324Y-15757174D02*
X12672372Y-15747650D01*
X12672372Y-15747650D02*
X12700943Y-15747650D01*
X12700943Y-15747650D02*
X12719991Y-15757174D01*
X12719991Y-15757174D02*
X12729515Y-15776222D01*
X12729515Y-15776222D02*
X12729515Y-15880984D01*
X13119991Y-15671460D02*
X12948563Y-15928603D01*
X13377134Y-15680984D02*
X13396182Y-15680984D01*
X13396182Y-15680984D02*
X13415229Y-15690508D01*
X13415229Y-15690508D02*
X13424753Y-15700031D01*
X13424753Y-15700031D02*
X13434277Y-15719079D01*
X13434277Y-15719079D02*
X13443801Y-15757174D01*
X13443801Y-15757174D02*
X13443801Y-15804793D01*
X13443801Y-15804793D02*
X13434277Y-15842888D01*
X13434277Y-15842888D02*
X13424753Y-15861936D01*
X13424753Y-15861936D02*
X13415229Y-15871460D01*
X13415229Y-15871460D02*
X13396182Y-15880984D01*
X13396182Y-15880984D02*
X13377134Y-15880984D01*
X13377134Y-15880984D02*
X13358086Y-15871460D01*
X13358086Y-15871460D02*
X13348563Y-15861936D01*
X13348563Y-15861936D02*
X13339039Y-15842888D01*
X13339039Y-15842888D02*
X13329515Y-15804793D01*
X13329515Y-15804793D02*
X13329515Y-15757174D01*
X13329515Y-15757174D02*
X13339039Y-15719079D01*
X13339039Y-15719079D02*
X13348563Y-15700031D01*
X13348563Y-15700031D02*
X13358086Y-15690508D01*
X13358086Y-15690508D02*
X13377134Y-15680984D01*
X13529515Y-15861936D02*
X13539039Y-15871460D01*
X13539039Y-15871460D02*
X13529515Y-15880984D01*
X13529515Y-15880984D02*
X13519991Y-15871460D01*
X13519991Y-15871460D02*
X13529515Y-15861936D01*
X13529515Y-15861936D02*
X13529515Y-15880984D01*
X13662848Y-15680984D02*
X13681896Y-15680984D01*
X13681896Y-15680984D02*
X13700944Y-15690508D01*
X13700944Y-15690508D02*
X13710467Y-15700031D01*
X13710467Y-15700031D02*
X13719991Y-15719079D01*
X13719991Y-15719079D02*
X13729515Y-15757174D01*
X13729515Y-15757174D02*
X13729515Y-15804793D01*
X13729515Y-15804793D02*
X13719991Y-15842888D01*
X13719991Y-15842888D02*
X13710467Y-15861936D01*
X13710467Y-15861936D02*
X13700944Y-15871460D01*
X13700944Y-15871460D02*
X13681896Y-15880984D01*
X13681896Y-15880984D02*
X13662848Y-15880984D01*
X13662848Y-15880984D02*
X13643801Y-15871460D01*
X13643801Y-15871460D02*
X13634277Y-15861936D01*
X13634277Y-15861936D02*
X13624753Y-15842888D01*
X13624753Y-15842888D02*
X13615229Y-15804793D01*
X13615229Y-15804793D02*
X13615229Y-15757174D01*
X13615229Y-15757174D02*
X13624753Y-15719079D01*
X13624753Y-15719079D02*
X13634277Y-15700031D01*
X13634277Y-15700031D02*
X13643801Y-15690508D01*
X13643801Y-15690508D02*
X13662848Y-15680984D01*
X13919991Y-15880984D02*
X13805706Y-15880984D01*
X13862848Y-15880984D02*
X13862848Y-15680984D01*
X13862848Y-15680984D02*
X13843801Y-15709555D01*
X13843801Y-15709555D02*
X13824753Y-15728603D01*
X13824753Y-15728603D02*
X13805706Y-15738127D01*
X14110467Y-15880984D02*
X13996182Y-15880984D01*
X14053325Y-15880984D02*
X14053325Y-15680984D01*
X14053325Y-15680984D02*
X14034277Y-15709555D01*
X14034277Y-15709555D02*
X14015229Y-15728603D01*
X14015229Y-15728603D02*
X13996182Y-15738127D01*
X14224753Y-15766698D02*
X14205706Y-15757174D01*
X14205706Y-15757174D02*
X14196182Y-15747650D01*
X14196182Y-15747650D02*
X14186658Y-15728603D01*
X14186658Y-15728603D02*
X14186658Y-15719079D01*
X14186658Y-15719079D02*
X14196182Y-15700031D01*
X14196182Y-15700031D02*
X14205706Y-15690508D01*
X14205706Y-15690508D02*
X14224753Y-15680984D01*
X14224753Y-15680984D02*
X14262848Y-15680984D01*
X14262848Y-15680984D02*
X14281896Y-15690508D01*
X14281896Y-15690508D02*
X14291420Y-15700031D01*
X14291420Y-15700031D02*
X14300944Y-15719079D01*
X14300944Y-15719079D02*
X14300944Y-15728603D01*
X14300944Y-15728603D02*
X14291420Y-15747650D01*
X14291420Y-15747650D02*
X14281896Y-15757174D01*
X14281896Y-15757174D02*
X14262848Y-15766698D01*
X14262848Y-15766698D02*
X14224753Y-15766698D01*
X14224753Y-15766698D02*
X14205706Y-15776222D01*
X14205706Y-15776222D02*
X14196182Y-15785746D01*
X14196182Y-15785746D02*
X14186658Y-15804793D01*
X14186658Y-15804793D02*
X14186658Y-15842888D01*
X14186658Y-15842888D02*
X14196182Y-15861936D01*
X14196182Y-15861936D02*
X14205706Y-15871460D01*
X14205706Y-15871460D02*
X14224753Y-15880984D01*
X14224753Y-15880984D02*
X14262848Y-15880984D01*
X14262848Y-15880984D02*
X14281896Y-15871460D01*
X14281896Y-15871460D02*
X14291420Y-15861936D01*
X14291420Y-15861936D02*
X14300944Y-15842888D01*
X14300944Y-15842888D02*
X14300944Y-15804793D01*
X14300944Y-15804793D02*
X14291420Y-15785746D01*
X14291420Y-15785746D02*
X14281896Y-15776222D01*
X14281896Y-15776222D02*
X14262848Y-15766698D01*
X14377134Y-15680984D02*
X14377134Y-15719079D01*
X14453325Y-15680984D02*
X14453325Y-15719079D01*
X14748563Y-15957174D02*
X14739039Y-15947650D01*
X14739039Y-15947650D02*
X14719991Y-15919079D01*
X14719991Y-15919079D02*
X14710468Y-15900031D01*
X14710468Y-15900031D02*
X14700944Y-15871460D01*
X14700944Y-15871460D02*
X14691420Y-15823841D01*
X14691420Y-15823841D02*
X14691420Y-15785746D01*
X14691420Y-15785746D02*
X14700944Y-15738127D01*
X14700944Y-15738127D02*
X14710468Y-15709555D01*
X14710468Y-15709555D02*
X14719991Y-15690508D01*
X14719991Y-15690508D02*
X14739039Y-15661936D01*
X14739039Y-15661936D02*
X14748563Y-15652412D01*
X14805706Y-15680984D02*
X14929515Y-15680984D01*
X14929515Y-15680984D02*
X14862848Y-15757174D01*
X14862848Y-15757174D02*
X14891420Y-15757174D01*
X14891420Y-15757174D02*
X14910468Y-15766698D01*
X14910468Y-15766698D02*
X14919991Y-15776222D01*
X14919991Y-15776222D02*
X14929515Y-15795269D01*
X14929515Y-15795269D02*
X14929515Y-15842888D01*
X14929515Y-15842888D02*
X14919991Y-15861936D01*
X14919991Y-15861936D02*
X14910468Y-15871460D01*
X14910468Y-15871460D02*
X14891420Y-15880984D01*
X14891420Y-15880984D02*
X14834277Y-15880984D01*
X14834277Y-15880984D02*
X14815229Y-15871460D01*
X14815229Y-15871460D02*
X14805706Y-15861936D01*
X14996182Y-15680984D02*
X15119991Y-15680984D01*
X15119991Y-15680984D02*
X15053325Y-15757174D01*
X15053325Y-15757174D02*
X15081896Y-15757174D01*
X15081896Y-15757174D02*
X15100944Y-15766698D01*
X15100944Y-15766698D02*
X15110468Y-15776222D01*
X15110468Y-15776222D02*
X15119991Y-15795269D01*
X15119991Y-15795269D02*
X15119991Y-15842888D01*
X15119991Y-15842888D02*
X15110468Y-15861936D01*
X15110468Y-15861936D02*
X15100944Y-15871460D01*
X15100944Y-15871460D02*
X15081896Y-15880984D01*
X15081896Y-15880984D02*
X15024753Y-15880984D01*
X15024753Y-15880984D02*
X15005706Y-15871460D01*
X15005706Y-15871460D02*
X14996182Y-15861936D01*
X15358087Y-15880984D02*
X15358087Y-15680984D01*
X15443801Y-15880984D02*
X15443801Y-15776222D01*
X15443801Y-15776222D02*
X15434277Y-15757174D01*
X15434277Y-15757174D02*
X15415230Y-15747650D01*
X15415230Y-15747650D02*
X15386658Y-15747650D01*
X15386658Y-15747650D02*
X15367610Y-15757174D01*
X15367610Y-15757174D02*
X15358087Y-15766698D01*
X15567610Y-15880984D02*
X15548563Y-15871460D01*
X15548563Y-15871460D02*
X15539039Y-15861936D01*
X15539039Y-15861936D02*
X15529515Y-15842888D01*
X15529515Y-15842888D02*
X15529515Y-15785746D01*
X15529515Y-15785746D02*
X15539039Y-15766698D01*
X15539039Y-15766698D02*
X15548563Y-15757174D01*
X15548563Y-15757174D02*
X15567610Y-15747650D01*
X15567610Y-15747650D02*
X15596182Y-15747650D01*
X15596182Y-15747650D02*
X15615230Y-15757174D01*
X15615230Y-15757174D02*
X15624753Y-15766698D01*
X15624753Y-15766698D02*
X15634277Y-15785746D01*
X15634277Y-15785746D02*
X15634277Y-15842888D01*
X15634277Y-15842888D02*
X15624753Y-15861936D01*
X15624753Y-15861936D02*
X15615230Y-15871460D01*
X15615230Y-15871460D02*
X15596182Y-15880984D01*
X15596182Y-15880984D02*
X15567610Y-15880984D01*
X15748563Y-15880984D02*
X15729515Y-15871460D01*
X15729515Y-15871460D02*
X15719991Y-15852412D01*
X15719991Y-15852412D02*
X15719991Y-15680984D01*
X15900944Y-15871460D02*
X15881896Y-15880984D01*
X15881896Y-15880984D02*
X15843801Y-15880984D01*
X15843801Y-15880984D02*
X15824753Y-15871460D01*
X15824753Y-15871460D02*
X15815230Y-15852412D01*
X15815230Y-15852412D02*
X15815230Y-15776222D01*
X15815230Y-15776222D02*
X15824753Y-15757174D01*
X15824753Y-15757174D02*
X15843801Y-15747650D01*
X15843801Y-15747650D02*
X15881896Y-15747650D01*
X15881896Y-15747650D02*
X15900944Y-15757174D01*
X15900944Y-15757174D02*
X15910468Y-15776222D01*
X15910468Y-15776222D02*
X15910468Y-15795269D01*
X15910468Y-15795269D02*
X15815230Y-15814317D01*
X15986658Y-15871460D02*
X16005706Y-15880984D01*
X16005706Y-15880984D02*
X16043801Y-15880984D01*
X16043801Y-15880984D02*
X16062849Y-15871460D01*
X16062849Y-15871460D02*
X16072372Y-15852412D01*
X16072372Y-15852412D02*
X16072372Y-15842888D01*
X16072372Y-15842888D02*
X16062849Y-15823841D01*
X16062849Y-15823841D02*
X16043801Y-15814317D01*
X16043801Y-15814317D02*
X16015230Y-15814317D01*
X16015230Y-15814317D02*
X15996182Y-15804793D01*
X15996182Y-15804793D02*
X15986658Y-15785746D01*
X15986658Y-15785746D02*
X15986658Y-15776222D01*
X15986658Y-15776222D02*
X15996182Y-15757174D01*
X15996182Y-15757174D02*
X16015230Y-15747650D01*
X16015230Y-15747650D02*
X16043801Y-15747650D01*
X16043801Y-15747650D02*
X16062849Y-15757174D01*
X16139039Y-15957174D02*
X16148563Y-15947650D01*
X16148563Y-15947650D02*
X16167611Y-15919079D01*
X16167611Y-15919079D02*
X16177134Y-15900031D01*
X16177134Y-15900031D02*
X16186658Y-15871460D01*
X16186658Y-15871460D02*
X16196182Y-15823841D01*
X16196182Y-15823841D02*
X16196182Y-15785746D01*
X16196182Y-15785746D02*
X16186658Y-15738127D01*
X16186658Y-15738127D02*
X16177134Y-15709555D01*
X16177134Y-15709555D02*
X16167611Y-15690508D01*
X16167611Y-15690508D02*
X16148563Y-15661936D01*
X16148563Y-15661936D02*
X16139039Y-15652412D01*
D13*
X11173500Y-16053500D02*
G75*
G02*
X11097300Y-16053500I-38100J0D01*
G01*
X11097300Y-16053500D02*
G75*
G02*
X11173500Y-16053500I38100J0D01*
G01*
D12*
X11472372Y-15944984D02*
X11491420Y-15944984D01*
X11491420Y-15944984D02*
X11510467Y-15954508D01*
X11510467Y-15954508D02*
X11519991Y-15964031D01*
X11519991Y-15964031D02*
X11529515Y-15983079D01*
X11529515Y-15983079D02*
X11539039Y-16021174D01*
X11539039Y-16021174D02*
X11539039Y-16068793D01*
X11539039Y-16068793D02*
X11529515Y-16106888D01*
X11529515Y-16106888D02*
X11519991Y-16125936D01*
X11519991Y-16125936D02*
X11510467Y-16135460D01*
X11510467Y-16135460D02*
X11491420Y-16144984D01*
X11491420Y-16144984D02*
X11472372Y-16144984D01*
X11472372Y-16144984D02*
X11453324Y-16135460D01*
X11453324Y-16135460D02*
X11443801Y-16125936D01*
X11443801Y-16125936D02*
X11434277Y-16106888D01*
X11434277Y-16106888D02*
X11424753Y-16068793D01*
X11424753Y-16068793D02*
X11424753Y-16021174D01*
X11424753Y-16021174D02*
X11434277Y-15983079D01*
X11434277Y-15983079D02*
X11443801Y-15964031D01*
X11443801Y-15964031D02*
X11453324Y-15954508D01*
X11453324Y-15954508D02*
X11472372Y-15944984D01*
X11624753Y-16125936D02*
X11634277Y-16135460D01*
X11634277Y-16135460D02*
X11624753Y-16144984D01*
X11624753Y-16144984D02*
X11615229Y-16135460D01*
X11615229Y-16135460D02*
X11624753Y-16125936D01*
X11624753Y-16125936D02*
X11624753Y-16144984D01*
X11700943Y-15944984D02*
X11834277Y-15944984D01*
X11834277Y-15944984D02*
X11748562Y-16144984D01*
X11996182Y-15944984D02*
X11958086Y-15944984D01*
X11958086Y-15944984D02*
X11939039Y-15954508D01*
X11939039Y-15954508D02*
X11929515Y-15964031D01*
X11929515Y-15964031D02*
X11910467Y-15992603D01*
X11910467Y-15992603D02*
X11900943Y-16030698D01*
X11900943Y-16030698D02*
X11900943Y-16106888D01*
X11900943Y-16106888D02*
X11910467Y-16125936D01*
X11910467Y-16125936D02*
X11919991Y-16135460D01*
X11919991Y-16135460D02*
X11939039Y-16144984D01*
X11939039Y-16144984D02*
X11977134Y-16144984D01*
X11977134Y-16144984D02*
X11996182Y-16135460D01*
X11996182Y-16135460D02*
X12005705Y-16125936D01*
X12005705Y-16125936D02*
X12015229Y-16106888D01*
X12015229Y-16106888D02*
X12015229Y-16059269D01*
X12015229Y-16059269D02*
X12005705Y-16040222D01*
X12005705Y-16040222D02*
X11996182Y-16030698D01*
X11996182Y-16030698D02*
X11977134Y-16021174D01*
X11977134Y-16021174D02*
X11939039Y-16021174D01*
X11939039Y-16021174D02*
X11919991Y-16030698D01*
X11919991Y-16030698D02*
X11910467Y-16040222D01*
X11910467Y-16040222D02*
X11900943Y-16059269D01*
X12091420Y-15964031D02*
X12100943Y-15954508D01*
X12100943Y-15954508D02*
X12119991Y-15944984D01*
X12119991Y-15944984D02*
X12167610Y-15944984D01*
X12167610Y-15944984D02*
X12186658Y-15954508D01*
X12186658Y-15954508D02*
X12196182Y-15964031D01*
X12196182Y-15964031D02*
X12205705Y-15983079D01*
X12205705Y-15983079D02*
X12205705Y-16002127D01*
X12205705Y-16002127D02*
X12196182Y-16030698D01*
X12196182Y-16030698D02*
X12081896Y-16144984D01*
X12081896Y-16144984D02*
X12205705Y-16144984D01*
X12291420Y-16144984D02*
X12291420Y-16011650D01*
X12291420Y-16030698D02*
X12300943Y-16021174D01*
X12300943Y-16021174D02*
X12319991Y-16011650D01*
X12319991Y-16011650D02*
X12348563Y-16011650D01*
X12348563Y-16011650D02*
X12367610Y-16021174D01*
X12367610Y-16021174D02*
X12377134Y-16040222D01*
X12377134Y-16040222D02*
X12377134Y-16144984D01*
X12377134Y-16040222D02*
X12386658Y-16021174D01*
X12386658Y-16021174D02*
X12405705Y-16011650D01*
X12405705Y-16011650D02*
X12434277Y-16011650D01*
X12434277Y-16011650D02*
X12453324Y-16021174D01*
X12453324Y-16021174D02*
X12462848Y-16040222D01*
X12462848Y-16040222D02*
X12462848Y-16144984D01*
X12558086Y-16144984D02*
X12558086Y-16011650D01*
X12558086Y-16030698D02*
X12567610Y-16021174D01*
X12567610Y-16021174D02*
X12586658Y-16011650D01*
X12586658Y-16011650D02*
X12615229Y-16011650D01*
X12615229Y-16011650D02*
X12634277Y-16021174D01*
X12634277Y-16021174D02*
X12643801Y-16040222D01*
X12643801Y-16040222D02*
X12643801Y-16144984D01*
X12643801Y-16040222D02*
X12653324Y-16021174D01*
X12653324Y-16021174D02*
X12672372Y-16011650D01*
X12672372Y-16011650D02*
X12700943Y-16011650D01*
X12700943Y-16011650D02*
X12719991Y-16021174D01*
X12719991Y-16021174D02*
X12729515Y-16040222D01*
X12729515Y-16040222D02*
X12729515Y-16144984D01*
X13119991Y-15935460D02*
X12948563Y-16192603D01*
X13377134Y-15944984D02*
X13396182Y-15944984D01*
X13396182Y-15944984D02*
X13415229Y-15954508D01*
X13415229Y-15954508D02*
X13424753Y-15964031D01*
X13424753Y-15964031D02*
X13434277Y-15983079D01*
X13434277Y-15983079D02*
X13443801Y-16021174D01*
X13443801Y-16021174D02*
X13443801Y-16068793D01*
X13443801Y-16068793D02*
X13434277Y-16106888D01*
X13434277Y-16106888D02*
X13424753Y-16125936D01*
X13424753Y-16125936D02*
X13415229Y-16135460D01*
X13415229Y-16135460D02*
X13396182Y-16144984D01*
X13396182Y-16144984D02*
X13377134Y-16144984D01*
X13377134Y-16144984D02*
X13358086Y-16135460D01*
X13358086Y-16135460D02*
X13348563Y-16125936D01*
X13348563Y-16125936D02*
X13339039Y-16106888D01*
X13339039Y-16106888D02*
X13329515Y-16068793D01*
X13329515Y-16068793D02*
X13329515Y-16021174D01*
X13329515Y-16021174D02*
X13339039Y-15983079D01*
X13339039Y-15983079D02*
X13348563Y-15964031D01*
X13348563Y-15964031D02*
X13358086Y-15954508D01*
X13358086Y-15954508D02*
X13377134Y-15944984D01*
X13529515Y-16125936D02*
X13539039Y-16135460D01*
X13539039Y-16135460D02*
X13529515Y-16144984D01*
X13529515Y-16144984D02*
X13519991Y-16135460D01*
X13519991Y-16135460D02*
X13529515Y-16125936D01*
X13529515Y-16125936D02*
X13529515Y-16144984D01*
X13662848Y-15944984D02*
X13681896Y-15944984D01*
X13681896Y-15944984D02*
X13700944Y-15954508D01*
X13700944Y-15954508D02*
X13710467Y-15964031D01*
X13710467Y-15964031D02*
X13719991Y-15983079D01*
X13719991Y-15983079D02*
X13729515Y-16021174D01*
X13729515Y-16021174D02*
X13729515Y-16068793D01*
X13729515Y-16068793D02*
X13719991Y-16106888D01*
X13719991Y-16106888D02*
X13710467Y-16125936D01*
X13710467Y-16125936D02*
X13700944Y-16135460D01*
X13700944Y-16135460D02*
X13681896Y-16144984D01*
X13681896Y-16144984D02*
X13662848Y-16144984D01*
X13662848Y-16144984D02*
X13643801Y-16135460D01*
X13643801Y-16135460D02*
X13634277Y-16125936D01*
X13634277Y-16125936D02*
X13624753Y-16106888D01*
X13624753Y-16106888D02*
X13615229Y-16068793D01*
X13615229Y-16068793D02*
X13615229Y-16021174D01*
X13615229Y-16021174D02*
X13624753Y-15983079D01*
X13624753Y-15983079D02*
X13634277Y-15964031D01*
X13634277Y-15964031D02*
X13643801Y-15954508D01*
X13643801Y-15954508D02*
X13662848Y-15944984D01*
X13796182Y-15944984D02*
X13919991Y-15944984D01*
X13919991Y-15944984D02*
X13853325Y-16021174D01*
X13853325Y-16021174D02*
X13881896Y-16021174D01*
X13881896Y-16021174D02*
X13900944Y-16030698D01*
X13900944Y-16030698D02*
X13910467Y-16040222D01*
X13910467Y-16040222D02*
X13919991Y-16059269D01*
X13919991Y-16059269D02*
X13919991Y-16106888D01*
X13919991Y-16106888D02*
X13910467Y-16125936D01*
X13910467Y-16125936D02*
X13900944Y-16135460D01*
X13900944Y-16135460D02*
X13881896Y-16144984D01*
X13881896Y-16144984D02*
X13824753Y-16144984D01*
X13824753Y-16144984D02*
X13805706Y-16135460D01*
X13805706Y-16135460D02*
X13796182Y-16125936D01*
X14043801Y-15944984D02*
X14062848Y-15944984D01*
X14062848Y-15944984D02*
X14081896Y-15954508D01*
X14081896Y-15954508D02*
X14091420Y-15964031D01*
X14091420Y-15964031D02*
X14100944Y-15983079D01*
X14100944Y-15983079D02*
X14110467Y-16021174D01*
X14110467Y-16021174D02*
X14110467Y-16068793D01*
X14110467Y-16068793D02*
X14100944Y-16106888D01*
X14100944Y-16106888D02*
X14091420Y-16125936D01*
X14091420Y-16125936D02*
X14081896Y-16135460D01*
X14081896Y-16135460D02*
X14062848Y-16144984D01*
X14062848Y-16144984D02*
X14043801Y-16144984D01*
X14043801Y-16144984D02*
X14024753Y-16135460D01*
X14024753Y-16135460D02*
X14015229Y-16125936D01*
X14015229Y-16125936D02*
X14005706Y-16106888D01*
X14005706Y-16106888D02*
X13996182Y-16068793D01*
X13996182Y-16068793D02*
X13996182Y-16021174D01*
X13996182Y-16021174D02*
X14005706Y-15983079D01*
X14005706Y-15983079D02*
X14015229Y-15964031D01*
X14015229Y-15964031D02*
X14024753Y-15954508D01*
X14024753Y-15954508D02*
X14043801Y-15944984D01*
X14234277Y-15944984D02*
X14253325Y-15944984D01*
X14253325Y-15944984D02*
X14272372Y-15954508D01*
X14272372Y-15954508D02*
X14281896Y-15964031D01*
X14281896Y-15964031D02*
X14291420Y-15983079D01*
X14291420Y-15983079D02*
X14300944Y-16021174D01*
X14300944Y-16021174D02*
X14300944Y-16068793D01*
X14300944Y-16068793D02*
X14291420Y-16106888D01*
X14291420Y-16106888D02*
X14281896Y-16125936D01*
X14281896Y-16125936D02*
X14272372Y-16135460D01*
X14272372Y-16135460D02*
X14253325Y-16144984D01*
X14253325Y-16144984D02*
X14234277Y-16144984D01*
X14234277Y-16144984D02*
X14215229Y-16135460D01*
X14215229Y-16135460D02*
X14205706Y-16125936D01*
X14205706Y-16125936D02*
X14196182Y-16106888D01*
X14196182Y-16106888D02*
X14186658Y-16068793D01*
X14186658Y-16068793D02*
X14186658Y-16021174D01*
X14186658Y-16021174D02*
X14196182Y-15983079D01*
X14196182Y-15983079D02*
X14205706Y-15964031D01*
X14205706Y-15964031D02*
X14215229Y-15954508D01*
X14215229Y-15954508D02*
X14234277Y-15944984D01*
X14377134Y-15944984D02*
X14377134Y-15983079D01*
X14453325Y-15944984D02*
X14453325Y-15983079D01*
X14748563Y-16221174D02*
X14739039Y-16211650D01*
X14739039Y-16211650D02*
X14719991Y-16183079D01*
X14719991Y-16183079D02*
X14710468Y-16164031D01*
X14710468Y-16164031D02*
X14700944Y-16135460D01*
X14700944Y-16135460D02*
X14691420Y-16087841D01*
X14691420Y-16087841D02*
X14691420Y-16049746D01*
X14691420Y-16049746D02*
X14700944Y-16002127D01*
X14700944Y-16002127D02*
X14710468Y-15973555D01*
X14710468Y-15973555D02*
X14719991Y-15954508D01*
X14719991Y-15954508D02*
X14739039Y-15925936D01*
X14739039Y-15925936D02*
X14748563Y-15916412D01*
X14815229Y-15964031D02*
X14824753Y-15954508D01*
X14824753Y-15954508D02*
X14843801Y-15944984D01*
X14843801Y-15944984D02*
X14891420Y-15944984D01*
X14891420Y-15944984D02*
X14910468Y-15954508D01*
X14910468Y-15954508D02*
X14919991Y-15964031D01*
X14919991Y-15964031D02*
X14929515Y-15983079D01*
X14929515Y-15983079D02*
X14929515Y-16002127D01*
X14929515Y-16002127D02*
X14919991Y-16030698D01*
X14919991Y-16030698D02*
X14805706Y-16144984D01*
X14805706Y-16144984D02*
X14929515Y-16144984D01*
X15167610Y-16144984D02*
X15167610Y-15944984D01*
X15253325Y-16144984D02*
X15253325Y-16040222D01*
X15253325Y-16040222D02*
X15243801Y-16021174D01*
X15243801Y-16021174D02*
X15224753Y-16011650D01*
X15224753Y-16011650D02*
X15196182Y-16011650D01*
X15196182Y-16011650D02*
X15177134Y-16021174D01*
X15177134Y-16021174D02*
X15167610Y-16030698D01*
X15377134Y-16144984D02*
X15358087Y-16135460D01*
X15358087Y-16135460D02*
X15348563Y-16125936D01*
X15348563Y-16125936D02*
X15339039Y-16106888D01*
X15339039Y-16106888D02*
X15339039Y-16049746D01*
X15339039Y-16049746D02*
X15348563Y-16030698D01*
X15348563Y-16030698D02*
X15358087Y-16021174D01*
X15358087Y-16021174D02*
X15377134Y-16011650D01*
X15377134Y-16011650D02*
X15405706Y-16011650D01*
X15405706Y-16011650D02*
X15424753Y-16021174D01*
X15424753Y-16021174D02*
X15434277Y-16030698D01*
X15434277Y-16030698D02*
X15443801Y-16049746D01*
X15443801Y-16049746D02*
X15443801Y-16106888D01*
X15443801Y-16106888D02*
X15434277Y-16125936D01*
X15434277Y-16125936D02*
X15424753Y-16135460D01*
X15424753Y-16135460D02*
X15405706Y-16144984D01*
X15405706Y-16144984D02*
X15377134Y-16144984D01*
X15558087Y-16144984D02*
X15539039Y-16135460D01*
X15539039Y-16135460D02*
X15529515Y-16116412D01*
X15529515Y-16116412D02*
X15529515Y-15944984D01*
X15710468Y-16135460D02*
X15691420Y-16144984D01*
X15691420Y-16144984D02*
X15653325Y-16144984D01*
X15653325Y-16144984D02*
X15634277Y-16135460D01*
X15634277Y-16135460D02*
X15624753Y-16116412D01*
X15624753Y-16116412D02*
X15624753Y-16040222D01*
X15624753Y-16040222D02*
X15634277Y-16021174D01*
X15634277Y-16021174D02*
X15653325Y-16011650D01*
X15653325Y-16011650D02*
X15691420Y-16011650D01*
X15691420Y-16011650D02*
X15710468Y-16021174D01*
X15710468Y-16021174D02*
X15719991Y-16040222D01*
X15719991Y-16040222D02*
X15719991Y-16059269D01*
X15719991Y-16059269D02*
X15624753Y-16078317D01*
X15796182Y-16135460D02*
X15815230Y-16144984D01*
X15815230Y-16144984D02*
X15853325Y-16144984D01*
X15853325Y-16144984D02*
X15872372Y-16135460D01*
X15872372Y-16135460D02*
X15881896Y-16116412D01*
X15881896Y-16116412D02*
X15881896Y-16106888D01*
X15881896Y-16106888D02*
X15872372Y-16087841D01*
X15872372Y-16087841D02*
X15853325Y-16078317D01*
X15853325Y-16078317D02*
X15824753Y-16078317D01*
X15824753Y-16078317D02*
X15805706Y-16068793D01*
X15805706Y-16068793D02*
X15796182Y-16049746D01*
X15796182Y-16049746D02*
X15796182Y-16040222D01*
X15796182Y-16040222D02*
X15805706Y-16021174D01*
X15805706Y-16021174D02*
X15824753Y-16011650D01*
X15824753Y-16011650D02*
X15853325Y-16011650D01*
X15853325Y-16011650D02*
X15872372Y-16021174D01*
X15948563Y-16221174D02*
X15958087Y-16211650D01*
X15958087Y-16211650D02*
X15977134Y-16183079D01*
X15977134Y-16183079D02*
X15986658Y-16164031D01*
X15986658Y-16164031D02*
X15996182Y-16135460D01*
X15996182Y-16135460D02*
X16005706Y-16087841D01*
X16005706Y-16087841D02*
X16005706Y-16049746D01*
X16005706Y-16049746D02*
X15996182Y-16002127D01*
X15996182Y-16002127D02*
X15986658Y-15973555D01*
X15986658Y-15973555D02*
X15977134Y-15954508D01*
X15977134Y-15954508D02*
X15958087Y-15925936D01*
X15958087Y-15925936D02*
X15948563Y-15916412D01*
D13*
X11133500Y-16277500D02*
X11133500Y-16357500D01*
X11093500Y-16317500D02*
X11173500Y-16317500D01*
D12*
X11472372Y-16208984D02*
X11491420Y-16208984D01*
X11491420Y-16208984D02*
X11510467Y-16218508D01*
X11510467Y-16218508D02*
X11519991Y-16228031D01*
X11519991Y-16228031D02*
X11529515Y-16247079D01*
X11529515Y-16247079D02*
X11539039Y-16285174D01*
X11539039Y-16285174D02*
X11539039Y-16332793D01*
X11539039Y-16332793D02*
X11529515Y-16370888D01*
X11529515Y-16370888D02*
X11519991Y-16389936D01*
X11519991Y-16389936D02*
X11510467Y-16399460D01*
X11510467Y-16399460D02*
X11491420Y-16408984D01*
X11491420Y-16408984D02*
X11472372Y-16408984D01*
X11472372Y-16408984D02*
X11453324Y-16399460D01*
X11453324Y-16399460D02*
X11443801Y-16389936D01*
X11443801Y-16389936D02*
X11434277Y-16370888D01*
X11434277Y-16370888D02*
X11424753Y-16332793D01*
X11424753Y-16332793D02*
X11424753Y-16285174D01*
X11424753Y-16285174D02*
X11434277Y-16247079D01*
X11434277Y-16247079D02*
X11443801Y-16228031D01*
X11443801Y-16228031D02*
X11453324Y-16218508D01*
X11453324Y-16218508D02*
X11472372Y-16208984D01*
X11624753Y-16389936D02*
X11634277Y-16399460D01*
X11634277Y-16399460D02*
X11624753Y-16408984D01*
X11624753Y-16408984D02*
X11615229Y-16399460D01*
X11615229Y-16399460D02*
X11624753Y-16389936D01*
X11624753Y-16389936D02*
X11624753Y-16408984D01*
X11748562Y-16294698D02*
X11729515Y-16285174D01*
X11729515Y-16285174D02*
X11719991Y-16275650D01*
X11719991Y-16275650D02*
X11710467Y-16256603D01*
X11710467Y-16256603D02*
X11710467Y-16247079D01*
X11710467Y-16247079D02*
X11719991Y-16228031D01*
X11719991Y-16228031D02*
X11729515Y-16218508D01*
X11729515Y-16218508D02*
X11748562Y-16208984D01*
X11748562Y-16208984D02*
X11786658Y-16208984D01*
X11786658Y-16208984D02*
X11805705Y-16218508D01*
X11805705Y-16218508D02*
X11815229Y-16228031D01*
X11815229Y-16228031D02*
X11824753Y-16247079D01*
X11824753Y-16247079D02*
X11824753Y-16256603D01*
X11824753Y-16256603D02*
X11815229Y-16275650D01*
X11815229Y-16275650D02*
X11805705Y-16285174D01*
X11805705Y-16285174D02*
X11786658Y-16294698D01*
X11786658Y-16294698D02*
X11748562Y-16294698D01*
X11748562Y-16294698D02*
X11729515Y-16304222D01*
X11729515Y-16304222D02*
X11719991Y-16313746D01*
X11719991Y-16313746D02*
X11710467Y-16332793D01*
X11710467Y-16332793D02*
X11710467Y-16370888D01*
X11710467Y-16370888D02*
X11719991Y-16389936D01*
X11719991Y-16389936D02*
X11729515Y-16399460D01*
X11729515Y-16399460D02*
X11748562Y-16408984D01*
X11748562Y-16408984D02*
X11786658Y-16408984D01*
X11786658Y-16408984D02*
X11805705Y-16399460D01*
X11805705Y-16399460D02*
X11815229Y-16389936D01*
X11815229Y-16389936D02*
X11824753Y-16370888D01*
X11824753Y-16370888D02*
X11824753Y-16332793D01*
X11824753Y-16332793D02*
X11815229Y-16313746D01*
X11815229Y-16313746D02*
X11805705Y-16304222D01*
X11805705Y-16304222D02*
X11786658Y-16294698D01*
X11948562Y-16208984D02*
X11967610Y-16208984D01*
X11967610Y-16208984D02*
X11986658Y-16218508D01*
X11986658Y-16218508D02*
X11996182Y-16228031D01*
X11996182Y-16228031D02*
X12005705Y-16247079D01*
X12005705Y-16247079D02*
X12015229Y-16285174D01*
X12015229Y-16285174D02*
X12015229Y-16332793D01*
X12015229Y-16332793D02*
X12005705Y-16370888D01*
X12005705Y-16370888D02*
X11996182Y-16389936D01*
X11996182Y-16389936D02*
X11986658Y-16399460D01*
X11986658Y-16399460D02*
X11967610Y-16408984D01*
X11967610Y-16408984D02*
X11948562Y-16408984D01*
X11948562Y-16408984D02*
X11929515Y-16399460D01*
X11929515Y-16399460D02*
X11919991Y-16389936D01*
X11919991Y-16389936D02*
X11910467Y-16370888D01*
X11910467Y-16370888D02*
X11900943Y-16332793D01*
X11900943Y-16332793D02*
X11900943Y-16285174D01*
X11900943Y-16285174D02*
X11910467Y-16247079D01*
X11910467Y-16247079D02*
X11919991Y-16228031D01*
X11919991Y-16228031D02*
X11929515Y-16218508D01*
X11929515Y-16218508D02*
X11948562Y-16208984D01*
X12139039Y-16208984D02*
X12158086Y-16208984D01*
X12158086Y-16208984D02*
X12177134Y-16218508D01*
X12177134Y-16218508D02*
X12186658Y-16228031D01*
X12186658Y-16228031D02*
X12196182Y-16247079D01*
X12196182Y-16247079D02*
X12205705Y-16285174D01*
X12205705Y-16285174D02*
X12205705Y-16332793D01*
X12205705Y-16332793D02*
X12196182Y-16370888D01*
X12196182Y-16370888D02*
X12186658Y-16389936D01*
X12186658Y-16389936D02*
X12177134Y-16399460D01*
X12177134Y-16399460D02*
X12158086Y-16408984D01*
X12158086Y-16408984D02*
X12139039Y-16408984D01*
X12139039Y-16408984D02*
X12119991Y-16399460D01*
X12119991Y-16399460D02*
X12110467Y-16389936D01*
X12110467Y-16389936D02*
X12100943Y-16370888D01*
X12100943Y-16370888D02*
X12091420Y-16332793D01*
X12091420Y-16332793D02*
X12091420Y-16285174D01*
X12091420Y-16285174D02*
X12100943Y-16247079D01*
X12100943Y-16247079D02*
X12110467Y-16228031D01*
X12110467Y-16228031D02*
X12119991Y-16218508D01*
X12119991Y-16218508D02*
X12139039Y-16208984D01*
X12291420Y-16408984D02*
X12291420Y-16275650D01*
X12291420Y-16294698D02*
X12300943Y-16285174D01*
X12300943Y-16285174D02*
X12319991Y-16275650D01*
X12319991Y-16275650D02*
X12348563Y-16275650D01*
X12348563Y-16275650D02*
X12367610Y-16285174D01*
X12367610Y-16285174D02*
X12377134Y-16304222D01*
X12377134Y-16304222D02*
X12377134Y-16408984D01*
X12377134Y-16304222D02*
X12386658Y-16285174D01*
X12386658Y-16285174D02*
X12405705Y-16275650D01*
X12405705Y-16275650D02*
X12434277Y-16275650D01*
X12434277Y-16275650D02*
X12453324Y-16285174D01*
X12453324Y-16285174D02*
X12462848Y-16304222D01*
X12462848Y-16304222D02*
X12462848Y-16408984D01*
X12558086Y-16408984D02*
X12558086Y-16275650D01*
X12558086Y-16294698D02*
X12567610Y-16285174D01*
X12567610Y-16285174D02*
X12586658Y-16275650D01*
X12586658Y-16275650D02*
X12615229Y-16275650D01*
X12615229Y-16275650D02*
X12634277Y-16285174D01*
X12634277Y-16285174D02*
X12643801Y-16304222D01*
X12643801Y-16304222D02*
X12643801Y-16408984D01*
X12643801Y-16304222D02*
X12653324Y-16285174D01*
X12653324Y-16285174D02*
X12672372Y-16275650D01*
X12672372Y-16275650D02*
X12700943Y-16275650D01*
X12700943Y-16275650D02*
X12719991Y-16285174D01*
X12719991Y-16285174D02*
X12729515Y-16304222D01*
X12729515Y-16304222D02*
X12729515Y-16408984D01*
X13119991Y-16199460D02*
X12948563Y-16456603D01*
X13377134Y-16208984D02*
X13396182Y-16208984D01*
X13396182Y-16208984D02*
X13415229Y-16218508D01*
X13415229Y-16218508D02*
X13424753Y-16228031D01*
X13424753Y-16228031D02*
X13434277Y-16247079D01*
X13434277Y-16247079D02*
X13443801Y-16285174D01*
X13443801Y-16285174D02*
X13443801Y-16332793D01*
X13443801Y-16332793D02*
X13434277Y-16370888D01*
X13434277Y-16370888D02*
X13424753Y-16389936D01*
X13424753Y-16389936D02*
X13415229Y-16399460D01*
X13415229Y-16399460D02*
X13396182Y-16408984D01*
X13396182Y-16408984D02*
X13377134Y-16408984D01*
X13377134Y-16408984D02*
X13358086Y-16399460D01*
X13358086Y-16399460D02*
X13348563Y-16389936D01*
X13348563Y-16389936D02*
X13339039Y-16370888D01*
X13339039Y-16370888D02*
X13329515Y-16332793D01*
X13329515Y-16332793D02*
X13329515Y-16285174D01*
X13329515Y-16285174D02*
X13339039Y-16247079D01*
X13339039Y-16247079D02*
X13348563Y-16228031D01*
X13348563Y-16228031D02*
X13358086Y-16218508D01*
X13358086Y-16218508D02*
X13377134Y-16208984D01*
X13529515Y-16389936D02*
X13539039Y-16399460D01*
X13539039Y-16399460D02*
X13529515Y-16408984D01*
X13529515Y-16408984D02*
X13519991Y-16399460D01*
X13519991Y-16399460D02*
X13529515Y-16389936D01*
X13529515Y-16389936D02*
X13529515Y-16408984D01*
X13662848Y-16208984D02*
X13681896Y-16208984D01*
X13681896Y-16208984D02*
X13700944Y-16218508D01*
X13700944Y-16218508D02*
X13710467Y-16228031D01*
X13710467Y-16228031D02*
X13719991Y-16247079D01*
X13719991Y-16247079D02*
X13729515Y-16285174D01*
X13729515Y-16285174D02*
X13729515Y-16332793D01*
X13729515Y-16332793D02*
X13719991Y-16370888D01*
X13719991Y-16370888D02*
X13710467Y-16389936D01*
X13710467Y-16389936D02*
X13700944Y-16399460D01*
X13700944Y-16399460D02*
X13681896Y-16408984D01*
X13681896Y-16408984D02*
X13662848Y-16408984D01*
X13662848Y-16408984D02*
X13643801Y-16399460D01*
X13643801Y-16399460D02*
X13634277Y-16389936D01*
X13634277Y-16389936D02*
X13624753Y-16370888D01*
X13624753Y-16370888D02*
X13615229Y-16332793D01*
X13615229Y-16332793D02*
X13615229Y-16285174D01*
X13615229Y-16285174D02*
X13624753Y-16247079D01*
X13624753Y-16247079D02*
X13634277Y-16228031D01*
X13634277Y-16228031D02*
X13643801Y-16218508D01*
X13643801Y-16218508D02*
X13662848Y-16208984D01*
X13796182Y-16208984D02*
X13919991Y-16208984D01*
X13919991Y-16208984D02*
X13853325Y-16285174D01*
X13853325Y-16285174D02*
X13881896Y-16285174D01*
X13881896Y-16285174D02*
X13900944Y-16294698D01*
X13900944Y-16294698D02*
X13910467Y-16304222D01*
X13910467Y-16304222D02*
X13919991Y-16323269D01*
X13919991Y-16323269D02*
X13919991Y-16370888D01*
X13919991Y-16370888D02*
X13910467Y-16389936D01*
X13910467Y-16389936D02*
X13900944Y-16399460D01*
X13900944Y-16399460D02*
X13881896Y-16408984D01*
X13881896Y-16408984D02*
X13824753Y-16408984D01*
X13824753Y-16408984D02*
X13805706Y-16399460D01*
X13805706Y-16399460D02*
X13796182Y-16389936D01*
X14110467Y-16408984D02*
X13996182Y-16408984D01*
X14053325Y-16408984D02*
X14053325Y-16208984D01*
X14053325Y-16208984D02*
X14034277Y-16237555D01*
X14034277Y-16237555D02*
X14015229Y-16256603D01*
X14015229Y-16256603D02*
X13996182Y-16266127D01*
X14291420Y-16208984D02*
X14196182Y-16208984D01*
X14196182Y-16208984D02*
X14186658Y-16304222D01*
X14186658Y-16304222D02*
X14196182Y-16294698D01*
X14196182Y-16294698D02*
X14215229Y-16285174D01*
X14215229Y-16285174D02*
X14262848Y-16285174D01*
X14262848Y-16285174D02*
X14281896Y-16294698D01*
X14281896Y-16294698D02*
X14291420Y-16304222D01*
X14291420Y-16304222D02*
X14300944Y-16323269D01*
X14300944Y-16323269D02*
X14300944Y-16370888D01*
X14300944Y-16370888D02*
X14291420Y-16389936D01*
X14291420Y-16389936D02*
X14281896Y-16399460D01*
X14281896Y-16399460D02*
X14262848Y-16408984D01*
X14262848Y-16408984D02*
X14215229Y-16408984D01*
X14215229Y-16408984D02*
X14196182Y-16399460D01*
X14196182Y-16399460D02*
X14186658Y-16389936D01*
X14377134Y-16208984D02*
X14377134Y-16247079D01*
X14453325Y-16208984D02*
X14453325Y-16247079D01*
X14748563Y-16485174D02*
X14739039Y-16475650D01*
X14739039Y-16475650D02*
X14719991Y-16447079D01*
X14719991Y-16447079D02*
X14710468Y-16428031D01*
X14710468Y-16428031D02*
X14700944Y-16399460D01*
X14700944Y-16399460D02*
X14691420Y-16351841D01*
X14691420Y-16351841D02*
X14691420Y-16313746D01*
X14691420Y-16313746D02*
X14700944Y-16266127D01*
X14700944Y-16266127D02*
X14710468Y-16237555D01*
X14710468Y-16237555D02*
X14719991Y-16218508D01*
X14719991Y-16218508D02*
X14739039Y-16189936D01*
X14739039Y-16189936D02*
X14748563Y-16180412D01*
X14919991Y-16208984D02*
X14824753Y-16208984D01*
X14824753Y-16208984D02*
X14815229Y-16304222D01*
X14815229Y-16304222D02*
X14824753Y-16294698D01*
X14824753Y-16294698D02*
X14843801Y-16285174D01*
X14843801Y-16285174D02*
X14891420Y-16285174D01*
X14891420Y-16285174D02*
X14910468Y-16294698D01*
X14910468Y-16294698D02*
X14919991Y-16304222D01*
X14919991Y-16304222D02*
X14929515Y-16323269D01*
X14929515Y-16323269D02*
X14929515Y-16370888D01*
X14929515Y-16370888D02*
X14919991Y-16389936D01*
X14919991Y-16389936D02*
X14910468Y-16399460D01*
X14910468Y-16399460D02*
X14891420Y-16408984D01*
X14891420Y-16408984D02*
X14843801Y-16408984D01*
X14843801Y-16408984D02*
X14824753Y-16399460D01*
X14824753Y-16399460D02*
X14815229Y-16389936D01*
X15167610Y-16408984D02*
X15167610Y-16208984D01*
X15253325Y-16408984D02*
X15253325Y-16304222D01*
X15253325Y-16304222D02*
X15243801Y-16285174D01*
X15243801Y-16285174D02*
X15224753Y-16275650D01*
X15224753Y-16275650D02*
X15196182Y-16275650D01*
X15196182Y-16275650D02*
X15177134Y-16285174D01*
X15177134Y-16285174D02*
X15167610Y-16294698D01*
X15377134Y-16408984D02*
X15358087Y-16399460D01*
X15358087Y-16399460D02*
X15348563Y-16389936D01*
X15348563Y-16389936D02*
X15339039Y-16370888D01*
X15339039Y-16370888D02*
X15339039Y-16313746D01*
X15339039Y-16313746D02*
X15348563Y-16294698D01*
X15348563Y-16294698D02*
X15358087Y-16285174D01*
X15358087Y-16285174D02*
X15377134Y-16275650D01*
X15377134Y-16275650D02*
X15405706Y-16275650D01*
X15405706Y-16275650D02*
X15424753Y-16285174D01*
X15424753Y-16285174D02*
X15434277Y-16294698D01*
X15434277Y-16294698D02*
X15443801Y-16313746D01*
X15443801Y-16313746D02*
X15443801Y-16370888D01*
X15443801Y-16370888D02*
X15434277Y-16389936D01*
X15434277Y-16389936D02*
X15424753Y-16399460D01*
X15424753Y-16399460D02*
X15405706Y-16408984D01*
X15405706Y-16408984D02*
X15377134Y-16408984D01*
X15558087Y-16408984D02*
X15539039Y-16399460D01*
X15539039Y-16399460D02*
X15529515Y-16380412D01*
X15529515Y-16380412D02*
X15529515Y-16208984D01*
X15710468Y-16399460D02*
X15691420Y-16408984D01*
X15691420Y-16408984D02*
X15653325Y-16408984D01*
X15653325Y-16408984D02*
X15634277Y-16399460D01*
X15634277Y-16399460D02*
X15624753Y-16380412D01*
X15624753Y-16380412D02*
X15624753Y-16304222D01*
X15624753Y-16304222D02*
X15634277Y-16285174D01*
X15634277Y-16285174D02*
X15653325Y-16275650D01*
X15653325Y-16275650D02*
X15691420Y-16275650D01*
X15691420Y-16275650D02*
X15710468Y-16285174D01*
X15710468Y-16285174D02*
X15719991Y-16304222D01*
X15719991Y-16304222D02*
X15719991Y-16323269D01*
X15719991Y-16323269D02*
X15624753Y-16342317D01*
X15796182Y-16399460D02*
X15815230Y-16408984D01*
X15815230Y-16408984D02*
X15853325Y-16408984D01*
X15853325Y-16408984D02*
X15872372Y-16399460D01*
X15872372Y-16399460D02*
X15881896Y-16380412D01*
X15881896Y-16380412D02*
X15881896Y-16370888D01*
X15881896Y-16370888D02*
X15872372Y-16351841D01*
X15872372Y-16351841D02*
X15853325Y-16342317D01*
X15853325Y-16342317D02*
X15824753Y-16342317D01*
X15824753Y-16342317D02*
X15805706Y-16332793D01*
X15805706Y-16332793D02*
X15796182Y-16313746D01*
X15796182Y-16313746D02*
X15796182Y-16304222D01*
X15796182Y-16304222D02*
X15805706Y-16285174D01*
X15805706Y-16285174D02*
X15824753Y-16275650D01*
X15824753Y-16275650D02*
X15853325Y-16275650D01*
X15853325Y-16275650D02*
X15872372Y-16285174D01*
X15948563Y-16485174D02*
X15958087Y-16475650D01*
X15958087Y-16475650D02*
X15977134Y-16447079D01*
X15977134Y-16447079D02*
X15986658Y-16428031D01*
X15986658Y-16428031D02*
X15996182Y-16399460D01*
X15996182Y-16399460D02*
X16005706Y-16351841D01*
X16005706Y-16351841D02*
X16005706Y-16313746D01*
X16005706Y-16313746D02*
X15996182Y-16266127D01*
X15996182Y-16266127D02*
X15986658Y-16237555D01*
X15986658Y-16237555D02*
X15977134Y-16218508D01*
X15977134Y-16218508D02*
X15958087Y-16189936D01*
X15958087Y-16189936D02*
X15948563Y-16180412D01*
D13*
X11158993Y-16616523D02*
X11158993Y-16546477D01*
X11088947Y-16546477D01*
X11088947Y-16616523D01*
X11158993Y-16616523D01*
D12*
X11472372Y-16472984D02*
X11491420Y-16472984D01*
X11491420Y-16472984D02*
X11510467Y-16482508D01*
X11510467Y-16482508D02*
X11519991Y-16492031D01*
X11519991Y-16492031D02*
X11529515Y-16511079D01*
X11529515Y-16511079D02*
X11539039Y-16549174D01*
X11539039Y-16549174D02*
X11539039Y-16596793D01*
X11539039Y-16596793D02*
X11529515Y-16634888D01*
X11529515Y-16634888D02*
X11519991Y-16653936D01*
X11519991Y-16653936D02*
X11510467Y-16663460D01*
X11510467Y-16663460D02*
X11491420Y-16672984D01*
X11491420Y-16672984D02*
X11472372Y-16672984D01*
X11472372Y-16672984D02*
X11453324Y-16663460D01*
X11453324Y-16663460D02*
X11443801Y-16653936D01*
X11443801Y-16653936D02*
X11434277Y-16634888D01*
X11434277Y-16634888D02*
X11424753Y-16596793D01*
X11424753Y-16596793D02*
X11424753Y-16549174D01*
X11424753Y-16549174D02*
X11434277Y-16511079D01*
X11434277Y-16511079D02*
X11443801Y-16492031D01*
X11443801Y-16492031D02*
X11453324Y-16482508D01*
X11453324Y-16482508D02*
X11472372Y-16472984D01*
X11624753Y-16653936D02*
X11634277Y-16663460D01*
X11634277Y-16663460D02*
X11624753Y-16672984D01*
X11624753Y-16672984D02*
X11615229Y-16663460D01*
X11615229Y-16663460D02*
X11624753Y-16653936D01*
X11624753Y-16653936D02*
X11624753Y-16672984D01*
X11729515Y-16672984D02*
X11767610Y-16672984D01*
X11767610Y-16672984D02*
X11786658Y-16663460D01*
X11786658Y-16663460D02*
X11796182Y-16653936D01*
X11796182Y-16653936D02*
X11815229Y-16625365D01*
X11815229Y-16625365D02*
X11824753Y-16587269D01*
X11824753Y-16587269D02*
X11824753Y-16511079D01*
X11824753Y-16511079D02*
X11815229Y-16492031D01*
X11815229Y-16492031D02*
X11805705Y-16482508D01*
X11805705Y-16482508D02*
X11786658Y-16472984D01*
X11786658Y-16472984D02*
X11748562Y-16472984D01*
X11748562Y-16472984D02*
X11729515Y-16482508D01*
X11729515Y-16482508D02*
X11719991Y-16492031D01*
X11719991Y-16492031D02*
X11710467Y-16511079D01*
X11710467Y-16511079D02*
X11710467Y-16558698D01*
X11710467Y-16558698D02*
X11719991Y-16577746D01*
X11719991Y-16577746D02*
X11729515Y-16587269D01*
X11729515Y-16587269D02*
X11748562Y-16596793D01*
X11748562Y-16596793D02*
X11786658Y-16596793D01*
X11786658Y-16596793D02*
X11805705Y-16587269D01*
X11805705Y-16587269D02*
X11815229Y-16577746D01*
X11815229Y-16577746D02*
X11824753Y-16558698D01*
X11919991Y-16672984D02*
X11958086Y-16672984D01*
X11958086Y-16672984D02*
X11977134Y-16663460D01*
X11977134Y-16663460D02*
X11986658Y-16653936D01*
X11986658Y-16653936D02*
X12005705Y-16625365D01*
X12005705Y-16625365D02*
X12015229Y-16587269D01*
X12015229Y-16587269D02*
X12015229Y-16511079D01*
X12015229Y-16511079D02*
X12005705Y-16492031D01*
X12005705Y-16492031D02*
X11996182Y-16482508D01*
X11996182Y-16482508D02*
X11977134Y-16472984D01*
X11977134Y-16472984D02*
X11939039Y-16472984D01*
X11939039Y-16472984D02*
X11919991Y-16482508D01*
X11919991Y-16482508D02*
X11910467Y-16492031D01*
X11910467Y-16492031D02*
X11900943Y-16511079D01*
X11900943Y-16511079D02*
X11900943Y-16558698D01*
X11900943Y-16558698D02*
X11910467Y-16577746D01*
X11910467Y-16577746D02*
X11919991Y-16587269D01*
X11919991Y-16587269D02*
X11939039Y-16596793D01*
X11939039Y-16596793D02*
X11977134Y-16596793D01*
X11977134Y-16596793D02*
X11996182Y-16587269D01*
X11996182Y-16587269D02*
X12005705Y-16577746D01*
X12005705Y-16577746D02*
X12015229Y-16558698D01*
X12205705Y-16672984D02*
X12091420Y-16672984D01*
X12148562Y-16672984D02*
X12148562Y-16472984D01*
X12148562Y-16472984D02*
X12129515Y-16501555D01*
X12129515Y-16501555D02*
X12110467Y-16520603D01*
X12110467Y-16520603D02*
X12091420Y-16530127D01*
X12291420Y-16672984D02*
X12291420Y-16539650D01*
X12291420Y-16558698D02*
X12300943Y-16549174D01*
X12300943Y-16549174D02*
X12319991Y-16539650D01*
X12319991Y-16539650D02*
X12348563Y-16539650D01*
X12348563Y-16539650D02*
X12367610Y-16549174D01*
X12367610Y-16549174D02*
X12377134Y-16568222D01*
X12377134Y-16568222D02*
X12377134Y-16672984D01*
X12377134Y-16568222D02*
X12386658Y-16549174D01*
X12386658Y-16549174D02*
X12405705Y-16539650D01*
X12405705Y-16539650D02*
X12434277Y-16539650D01*
X12434277Y-16539650D02*
X12453324Y-16549174D01*
X12453324Y-16549174D02*
X12462848Y-16568222D01*
X12462848Y-16568222D02*
X12462848Y-16672984D01*
X12558086Y-16672984D02*
X12558086Y-16539650D01*
X12558086Y-16558698D02*
X12567610Y-16549174D01*
X12567610Y-16549174D02*
X12586658Y-16539650D01*
X12586658Y-16539650D02*
X12615229Y-16539650D01*
X12615229Y-16539650D02*
X12634277Y-16549174D01*
X12634277Y-16549174D02*
X12643801Y-16568222D01*
X12643801Y-16568222D02*
X12643801Y-16672984D01*
X12643801Y-16568222D02*
X12653324Y-16549174D01*
X12653324Y-16549174D02*
X12672372Y-16539650D01*
X12672372Y-16539650D02*
X12700943Y-16539650D01*
X12700943Y-16539650D02*
X12719991Y-16549174D01*
X12719991Y-16549174D02*
X12729515Y-16568222D01*
X12729515Y-16568222D02*
X12729515Y-16672984D01*
X13119991Y-16463460D02*
X12948563Y-16720603D01*
X13377134Y-16472984D02*
X13396182Y-16472984D01*
X13396182Y-16472984D02*
X13415229Y-16482508D01*
X13415229Y-16482508D02*
X13424753Y-16492031D01*
X13424753Y-16492031D02*
X13434277Y-16511079D01*
X13434277Y-16511079D02*
X13443801Y-16549174D01*
X13443801Y-16549174D02*
X13443801Y-16596793D01*
X13443801Y-16596793D02*
X13434277Y-16634888D01*
X13434277Y-16634888D02*
X13424753Y-16653936D01*
X13424753Y-16653936D02*
X13415229Y-16663460D01*
X13415229Y-16663460D02*
X13396182Y-16672984D01*
X13396182Y-16672984D02*
X13377134Y-16672984D01*
X13377134Y-16672984D02*
X13358086Y-16663460D01*
X13358086Y-16663460D02*
X13348563Y-16653936D01*
X13348563Y-16653936D02*
X13339039Y-16634888D01*
X13339039Y-16634888D02*
X13329515Y-16596793D01*
X13329515Y-16596793D02*
X13329515Y-16549174D01*
X13329515Y-16549174D02*
X13339039Y-16511079D01*
X13339039Y-16511079D02*
X13348563Y-16492031D01*
X13348563Y-16492031D02*
X13358086Y-16482508D01*
X13358086Y-16482508D02*
X13377134Y-16472984D01*
X13529515Y-16653936D02*
X13539039Y-16663460D01*
X13539039Y-16663460D02*
X13529515Y-16672984D01*
X13529515Y-16672984D02*
X13519991Y-16663460D01*
X13519991Y-16663460D02*
X13529515Y-16653936D01*
X13529515Y-16653936D02*
X13529515Y-16672984D01*
X13662848Y-16472984D02*
X13681896Y-16472984D01*
X13681896Y-16472984D02*
X13700944Y-16482508D01*
X13700944Y-16482508D02*
X13710467Y-16492031D01*
X13710467Y-16492031D02*
X13719991Y-16511079D01*
X13719991Y-16511079D02*
X13729515Y-16549174D01*
X13729515Y-16549174D02*
X13729515Y-16596793D01*
X13729515Y-16596793D02*
X13719991Y-16634888D01*
X13719991Y-16634888D02*
X13710467Y-16653936D01*
X13710467Y-16653936D02*
X13700944Y-16663460D01*
X13700944Y-16663460D02*
X13681896Y-16672984D01*
X13681896Y-16672984D02*
X13662848Y-16672984D01*
X13662848Y-16672984D02*
X13643801Y-16663460D01*
X13643801Y-16663460D02*
X13634277Y-16653936D01*
X13634277Y-16653936D02*
X13624753Y-16634888D01*
X13624753Y-16634888D02*
X13615229Y-16596793D01*
X13615229Y-16596793D02*
X13615229Y-16549174D01*
X13615229Y-16549174D02*
X13624753Y-16511079D01*
X13624753Y-16511079D02*
X13634277Y-16492031D01*
X13634277Y-16492031D02*
X13643801Y-16482508D01*
X13643801Y-16482508D02*
X13662848Y-16472984D01*
X13796182Y-16472984D02*
X13919991Y-16472984D01*
X13919991Y-16472984D02*
X13853325Y-16549174D01*
X13853325Y-16549174D02*
X13881896Y-16549174D01*
X13881896Y-16549174D02*
X13900944Y-16558698D01*
X13900944Y-16558698D02*
X13910467Y-16568222D01*
X13910467Y-16568222D02*
X13919991Y-16587269D01*
X13919991Y-16587269D02*
X13919991Y-16634888D01*
X13919991Y-16634888D02*
X13910467Y-16653936D01*
X13910467Y-16653936D02*
X13900944Y-16663460D01*
X13900944Y-16663460D02*
X13881896Y-16672984D01*
X13881896Y-16672984D02*
X13824753Y-16672984D01*
X13824753Y-16672984D02*
X13805706Y-16663460D01*
X13805706Y-16663460D02*
X13796182Y-16653936D01*
X14015229Y-16672984D02*
X14053325Y-16672984D01*
X14053325Y-16672984D02*
X14072372Y-16663460D01*
X14072372Y-16663460D02*
X14081896Y-16653936D01*
X14081896Y-16653936D02*
X14100944Y-16625365D01*
X14100944Y-16625365D02*
X14110467Y-16587269D01*
X14110467Y-16587269D02*
X14110467Y-16511079D01*
X14110467Y-16511079D02*
X14100944Y-16492031D01*
X14100944Y-16492031D02*
X14091420Y-16482508D01*
X14091420Y-16482508D02*
X14072372Y-16472984D01*
X14072372Y-16472984D02*
X14034277Y-16472984D01*
X14034277Y-16472984D02*
X14015229Y-16482508D01*
X14015229Y-16482508D02*
X14005706Y-16492031D01*
X14005706Y-16492031D02*
X13996182Y-16511079D01*
X13996182Y-16511079D02*
X13996182Y-16558698D01*
X13996182Y-16558698D02*
X14005706Y-16577746D01*
X14005706Y-16577746D02*
X14015229Y-16587269D01*
X14015229Y-16587269D02*
X14034277Y-16596793D01*
X14034277Y-16596793D02*
X14072372Y-16596793D01*
X14072372Y-16596793D02*
X14091420Y-16587269D01*
X14091420Y-16587269D02*
X14100944Y-16577746D01*
X14100944Y-16577746D02*
X14110467Y-16558698D01*
X14234277Y-16472984D02*
X14253325Y-16472984D01*
X14253325Y-16472984D02*
X14272372Y-16482508D01*
X14272372Y-16482508D02*
X14281896Y-16492031D01*
X14281896Y-16492031D02*
X14291420Y-16511079D01*
X14291420Y-16511079D02*
X14300944Y-16549174D01*
X14300944Y-16549174D02*
X14300944Y-16596793D01*
X14300944Y-16596793D02*
X14291420Y-16634888D01*
X14291420Y-16634888D02*
X14281896Y-16653936D01*
X14281896Y-16653936D02*
X14272372Y-16663460D01*
X14272372Y-16663460D02*
X14253325Y-16672984D01*
X14253325Y-16672984D02*
X14234277Y-16672984D01*
X14234277Y-16672984D02*
X14215229Y-16663460D01*
X14215229Y-16663460D02*
X14205706Y-16653936D01*
X14205706Y-16653936D02*
X14196182Y-16634888D01*
X14196182Y-16634888D02*
X14186658Y-16596793D01*
X14186658Y-16596793D02*
X14186658Y-16549174D01*
X14186658Y-16549174D02*
X14196182Y-16511079D01*
X14196182Y-16511079D02*
X14205706Y-16492031D01*
X14205706Y-16492031D02*
X14215229Y-16482508D01*
X14215229Y-16482508D02*
X14234277Y-16472984D01*
X14377134Y-16472984D02*
X14377134Y-16511079D01*
X14453325Y-16472984D02*
X14453325Y-16511079D01*
X14748563Y-16749174D02*
X14739039Y-16739650D01*
X14739039Y-16739650D02*
X14719991Y-16711079D01*
X14719991Y-16711079D02*
X14710468Y-16692031D01*
X14710468Y-16692031D02*
X14700944Y-16663460D01*
X14700944Y-16663460D02*
X14691420Y-16615841D01*
X14691420Y-16615841D02*
X14691420Y-16577746D01*
X14691420Y-16577746D02*
X14700944Y-16530127D01*
X14700944Y-16530127D02*
X14710468Y-16501555D01*
X14710468Y-16501555D02*
X14719991Y-16482508D01*
X14719991Y-16482508D02*
X14739039Y-16453936D01*
X14739039Y-16453936D02*
X14748563Y-16444412D01*
X14815229Y-16492031D02*
X14824753Y-16482508D01*
X14824753Y-16482508D02*
X14843801Y-16472984D01*
X14843801Y-16472984D02*
X14891420Y-16472984D01*
X14891420Y-16472984D02*
X14910468Y-16482508D01*
X14910468Y-16482508D02*
X14919991Y-16492031D01*
X14919991Y-16492031D02*
X14929515Y-16511079D01*
X14929515Y-16511079D02*
X14929515Y-16530127D01*
X14929515Y-16530127D02*
X14919991Y-16558698D01*
X14919991Y-16558698D02*
X14805706Y-16672984D01*
X14805706Y-16672984D02*
X14929515Y-16672984D01*
X15167610Y-16672984D02*
X15167610Y-16472984D01*
X15253325Y-16672984D02*
X15253325Y-16568222D01*
X15253325Y-16568222D02*
X15243801Y-16549174D01*
X15243801Y-16549174D02*
X15224753Y-16539650D01*
X15224753Y-16539650D02*
X15196182Y-16539650D01*
X15196182Y-16539650D02*
X15177134Y-16549174D01*
X15177134Y-16549174D02*
X15167610Y-16558698D01*
X15377134Y-16672984D02*
X15358087Y-16663460D01*
X15358087Y-16663460D02*
X15348563Y-16653936D01*
X15348563Y-16653936D02*
X15339039Y-16634888D01*
X15339039Y-16634888D02*
X15339039Y-16577746D01*
X15339039Y-16577746D02*
X15348563Y-16558698D01*
X15348563Y-16558698D02*
X15358087Y-16549174D01*
X15358087Y-16549174D02*
X15377134Y-16539650D01*
X15377134Y-16539650D02*
X15405706Y-16539650D01*
X15405706Y-16539650D02*
X15424753Y-16549174D01*
X15424753Y-16549174D02*
X15434277Y-16558698D01*
X15434277Y-16558698D02*
X15443801Y-16577746D01*
X15443801Y-16577746D02*
X15443801Y-16634888D01*
X15443801Y-16634888D02*
X15434277Y-16653936D01*
X15434277Y-16653936D02*
X15424753Y-16663460D01*
X15424753Y-16663460D02*
X15405706Y-16672984D01*
X15405706Y-16672984D02*
X15377134Y-16672984D01*
X15558087Y-16672984D02*
X15539039Y-16663460D01*
X15539039Y-16663460D02*
X15529515Y-16644412D01*
X15529515Y-16644412D02*
X15529515Y-16472984D01*
X15710468Y-16663460D02*
X15691420Y-16672984D01*
X15691420Y-16672984D02*
X15653325Y-16672984D01*
X15653325Y-16672984D02*
X15634277Y-16663460D01*
X15634277Y-16663460D02*
X15624753Y-16644412D01*
X15624753Y-16644412D02*
X15624753Y-16568222D01*
X15624753Y-16568222D02*
X15634277Y-16549174D01*
X15634277Y-16549174D02*
X15653325Y-16539650D01*
X15653325Y-16539650D02*
X15691420Y-16539650D01*
X15691420Y-16539650D02*
X15710468Y-16549174D01*
X15710468Y-16549174D02*
X15719991Y-16568222D01*
X15719991Y-16568222D02*
X15719991Y-16587269D01*
X15719991Y-16587269D02*
X15624753Y-16606317D01*
X15796182Y-16663460D02*
X15815230Y-16672984D01*
X15815230Y-16672984D02*
X15853325Y-16672984D01*
X15853325Y-16672984D02*
X15872372Y-16663460D01*
X15872372Y-16663460D02*
X15881896Y-16644412D01*
X15881896Y-16644412D02*
X15881896Y-16634888D01*
X15881896Y-16634888D02*
X15872372Y-16615841D01*
X15872372Y-16615841D02*
X15853325Y-16606317D01*
X15853325Y-16606317D02*
X15824753Y-16606317D01*
X15824753Y-16606317D02*
X15805706Y-16596793D01*
X15805706Y-16596793D02*
X15796182Y-16577746D01*
X15796182Y-16577746D02*
X15796182Y-16568222D01*
X15796182Y-16568222D02*
X15805706Y-16549174D01*
X15805706Y-16549174D02*
X15824753Y-16539650D01*
X15824753Y-16539650D02*
X15853325Y-16539650D01*
X15853325Y-16539650D02*
X15872372Y-16549174D01*
X15948563Y-16749174D02*
X15958087Y-16739650D01*
X15958087Y-16739650D02*
X15977134Y-16711079D01*
X15977134Y-16711079D02*
X15986658Y-16692031D01*
X15986658Y-16692031D02*
X15996182Y-16663460D01*
X15996182Y-16663460D02*
X16005706Y-16615841D01*
X16005706Y-16615841D02*
X16005706Y-16577746D01*
X16005706Y-16577746D02*
X15996182Y-16530127D01*
X15996182Y-16530127D02*
X15986658Y-16501555D01*
X15986658Y-16501555D02*
X15977134Y-16482508D01*
X15977134Y-16482508D02*
X15958087Y-16453936D01*
X15958087Y-16453936D02*
X15948563Y-16444412D01*
D14*
X11120160Y-16898840D02*
X11173500Y-16845500D01*
X11120160Y-16792160D01*
X11066820Y-16845500D01*
X11120160Y-16898840D01*
D12*
X11539039Y-16936984D02*
X11424753Y-16936984D01*
X11481896Y-16936984D02*
X11481896Y-16736984D01*
X11481896Y-16736984D02*
X11462848Y-16765555D01*
X11462848Y-16765555D02*
X11443801Y-16784603D01*
X11443801Y-16784603D02*
X11424753Y-16794127D01*
X11624753Y-16917936D02*
X11634277Y-16927460D01*
X11634277Y-16927460D02*
X11624753Y-16936984D01*
X11624753Y-16936984D02*
X11615229Y-16927460D01*
X11615229Y-16927460D02*
X11624753Y-16917936D01*
X11624753Y-16917936D02*
X11624753Y-16936984D01*
X11758086Y-16736984D02*
X11777134Y-16736984D01*
X11777134Y-16736984D02*
X11796182Y-16746508D01*
X11796182Y-16746508D02*
X11805705Y-16756031D01*
X11805705Y-16756031D02*
X11815229Y-16775079D01*
X11815229Y-16775079D02*
X11824753Y-16813174D01*
X11824753Y-16813174D02*
X11824753Y-16860793D01*
X11824753Y-16860793D02*
X11815229Y-16898889D01*
X11815229Y-16898889D02*
X11805705Y-16917936D01*
X11805705Y-16917936D02*
X11796182Y-16927460D01*
X11796182Y-16927460D02*
X11777134Y-16936984D01*
X11777134Y-16936984D02*
X11758086Y-16936984D01*
X11758086Y-16936984D02*
X11739039Y-16927460D01*
X11739039Y-16927460D02*
X11729515Y-16917936D01*
X11729515Y-16917936D02*
X11719991Y-16898889D01*
X11719991Y-16898889D02*
X11710467Y-16860793D01*
X11710467Y-16860793D02*
X11710467Y-16813174D01*
X11710467Y-16813174D02*
X11719991Y-16775079D01*
X11719991Y-16775079D02*
X11729515Y-16756031D01*
X11729515Y-16756031D02*
X11739039Y-16746508D01*
X11739039Y-16746508D02*
X11758086Y-16736984D01*
X11996182Y-16736984D02*
X11958086Y-16736984D01*
X11958086Y-16736984D02*
X11939039Y-16746508D01*
X11939039Y-16746508D02*
X11929515Y-16756031D01*
X11929515Y-16756031D02*
X11910467Y-16784603D01*
X11910467Y-16784603D02*
X11900943Y-16822698D01*
X11900943Y-16822698D02*
X11900943Y-16898889D01*
X11900943Y-16898889D02*
X11910467Y-16917936D01*
X11910467Y-16917936D02*
X11919991Y-16927460D01*
X11919991Y-16927460D02*
X11939039Y-16936984D01*
X11939039Y-16936984D02*
X11977134Y-16936984D01*
X11977134Y-16936984D02*
X11996182Y-16927460D01*
X11996182Y-16927460D02*
X12005705Y-16917936D01*
X12005705Y-16917936D02*
X12015229Y-16898889D01*
X12015229Y-16898889D02*
X12015229Y-16851270D01*
X12015229Y-16851270D02*
X12005705Y-16832222D01*
X12005705Y-16832222D02*
X11996182Y-16822698D01*
X11996182Y-16822698D02*
X11977134Y-16813174D01*
X11977134Y-16813174D02*
X11939039Y-16813174D01*
X11939039Y-16813174D02*
X11919991Y-16822698D01*
X11919991Y-16822698D02*
X11910467Y-16832222D01*
X11910467Y-16832222D02*
X11900943Y-16851270D01*
X12081896Y-16736984D02*
X12215229Y-16736984D01*
X12215229Y-16736984D02*
X12129515Y-16936984D01*
X12291420Y-16936984D02*
X12291420Y-16803650D01*
X12291420Y-16822698D02*
X12300943Y-16813174D01*
X12300943Y-16813174D02*
X12319991Y-16803650D01*
X12319991Y-16803650D02*
X12348563Y-16803650D01*
X12348563Y-16803650D02*
X12367610Y-16813174D01*
X12367610Y-16813174D02*
X12377134Y-16832222D01*
X12377134Y-16832222D02*
X12377134Y-16936984D01*
X12377134Y-16832222D02*
X12386658Y-16813174D01*
X12386658Y-16813174D02*
X12405705Y-16803650D01*
X12405705Y-16803650D02*
X12434277Y-16803650D01*
X12434277Y-16803650D02*
X12453324Y-16813174D01*
X12453324Y-16813174D02*
X12462848Y-16832222D01*
X12462848Y-16832222D02*
X12462848Y-16936984D01*
X12558086Y-16936984D02*
X12558086Y-16803650D01*
X12558086Y-16822698D02*
X12567610Y-16813174D01*
X12567610Y-16813174D02*
X12586658Y-16803650D01*
X12586658Y-16803650D02*
X12615229Y-16803650D01*
X12615229Y-16803650D02*
X12634277Y-16813174D01*
X12634277Y-16813174D02*
X12643801Y-16832222D01*
X12643801Y-16832222D02*
X12643801Y-16936984D01*
X12643801Y-16832222D02*
X12653324Y-16813174D01*
X12653324Y-16813174D02*
X12672372Y-16803650D01*
X12672372Y-16803650D02*
X12700943Y-16803650D01*
X12700943Y-16803650D02*
X12719991Y-16813174D01*
X12719991Y-16813174D02*
X12729515Y-16832222D01*
X12729515Y-16832222D02*
X12729515Y-16936984D01*
X13119991Y-16727460D02*
X12948563Y-16984603D01*
X13377134Y-16736984D02*
X13396182Y-16736984D01*
X13396182Y-16736984D02*
X13415229Y-16746508D01*
X13415229Y-16746508D02*
X13424753Y-16756031D01*
X13424753Y-16756031D02*
X13434277Y-16775079D01*
X13434277Y-16775079D02*
X13443801Y-16813174D01*
X13443801Y-16813174D02*
X13443801Y-16860793D01*
X13443801Y-16860793D02*
X13434277Y-16898889D01*
X13434277Y-16898889D02*
X13424753Y-16917936D01*
X13424753Y-16917936D02*
X13415229Y-16927460D01*
X13415229Y-16927460D02*
X13396182Y-16936984D01*
X13396182Y-16936984D02*
X13377134Y-16936984D01*
X13377134Y-16936984D02*
X13358086Y-16927460D01*
X13358086Y-16927460D02*
X13348563Y-16917936D01*
X13348563Y-16917936D02*
X13339039Y-16898889D01*
X13339039Y-16898889D02*
X13329515Y-16860793D01*
X13329515Y-16860793D02*
X13329515Y-16813174D01*
X13329515Y-16813174D02*
X13339039Y-16775079D01*
X13339039Y-16775079D02*
X13348563Y-16756031D01*
X13348563Y-16756031D02*
X13358086Y-16746508D01*
X13358086Y-16746508D02*
X13377134Y-16736984D01*
X13529515Y-16917936D02*
X13539039Y-16927460D01*
X13539039Y-16927460D02*
X13529515Y-16936984D01*
X13529515Y-16936984D02*
X13519991Y-16927460D01*
X13519991Y-16927460D02*
X13529515Y-16917936D01*
X13529515Y-16917936D02*
X13529515Y-16936984D01*
X13662848Y-16736984D02*
X13681896Y-16736984D01*
X13681896Y-16736984D02*
X13700944Y-16746508D01*
X13700944Y-16746508D02*
X13710467Y-16756031D01*
X13710467Y-16756031D02*
X13719991Y-16775079D01*
X13719991Y-16775079D02*
X13729515Y-16813174D01*
X13729515Y-16813174D02*
X13729515Y-16860793D01*
X13729515Y-16860793D02*
X13719991Y-16898889D01*
X13719991Y-16898889D02*
X13710467Y-16917936D01*
X13710467Y-16917936D02*
X13700944Y-16927460D01*
X13700944Y-16927460D02*
X13681896Y-16936984D01*
X13681896Y-16936984D02*
X13662848Y-16936984D01*
X13662848Y-16936984D02*
X13643801Y-16927460D01*
X13643801Y-16927460D02*
X13634277Y-16917936D01*
X13634277Y-16917936D02*
X13624753Y-16898889D01*
X13624753Y-16898889D02*
X13615229Y-16860793D01*
X13615229Y-16860793D02*
X13615229Y-16813174D01*
X13615229Y-16813174D02*
X13624753Y-16775079D01*
X13624753Y-16775079D02*
X13634277Y-16756031D01*
X13634277Y-16756031D02*
X13643801Y-16746508D01*
X13643801Y-16746508D02*
X13662848Y-16736984D01*
X13900944Y-16803650D02*
X13900944Y-16936984D01*
X13853325Y-16727460D02*
X13805706Y-16870317D01*
X13805706Y-16870317D02*
X13929515Y-16870317D01*
X13996182Y-16756031D02*
X14005706Y-16746508D01*
X14005706Y-16746508D02*
X14024753Y-16736984D01*
X14024753Y-16736984D02*
X14072372Y-16736984D01*
X14072372Y-16736984D02*
X14091420Y-16746508D01*
X14091420Y-16746508D02*
X14100944Y-16756031D01*
X14100944Y-16756031D02*
X14110467Y-16775079D01*
X14110467Y-16775079D02*
X14110467Y-16794127D01*
X14110467Y-16794127D02*
X14100944Y-16822698D01*
X14100944Y-16822698D02*
X13986658Y-16936984D01*
X13986658Y-16936984D02*
X14110467Y-16936984D01*
X14234277Y-16736984D02*
X14253325Y-16736984D01*
X14253325Y-16736984D02*
X14272372Y-16746508D01*
X14272372Y-16746508D02*
X14281896Y-16756031D01*
X14281896Y-16756031D02*
X14291420Y-16775079D01*
X14291420Y-16775079D02*
X14300944Y-16813174D01*
X14300944Y-16813174D02*
X14300944Y-16860793D01*
X14300944Y-16860793D02*
X14291420Y-16898889D01*
X14291420Y-16898889D02*
X14281896Y-16917936D01*
X14281896Y-16917936D02*
X14272372Y-16927460D01*
X14272372Y-16927460D02*
X14253325Y-16936984D01*
X14253325Y-16936984D02*
X14234277Y-16936984D01*
X14234277Y-16936984D02*
X14215229Y-16927460D01*
X14215229Y-16927460D02*
X14205706Y-16917936D01*
X14205706Y-16917936D02*
X14196182Y-16898889D01*
X14196182Y-16898889D02*
X14186658Y-16860793D01*
X14186658Y-16860793D02*
X14186658Y-16813174D01*
X14186658Y-16813174D02*
X14196182Y-16775079D01*
X14196182Y-16775079D02*
X14205706Y-16756031D01*
X14205706Y-16756031D02*
X14215229Y-16746508D01*
X14215229Y-16746508D02*
X14234277Y-16736984D01*
X14377134Y-16736984D02*
X14377134Y-16775079D01*
X14453325Y-16736984D02*
X14453325Y-16775079D01*
X14748563Y-17013174D02*
X14739039Y-17003650D01*
X14739039Y-17003650D02*
X14719991Y-16975079D01*
X14719991Y-16975079D02*
X14710468Y-16956031D01*
X14710468Y-16956031D02*
X14700944Y-16927460D01*
X14700944Y-16927460D02*
X14691420Y-16879841D01*
X14691420Y-16879841D02*
X14691420Y-16841746D01*
X14691420Y-16841746D02*
X14700944Y-16794127D01*
X14700944Y-16794127D02*
X14710468Y-16765555D01*
X14710468Y-16765555D02*
X14719991Y-16746508D01*
X14719991Y-16746508D02*
X14739039Y-16717936D01*
X14739039Y-16717936D02*
X14748563Y-16708412D01*
X14929515Y-16936984D02*
X14815229Y-16936984D01*
X14872372Y-16936984D02*
X14872372Y-16736984D01*
X14872372Y-16736984D02*
X14853325Y-16765555D01*
X14853325Y-16765555D02*
X14834277Y-16784603D01*
X14834277Y-16784603D02*
X14815229Y-16794127D01*
X15043801Y-16822698D02*
X15024753Y-16813174D01*
X15024753Y-16813174D02*
X15015229Y-16803650D01*
X15015229Y-16803650D02*
X15005706Y-16784603D01*
X15005706Y-16784603D02*
X15005706Y-16775079D01*
X15005706Y-16775079D02*
X15015229Y-16756031D01*
X15015229Y-16756031D02*
X15024753Y-16746508D01*
X15024753Y-16746508D02*
X15043801Y-16736984D01*
X15043801Y-16736984D02*
X15081896Y-16736984D01*
X15081896Y-16736984D02*
X15100944Y-16746508D01*
X15100944Y-16746508D02*
X15110468Y-16756031D01*
X15110468Y-16756031D02*
X15119991Y-16775079D01*
X15119991Y-16775079D02*
X15119991Y-16784603D01*
X15119991Y-16784603D02*
X15110468Y-16803650D01*
X15110468Y-16803650D02*
X15100944Y-16813174D01*
X15100944Y-16813174D02*
X15081896Y-16822698D01*
X15081896Y-16822698D02*
X15043801Y-16822698D01*
X15043801Y-16822698D02*
X15024753Y-16832222D01*
X15024753Y-16832222D02*
X15015229Y-16841746D01*
X15015229Y-16841746D02*
X15005706Y-16860793D01*
X15005706Y-16860793D02*
X15005706Y-16898889D01*
X15005706Y-16898889D02*
X15015229Y-16917936D01*
X15015229Y-16917936D02*
X15024753Y-16927460D01*
X15024753Y-16927460D02*
X15043801Y-16936984D01*
X15043801Y-16936984D02*
X15081896Y-16936984D01*
X15081896Y-16936984D02*
X15100944Y-16927460D01*
X15100944Y-16927460D02*
X15110468Y-16917936D01*
X15110468Y-16917936D02*
X15119991Y-16898889D01*
X15119991Y-16898889D02*
X15119991Y-16860793D01*
X15119991Y-16860793D02*
X15110468Y-16841746D01*
X15110468Y-16841746D02*
X15100944Y-16832222D01*
X15100944Y-16832222D02*
X15081896Y-16822698D01*
X15358087Y-16936984D02*
X15358087Y-16736984D01*
X15443801Y-16936984D02*
X15443801Y-16832222D01*
X15443801Y-16832222D02*
X15434277Y-16813174D01*
X15434277Y-16813174D02*
X15415230Y-16803650D01*
X15415230Y-16803650D02*
X15386658Y-16803650D01*
X15386658Y-16803650D02*
X15367610Y-16813174D01*
X15367610Y-16813174D02*
X15358087Y-16822698D01*
X15567610Y-16936984D02*
X15548563Y-16927460D01*
X15548563Y-16927460D02*
X15539039Y-16917936D01*
X15539039Y-16917936D02*
X15529515Y-16898889D01*
X15529515Y-16898889D02*
X15529515Y-16841746D01*
X15529515Y-16841746D02*
X15539039Y-16822698D01*
X15539039Y-16822698D02*
X15548563Y-16813174D01*
X15548563Y-16813174D02*
X15567610Y-16803650D01*
X15567610Y-16803650D02*
X15596182Y-16803650D01*
X15596182Y-16803650D02*
X15615230Y-16813174D01*
X15615230Y-16813174D02*
X15624753Y-16822698D01*
X15624753Y-16822698D02*
X15634277Y-16841746D01*
X15634277Y-16841746D02*
X15634277Y-16898889D01*
X15634277Y-16898889D02*
X15624753Y-16917936D01*
X15624753Y-16917936D02*
X15615230Y-16927460D01*
X15615230Y-16927460D02*
X15596182Y-16936984D01*
X15596182Y-16936984D02*
X15567610Y-16936984D01*
X15748563Y-16936984D02*
X15729515Y-16927460D01*
X15729515Y-16927460D02*
X15719991Y-16908412D01*
X15719991Y-16908412D02*
X15719991Y-16736984D01*
X15900944Y-16927460D02*
X15881896Y-16936984D01*
X15881896Y-16936984D02*
X15843801Y-16936984D01*
X15843801Y-16936984D02*
X15824753Y-16927460D01*
X15824753Y-16927460D02*
X15815230Y-16908412D01*
X15815230Y-16908412D02*
X15815230Y-16832222D01*
X15815230Y-16832222D02*
X15824753Y-16813174D01*
X15824753Y-16813174D02*
X15843801Y-16803650D01*
X15843801Y-16803650D02*
X15881896Y-16803650D01*
X15881896Y-16803650D02*
X15900944Y-16813174D01*
X15900944Y-16813174D02*
X15910468Y-16832222D01*
X15910468Y-16832222D02*
X15910468Y-16851270D01*
X15910468Y-16851270D02*
X15815230Y-16870317D01*
X15986658Y-16927460D02*
X16005706Y-16936984D01*
X16005706Y-16936984D02*
X16043801Y-16936984D01*
X16043801Y-16936984D02*
X16062849Y-16927460D01*
X16062849Y-16927460D02*
X16072372Y-16908412D01*
X16072372Y-16908412D02*
X16072372Y-16898889D01*
X16072372Y-16898889D02*
X16062849Y-16879841D01*
X16062849Y-16879841D02*
X16043801Y-16870317D01*
X16043801Y-16870317D02*
X16015230Y-16870317D01*
X16015230Y-16870317D02*
X15996182Y-16860793D01*
X15996182Y-16860793D02*
X15986658Y-16841746D01*
X15986658Y-16841746D02*
X15986658Y-16832222D01*
X15986658Y-16832222D02*
X15996182Y-16813174D01*
X15996182Y-16813174D02*
X16015230Y-16803650D01*
X16015230Y-16803650D02*
X16043801Y-16803650D01*
X16043801Y-16803650D02*
X16062849Y-16813174D01*
X16139039Y-17013174D02*
X16148563Y-17003650D01*
X16148563Y-17003650D02*
X16167611Y-16975079D01*
X16167611Y-16975079D02*
X16177134Y-16956031D01*
X16177134Y-16956031D02*
X16186658Y-16927460D01*
X16186658Y-16927460D02*
X16196182Y-16879841D01*
X16196182Y-16879841D02*
X16196182Y-16841746D01*
X16196182Y-16841746D02*
X16186658Y-16794127D01*
X16186658Y-16794127D02*
X16177134Y-16765555D01*
X16177134Y-16765555D02*
X16167611Y-16746508D01*
X16167611Y-16746508D02*
X16148563Y-16717936D01*
X16148563Y-16717936D02*
X16139039Y-16708412D01*
M02*
