%TF.GenerationSoftware,KiCad,Pcbnew,8.0.5*%
%TF.CreationDate,2025-04-10T23:54:11-07:00*%
%TF.ProjectId,ESP32,45535033-322e-46b6-9963-61645f706362,rev?*%
%TF.SameCoordinates,Original*%
%TF.FileFunction,Legend,Top*%
%TF.FilePolarity,Positive*%
%FSLAX46Y46*%
G04 Gerber Fmt 4.6, Leading zero omitted, Abs format (unit mm)*
G04 Created by KiCad (PCBNEW 8.0.5) date 2025-04-10 23:54:11*
%MOMM*%
%LPD*%
G01*
G04 APERTURE LIST*
%ADD10C,0.075000*%
%ADD11C,0.150000*%
%ADD12C,0.125000*%
%ADD13C,0.152400*%
%ADD14C,0.508000*%
%ADD15C,0.127000*%
%ADD16C,0.200000*%
%ADD17C,0.120000*%
G04 APERTURE END LIST*
D10*
X135523597Y-136657913D02*
X135523597Y-136829342D01*
X135223597Y-136743627D02*
X135523597Y-136743627D01*
X135237883Y-137043627D02*
X135223597Y-137015055D01*
X135223597Y-137015055D02*
X135223597Y-136957913D01*
X135223597Y-136957913D02*
X135237883Y-136929341D01*
X135237883Y-136929341D02*
X135266454Y-136915055D01*
X135266454Y-136915055D02*
X135380740Y-136915055D01*
X135380740Y-136915055D02*
X135409311Y-136929341D01*
X135409311Y-136929341D02*
X135423597Y-136957913D01*
X135423597Y-136957913D02*
X135423597Y-137015055D01*
X135423597Y-137015055D02*
X135409311Y-137043627D01*
X135409311Y-137043627D02*
X135380740Y-137057913D01*
X135380740Y-137057913D02*
X135352168Y-137057913D01*
X135352168Y-137057913D02*
X135323597Y-136915055D01*
X135237883Y-137172198D02*
X135223597Y-137200770D01*
X135223597Y-137200770D02*
X135223597Y-137257913D01*
X135223597Y-137257913D02*
X135237883Y-137286484D01*
X135237883Y-137286484D02*
X135266454Y-137300770D01*
X135266454Y-137300770D02*
X135280740Y-137300770D01*
X135280740Y-137300770D02*
X135309311Y-137286484D01*
X135309311Y-137286484D02*
X135323597Y-137257913D01*
X135323597Y-137257913D02*
X135323597Y-137215056D01*
X135323597Y-137215056D02*
X135337883Y-137186484D01*
X135337883Y-137186484D02*
X135366454Y-137172198D01*
X135366454Y-137172198D02*
X135380740Y-137172198D01*
X135380740Y-137172198D02*
X135409311Y-137186484D01*
X135409311Y-137186484D02*
X135423597Y-137215056D01*
X135423597Y-137215056D02*
X135423597Y-137257913D01*
X135423597Y-137257913D02*
X135409311Y-137286484D01*
X135423597Y-137386484D02*
X135423597Y-137500770D01*
X135523597Y-137429341D02*
X135266454Y-137429341D01*
X135266454Y-137429341D02*
X135237883Y-137443627D01*
X135237883Y-137443627D02*
X135223597Y-137472198D01*
X135223597Y-137472198D02*
X135223597Y-137500770D01*
X135423597Y-137786484D02*
X135423597Y-137900770D01*
X135523597Y-137829341D02*
X135266454Y-137829341D01*
X135266454Y-137829341D02*
X135237883Y-137843627D01*
X135237883Y-137843627D02*
X135223597Y-137872198D01*
X135223597Y-137872198D02*
X135223597Y-137900770D01*
X135223597Y-138000770D02*
X135523597Y-138000770D01*
X135223597Y-138129342D02*
X135380740Y-138129342D01*
X135380740Y-138129342D02*
X135409311Y-138115056D01*
X135409311Y-138115056D02*
X135423597Y-138086484D01*
X135423597Y-138086484D02*
X135423597Y-138043627D01*
X135423597Y-138043627D02*
X135409311Y-138015056D01*
X135409311Y-138015056D02*
X135395025Y-138000770D01*
X135237883Y-138386485D02*
X135223597Y-138357913D01*
X135223597Y-138357913D02*
X135223597Y-138300771D01*
X135223597Y-138300771D02*
X135237883Y-138272199D01*
X135237883Y-138272199D02*
X135266454Y-138257913D01*
X135266454Y-138257913D02*
X135380740Y-138257913D01*
X135380740Y-138257913D02*
X135409311Y-138272199D01*
X135409311Y-138272199D02*
X135423597Y-138300771D01*
X135423597Y-138300771D02*
X135423597Y-138357913D01*
X135423597Y-138357913D02*
X135409311Y-138386485D01*
X135409311Y-138386485D02*
X135380740Y-138400771D01*
X135380740Y-138400771D02*
X135352168Y-138400771D01*
X135352168Y-138400771D02*
X135323597Y-138257913D01*
X135237883Y-138743627D02*
X135223597Y-138772199D01*
X135223597Y-138772199D02*
X135223597Y-138829342D01*
X135223597Y-138829342D02*
X135237883Y-138857913D01*
X135237883Y-138857913D02*
X135266454Y-138872199D01*
X135266454Y-138872199D02*
X135280740Y-138872199D01*
X135280740Y-138872199D02*
X135309311Y-138857913D01*
X135309311Y-138857913D02*
X135323597Y-138829342D01*
X135323597Y-138829342D02*
X135323597Y-138786485D01*
X135323597Y-138786485D02*
X135337883Y-138757913D01*
X135337883Y-138757913D02*
X135366454Y-138743627D01*
X135366454Y-138743627D02*
X135380740Y-138743627D01*
X135380740Y-138743627D02*
X135409311Y-138757913D01*
X135409311Y-138757913D02*
X135423597Y-138786485D01*
X135423597Y-138786485D02*
X135423597Y-138829342D01*
X135423597Y-138829342D02*
X135409311Y-138857913D01*
X135237883Y-139129342D02*
X135223597Y-139100770D01*
X135223597Y-139100770D02*
X135223597Y-139043627D01*
X135223597Y-139043627D02*
X135237883Y-139015056D01*
X135237883Y-139015056D02*
X135252168Y-139000770D01*
X135252168Y-139000770D02*
X135280740Y-138986484D01*
X135280740Y-138986484D02*
X135366454Y-138986484D01*
X135366454Y-138986484D02*
X135395025Y-139000770D01*
X135395025Y-139000770D02*
X135409311Y-139015056D01*
X135409311Y-139015056D02*
X135423597Y-139043627D01*
X135423597Y-139043627D02*
X135423597Y-139100770D01*
X135423597Y-139100770D02*
X135409311Y-139129342D01*
X135223597Y-139257913D02*
X135523597Y-139257913D01*
X135223597Y-139386485D02*
X135380740Y-139386485D01*
X135380740Y-139386485D02*
X135409311Y-139372199D01*
X135409311Y-139372199D02*
X135423597Y-139343627D01*
X135423597Y-139343627D02*
X135423597Y-139300770D01*
X135423597Y-139300770D02*
X135409311Y-139272199D01*
X135409311Y-139272199D02*
X135395025Y-139257913D01*
X135223597Y-139572199D02*
X135237883Y-139543628D01*
X135237883Y-139543628D02*
X135252168Y-139529342D01*
X135252168Y-139529342D02*
X135280740Y-139515056D01*
X135280740Y-139515056D02*
X135366454Y-139515056D01*
X135366454Y-139515056D02*
X135395025Y-139529342D01*
X135395025Y-139529342D02*
X135409311Y-139543628D01*
X135409311Y-139543628D02*
X135423597Y-139572199D01*
X135423597Y-139572199D02*
X135423597Y-139615056D01*
X135423597Y-139615056D02*
X135409311Y-139643628D01*
X135409311Y-139643628D02*
X135395025Y-139657914D01*
X135395025Y-139657914D02*
X135366454Y-139672199D01*
X135366454Y-139672199D02*
X135280740Y-139672199D01*
X135280740Y-139672199D02*
X135252168Y-139657914D01*
X135252168Y-139657914D02*
X135237883Y-139643628D01*
X135237883Y-139643628D02*
X135223597Y-139615056D01*
X135223597Y-139615056D02*
X135223597Y-139572199D01*
X135423597Y-139757914D02*
X135423597Y-139872200D01*
X135523597Y-139800771D02*
X135266454Y-139800771D01*
X135266454Y-139800771D02*
X135237883Y-139815057D01*
X135237883Y-139815057D02*
X135223597Y-139843628D01*
X135223597Y-139843628D02*
X135223597Y-139872200D01*
X135423597Y-139929343D02*
X135423597Y-140043629D01*
X135523597Y-139972200D02*
X135266454Y-139972200D01*
X135266454Y-139972200D02*
X135237883Y-139986486D01*
X135237883Y-139986486D02*
X135223597Y-140015057D01*
X135223597Y-140015057D02*
X135223597Y-140043629D01*
X135223597Y-140143629D02*
X135523597Y-140143629D01*
X135337883Y-140172201D02*
X135223597Y-140257915D01*
X135423597Y-140257915D02*
X135309311Y-140143629D01*
X135423597Y-140357915D02*
X135223597Y-140429343D01*
X135423597Y-140500772D02*
X135223597Y-140429343D01*
X135223597Y-140429343D02*
X135152168Y-140400772D01*
X135152168Y-140400772D02*
X135137883Y-140386486D01*
X135137883Y-140386486D02*
X135123597Y-140357915D01*
X134740614Y-136829342D02*
X135040614Y-136829342D01*
X134754900Y-136829342D02*
X134740614Y-136800770D01*
X134740614Y-136800770D02*
X134740614Y-136743627D01*
X134740614Y-136743627D02*
X134754900Y-136715056D01*
X134754900Y-136715056D02*
X134769185Y-136700770D01*
X134769185Y-136700770D02*
X134797757Y-136686484D01*
X134797757Y-136686484D02*
X134883471Y-136686484D01*
X134883471Y-136686484D02*
X134912042Y-136700770D01*
X134912042Y-136700770D02*
X134926328Y-136715056D01*
X134926328Y-136715056D02*
X134940614Y-136743627D01*
X134940614Y-136743627D02*
X134940614Y-136800770D01*
X134940614Y-136800770D02*
X134926328Y-136829342D01*
X134740614Y-136972199D02*
X134940614Y-136972199D01*
X135040614Y-136972199D02*
X135026328Y-136957913D01*
X135026328Y-136957913D02*
X135012042Y-136972199D01*
X135012042Y-136972199D02*
X135026328Y-136986485D01*
X135026328Y-136986485D02*
X135040614Y-136972199D01*
X135040614Y-136972199D02*
X135012042Y-136972199D01*
X134740614Y-137157913D02*
X134754900Y-137129342D01*
X134754900Y-137129342D02*
X134769185Y-137115056D01*
X134769185Y-137115056D02*
X134797757Y-137100770D01*
X134797757Y-137100770D02*
X134883471Y-137100770D01*
X134883471Y-137100770D02*
X134912042Y-137115056D01*
X134912042Y-137115056D02*
X134926328Y-137129342D01*
X134926328Y-137129342D02*
X134940614Y-137157913D01*
X134940614Y-137157913D02*
X134940614Y-137200770D01*
X134940614Y-137200770D02*
X134926328Y-137229342D01*
X134926328Y-137229342D02*
X134912042Y-137243628D01*
X134912042Y-137243628D02*
X134883471Y-137257913D01*
X134883471Y-137257913D02*
X134797757Y-137257913D01*
X134797757Y-137257913D02*
X134769185Y-137243628D01*
X134769185Y-137243628D02*
X134754900Y-137229342D01*
X134754900Y-137229342D02*
X134740614Y-137200770D01*
X134740614Y-137200770D02*
X134740614Y-137157913D01*
X134740614Y-137515057D02*
X135040614Y-137515057D01*
X134754900Y-137515057D02*
X134740614Y-137486485D01*
X134740614Y-137486485D02*
X134740614Y-137429342D01*
X134740614Y-137429342D02*
X134754900Y-137400771D01*
X134754900Y-137400771D02*
X134769185Y-137386485D01*
X134769185Y-137386485D02*
X134797757Y-137372199D01*
X134797757Y-137372199D02*
X134883471Y-137372199D01*
X134883471Y-137372199D02*
X134912042Y-137386485D01*
X134912042Y-137386485D02*
X134926328Y-137400771D01*
X134926328Y-137400771D02*
X134940614Y-137429342D01*
X134940614Y-137429342D02*
X134940614Y-137486485D01*
X134940614Y-137486485D02*
X134926328Y-137515057D01*
X134754900Y-137772200D02*
X134740614Y-137743628D01*
X134740614Y-137743628D02*
X134740614Y-137686486D01*
X134740614Y-137686486D02*
X134754900Y-137657914D01*
X134754900Y-137657914D02*
X134783471Y-137643628D01*
X134783471Y-137643628D02*
X134897757Y-137643628D01*
X134897757Y-137643628D02*
X134926328Y-137657914D01*
X134926328Y-137657914D02*
X134940614Y-137686486D01*
X134940614Y-137686486D02*
X134940614Y-137743628D01*
X134940614Y-137743628D02*
X134926328Y-137772200D01*
X134926328Y-137772200D02*
X134897757Y-137786486D01*
X134897757Y-137786486D02*
X134869185Y-137786486D01*
X134869185Y-137786486D02*
X134840614Y-137643628D01*
X135040614Y-138100771D02*
X134740614Y-138200771D01*
X134740614Y-138200771D02*
X135040614Y-138300771D01*
X134740614Y-138757914D02*
X135040614Y-138757914D01*
X134754900Y-138757914D02*
X134740614Y-138729342D01*
X134740614Y-138729342D02*
X134740614Y-138672199D01*
X134740614Y-138672199D02*
X134754900Y-138643628D01*
X134754900Y-138643628D02*
X134769185Y-138629342D01*
X134769185Y-138629342D02*
X134797757Y-138615056D01*
X134797757Y-138615056D02*
X134883471Y-138615056D01*
X134883471Y-138615056D02*
X134912042Y-138629342D01*
X134912042Y-138629342D02*
X134926328Y-138643628D01*
X134926328Y-138643628D02*
X134940614Y-138672199D01*
X134940614Y-138672199D02*
X134940614Y-138729342D01*
X134940614Y-138729342D02*
X134926328Y-138757914D01*
X134740614Y-138900771D02*
X134940614Y-138900771D01*
X134883471Y-138900771D02*
X134912042Y-138915057D01*
X134912042Y-138915057D02*
X134926328Y-138929343D01*
X134926328Y-138929343D02*
X134940614Y-138957914D01*
X134940614Y-138957914D02*
X134940614Y-138986485D01*
X134740614Y-139129342D02*
X134754900Y-139100771D01*
X134754900Y-139100771D02*
X134769185Y-139086485D01*
X134769185Y-139086485D02*
X134797757Y-139072199D01*
X134797757Y-139072199D02*
X134883471Y-139072199D01*
X134883471Y-139072199D02*
X134912042Y-139086485D01*
X134912042Y-139086485D02*
X134926328Y-139100771D01*
X134926328Y-139100771D02*
X134940614Y-139129342D01*
X134940614Y-139129342D02*
X134940614Y-139172199D01*
X134940614Y-139172199D02*
X134926328Y-139200771D01*
X134926328Y-139200771D02*
X134912042Y-139215057D01*
X134912042Y-139215057D02*
X134883471Y-139229342D01*
X134883471Y-139229342D02*
X134797757Y-139229342D01*
X134797757Y-139229342D02*
X134769185Y-139215057D01*
X134769185Y-139215057D02*
X134754900Y-139200771D01*
X134754900Y-139200771D02*
X134740614Y-139172199D01*
X134740614Y-139172199D02*
X134740614Y-139129342D01*
X134940614Y-139357914D02*
X134640614Y-139357914D01*
X134926328Y-139357914D02*
X134940614Y-139386486D01*
X134940614Y-139386486D02*
X134940614Y-139443628D01*
X134940614Y-139443628D02*
X134926328Y-139472200D01*
X134926328Y-139472200D02*
X134912042Y-139486486D01*
X134912042Y-139486486D02*
X134883471Y-139500771D01*
X134883471Y-139500771D02*
X134797757Y-139500771D01*
X134797757Y-139500771D02*
X134769185Y-139486486D01*
X134769185Y-139486486D02*
X134754900Y-139472200D01*
X134754900Y-139472200D02*
X134740614Y-139443628D01*
X134740614Y-139443628D02*
X134740614Y-139386486D01*
X134740614Y-139386486D02*
X134754900Y-139357914D01*
X123387913Y-101789385D02*
X123559342Y-101789385D01*
X123473627Y-102089385D02*
X123473627Y-101789385D01*
X123773627Y-102075100D02*
X123745055Y-102089385D01*
X123745055Y-102089385D02*
X123687913Y-102089385D01*
X123687913Y-102089385D02*
X123659341Y-102075100D01*
X123659341Y-102075100D02*
X123645055Y-102046528D01*
X123645055Y-102046528D02*
X123645055Y-101932242D01*
X123645055Y-101932242D02*
X123659341Y-101903671D01*
X123659341Y-101903671D02*
X123687913Y-101889385D01*
X123687913Y-101889385D02*
X123745055Y-101889385D01*
X123745055Y-101889385D02*
X123773627Y-101903671D01*
X123773627Y-101903671D02*
X123787913Y-101932242D01*
X123787913Y-101932242D02*
X123787913Y-101960814D01*
X123787913Y-101960814D02*
X123645055Y-101989385D01*
X123902198Y-102075100D02*
X123930770Y-102089385D01*
X123930770Y-102089385D02*
X123987913Y-102089385D01*
X123987913Y-102089385D02*
X124016484Y-102075100D01*
X124016484Y-102075100D02*
X124030770Y-102046528D01*
X124030770Y-102046528D02*
X124030770Y-102032242D01*
X124030770Y-102032242D02*
X124016484Y-102003671D01*
X124016484Y-102003671D02*
X123987913Y-101989385D01*
X123987913Y-101989385D02*
X123945056Y-101989385D01*
X123945056Y-101989385D02*
X123916484Y-101975100D01*
X123916484Y-101975100D02*
X123902198Y-101946528D01*
X123902198Y-101946528D02*
X123902198Y-101932242D01*
X123902198Y-101932242D02*
X123916484Y-101903671D01*
X123916484Y-101903671D02*
X123945056Y-101889385D01*
X123945056Y-101889385D02*
X123987913Y-101889385D01*
X123987913Y-101889385D02*
X124016484Y-101903671D01*
X124116484Y-101889385D02*
X124230770Y-101889385D01*
X124159341Y-101789385D02*
X124159341Y-102046528D01*
X124159341Y-102046528D02*
X124173627Y-102075100D01*
X124173627Y-102075100D02*
X124202198Y-102089385D01*
X124202198Y-102089385D02*
X124230770Y-102089385D01*
X124545055Y-102075100D02*
X124587913Y-102089385D01*
X124587913Y-102089385D02*
X124659341Y-102089385D01*
X124659341Y-102089385D02*
X124687913Y-102075100D01*
X124687913Y-102075100D02*
X124702198Y-102060814D01*
X124702198Y-102060814D02*
X124716484Y-102032242D01*
X124716484Y-102032242D02*
X124716484Y-102003671D01*
X124716484Y-102003671D02*
X124702198Y-101975100D01*
X124702198Y-101975100D02*
X124687913Y-101960814D01*
X124687913Y-101960814D02*
X124659341Y-101946528D01*
X124659341Y-101946528D02*
X124602198Y-101932242D01*
X124602198Y-101932242D02*
X124573627Y-101917957D01*
X124573627Y-101917957D02*
X124559341Y-101903671D01*
X124559341Y-101903671D02*
X124545055Y-101875100D01*
X124545055Y-101875100D02*
X124545055Y-101846528D01*
X124545055Y-101846528D02*
X124559341Y-101817957D01*
X124559341Y-101817957D02*
X124573627Y-101803671D01*
X124573627Y-101803671D02*
X124602198Y-101789385D01*
X124602198Y-101789385D02*
X124673627Y-101789385D01*
X124673627Y-101789385D02*
X124716484Y-101803671D01*
X124845055Y-102089385D02*
X124845055Y-101789385D01*
X124845055Y-101789385D02*
X124916484Y-101789385D01*
X124916484Y-101789385D02*
X124959341Y-101803671D01*
X124959341Y-101803671D02*
X124987912Y-101832242D01*
X124987912Y-101832242D02*
X125002198Y-101860814D01*
X125002198Y-101860814D02*
X125016484Y-101917957D01*
X125016484Y-101917957D02*
X125016484Y-101960814D01*
X125016484Y-101960814D02*
X125002198Y-102017957D01*
X125002198Y-102017957D02*
X124987912Y-102046528D01*
X124987912Y-102046528D02*
X124959341Y-102075100D01*
X124959341Y-102075100D02*
X124916484Y-102089385D01*
X124916484Y-102089385D02*
X124845055Y-102089385D01*
X125130769Y-102003671D02*
X125273627Y-102003671D01*
X125102198Y-102089385D02*
X125202198Y-101789385D01*
X125202198Y-101789385D02*
X125302198Y-102089385D01*
X116877913Y-102009385D02*
X117049342Y-102009385D01*
X116963627Y-102309385D02*
X116963627Y-102009385D01*
X117263627Y-102295100D02*
X117235055Y-102309385D01*
X117235055Y-102309385D02*
X117177913Y-102309385D01*
X117177913Y-102309385D02*
X117149341Y-102295100D01*
X117149341Y-102295100D02*
X117135055Y-102266528D01*
X117135055Y-102266528D02*
X117135055Y-102152242D01*
X117135055Y-102152242D02*
X117149341Y-102123671D01*
X117149341Y-102123671D02*
X117177913Y-102109385D01*
X117177913Y-102109385D02*
X117235055Y-102109385D01*
X117235055Y-102109385D02*
X117263627Y-102123671D01*
X117263627Y-102123671D02*
X117277913Y-102152242D01*
X117277913Y-102152242D02*
X117277913Y-102180814D01*
X117277913Y-102180814D02*
X117135055Y-102209385D01*
X117392198Y-102295100D02*
X117420770Y-102309385D01*
X117420770Y-102309385D02*
X117477913Y-102309385D01*
X117477913Y-102309385D02*
X117506484Y-102295100D01*
X117506484Y-102295100D02*
X117520770Y-102266528D01*
X117520770Y-102266528D02*
X117520770Y-102252242D01*
X117520770Y-102252242D02*
X117506484Y-102223671D01*
X117506484Y-102223671D02*
X117477913Y-102209385D01*
X117477913Y-102209385D02*
X117435056Y-102209385D01*
X117435056Y-102209385D02*
X117406484Y-102195100D01*
X117406484Y-102195100D02*
X117392198Y-102166528D01*
X117392198Y-102166528D02*
X117392198Y-102152242D01*
X117392198Y-102152242D02*
X117406484Y-102123671D01*
X117406484Y-102123671D02*
X117435056Y-102109385D01*
X117435056Y-102109385D02*
X117477913Y-102109385D01*
X117477913Y-102109385D02*
X117506484Y-102123671D01*
X117606484Y-102109385D02*
X117720770Y-102109385D01*
X117649341Y-102009385D02*
X117649341Y-102266528D01*
X117649341Y-102266528D02*
X117663627Y-102295100D01*
X117663627Y-102295100D02*
X117692198Y-102309385D01*
X117692198Y-102309385D02*
X117720770Y-102309385D01*
X118035055Y-102295100D02*
X118077913Y-102309385D01*
X118077913Y-102309385D02*
X118149341Y-102309385D01*
X118149341Y-102309385D02*
X118177913Y-102295100D01*
X118177913Y-102295100D02*
X118192198Y-102280814D01*
X118192198Y-102280814D02*
X118206484Y-102252242D01*
X118206484Y-102252242D02*
X118206484Y-102223671D01*
X118206484Y-102223671D02*
X118192198Y-102195100D01*
X118192198Y-102195100D02*
X118177913Y-102180814D01*
X118177913Y-102180814D02*
X118149341Y-102166528D01*
X118149341Y-102166528D02*
X118092198Y-102152242D01*
X118092198Y-102152242D02*
X118063627Y-102137957D01*
X118063627Y-102137957D02*
X118049341Y-102123671D01*
X118049341Y-102123671D02*
X118035055Y-102095100D01*
X118035055Y-102095100D02*
X118035055Y-102066528D01*
X118035055Y-102066528D02*
X118049341Y-102037957D01*
X118049341Y-102037957D02*
X118063627Y-102023671D01*
X118063627Y-102023671D02*
X118092198Y-102009385D01*
X118092198Y-102009385D02*
X118163627Y-102009385D01*
X118163627Y-102009385D02*
X118206484Y-102023671D01*
X118506484Y-102280814D02*
X118492198Y-102295100D01*
X118492198Y-102295100D02*
X118449341Y-102309385D01*
X118449341Y-102309385D02*
X118420769Y-102309385D01*
X118420769Y-102309385D02*
X118377912Y-102295100D01*
X118377912Y-102295100D02*
X118349341Y-102266528D01*
X118349341Y-102266528D02*
X118335055Y-102237957D01*
X118335055Y-102237957D02*
X118320769Y-102180814D01*
X118320769Y-102180814D02*
X118320769Y-102137957D01*
X118320769Y-102137957D02*
X118335055Y-102080814D01*
X118335055Y-102080814D02*
X118349341Y-102052242D01*
X118349341Y-102052242D02*
X118377912Y-102023671D01*
X118377912Y-102023671D02*
X118420769Y-102009385D01*
X118420769Y-102009385D02*
X118449341Y-102009385D01*
X118449341Y-102009385D02*
X118492198Y-102023671D01*
X118492198Y-102023671D02*
X118506484Y-102037957D01*
X118777912Y-102309385D02*
X118635055Y-102309385D01*
X118635055Y-102309385D02*
X118635055Y-102009385D01*
X112577913Y-107409385D02*
X112749342Y-107409385D01*
X112663627Y-107709385D02*
X112663627Y-107409385D01*
X112963627Y-107695100D02*
X112935055Y-107709385D01*
X112935055Y-107709385D02*
X112877913Y-107709385D01*
X112877913Y-107709385D02*
X112849341Y-107695100D01*
X112849341Y-107695100D02*
X112835055Y-107666528D01*
X112835055Y-107666528D02*
X112835055Y-107552242D01*
X112835055Y-107552242D02*
X112849341Y-107523671D01*
X112849341Y-107523671D02*
X112877913Y-107509385D01*
X112877913Y-107509385D02*
X112935055Y-107509385D01*
X112935055Y-107509385D02*
X112963627Y-107523671D01*
X112963627Y-107523671D02*
X112977913Y-107552242D01*
X112977913Y-107552242D02*
X112977913Y-107580814D01*
X112977913Y-107580814D02*
X112835055Y-107609385D01*
X113092198Y-107695100D02*
X113120770Y-107709385D01*
X113120770Y-107709385D02*
X113177913Y-107709385D01*
X113177913Y-107709385D02*
X113206484Y-107695100D01*
X113206484Y-107695100D02*
X113220770Y-107666528D01*
X113220770Y-107666528D02*
X113220770Y-107652242D01*
X113220770Y-107652242D02*
X113206484Y-107623671D01*
X113206484Y-107623671D02*
X113177913Y-107609385D01*
X113177913Y-107609385D02*
X113135056Y-107609385D01*
X113135056Y-107609385D02*
X113106484Y-107595100D01*
X113106484Y-107595100D02*
X113092198Y-107566528D01*
X113092198Y-107566528D02*
X113092198Y-107552242D01*
X113092198Y-107552242D02*
X113106484Y-107523671D01*
X113106484Y-107523671D02*
X113135056Y-107509385D01*
X113135056Y-107509385D02*
X113177913Y-107509385D01*
X113177913Y-107509385D02*
X113206484Y-107523671D01*
X113306484Y-107509385D02*
X113420770Y-107509385D01*
X113349341Y-107409385D02*
X113349341Y-107666528D01*
X113349341Y-107666528D02*
X113363627Y-107695100D01*
X113363627Y-107695100D02*
X113392198Y-107709385D01*
X113392198Y-107709385D02*
X113420770Y-107709385D01*
X113906484Y-107423671D02*
X113877913Y-107409385D01*
X113877913Y-107409385D02*
X113835055Y-107409385D01*
X113835055Y-107409385D02*
X113792198Y-107423671D01*
X113792198Y-107423671D02*
X113763627Y-107452242D01*
X113763627Y-107452242D02*
X113749341Y-107480814D01*
X113749341Y-107480814D02*
X113735055Y-107537957D01*
X113735055Y-107537957D02*
X113735055Y-107580814D01*
X113735055Y-107580814D02*
X113749341Y-107637957D01*
X113749341Y-107637957D02*
X113763627Y-107666528D01*
X113763627Y-107666528D02*
X113792198Y-107695100D01*
X113792198Y-107695100D02*
X113835055Y-107709385D01*
X113835055Y-107709385D02*
X113863627Y-107709385D01*
X113863627Y-107709385D02*
X113906484Y-107695100D01*
X113906484Y-107695100D02*
X113920770Y-107680814D01*
X113920770Y-107680814D02*
X113920770Y-107580814D01*
X113920770Y-107580814D02*
X113863627Y-107580814D01*
X114049341Y-107709385D02*
X114049341Y-107409385D01*
X114049341Y-107409385D02*
X114220770Y-107709385D01*
X114220770Y-107709385D02*
X114220770Y-107409385D01*
X114363627Y-107709385D02*
X114363627Y-107409385D01*
X114363627Y-107409385D02*
X114435056Y-107409385D01*
X114435056Y-107409385D02*
X114477913Y-107423671D01*
X114477913Y-107423671D02*
X114506484Y-107452242D01*
X114506484Y-107452242D02*
X114520770Y-107480814D01*
X114520770Y-107480814D02*
X114535056Y-107537957D01*
X114535056Y-107537957D02*
X114535056Y-107580814D01*
X114535056Y-107580814D02*
X114520770Y-107637957D01*
X114520770Y-107637957D02*
X114506484Y-107666528D01*
X114506484Y-107666528D02*
X114477913Y-107695100D01*
X114477913Y-107695100D02*
X114435056Y-107709385D01*
X114435056Y-107709385D02*
X114363627Y-107709385D01*
X113962913Y-101274385D02*
X114134342Y-101274385D01*
X114048627Y-101574385D02*
X114048627Y-101274385D01*
X114348627Y-101560100D02*
X114320055Y-101574385D01*
X114320055Y-101574385D02*
X114262913Y-101574385D01*
X114262913Y-101574385D02*
X114234341Y-101560100D01*
X114234341Y-101560100D02*
X114220055Y-101531528D01*
X114220055Y-101531528D02*
X114220055Y-101417242D01*
X114220055Y-101417242D02*
X114234341Y-101388671D01*
X114234341Y-101388671D02*
X114262913Y-101374385D01*
X114262913Y-101374385D02*
X114320055Y-101374385D01*
X114320055Y-101374385D02*
X114348627Y-101388671D01*
X114348627Y-101388671D02*
X114362913Y-101417242D01*
X114362913Y-101417242D02*
X114362913Y-101445814D01*
X114362913Y-101445814D02*
X114220055Y-101474385D01*
X114477198Y-101560100D02*
X114505770Y-101574385D01*
X114505770Y-101574385D02*
X114562913Y-101574385D01*
X114562913Y-101574385D02*
X114591484Y-101560100D01*
X114591484Y-101560100D02*
X114605770Y-101531528D01*
X114605770Y-101531528D02*
X114605770Y-101517242D01*
X114605770Y-101517242D02*
X114591484Y-101488671D01*
X114591484Y-101488671D02*
X114562913Y-101474385D01*
X114562913Y-101474385D02*
X114520056Y-101474385D01*
X114520056Y-101474385D02*
X114491484Y-101460100D01*
X114491484Y-101460100D02*
X114477198Y-101431528D01*
X114477198Y-101431528D02*
X114477198Y-101417242D01*
X114477198Y-101417242D02*
X114491484Y-101388671D01*
X114491484Y-101388671D02*
X114520056Y-101374385D01*
X114520056Y-101374385D02*
X114562913Y-101374385D01*
X114562913Y-101374385D02*
X114591484Y-101388671D01*
X114691484Y-101374385D02*
X114805770Y-101374385D01*
X114734341Y-101274385D02*
X114734341Y-101531528D01*
X114734341Y-101531528D02*
X114748627Y-101560100D01*
X114748627Y-101560100D02*
X114777198Y-101574385D01*
X114777198Y-101574385D02*
X114805770Y-101574385D01*
X115105770Y-101274385D02*
X115291484Y-101274385D01*
X115291484Y-101274385D02*
X115191484Y-101388671D01*
X115191484Y-101388671D02*
X115234341Y-101388671D01*
X115234341Y-101388671D02*
X115262913Y-101402957D01*
X115262913Y-101402957D02*
X115277198Y-101417242D01*
X115277198Y-101417242D02*
X115291484Y-101445814D01*
X115291484Y-101445814D02*
X115291484Y-101517242D01*
X115291484Y-101517242D02*
X115277198Y-101545814D01*
X115277198Y-101545814D02*
X115262913Y-101560100D01*
X115262913Y-101560100D02*
X115234341Y-101574385D01*
X115234341Y-101574385D02*
X115148627Y-101574385D01*
X115148627Y-101574385D02*
X115120055Y-101560100D01*
X115120055Y-101560100D02*
X115105770Y-101545814D01*
X115391484Y-101374385D02*
X115462912Y-101574385D01*
X115462912Y-101574385D02*
X115534341Y-101374385D01*
X115620055Y-101274385D02*
X115805769Y-101274385D01*
X115805769Y-101274385D02*
X115705769Y-101388671D01*
X115705769Y-101388671D02*
X115748626Y-101388671D01*
X115748626Y-101388671D02*
X115777198Y-101402957D01*
X115777198Y-101402957D02*
X115791483Y-101417242D01*
X115791483Y-101417242D02*
X115805769Y-101445814D01*
X115805769Y-101445814D02*
X115805769Y-101517242D01*
X115805769Y-101517242D02*
X115791483Y-101545814D01*
X115791483Y-101545814D02*
X115777198Y-101560100D01*
X115777198Y-101560100D02*
X115748626Y-101574385D01*
X115748626Y-101574385D02*
X115662912Y-101574385D01*
X115662912Y-101574385D02*
X115634340Y-101560100D01*
X115634340Y-101560100D02*
X115620055Y-101545814D01*
X137440770Y-101043419D02*
X137440770Y-100743419D01*
X137440770Y-100886276D02*
X137612199Y-100886276D01*
X137612199Y-101043419D02*
X137612199Y-100743419D01*
X137797913Y-101043419D02*
X137769342Y-101029134D01*
X137769342Y-101029134D02*
X137755056Y-101014848D01*
X137755056Y-101014848D02*
X137740770Y-100986276D01*
X137740770Y-100986276D02*
X137740770Y-100900562D01*
X137740770Y-100900562D02*
X137755056Y-100871991D01*
X137755056Y-100871991D02*
X137769342Y-100857705D01*
X137769342Y-100857705D02*
X137797913Y-100843419D01*
X137797913Y-100843419D02*
X137840770Y-100843419D01*
X137840770Y-100843419D02*
X137869342Y-100857705D01*
X137869342Y-100857705D02*
X137883628Y-100871991D01*
X137883628Y-100871991D02*
X137897913Y-100900562D01*
X137897913Y-100900562D02*
X137897913Y-100986276D01*
X137897913Y-100986276D02*
X137883628Y-101014848D01*
X137883628Y-101014848D02*
X137869342Y-101029134D01*
X137869342Y-101029134D02*
X137840770Y-101043419D01*
X137840770Y-101043419D02*
X137797913Y-101043419D01*
X138026485Y-100843419D02*
X138026485Y-101143419D01*
X138026485Y-100857705D02*
X138055057Y-100843419D01*
X138055057Y-100843419D02*
X138112199Y-100843419D01*
X138112199Y-100843419D02*
X138140771Y-100857705D01*
X138140771Y-100857705D02*
X138155057Y-100871991D01*
X138155057Y-100871991D02*
X138169342Y-100900562D01*
X138169342Y-100900562D02*
X138169342Y-100986276D01*
X138169342Y-100986276D02*
X138155057Y-101014848D01*
X138155057Y-101014848D02*
X138140771Y-101029134D01*
X138140771Y-101029134D02*
X138112199Y-101043419D01*
X138112199Y-101043419D02*
X138055057Y-101043419D01*
X138055057Y-101043419D02*
X138026485Y-101029134D01*
X138412200Y-101029134D02*
X138383628Y-101043419D01*
X138383628Y-101043419D02*
X138326486Y-101043419D01*
X138326486Y-101043419D02*
X138297914Y-101029134D01*
X138297914Y-101029134D02*
X138283628Y-101000562D01*
X138283628Y-101000562D02*
X138283628Y-100886276D01*
X138283628Y-100886276D02*
X138297914Y-100857705D01*
X138297914Y-100857705D02*
X138326486Y-100843419D01*
X138326486Y-100843419D02*
X138383628Y-100843419D01*
X138383628Y-100843419D02*
X138412200Y-100857705D01*
X138412200Y-100857705D02*
X138426486Y-100886276D01*
X138426486Y-100886276D02*
X138426486Y-100914848D01*
X138426486Y-100914848D02*
X138283628Y-100943419D01*
X138783628Y-101043419D02*
X138783628Y-100743419D01*
X138783628Y-100886276D02*
X138955057Y-100886276D01*
X138955057Y-101043419D02*
X138955057Y-100743419D01*
X139226486Y-101043419D02*
X139226486Y-100886276D01*
X139226486Y-100886276D02*
X139212200Y-100857705D01*
X139212200Y-100857705D02*
X139183628Y-100843419D01*
X139183628Y-100843419D02*
X139126486Y-100843419D01*
X139126486Y-100843419D02*
X139097914Y-100857705D01*
X139226486Y-101029134D02*
X139197914Y-101043419D01*
X139197914Y-101043419D02*
X139126486Y-101043419D01*
X139126486Y-101043419D02*
X139097914Y-101029134D01*
X139097914Y-101029134D02*
X139083628Y-101000562D01*
X139083628Y-101000562D02*
X139083628Y-100971991D01*
X139083628Y-100971991D02*
X139097914Y-100943419D01*
X139097914Y-100943419D02*
X139126486Y-100929134D01*
X139126486Y-100929134D02*
X139197914Y-100929134D01*
X139197914Y-100929134D02*
X139226486Y-100914848D01*
X139369343Y-100843419D02*
X139369343Y-101143419D01*
X139369343Y-100857705D02*
X139397915Y-100843419D01*
X139397915Y-100843419D02*
X139455057Y-100843419D01*
X139455057Y-100843419D02*
X139483629Y-100857705D01*
X139483629Y-100857705D02*
X139497915Y-100871991D01*
X139497915Y-100871991D02*
X139512200Y-100900562D01*
X139512200Y-100900562D02*
X139512200Y-100986276D01*
X139512200Y-100986276D02*
X139497915Y-101014848D01*
X139497915Y-101014848D02*
X139483629Y-101029134D01*
X139483629Y-101029134D02*
X139455057Y-101043419D01*
X139455057Y-101043419D02*
X139397915Y-101043419D01*
X139397915Y-101043419D02*
X139369343Y-101029134D01*
X139597915Y-100843419D02*
X139712201Y-100843419D01*
X139640772Y-100743419D02*
X139640772Y-101000562D01*
X139640772Y-101000562D02*
X139655058Y-101029134D01*
X139655058Y-101029134D02*
X139683629Y-101043419D01*
X139683629Y-101043419D02*
X139712201Y-101043419D01*
X139812201Y-101043419D02*
X139812201Y-100843419D01*
X139812201Y-100743419D02*
X139797915Y-100757705D01*
X139797915Y-100757705D02*
X139812201Y-100771991D01*
X139812201Y-100771991D02*
X139826487Y-100757705D01*
X139826487Y-100757705D02*
X139812201Y-100743419D01*
X139812201Y-100743419D02*
X139812201Y-100771991D01*
X140083630Y-101029134D02*
X140055058Y-101043419D01*
X140055058Y-101043419D02*
X139997915Y-101043419D01*
X139997915Y-101043419D02*
X139969344Y-101029134D01*
X139969344Y-101029134D02*
X139955058Y-101014848D01*
X139955058Y-101014848D02*
X139940772Y-100986276D01*
X139940772Y-100986276D02*
X139940772Y-100900562D01*
X139940772Y-100900562D02*
X139955058Y-100871991D01*
X139955058Y-100871991D02*
X139969344Y-100857705D01*
X139969344Y-100857705D02*
X139997915Y-100843419D01*
X139997915Y-100843419D02*
X140055058Y-100843419D01*
X140055058Y-100843419D02*
X140083630Y-100857705D01*
X140197915Y-101029134D02*
X140226487Y-101043419D01*
X140226487Y-101043419D02*
X140283630Y-101043419D01*
X140283630Y-101043419D02*
X140312201Y-101029134D01*
X140312201Y-101029134D02*
X140326487Y-101000562D01*
X140326487Y-101000562D02*
X140326487Y-100986276D01*
X140326487Y-100986276D02*
X140312201Y-100957705D01*
X140312201Y-100957705D02*
X140283630Y-100943419D01*
X140283630Y-100943419D02*
X140240773Y-100943419D01*
X140240773Y-100943419D02*
X140212201Y-100929134D01*
X140212201Y-100929134D02*
X140197915Y-100900562D01*
X140197915Y-100900562D02*
X140197915Y-100886276D01*
X140197915Y-100886276D02*
X140212201Y-100857705D01*
X140212201Y-100857705D02*
X140240773Y-100843419D01*
X140240773Y-100843419D02*
X140283630Y-100843419D01*
X140283630Y-100843419D02*
X140312201Y-100857705D01*
X140669343Y-100771991D02*
X140683629Y-100757705D01*
X140683629Y-100757705D02*
X140712201Y-100743419D01*
X140712201Y-100743419D02*
X140783629Y-100743419D01*
X140783629Y-100743419D02*
X140812201Y-100757705D01*
X140812201Y-100757705D02*
X140826486Y-100771991D01*
X140826486Y-100771991D02*
X140840772Y-100800562D01*
X140840772Y-100800562D02*
X140840772Y-100829134D01*
X140840772Y-100829134D02*
X140826486Y-100871991D01*
X140826486Y-100871991D02*
X140655058Y-101043419D01*
X140655058Y-101043419D02*
X140840772Y-101043419D01*
X141026486Y-100743419D02*
X141055057Y-100743419D01*
X141055057Y-100743419D02*
X141083629Y-100757705D01*
X141083629Y-100757705D02*
X141097915Y-100771991D01*
X141097915Y-100771991D02*
X141112200Y-100800562D01*
X141112200Y-100800562D02*
X141126486Y-100857705D01*
X141126486Y-100857705D02*
X141126486Y-100929134D01*
X141126486Y-100929134D02*
X141112200Y-100986276D01*
X141112200Y-100986276D02*
X141097915Y-101014848D01*
X141097915Y-101014848D02*
X141083629Y-101029134D01*
X141083629Y-101029134D02*
X141055057Y-101043419D01*
X141055057Y-101043419D02*
X141026486Y-101043419D01*
X141026486Y-101043419D02*
X140997915Y-101029134D01*
X140997915Y-101029134D02*
X140983629Y-101014848D01*
X140983629Y-101014848D02*
X140969343Y-100986276D01*
X140969343Y-100986276D02*
X140955057Y-100929134D01*
X140955057Y-100929134D02*
X140955057Y-100857705D01*
X140955057Y-100857705D02*
X140969343Y-100800562D01*
X140969343Y-100800562D02*
X140983629Y-100771991D01*
X140983629Y-100771991D02*
X140997915Y-100757705D01*
X140997915Y-100757705D02*
X141026486Y-100743419D01*
X141240771Y-100771991D02*
X141255057Y-100757705D01*
X141255057Y-100757705D02*
X141283629Y-100743419D01*
X141283629Y-100743419D02*
X141355057Y-100743419D01*
X141355057Y-100743419D02*
X141383629Y-100757705D01*
X141383629Y-100757705D02*
X141397914Y-100771991D01*
X141397914Y-100771991D02*
X141412200Y-100800562D01*
X141412200Y-100800562D02*
X141412200Y-100829134D01*
X141412200Y-100829134D02*
X141397914Y-100871991D01*
X141397914Y-100871991D02*
X141226486Y-101043419D01*
X141226486Y-101043419D02*
X141412200Y-101043419D01*
X141683628Y-100743419D02*
X141540771Y-100743419D01*
X141540771Y-100743419D02*
X141526485Y-100886276D01*
X141526485Y-100886276D02*
X141540771Y-100871991D01*
X141540771Y-100871991D02*
X141569343Y-100857705D01*
X141569343Y-100857705D02*
X141640771Y-100857705D01*
X141640771Y-100857705D02*
X141669343Y-100871991D01*
X141669343Y-100871991D02*
X141683628Y-100886276D01*
X141683628Y-100886276D02*
X141697914Y-100914848D01*
X141697914Y-100914848D02*
X141697914Y-100986276D01*
X141697914Y-100986276D02*
X141683628Y-101014848D01*
X141683628Y-101014848D02*
X141669343Y-101029134D01*
X141669343Y-101029134D02*
X141640771Y-101043419D01*
X141640771Y-101043419D02*
X141569343Y-101043419D01*
X141569343Y-101043419D02*
X141540771Y-101029134D01*
X141540771Y-101029134D02*
X141526485Y-101014848D01*
X137526484Y-101226402D02*
X137526484Y-101440688D01*
X137526484Y-101440688D02*
X137512199Y-101483545D01*
X137512199Y-101483545D02*
X137483627Y-101512117D01*
X137483627Y-101512117D02*
X137440770Y-101526402D01*
X137440770Y-101526402D02*
X137412199Y-101526402D01*
X137797913Y-101526402D02*
X137797913Y-101369259D01*
X137797913Y-101369259D02*
X137783627Y-101340688D01*
X137783627Y-101340688D02*
X137755055Y-101326402D01*
X137755055Y-101326402D02*
X137697913Y-101326402D01*
X137697913Y-101326402D02*
X137669341Y-101340688D01*
X137797913Y-101512117D02*
X137769341Y-101526402D01*
X137769341Y-101526402D02*
X137697913Y-101526402D01*
X137697913Y-101526402D02*
X137669341Y-101512117D01*
X137669341Y-101512117D02*
X137655055Y-101483545D01*
X137655055Y-101483545D02*
X137655055Y-101454974D01*
X137655055Y-101454974D02*
X137669341Y-101426402D01*
X137669341Y-101426402D02*
X137697913Y-101412117D01*
X137697913Y-101412117D02*
X137769341Y-101412117D01*
X137769341Y-101412117D02*
X137797913Y-101397831D01*
X137940770Y-101326402D02*
X137940770Y-101526402D01*
X137940770Y-101354974D02*
X137955056Y-101340688D01*
X137955056Y-101340688D02*
X137983627Y-101326402D01*
X137983627Y-101326402D02*
X138026484Y-101326402D01*
X138026484Y-101326402D02*
X138055056Y-101340688D01*
X138055056Y-101340688D02*
X138069342Y-101369259D01*
X138069342Y-101369259D02*
X138069342Y-101526402D01*
X138340771Y-101326402D02*
X138340771Y-101526402D01*
X138212199Y-101326402D02*
X138212199Y-101483545D01*
X138212199Y-101483545D02*
X138226485Y-101512117D01*
X138226485Y-101512117D02*
X138255056Y-101526402D01*
X138255056Y-101526402D02*
X138297913Y-101526402D01*
X138297913Y-101526402D02*
X138326485Y-101512117D01*
X138326485Y-101512117D02*
X138340771Y-101497831D01*
X138469342Y-101512117D02*
X138497914Y-101526402D01*
X138497914Y-101526402D02*
X138555057Y-101526402D01*
X138555057Y-101526402D02*
X138583628Y-101512117D01*
X138583628Y-101512117D02*
X138597914Y-101483545D01*
X138597914Y-101483545D02*
X138597914Y-101469259D01*
X138597914Y-101469259D02*
X138583628Y-101440688D01*
X138583628Y-101440688D02*
X138555057Y-101426402D01*
X138555057Y-101426402D02*
X138512200Y-101426402D01*
X138512200Y-101426402D02*
X138483628Y-101412117D01*
X138483628Y-101412117D02*
X138469342Y-101383545D01*
X138469342Y-101383545D02*
X138469342Y-101369259D01*
X138469342Y-101369259D02*
X138483628Y-101340688D01*
X138483628Y-101340688D02*
X138512200Y-101326402D01*
X138512200Y-101326402D02*
X138555057Y-101326402D01*
X138555057Y-101326402D02*
X138583628Y-101340688D01*
X138940770Y-101512117D02*
X138983628Y-101526402D01*
X138983628Y-101526402D02*
X139055056Y-101526402D01*
X139055056Y-101526402D02*
X139083628Y-101512117D01*
X139083628Y-101512117D02*
X139097913Y-101497831D01*
X139097913Y-101497831D02*
X139112199Y-101469259D01*
X139112199Y-101469259D02*
X139112199Y-101440688D01*
X139112199Y-101440688D02*
X139097913Y-101412117D01*
X139097913Y-101412117D02*
X139083628Y-101397831D01*
X139083628Y-101397831D02*
X139055056Y-101383545D01*
X139055056Y-101383545D02*
X138997913Y-101369259D01*
X138997913Y-101369259D02*
X138969342Y-101354974D01*
X138969342Y-101354974D02*
X138955056Y-101340688D01*
X138955056Y-101340688D02*
X138940770Y-101312117D01*
X138940770Y-101312117D02*
X138940770Y-101283545D01*
X138940770Y-101283545D02*
X138955056Y-101254974D01*
X138955056Y-101254974D02*
X138969342Y-101240688D01*
X138969342Y-101240688D02*
X138997913Y-101226402D01*
X138997913Y-101226402D02*
X139069342Y-101226402D01*
X139069342Y-101226402D02*
X139112199Y-101240688D01*
X139369342Y-101326402D02*
X139369342Y-101526402D01*
X139240770Y-101326402D02*
X139240770Y-101483545D01*
X139240770Y-101483545D02*
X139255056Y-101512117D01*
X139255056Y-101512117D02*
X139283627Y-101526402D01*
X139283627Y-101526402D02*
X139326484Y-101526402D01*
X139326484Y-101526402D02*
X139355056Y-101512117D01*
X139355056Y-101512117D02*
X139369342Y-101497831D01*
X139640771Y-101512117D02*
X139612199Y-101526402D01*
X139612199Y-101526402D02*
X139555056Y-101526402D01*
X139555056Y-101526402D02*
X139526485Y-101512117D01*
X139526485Y-101512117D02*
X139512199Y-101497831D01*
X139512199Y-101497831D02*
X139497913Y-101469259D01*
X139497913Y-101469259D02*
X139497913Y-101383545D01*
X139497913Y-101383545D02*
X139512199Y-101354974D01*
X139512199Y-101354974D02*
X139526485Y-101340688D01*
X139526485Y-101340688D02*
X139555056Y-101326402D01*
X139555056Y-101326402D02*
X139612199Y-101326402D01*
X139612199Y-101326402D02*
X139640771Y-101340688D01*
X139769342Y-101526402D02*
X139769342Y-101226402D01*
X139897914Y-101526402D02*
X139897914Y-101369259D01*
X139897914Y-101369259D02*
X139883628Y-101340688D01*
X139883628Y-101340688D02*
X139855056Y-101326402D01*
X139855056Y-101326402D02*
X139812199Y-101326402D01*
X139812199Y-101326402D02*
X139783628Y-101340688D01*
X139783628Y-101340688D02*
X139769342Y-101354974D01*
X140169343Y-101526402D02*
X140169343Y-101369259D01*
X140169343Y-101369259D02*
X140155057Y-101340688D01*
X140155057Y-101340688D02*
X140126485Y-101326402D01*
X140126485Y-101326402D02*
X140069343Y-101326402D01*
X140069343Y-101326402D02*
X140040771Y-101340688D01*
X140169343Y-101512117D02*
X140140771Y-101526402D01*
X140140771Y-101526402D02*
X140069343Y-101526402D01*
X140069343Y-101526402D02*
X140040771Y-101512117D01*
X140040771Y-101512117D02*
X140026485Y-101483545D01*
X140026485Y-101483545D02*
X140026485Y-101454974D01*
X140026485Y-101454974D02*
X140040771Y-101426402D01*
X140040771Y-101426402D02*
X140069343Y-101412117D01*
X140069343Y-101412117D02*
X140140771Y-101412117D01*
X140140771Y-101412117D02*
X140169343Y-101397831D01*
X140312200Y-101526402D02*
X140312200Y-101326402D01*
X140312200Y-101383545D02*
X140326486Y-101354974D01*
X140326486Y-101354974D02*
X140340772Y-101340688D01*
X140340772Y-101340688D02*
X140369343Y-101326402D01*
X140369343Y-101326402D02*
X140397914Y-101326402D01*
X140497914Y-101526402D02*
X140497914Y-101326402D01*
X140497914Y-101226402D02*
X140483628Y-101240688D01*
X140483628Y-101240688D02*
X140497914Y-101254974D01*
X140497914Y-101254974D02*
X140512200Y-101240688D01*
X140512200Y-101240688D02*
X140497914Y-101226402D01*
X140497914Y-101226402D02*
X140497914Y-101254974D01*
X140597914Y-101326402D02*
X140712200Y-101326402D01*
X140640771Y-101226402D02*
X140640771Y-101483545D01*
X140640771Y-101483545D02*
X140655057Y-101512117D01*
X140655057Y-101512117D02*
X140683628Y-101526402D01*
X140683628Y-101526402D02*
X140712200Y-101526402D01*
X140940772Y-101526402D02*
X140940772Y-101369259D01*
X140940772Y-101369259D02*
X140926486Y-101340688D01*
X140926486Y-101340688D02*
X140897914Y-101326402D01*
X140897914Y-101326402D02*
X140840772Y-101326402D01*
X140840772Y-101326402D02*
X140812200Y-101340688D01*
X140940772Y-101512117D02*
X140912200Y-101526402D01*
X140912200Y-101526402D02*
X140840772Y-101526402D01*
X140840772Y-101526402D02*
X140812200Y-101512117D01*
X140812200Y-101512117D02*
X140797914Y-101483545D01*
X140797914Y-101483545D02*
X140797914Y-101454974D01*
X140797914Y-101454974D02*
X140812200Y-101426402D01*
X140812200Y-101426402D02*
X140840772Y-101412117D01*
X140840772Y-101412117D02*
X140912200Y-101412117D01*
X140912200Y-101412117D02*
X140940772Y-101397831D01*
X141083629Y-101526402D02*
X141083629Y-101226402D01*
X141112201Y-101412117D02*
X141197915Y-101526402D01*
X141197915Y-101326402D02*
X141083629Y-101440688D01*
X141455058Y-101326402D02*
X141455058Y-101526402D01*
X141326486Y-101326402D02*
X141326486Y-101483545D01*
X141326486Y-101483545D02*
X141340772Y-101512117D01*
X141340772Y-101512117D02*
X141369343Y-101526402D01*
X141369343Y-101526402D02*
X141412200Y-101526402D01*
X141412200Y-101526402D02*
X141440772Y-101512117D01*
X141440772Y-101512117D02*
X141455058Y-101497831D01*
X141640772Y-101526402D02*
X141612201Y-101512117D01*
X141612201Y-101512117D02*
X141597915Y-101483545D01*
X141597915Y-101483545D02*
X141597915Y-101226402D01*
X137540770Y-101852242D02*
X137583627Y-101866528D01*
X137583627Y-101866528D02*
X137597913Y-101880814D01*
X137597913Y-101880814D02*
X137612199Y-101909385D01*
X137612199Y-101909385D02*
X137612199Y-101952242D01*
X137612199Y-101952242D02*
X137597913Y-101980814D01*
X137597913Y-101980814D02*
X137583627Y-101995100D01*
X137583627Y-101995100D02*
X137555056Y-102009385D01*
X137555056Y-102009385D02*
X137440770Y-102009385D01*
X137440770Y-102009385D02*
X137440770Y-101709385D01*
X137440770Y-101709385D02*
X137540770Y-101709385D01*
X137540770Y-101709385D02*
X137569342Y-101723671D01*
X137569342Y-101723671D02*
X137583627Y-101737957D01*
X137583627Y-101737957D02*
X137597913Y-101766528D01*
X137597913Y-101766528D02*
X137597913Y-101795100D01*
X137597913Y-101795100D02*
X137583627Y-101823671D01*
X137583627Y-101823671D02*
X137569342Y-101837957D01*
X137569342Y-101837957D02*
X137540770Y-101852242D01*
X137540770Y-101852242D02*
X137440770Y-101852242D01*
X137740770Y-102009385D02*
X137740770Y-101809385D01*
X137740770Y-101866528D02*
X137755056Y-101837957D01*
X137755056Y-101837957D02*
X137769342Y-101823671D01*
X137769342Y-101823671D02*
X137797913Y-101809385D01*
X137797913Y-101809385D02*
X137826484Y-101809385D01*
X138055056Y-102009385D02*
X138055056Y-101852242D01*
X138055056Y-101852242D02*
X138040770Y-101823671D01*
X138040770Y-101823671D02*
X138012198Y-101809385D01*
X138012198Y-101809385D02*
X137955056Y-101809385D01*
X137955056Y-101809385D02*
X137926484Y-101823671D01*
X138055056Y-101995100D02*
X138026484Y-102009385D01*
X138026484Y-102009385D02*
X137955056Y-102009385D01*
X137955056Y-102009385D02*
X137926484Y-101995100D01*
X137926484Y-101995100D02*
X137912198Y-101966528D01*
X137912198Y-101966528D02*
X137912198Y-101937957D01*
X137912198Y-101937957D02*
X137926484Y-101909385D01*
X137926484Y-101909385D02*
X137955056Y-101895100D01*
X137955056Y-101895100D02*
X138026484Y-101895100D01*
X138026484Y-101895100D02*
X138055056Y-101880814D01*
X138197913Y-101809385D02*
X138197913Y-102009385D01*
X138197913Y-101837957D02*
X138212199Y-101823671D01*
X138212199Y-101823671D02*
X138240770Y-101809385D01*
X138240770Y-101809385D02*
X138283627Y-101809385D01*
X138283627Y-101809385D02*
X138312199Y-101823671D01*
X138312199Y-101823671D02*
X138326485Y-101852242D01*
X138326485Y-101852242D02*
X138326485Y-102009385D01*
X138597914Y-102009385D02*
X138597914Y-101709385D01*
X138597914Y-101995100D02*
X138569342Y-102009385D01*
X138569342Y-102009385D02*
X138512199Y-102009385D01*
X138512199Y-102009385D02*
X138483628Y-101995100D01*
X138483628Y-101995100D02*
X138469342Y-101980814D01*
X138469342Y-101980814D02*
X138455056Y-101952242D01*
X138455056Y-101952242D02*
X138455056Y-101866528D01*
X138455056Y-101866528D02*
X138469342Y-101837957D01*
X138469342Y-101837957D02*
X138483628Y-101823671D01*
X138483628Y-101823671D02*
X138512199Y-101809385D01*
X138512199Y-101809385D02*
X138569342Y-101809385D01*
X138569342Y-101809385D02*
X138597914Y-101823671D01*
X138783628Y-102009385D02*
X138755057Y-101995100D01*
X138755057Y-101995100D02*
X138740771Y-101980814D01*
X138740771Y-101980814D02*
X138726485Y-101952242D01*
X138726485Y-101952242D02*
X138726485Y-101866528D01*
X138726485Y-101866528D02*
X138740771Y-101837957D01*
X138740771Y-101837957D02*
X138755057Y-101823671D01*
X138755057Y-101823671D02*
X138783628Y-101809385D01*
X138783628Y-101809385D02*
X138826485Y-101809385D01*
X138826485Y-101809385D02*
X138855057Y-101823671D01*
X138855057Y-101823671D02*
X138869343Y-101837957D01*
X138869343Y-101837957D02*
X138883628Y-101866528D01*
X138883628Y-101866528D02*
X138883628Y-101952242D01*
X138883628Y-101952242D02*
X138869343Y-101980814D01*
X138869343Y-101980814D02*
X138855057Y-101995100D01*
X138855057Y-101995100D02*
X138826485Y-102009385D01*
X138826485Y-102009385D02*
X138783628Y-102009385D01*
X139012200Y-101809385D02*
X139012200Y-102009385D01*
X139012200Y-101837957D02*
X139026486Y-101823671D01*
X139026486Y-101823671D02*
X139055057Y-101809385D01*
X139055057Y-101809385D02*
X139097914Y-101809385D01*
X139097914Y-101809385D02*
X139126486Y-101823671D01*
X139126486Y-101823671D02*
X139140772Y-101852242D01*
X139140772Y-101852242D02*
X139140772Y-102009385D01*
X139497914Y-101923671D02*
X139640772Y-101923671D01*
X139469343Y-102009385D02*
X139569343Y-101709385D01*
X139569343Y-101709385D02*
X139669343Y-102009385D01*
X139812200Y-102009385D02*
X139783629Y-101995100D01*
X139783629Y-101995100D02*
X139769343Y-101966528D01*
X139769343Y-101966528D02*
X139769343Y-101709385D01*
X139969343Y-102009385D02*
X139940772Y-101995100D01*
X139940772Y-101995100D02*
X139926486Y-101966528D01*
X139926486Y-101966528D02*
X139926486Y-101709385D01*
X140197915Y-101995100D02*
X140169343Y-102009385D01*
X140169343Y-102009385D02*
X140112201Y-102009385D01*
X140112201Y-102009385D02*
X140083629Y-101995100D01*
X140083629Y-101995100D02*
X140069343Y-101966528D01*
X140069343Y-101966528D02*
X140069343Y-101852242D01*
X140069343Y-101852242D02*
X140083629Y-101823671D01*
X140083629Y-101823671D02*
X140112201Y-101809385D01*
X140112201Y-101809385D02*
X140169343Y-101809385D01*
X140169343Y-101809385D02*
X140197915Y-101823671D01*
X140197915Y-101823671D02*
X140212201Y-101852242D01*
X140212201Y-101852242D02*
X140212201Y-101880814D01*
X140212201Y-101880814D02*
X140069343Y-101909385D01*
X140340772Y-101809385D02*
X140340772Y-102009385D01*
X140340772Y-101837957D02*
X140355058Y-101823671D01*
X140355058Y-101823671D02*
X140383629Y-101809385D01*
X140383629Y-101809385D02*
X140426486Y-101809385D01*
X140426486Y-101809385D02*
X140455058Y-101823671D01*
X140455058Y-101823671D02*
X140469344Y-101852242D01*
X140469344Y-101852242D02*
X140469344Y-102009385D01*
D11*
X122098095Y-145744819D02*
X122098095Y-146554342D01*
X122098095Y-146554342D02*
X122145714Y-146649580D01*
X122145714Y-146649580D02*
X122193333Y-146697200D01*
X122193333Y-146697200D02*
X122288571Y-146744819D01*
X122288571Y-146744819D02*
X122479047Y-146744819D01*
X122479047Y-146744819D02*
X122574285Y-146697200D01*
X122574285Y-146697200D02*
X122621904Y-146649580D01*
X122621904Y-146649580D02*
X122669523Y-146554342D01*
X122669523Y-146554342D02*
X122669523Y-145744819D01*
X123574285Y-146078152D02*
X123574285Y-146744819D01*
X123336190Y-145697200D02*
X123098095Y-146411485D01*
X123098095Y-146411485D02*
X123717142Y-146411485D01*
X121310600Y-143143819D02*
X121310600Y-143381914D01*
X121072505Y-143286676D02*
X121310600Y-143381914D01*
X121310600Y-143381914D02*
X121548695Y-143286676D01*
X121167743Y-143572390D02*
X121310600Y-143381914D01*
X121310600Y-143381914D02*
X121453457Y-143572390D01*
X121310600Y-143143819D02*
X121310600Y-143381914D01*
X121072505Y-143286676D02*
X121310600Y-143381914D01*
X121310600Y-143381914D02*
X121548695Y-143286676D01*
X121167743Y-143572390D02*
X121310600Y-143381914D01*
X121310600Y-143381914D02*
X121453457Y-143572390D01*
X120225333Y-138248276D02*
X120011999Y-137943514D01*
X119859618Y-138248276D02*
X119859618Y-137608276D01*
X119859618Y-137608276D02*
X120103428Y-137608276D01*
X120103428Y-137608276D02*
X120164380Y-137638752D01*
X120164380Y-137638752D02*
X120194857Y-137669228D01*
X120194857Y-137669228D02*
X120225333Y-137730180D01*
X120225333Y-137730180D02*
X120225333Y-137821609D01*
X120225333Y-137821609D02*
X120194857Y-137882561D01*
X120194857Y-137882561D02*
X120164380Y-137913038D01*
X120164380Y-137913038D02*
X120103428Y-137943514D01*
X120103428Y-137943514D02*
X119859618Y-137943514D01*
X120773904Y-137608276D02*
X120651999Y-137608276D01*
X120651999Y-137608276D02*
X120591047Y-137638752D01*
X120591047Y-137638752D02*
X120560571Y-137669228D01*
X120560571Y-137669228D02*
X120499618Y-137760657D01*
X120499618Y-137760657D02*
X120469142Y-137882561D01*
X120469142Y-137882561D02*
X120469142Y-138126371D01*
X120469142Y-138126371D02*
X120499618Y-138187323D01*
X120499618Y-138187323D02*
X120530095Y-138217800D01*
X120530095Y-138217800D02*
X120591047Y-138248276D01*
X120591047Y-138248276D02*
X120712952Y-138248276D01*
X120712952Y-138248276D02*
X120773904Y-138217800D01*
X120773904Y-138217800D02*
X120804380Y-138187323D01*
X120804380Y-138187323D02*
X120834857Y-138126371D01*
X120834857Y-138126371D02*
X120834857Y-137973990D01*
X120834857Y-137973990D02*
X120804380Y-137913038D01*
X120804380Y-137913038D02*
X120773904Y-137882561D01*
X120773904Y-137882561D02*
X120712952Y-137852085D01*
X120712952Y-137852085D02*
X120591047Y-137852085D01*
X120591047Y-137852085D02*
X120530095Y-137882561D01*
X120530095Y-137882561D02*
X120499618Y-137913038D01*
X120499618Y-137913038D02*
X120469142Y-137973990D01*
X112662605Y-144244819D02*
X112662605Y-143244819D01*
X112662605Y-143244819D02*
X112900700Y-143244819D01*
X112900700Y-143244819D02*
X113043557Y-143292438D01*
X113043557Y-143292438D02*
X113138795Y-143387676D01*
X113138795Y-143387676D02*
X113186414Y-143482914D01*
X113186414Y-143482914D02*
X113234033Y-143673390D01*
X113234033Y-143673390D02*
X113234033Y-143816247D01*
X113234033Y-143816247D02*
X113186414Y-144006723D01*
X113186414Y-144006723D02*
X113138795Y-144101961D01*
X113138795Y-144101961D02*
X113043557Y-144197200D01*
X113043557Y-144197200D02*
X112900700Y-144244819D01*
X112900700Y-144244819D02*
X112662605Y-144244819D01*
X113614986Y-143340057D02*
X113662605Y-143292438D01*
X113662605Y-143292438D02*
X113757843Y-143244819D01*
X113757843Y-143244819D02*
X113995938Y-143244819D01*
X113995938Y-143244819D02*
X114091176Y-143292438D01*
X114091176Y-143292438D02*
X114138795Y-143340057D01*
X114138795Y-143340057D02*
X114186414Y-143435295D01*
X114186414Y-143435295D02*
X114186414Y-143530533D01*
X114186414Y-143530533D02*
X114138795Y-143673390D01*
X114138795Y-143673390D02*
X113567367Y-144244819D01*
X113567367Y-144244819D02*
X114186414Y-144244819D01*
X142539819Y-121636904D02*
X143349342Y-121636904D01*
X143349342Y-121636904D02*
X143444580Y-121589285D01*
X143444580Y-121589285D02*
X143492200Y-121541666D01*
X143492200Y-121541666D02*
X143539819Y-121446428D01*
X143539819Y-121446428D02*
X143539819Y-121255952D01*
X143539819Y-121255952D02*
X143492200Y-121160714D01*
X143492200Y-121160714D02*
X143444580Y-121113095D01*
X143444580Y-121113095D02*
X143349342Y-121065476D01*
X143349342Y-121065476D02*
X142539819Y-121065476D01*
X142635057Y-120636904D02*
X142587438Y-120589285D01*
X142587438Y-120589285D02*
X142539819Y-120494047D01*
X142539819Y-120494047D02*
X142539819Y-120255952D01*
X142539819Y-120255952D02*
X142587438Y-120160714D01*
X142587438Y-120160714D02*
X142635057Y-120113095D01*
X142635057Y-120113095D02*
X142730295Y-120065476D01*
X142730295Y-120065476D02*
X142825533Y-120065476D01*
X142825533Y-120065476D02*
X142968390Y-120113095D01*
X142968390Y-120113095D02*
X143539819Y-120684523D01*
X143539819Y-120684523D02*
X143539819Y-120065476D01*
X126826666Y-103554819D02*
X126826666Y-104269104D01*
X126826666Y-104269104D02*
X126779047Y-104411961D01*
X126779047Y-104411961D02*
X126683809Y-104507200D01*
X126683809Y-104507200D02*
X126540952Y-104554819D01*
X126540952Y-104554819D02*
X126445714Y-104554819D01*
X127826666Y-104554819D02*
X127255238Y-104554819D01*
X127540952Y-104554819D02*
X127540952Y-103554819D01*
X127540952Y-103554819D02*
X127445714Y-103697676D01*
X127445714Y-103697676D02*
X127350476Y-103792914D01*
X127350476Y-103792914D02*
X127255238Y-103840533D01*
X133333333Y-109544819D02*
X133000000Y-109068628D01*
X132761905Y-109544819D02*
X132761905Y-108544819D01*
X132761905Y-108544819D02*
X133142857Y-108544819D01*
X133142857Y-108544819D02*
X133238095Y-108592438D01*
X133238095Y-108592438D02*
X133285714Y-108640057D01*
X133285714Y-108640057D02*
X133333333Y-108735295D01*
X133333333Y-108735295D02*
X133333333Y-108878152D01*
X133333333Y-108878152D02*
X133285714Y-108973390D01*
X133285714Y-108973390D02*
X133238095Y-109021009D01*
X133238095Y-109021009D02*
X133142857Y-109068628D01*
X133142857Y-109068628D02*
X132761905Y-109068628D01*
X133666667Y-108544819D02*
X134285714Y-108544819D01*
X134285714Y-108544819D02*
X133952381Y-108925771D01*
X133952381Y-108925771D02*
X134095238Y-108925771D01*
X134095238Y-108925771D02*
X134190476Y-108973390D01*
X134190476Y-108973390D02*
X134238095Y-109021009D01*
X134238095Y-109021009D02*
X134285714Y-109116247D01*
X134285714Y-109116247D02*
X134285714Y-109354342D01*
X134285714Y-109354342D02*
X134238095Y-109449580D01*
X134238095Y-109449580D02*
X134190476Y-109497200D01*
X134190476Y-109497200D02*
X134095238Y-109544819D01*
X134095238Y-109544819D02*
X133809524Y-109544819D01*
X133809524Y-109544819D02*
X133714286Y-109497200D01*
X133714286Y-109497200D02*
X133666667Y-109449580D01*
X112672800Y-137526667D02*
X112625180Y-137669524D01*
X112625180Y-137669524D02*
X112625180Y-137907619D01*
X112625180Y-137907619D02*
X112672800Y-138002857D01*
X112672800Y-138002857D02*
X112720419Y-138050476D01*
X112720419Y-138050476D02*
X112815657Y-138098095D01*
X112815657Y-138098095D02*
X112910895Y-138098095D01*
X112910895Y-138098095D02*
X113006133Y-138050476D01*
X113006133Y-138050476D02*
X113053752Y-138002857D01*
X113053752Y-138002857D02*
X113101371Y-137907619D01*
X113101371Y-137907619D02*
X113148990Y-137717143D01*
X113148990Y-137717143D02*
X113196609Y-137621905D01*
X113196609Y-137621905D02*
X113244228Y-137574286D01*
X113244228Y-137574286D02*
X113339466Y-137526667D01*
X113339466Y-137526667D02*
X113434704Y-137526667D01*
X113434704Y-137526667D02*
X113529942Y-137574286D01*
X113529942Y-137574286D02*
X113577561Y-137621905D01*
X113577561Y-137621905D02*
X113625180Y-137717143D01*
X113625180Y-137717143D02*
X113625180Y-137955238D01*
X113625180Y-137955238D02*
X113577561Y-138098095D01*
X113625180Y-138431429D02*
X112625180Y-138669524D01*
X112625180Y-138669524D02*
X113339466Y-138860000D01*
X113339466Y-138860000D02*
X112625180Y-139050476D01*
X112625180Y-139050476D02*
X113625180Y-139288572D01*
X113529942Y-139621905D02*
X113577561Y-139669524D01*
X113577561Y-139669524D02*
X113625180Y-139764762D01*
X113625180Y-139764762D02*
X113625180Y-140002857D01*
X113625180Y-140002857D02*
X113577561Y-140098095D01*
X113577561Y-140098095D02*
X113529942Y-140145714D01*
X113529942Y-140145714D02*
X113434704Y-140193333D01*
X113434704Y-140193333D02*
X113339466Y-140193333D01*
X113339466Y-140193333D02*
X113196609Y-140145714D01*
X113196609Y-140145714D02*
X112625180Y-139574286D01*
X112625180Y-139574286D02*
X112625180Y-140193333D01*
D12*
X127414166Y-146337190D02*
X127390357Y-146361000D01*
X127390357Y-146361000D02*
X127318928Y-146384809D01*
X127318928Y-146384809D02*
X127271309Y-146384809D01*
X127271309Y-146384809D02*
X127199881Y-146361000D01*
X127199881Y-146361000D02*
X127152262Y-146313380D01*
X127152262Y-146313380D02*
X127128452Y-146265761D01*
X127128452Y-146265761D02*
X127104643Y-146170523D01*
X127104643Y-146170523D02*
X127104643Y-146099095D01*
X127104643Y-146099095D02*
X127128452Y-146003857D01*
X127128452Y-146003857D02*
X127152262Y-145956238D01*
X127152262Y-145956238D02*
X127199881Y-145908619D01*
X127199881Y-145908619D02*
X127271309Y-145884809D01*
X127271309Y-145884809D02*
X127318928Y-145884809D01*
X127318928Y-145884809D02*
X127390357Y-145908619D01*
X127390357Y-145908619D02*
X127414166Y-145932428D01*
X127842738Y-145884809D02*
X127747500Y-145884809D01*
X127747500Y-145884809D02*
X127699881Y-145908619D01*
X127699881Y-145908619D02*
X127676071Y-145932428D01*
X127676071Y-145932428D02*
X127628452Y-146003857D01*
X127628452Y-146003857D02*
X127604643Y-146099095D01*
X127604643Y-146099095D02*
X127604643Y-146289571D01*
X127604643Y-146289571D02*
X127628452Y-146337190D01*
X127628452Y-146337190D02*
X127652262Y-146361000D01*
X127652262Y-146361000D02*
X127699881Y-146384809D01*
X127699881Y-146384809D02*
X127795119Y-146384809D01*
X127795119Y-146384809D02*
X127842738Y-146361000D01*
X127842738Y-146361000D02*
X127866547Y-146337190D01*
X127866547Y-146337190D02*
X127890357Y-146289571D01*
X127890357Y-146289571D02*
X127890357Y-146170523D01*
X127890357Y-146170523D02*
X127866547Y-146122904D01*
X127866547Y-146122904D02*
X127842738Y-146099095D01*
X127842738Y-146099095D02*
X127795119Y-146075285D01*
X127795119Y-146075285D02*
X127699881Y-146075285D01*
X127699881Y-146075285D02*
X127652262Y-146099095D01*
X127652262Y-146099095D02*
X127628452Y-146122904D01*
X127628452Y-146122904D02*
X127604643Y-146170523D01*
D11*
X132342800Y-112916667D02*
X132295180Y-113059524D01*
X132295180Y-113059524D02*
X132295180Y-113297619D01*
X132295180Y-113297619D02*
X132342800Y-113392857D01*
X132342800Y-113392857D02*
X132390419Y-113440476D01*
X132390419Y-113440476D02*
X132485657Y-113488095D01*
X132485657Y-113488095D02*
X132580895Y-113488095D01*
X132580895Y-113488095D02*
X132676133Y-113440476D01*
X132676133Y-113440476D02*
X132723752Y-113392857D01*
X132723752Y-113392857D02*
X132771371Y-113297619D01*
X132771371Y-113297619D02*
X132818990Y-113107143D01*
X132818990Y-113107143D02*
X132866609Y-113011905D01*
X132866609Y-113011905D02*
X132914228Y-112964286D01*
X132914228Y-112964286D02*
X133009466Y-112916667D01*
X133009466Y-112916667D02*
X133104704Y-112916667D01*
X133104704Y-112916667D02*
X133199942Y-112964286D01*
X133199942Y-112964286D02*
X133247561Y-113011905D01*
X133247561Y-113011905D02*
X133295180Y-113107143D01*
X133295180Y-113107143D02*
X133295180Y-113345238D01*
X133295180Y-113345238D02*
X133247561Y-113488095D01*
X133295180Y-113821429D02*
X132295180Y-114059524D01*
X132295180Y-114059524D02*
X133009466Y-114250000D01*
X133009466Y-114250000D02*
X132295180Y-114440476D01*
X132295180Y-114440476D02*
X133295180Y-114678572D01*
X132295180Y-115583333D02*
X132295180Y-115011905D01*
X132295180Y-115297619D02*
X133295180Y-115297619D01*
X133295180Y-115297619D02*
X133152323Y-115202381D01*
X133152323Y-115202381D02*
X133057085Y-115107143D01*
X133057085Y-115107143D02*
X133009466Y-115011905D01*
D10*
X117024996Y-140668814D02*
X117010710Y-140683100D01*
X117010710Y-140683100D02*
X116967853Y-140697385D01*
X116967853Y-140697385D02*
X116939281Y-140697385D01*
X116939281Y-140697385D02*
X116896424Y-140683100D01*
X116896424Y-140683100D02*
X116867853Y-140654528D01*
X116867853Y-140654528D02*
X116853567Y-140625957D01*
X116853567Y-140625957D02*
X116839281Y-140568814D01*
X116839281Y-140568814D02*
X116839281Y-140525957D01*
X116839281Y-140525957D02*
X116853567Y-140468814D01*
X116853567Y-140468814D02*
X116867853Y-140440242D01*
X116867853Y-140440242D02*
X116896424Y-140411671D01*
X116896424Y-140411671D02*
X116939281Y-140397385D01*
X116939281Y-140397385D02*
X116967853Y-140397385D01*
X116967853Y-140397385D02*
X117010710Y-140411671D01*
X117010710Y-140411671D02*
X117024996Y-140425957D01*
X117124996Y-140397385D02*
X117310710Y-140397385D01*
X117310710Y-140397385D02*
X117210710Y-140511671D01*
X117210710Y-140511671D02*
X117253567Y-140511671D01*
X117253567Y-140511671D02*
X117282139Y-140525957D01*
X117282139Y-140525957D02*
X117296424Y-140540242D01*
X117296424Y-140540242D02*
X117310710Y-140568814D01*
X117310710Y-140568814D02*
X117310710Y-140640242D01*
X117310710Y-140640242D02*
X117296424Y-140668814D01*
X117296424Y-140668814D02*
X117282139Y-140683100D01*
X117282139Y-140683100D02*
X117253567Y-140697385D01*
X117253567Y-140697385D02*
X117167853Y-140697385D01*
X117167853Y-140697385D02*
X117139281Y-140683100D01*
X117139281Y-140683100D02*
X117124996Y-140668814D01*
D12*
X130583332Y-149711000D02*
X130654760Y-149734809D01*
X130654760Y-149734809D02*
X130773808Y-149734809D01*
X130773808Y-149734809D02*
X130821427Y-149711000D01*
X130821427Y-149711000D02*
X130845236Y-149687190D01*
X130845236Y-149687190D02*
X130869046Y-149639571D01*
X130869046Y-149639571D02*
X130869046Y-149591952D01*
X130869046Y-149591952D02*
X130845236Y-149544333D01*
X130845236Y-149544333D02*
X130821427Y-149520523D01*
X130821427Y-149520523D02*
X130773808Y-149496714D01*
X130773808Y-149496714D02*
X130678570Y-149472904D01*
X130678570Y-149472904D02*
X130630951Y-149449095D01*
X130630951Y-149449095D02*
X130607141Y-149425285D01*
X130607141Y-149425285D02*
X130583332Y-149377666D01*
X130583332Y-149377666D02*
X130583332Y-149330047D01*
X130583332Y-149330047D02*
X130607141Y-149282428D01*
X130607141Y-149282428D02*
X130630951Y-149258619D01*
X130630951Y-149258619D02*
X130678570Y-149234809D01*
X130678570Y-149234809D02*
X130797617Y-149234809D01*
X130797617Y-149234809D02*
X130869046Y-149258619D01*
X131035712Y-149234809D02*
X131154760Y-149734809D01*
X131154760Y-149734809D02*
X131249998Y-149377666D01*
X131249998Y-149377666D02*
X131345236Y-149734809D01*
X131345236Y-149734809D02*
X131464284Y-149234809D01*
X131607141Y-149234809D02*
X131916665Y-149234809D01*
X131916665Y-149234809D02*
X131749998Y-149425285D01*
X131749998Y-149425285D02*
X131821427Y-149425285D01*
X131821427Y-149425285D02*
X131869046Y-149449095D01*
X131869046Y-149449095D02*
X131892855Y-149472904D01*
X131892855Y-149472904D02*
X131916665Y-149520523D01*
X131916665Y-149520523D02*
X131916665Y-149639571D01*
X131916665Y-149639571D02*
X131892855Y-149687190D01*
X131892855Y-149687190D02*
X131869046Y-149711000D01*
X131869046Y-149711000D02*
X131821427Y-149734809D01*
X131821427Y-149734809D02*
X131678570Y-149734809D01*
X131678570Y-149734809D02*
X131630951Y-149711000D01*
X131630951Y-149711000D02*
X131607141Y-149687190D01*
D11*
X133333333Y-111109580D02*
X133285714Y-111157200D01*
X133285714Y-111157200D02*
X133142857Y-111204819D01*
X133142857Y-111204819D02*
X133047619Y-111204819D01*
X133047619Y-111204819D02*
X132904762Y-111157200D01*
X132904762Y-111157200D02*
X132809524Y-111061961D01*
X132809524Y-111061961D02*
X132761905Y-110966723D01*
X132761905Y-110966723D02*
X132714286Y-110776247D01*
X132714286Y-110776247D02*
X132714286Y-110633390D01*
X132714286Y-110633390D02*
X132761905Y-110442914D01*
X132761905Y-110442914D02*
X132809524Y-110347676D01*
X132809524Y-110347676D02*
X132904762Y-110252438D01*
X132904762Y-110252438D02*
X133047619Y-110204819D01*
X133047619Y-110204819D02*
X133142857Y-110204819D01*
X133142857Y-110204819D02*
X133285714Y-110252438D01*
X133285714Y-110252438D02*
X133333333Y-110300057D01*
X133714286Y-110300057D02*
X133761905Y-110252438D01*
X133761905Y-110252438D02*
X133857143Y-110204819D01*
X133857143Y-110204819D02*
X134095238Y-110204819D01*
X134095238Y-110204819D02*
X134190476Y-110252438D01*
X134190476Y-110252438D02*
X134238095Y-110300057D01*
X134238095Y-110300057D02*
X134285714Y-110395295D01*
X134285714Y-110395295D02*
X134285714Y-110490533D01*
X134285714Y-110490533D02*
X134238095Y-110633390D01*
X134238095Y-110633390D02*
X133666667Y-111204819D01*
X133666667Y-111204819D02*
X134285714Y-111204819D01*
X126826666Y-106094819D02*
X126826666Y-106809104D01*
X126826666Y-106809104D02*
X126779047Y-106951961D01*
X126779047Y-106951961D02*
X126683809Y-107047200D01*
X126683809Y-107047200D02*
X126540952Y-107094819D01*
X126540952Y-107094819D02*
X126445714Y-107094819D01*
X127255238Y-106190057D02*
X127302857Y-106142438D01*
X127302857Y-106142438D02*
X127398095Y-106094819D01*
X127398095Y-106094819D02*
X127636190Y-106094819D01*
X127636190Y-106094819D02*
X127731428Y-106142438D01*
X127731428Y-106142438D02*
X127779047Y-106190057D01*
X127779047Y-106190057D02*
X127826666Y-106285295D01*
X127826666Y-106285295D02*
X127826666Y-106380533D01*
X127826666Y-106380533D02*
X127779047Y-106523390D01*
X127779047Y-106523390D02*
X127207619Y-107094819D01*
X127207619Y-107094819D02*
X127826666Y-107094819D01*
X124509405Y-142284819D02*
X124509405Y-141284819D01*
X124509405Y-141284819D02*
X124747500Y-141284819D01*
X124747500Y-141284819D02*
X124890357Y-141332438D01*
X124890357Y-141332438D02*
X124985595Y-141427676D01*
X124985595Y-141427676D02*
X125033214Y-141522914D01*
X125033214Y-141522914D02*
X125080833Y-141713390D01*
X125080833Y-141713390D02*
X125080833Y-141856247D01*
X125080833Y-141856247D02*
X125033214Y-142046723D01*
X125033214Y-142046723D02*
X124985595Y-142141961D01*
X124985595Y-142141961D02*
X124890357Y-142237200D01*
X124890357Y-142237200D02*
X124747500Y-142284819D01*
X124747500Y-142284819D02*
X124509405Y-142284819D01*
X125937976Y-141618152D02*
X125937976Y-142284819D01*
X125699881Y-141237200D02*
X125461786Y-141951485D01*
X125461786Y-141951485D02*
X126080833Y-141951485D01*
D12*
X125829071Y-142084809D02*
X125662405Y-141846714D01*
X125543357Y-142084809D02*
X125543357Y-141584809D01*
X125543357Y-141584809D02*
X125733833Y-141584809D01*
X125733833Y-141584809D02*
X125781452Y-141608619D01*
X125781452Y-141608619D02*
X125805262Y-141632428D01*
X125805262Y-141632428D02*
X125829071Y-141680047D01*
X125829071Y-141680047D02*
X125829071Y-141751476D01*
X125829071Y-141751476D02*
X125805262Y-141799095D01*
X125805262Y-141799095D02*
X125781452Y-141822904D01*
X125781452Y-141822904D02*
X125733833Y-141846714D01*
X125733833Y-141846714D02*
X125543357Y-141846714D01*
X126305262Y-142084809D02*
X126019548Y-142084809D01*
X126162405Y-142084809D02*
X126162405Y-141584809D01*
X126162405Y-141584809D02*
X126114786Y-141656238D01*
X126114786Y-141656238D02*
X126067167Y-141703857D01*
X126067167Y-141703857D02*
X126019548Y-141727666D01*
X126495738Y-141632428D02*
X126519547Y-141608619D01*
X126519547Y-141608619D02*
X126567166Y-141584809D01*
X126567166Y-141584809D02*
X126686214Y-141584809D01*
X126686214Y-141584809D02*
X126733833Y-141608619D01*
X126733833Y-141608619D02*
X126757642Y-141632428D01*
X126757642Y-141632428D02*
X126781452Y-141680047D01*
X126781452Y-141680047D02*
X126781452Y-141727666D01*
X126781452Y-141727666D02*
X126757642Y-141799095D01*
X126757642Y-141799095D02*
X126471928Y-142084809D01*
X126471928Y-142084809D02*
X126781452Y-142084809D01*
D11*
X121574819Y-143438094D02*
X120574819Y-143438094D01*
X120574819Y-143438094D02*
X120574819Y-143199999D01*
X120574819Y-143199999D02*
X120622438Y-143057142D01*
X120622438Y-143057142D02*
X120717676Y-142961904D01*
X120717676Y-142961904D02*
X120812914Y-142914285D01*
X120812914Y-142914285D02*
X121003390Y-142866666D01*
X121003390Y-142866666D02*
X121146247Y-142866666D01*
X121146247Y-142866666D02*
X121336723Y-142914285D01*
X121336723Y-142914285D02*
X121431961Y-142961904D01*
X121431961Y-142961904D02*
X121527200Y-143057142D01*
X121527200Y-143057142D02*
X121574819Y-143199999D01*
X121574819Y-143199999D02*
X121574819Y-143438094D01*
X120574819Y-141961904D02*
X120574819Y-142438094D01*
X120574819Y-142438094D02*
X121051009Y-142485713D01*
X121051009Y-142485713D02*
X121003390Y-142438094D01*
X121003390Y-142438094D02*
X120955771Y-142342856D01*
X120955771Y-142342856D02*
X120955771Y-142104761D01*
X120955771Y-142104761D02*
X121003390Y-142009523D01*
X121003390Y-142009523D02*
X121051009Y-141961904D01*
X121051009Y-141961904D02*
X121146247Y-141914285D01*
X121146247Y-141914285D02*
X121384342Y-141914285D01*
X121384342Y-141914285D02*
X121479580Y-141961904D01*
X121479580Y-141961904D02*
X121527200Y-142009523D01*
X121527200Y-142009523D02*
X121574819Y-142104761D01*
X121574819Y-142104761D02*
X121574819Y-142342856D01*
X121574819Y-142342856D02*
X121527200Y-142438094D01*
X121527200Y-142438094D02*
X121479580Y-142485713D01*
D12*
X122914809Y-143031428D02*
X122676714Y-143198094D01*
X122914809Y-143317142D02*
X122414809Y-143317142D01*
X122414809Y-143317142D02*
X122414809Y-143126666D01*
X122414809Y-143126666D02*
X122438619Y-143079047D01*
X122438619Y-143079047D02*
X122462428Y-143055237D01*
X122462428Y-143055237D02*
X122510047Y-143031428D01*
X122510047Y-143031428D02*
X122581476Y-143031428D01*
X122581476Y-143031428D02*
X122629095Y-143055237D01*
X122629095Y-143055237D02*
X122652904Y-143079047D01*
X122652904Y-143079047D02*
X122676714Y-143126666D01*
X122676714Y-143126666D02*
X122676714Y-143317142D01*
X122914809Y-142555237D02*
X122914809Y-142840951D01*
X122914809Y-142698094D02*
X122414809Y-142698094D01*
X122414809Y-142698094D02*
X122486238Y-142745713D01*
X122486238Y-142745713D02*
X122533857Y-142793332D01*
X122533857Y-142793332D02*
X122557666Y-142840951D01*
X122414809Y-142388571D02*
X122414809Y-142079047D01*
X122414809Y-142079047D02*
X122605285Y-142245714D01*
X122605285Y-142245714D02*
X122605285Y-142174285D01*
X122605285Y-142174285D02*
X122629095Y-142126666D01*
X122629095Y-142126666D02*
X122652904Y-142102857D01*
X122652904Y-142102857D02*
X122700523Y-142079047D01*
X122700523Y-142079047D02*
X122819571Y-142079047D01*
X122819571Y-142079047D02*
X122867190Y-142102857D01*
X122867190Y-142102857D02*
X122891000Y-142126666D01*
X122891000Y-142126666D02*
X122914809Y-142174285D01*
X122914809Y-142174285D02*
X122914809Y-142317142D01*
X122914809Y-142317142D02*
X122891000Y-142364761D01*
X122891000Y-142364761D02*
X122867190Y-142388571D01*
D11*
%TO.C,REF\u002A\u002A*%
X113460000Y-101560000D02*
X113960000Y-102060000D01*
X112660000Y-101560000D02*
X113460000Y-101560000D01*
X113960000Y-102060000D02*
X113960000Y-105660000D01*
X112160000Y-102060000D02*
X112660000Y-101560000D01*
X113960000Y-105660000D02*
X113460000Y-106160000D01*
X112160000Y-105660000D02*
X112160000Y-102060000D01*
X113460000Y-106160000D02*
X112660000Y-106160000D01*
X112660000Y-106160000D02*
X112160000Y-105660000D01*
D13*
%TO.C,U4*%
X121831300Y-147966400D02*
X123888700Y-147966400D01*
X123888700Y-146653261D02*
X123888700Y-145926739D01*
X123888700Y-144613600D02*
X121831300Y-144613600D01*
D14*
%TO.C,J3*%
X113977900Y-123294300D02*
G75*
G02*
X113215900Y-123294300I-381000J0D01*
G01*
X113215900Y-123294300D02*
G75*
G02*
X113977900Y-123294300I381000J0D01*
G01*
D15*
%TO.C,U2*%
X116450000Y-117700000D02*
X117180000Y-117700000D01*
X116450000Y-118945000D02*
X116450000Y-117700000D01*
X116450000Y-135700000D02*
X116450000Y-134455000D01*
X116450000Y-135700000D02*
X117180000Y-135700000D01*
X135230000Y-117700000D02*
X141950000Y-117700000D01*
X141950000Y-117700000D02*
X141950000Y-135700000D01*
X141950000Y-135700000D02*
X135230000Y-135700000D01*
D16*
X134560000Y-116700000D02*
G75*
G02*
X134360000Y-116700000I-100000J0D01*
G01*
X134360000Y-116700000D02*
G75*
G02*
X134560000Y-116700000I100000J0D01*
G01*
D13*
%TO.C,J1*%
X115349000Y-102703000D02*
X115349000Y-105497000D01*
X115349000Y-105497000D02*
X138971000Y-105497000D01*
X138971000Y-102703000D02*
X115349000Y-102703000D01*
X138971000Y-105497000D02*
X138971000Y-102703000D01*
D14*
X115095000Y-104100000D02*
G75*
G02*
X114333000Y-104100000I-381000J0D01*
G01*
X114333000Y-104100000D02*
G75*
G02*
X115095000Y-104100000I381000J0D01*
G01*
D17*
%TO.C,R3*%
X133754724Y-108567500D02*
X133245276Y-108567500D01*
X133754724Y-109612500D02*
X133245276Y-109612500D01*
D13*
%TO.C,SW2*%
X113533200Y-142295002D02*
G75*
G02*
X113126800Y-142295002I-203200J0D01*
G01*
X113126800Y-142295002D02*
G75*
G02*
X113533200Y-142295002I203200J0D01*
G01*
X111953000Y-140517002D02*
X112147260Y-140517002D01*
X114512740Y-140517002D02*
X114707000Y-140517002D01*
X114707000Y-140517002D02*
X114707000Y-137263002D01*
X111953000Y-137263002D02*
X111953000Y-140517002D01*
X112147260Y-137263002D02*
X111953000Y-137263002D01*
X114707000Y-137263002D02*
X114512740Y-137263002D01*
D17*
%TO.C,C6*%
X127351233Y-146380000D02*
X127643767Y-146380000D01*
X127351233Y-147400000D02*
X127643767Y-147400000D01*
D13*
%TO.C,SW1*%
X131373000Y-112623000D02*
X131373000Y-115877000D01*
X131373000Y-115877000D02*
X131567260Y-115877000D01*
X131567260Y-112623000D02*
X131373000Y-112623000D01*
X133932740Y-115877000D02*
X134127000Y-115877000D01*
X134127000Y-112623000D02*
X133932740Y-112623000D01*
X134127000Y-115877000D02*
X134127000Y-112623000D01*
X132953200Y-110845000D02*
G75*
G02*
X132546800Y-110845000I-203200J0D01*
G01*
X132546800Y-110845000D02*
G75*
G02*
X132953200Y-110845000I203200J0D01*
G01*
D17*
%TO.C,C3*%
X116928729Y-140052500D02*
X117221263Y-140052500D01*
X116928729Y-141072500D02*
X117221263Y-141072500D01*
D13*
%TO.C,SW3*%
X128048198Y-149510000D02*
G75*
G02*
X127641798Y-149510000I-203200J0D01*
G01*
X127641798Y-149510000D02*
G75*
G02*
X128048198Y-149510000I203200J0D01*
G01*
X132876998Y-150887000D02*
X132876998Y-150692740D01*
X132876998Y-148327260D02*
X132876998Y-148133000D01*
X132876998Y-148133000D02*
X129622998Y-148133000D01*
X129622998Y-150887000D02*
X132876998Y-150887000D01*
X129622998Y-150692740D02*
X129622998Y-150887000D01*
X129622998Y-148133000D02*
X129622998Y-148327260D01*
D17*
%TO.C,C2*%
X133646267Y-110240000D02*
X133353733Y-110240000D01*
X133646267Y-111260000D02*
X133353733Y-111260000D01*
D13*
%TO.C,J2*%
X115349000Y-105243000D02*
X115349000Y-108037000D01*
X115349000Y-108037000D02*
X138971000Y-108037000D01*
X138971000Y-105243000D02*
X115349000Y-105243000D01*
X138971000Y-108037000D02*
X138971000Y-105243000D01*
D14*
X115095000Y-106640000D02*
G75*
G02*
X114333000Y-106640000I-381000J0D01*
G01*
X114333000Y-106640000D02*
G75*
G02*
X115095000Y-106640000I381000J0D01*
G01*
D17*
%TO.C,D4*%
X126047500Y-141095000D02*
X123587500Y-141095000D01*
X123587500Y-141095000D02*
X123587500Y-142565000D01*
X123587500Y-142565000D02*
X126047500Y-142565000D01*
%TO.C,R12*%
X125504724Y-143882500D02*
X124995276Y-143882500D01*
X125504724Y-142837500D02*
X124995276Y-142837500D01*
%TO.C,D5*%
X120385000Y-144360000D02*
X121855000Y-144360000D01*
X120385000Y-141900000D02*
X120385000Y-144360000D01*
X121855000Y-144360000D02*
X121855000Y-141900000D01*
%TO.C,R13*%
X122167500Y-142455276D02*
X122167500Y-142964724D01*
X123212500Y-142455276D02*
X123212500Y-142964724D01*
D14*
%TO.C,J4*%
X126289401Y-149390000D02*
G75*
G02*
X125527401Y-149390000I-381000J0D01*
G01*
X125527401Y-149390000D02*
G75*
G02*
X126289401Y-149390000I381000J0D01*
G01*
%TO.C,J5*%
X117930997Y-144449700D02*
G75*
G02*
X117168997Y-144449700I-381000J0D01*
G01*
X117168997Y-144449700D02*
G75*
G02*
X117930997Y-144449700I381000J0D01*
G01*
%TD*%
M02*
