%TF.GenerationSoftware,KiCad,Pcbnew,8.0.5*%
%TF.CreationDate,2025-04-10T23:54:11-07:00*%
%TF.ProjectId,ESP32,45535033-322e-46b6-9963-61645f706362,rev?*%
%TF.SameCoordinates,Original*%
%TF.FileFunction,Copper,L1,Top*%
%TF.FilePolarity,Positive*%
%FSLAX46Y46*%
G04 Gerber Fmt 4.6, Leading zero omitted, Abs format (unit mm)*
G04 Created by KiCad (PCBNEW 8.0.5) date 2025-04-10 23:54:11*
%MOMM*%
%LPD*%
G01*
G04 APERTURE LIST*
G04 Aperture macros list*
%AMRoundRect*
0 Rectangle with rounded corners*
0 $1 Rounding radius*
0 $2 $3 $4 $5 $6 $7 $8 $9 X,Y pos of 4 corners*
0 Add a 4 corners polygon primitive as box body*
4,1,4,$2,$3,$4,$5,$6,$7,$8,$9,$2,$3,0*
0 Add four circle primitives for the rounded corners*
1,1,$1+$1,$2,$3*
1,1,$1+$1,$4,$5*
1,1,$1+$1,$6,$7*
1,1,$1+$1,$8,$9*
0 Add four rect primitives between the rounded corners*
20,1,$1+$1,$2,$3,$4,$5,0*
20,1,$1+$1,$4,$5,$6,$7,0*
20,1,$1+$1,$6,$7,$8,$9,0*
20,1,$1+$1,$8,$9,$2,$3,0*%
G04 Aperture macros list end*
%TA.AperFunction,ComponentPad*%
%ADD10C,1.400000*%
%TD*%
%TA.AperFunction,SMDPad,CuDef*%
%ADD11R,1.320800X0.508000*%
%TD*%
%TA.AperFunction,SMDPad,CuDef*%
%ADD12R,0.475000X0.500000*%
%TD*%
%TA.AperFunction,ComponentPad*%
%ADD13C,1.498600*%
%TD*%
%TA.AperFunction,SMDPad,CuDef*%
%ADD14R,0.787400X0.787400*%
%TD*%
%TA.AperFunction,SMDPad,CuDef*%
%ADD15R,0.900000X1.500000*%
%TD*%
%TA.AperFunction,SMDPad,CuDef*%
%ADD16R,1.500000X0.900000*%
%TD*%
%TA.AperFunction,SMDPad,CuDef*%
%ADD17R,0.900000X0.900000*%
%TD*%
%TA.AperFunction,ComponentPad*%
%ADD18C,1.574800*%
%TD*%
%TA.AperFunction,SMDPad,CuDef*%
%ADD19RoundRect,0.237500X0.250000X0.237500X-0.250000X0.237500X-0.250000X-0.237500X0.250000X-0.237500X0*%
%TD*%
%TA.AperFunction,SMDPad,CuDef*%
%ADD20R,1.700000X0.800000*%
%TD*%
%TA.AperFunction,SMDPad,CuDef*%
%ADD21RoundRect,0.237500X-0.300000X-0.237500X0.300000X-0.237500X0.300000X0.237500X-0.300000X0.237500X0*%
%TD*%
%TA.AperFunction,SMDPad,CuDef*%
%ADD22R,0.800000X1.700000*%
%TD*%
%TA.AperFunction,SMDPad,CuDef*%
%ADD23RoundRect,0.237500X0.300000X0.237500X-0.300000X0.237500X-0.300000X-0.237500X0.300000X-0.237500X0*%
%TD*%
%TA.AperFunction,SMDPad,CuDef*%
%ADD24RoundRect,0.237500X-0.287500X-0.237500X0.287500X-0.237500X0.287500X0.237500X-0.287500X0.237500X0*%
%TD*%
%TA.AperFunction,SMDPad,CuDef*%
%ADD25RoundRect,0.237500X0.237500X-0.287500X0.237500X0.287500X-0.237500X0.287500X-0.237500X-0.287500X0*%
%TD*%
%TA.AperFunction,SMDPad,CuDef*%
%ADD26RoundRect,0.237500X-0.237500X0.250000X-0.237500X-0.250000X0.237500X-0.250000X0.237500X0.250000X0*%
%TD*%
%TA.AperFunction,ComponentPad*%
%ADD27C,1.270000*%
%TD*%
%TA.AperFunction,ViaPad*%
%ADD28C,0.600000*%
%TD*%
%TA.AperFunction,Conductor*%
%ADD29C,0.200000*%
%TD*%
G04 APERTURE END LIST*
D10*
%TO.P,,1*%
%TO.N,Net-(D4-A)*%
X132380000Y-138180000D03*
%TD*%
%TO.P,,1*%
%TO.N,/SDA*%
X140470000Y-103500000D03*
%TD*%
%TO.P,,1*%
%TO.N,/SCL*%
X140460000Y-106050000D03*
%TD*%
%TO.P,REF\u002A\u002A,1*%
%TO.N,+3V3*%
X113060000Y-102590000D03*
%TO.P,REF\u002A\u002A,2*%
%TO.N,GND*%
X113060000Y-105130000D03*
%TD*%
D11*
%TO.P,U4,1*%
%TO.N,Net-(R12-Pad2)*%
X121564600Y-145339999D03*
%TO.P,U4,2*%
%TO.N,GND*%
X121564600Y-146290000D03*
%TO.P,U4,3*%
%TO.N,Net-(J4-Pin_1)*%
X121564600Y-147240001D03*
%TO.P,U4,4*%
%TO.N,Net-(D4-A)*%
X124155400Y-147240001D03*
%TO.P,U4,5*%
%TO.N,Net-(JP2-B)*%
X124155400Y-145339999D03*
%TD*%
D12*
%TO.P,R6,2*%
%TO.N,Net-(D2-A)*%
X119820000Y-137960000D03*
%TO.P,R6,1*%
%TO.N,Net-(U2-IO37)*%
X120844000Y-137960000D03*
%TD*%
D13*
%TO.P,J3,1,Pin_1*%
%TO.N,Net-(J3-Pin_1)*%
X113596900Y-120086600D03*
%TO.P,J3,2,Pin_2*%
%TO.N,Net-(J3-Pin_2)*%
X113596900Y-117586600D03*
%TD*%
D14*
%TO.P,D2,2,A*%
%TO.N,Net-(D2-A)*%
X114150000Y-143790000D03*
%TO.P,D2,1,K*%
%TO.N,GND*%
X112651400Y-143790000D03*
%TD*%
D15*
%TO.P,U2,1,GND*%
%TO.N,GND*%
X134460000Y-117950000D03*
%TO.P,U2,2,3V3*%
%TO.N,+3V3*%
X133190000Y-117950000D03*
%TO.P,U2,3,EN*%
%TO.N,Net-(SW1A-B)*%
X131920000Y-117950000D03*
%TO.P,U2,4,IO4*%
%TO.N,/D3*%
X130650000Y-117950000D03*
%TO.P,U2,5,IO5*%
%TO.N,/D4*%
X129380000Y-117950000D03*
%TO.P,U2,6,IO6*%
%TO.N,/D5*%
X128110000Y-117950000D03*
%TO.P,U2,7,IO7*%
%TO.N,/D6*%
X126840000Y-117950000D03*
%TO.P,U2,8,IO15*%
%TO.N,/VS*%
X125570000Y-117950000D03*
%TO.P,U2,9,IO16*%
%TO.N,/HS*%
X124300000Y-117950000D03*
%TO.P,U2,10,IO17*%
%TO.N,unconnected-(U2-IO17-Pad10)*%
X123030000Y-117950000D03*
%TO.P,U2,11,IO18*%
%TO.N,Net-(SW3A-B)*%
X121760000Y-117950000D03*
%TO.P,U2,12,IO8*%
%TO.N,/D7*%
X120490000Y-117950000D03*
%TO.P,U2,13,IO19*%
%TO.N,/USB_D-*%
X119220000Y-117950000D03*
%TO.P,U2,14,IO20*%
%TO.N,/USB_D+*%
X117950000Y-117950000D03*
D16*
%TO.P,U2,15,IO3*%
%TO.N,/D2*%
X116700000Y-119715000D03*
%TO.P,U2,16,IO46*%
%TO.N,unconnected-(U2-IO46-Pad16)*%
X116700000Y-120985000D03*
%TO.P,U2,17,IO9*%
%TO.N,/SCL*%
X116700000Y-122255000D03*
%TO.P,U2,18,IO10*%
%TO.N,/SDA*%
X116700000Y-123525000D03*
%TO.P,U2,19,IO11*%
%TO.N,unconnected-(U2-IO11-Pad19)*%
X116700000Y-124795000D03*
%TO.P,U2,20,IO12*%
%TO.N,unconnected-(U2-IO12-Pad20)*%
X116700000Y-126065000D03*
%TO.P,U2,21,IO13*%
%TO.N,/PCLK*%
X116700000Y-127335000D03*
%TO.P,U2,22,IO14*%
%TO.N,/MCLK*%
X116700000Y-128605000D03*
%TO.P,U2,23,IO21*%
%TO.N,unconnected-(U2-IO21-Pad23)*%
X116700000Y-129875000D03*
%TO.P,U2,24,IO33*%
%TO.N,unconnected-(U2-IO33-Pad24)*%
X116700000Y-131145000D03*
%TO.P,U2,25,IO34*%
%TO.N,unconnected-(U2-IO34-Pad25)*%
X116700000Y-132415000D03*
%TO.P,U2,26,IO45*%
%TO.N,unconnected-(U2-IO45-Pad26)*%
X116700000Y-133685000D03*
D15*
%TO.P,U2,27,IO0*%
%TO.N,Net-(SW2A-B)*%
X117950000Y-135450000D03*
%TO.P,U2,28,IO35*%
%TO.N,unconnected-(U2-IO35-Pad28)*%
X119220000Y-135450000D03*
%TO.P,U2,29,IO36*%
%TO.N,unconnected-(U2-IO36-Pad29)*%
X120490000Y-135450000D03*
%TO.P,U2,30,IO37*%
%TO.N,Net-(U2-IO37)*%
X121760000Y-135450000D03*
%TO.P,U2,31,IO38*%
%TO.N,unconnected-(U2-IO38-Pad31)*%
X123030000Y-135450000D03*
%TO.P,U2,32,IO39*%
%TO.N,unconnected-(U2-IO39-Pad32)*%
X124300000Y-135450000D03*
%TO.P,U2,33,IO40*%
%TO.N,unconnected-(U2-IO40-Pad33)*%
X125570000Y-135450000D03*
%TO.P,U2,34,IO41*%
%TO.N,unconnected-(U2-IO41-Pad34)*%
X126840000Y-135450000D03*
%TO.P,U2,35,IO42*%
%TO.N,unconnected-(U2-IO42-Pad35)*%
X128110000Y-135450000D03*
%TO.P,U2,36,RXD0*%
%TO.N,unconnected-(U2-RXD0-Pad36)*%
X129380000Y-135450000D03*
%TO.P,U2,37,TXD0*%
%TO.N,unconnected-(U2-TXD0-Pad37)*%
X130650000Y-135450000D03*
%TO.P,U2,38,IO2*%
%TO.N,/D1*%
X131920000Y-135450000D03*
%TO.P,U2,39,IO1*%
%TO.N,/D0*%
X133190000Y-135450000D03*
%TO.P,U2,40,GND__1*%
%TO.N,GND*%
X134460000Y-135450000D03*
D17*
%TO.P,U2,41_1,EPAD*%
X128140000Y-123800000D03*
%TO.P,U2,41_2,EPAD__1*%
X128140000Y-125200000D03*
%TO.P,U2,41_3,EPAD__2*%
X128140000Y-126600000D03*
%TO.P,U2,41_4,EPAD__3*%
X126740000Y-123800000D03*
%TO.P,U2,41_5,EPAD__4*%
X126740000Y-125200000D03*
%TO.P,U2,41_6,EPAD__5*%
X126740000Y-126600000D03*
%TO.P,U2,41_7,EPAD__6*%
X125340000Y-123800000D03*
%TO.P,U2,41_8,EPAD__7*%
X125340000Y-125200000D03*
%TO.P,U2,41_9,EPAD__8*%
X125340000Y-126600000D03*
%TD*%
D18*
%TO.P,J1,1,1*%
%TO.N,+3V3*%
X117000000Y-104100000D03*
%TO.P,J1,2,2*%
%TO.N,/SCL*%
X119540000Y-104100000D03*
%TO.P,J1,3,3*%
%TO.N,/VS*%
X122080000Y-104100000D03*
%TO.P,J1,4,4*%
%TO.N,/PCLK*%
X124620000Y-104100000D03*
%TO.P,J1,5,5*%
%TO.N,/D7*%
X127160000Y-104100000D03*
%TO.P,J1,6,6*%
%TO.N,/D5*%
X129700000Y-104100000D03*
%TO.P,J1,7,7*%
%TO.N,/D3*%
X132240000Y-104100000D03*
%TO.P,J1,8,8*%
%TO.N,/D1*%
X134780000Y-104100000D03*
%TO.P,J1,9,9*%
%TO.N,+3V3*%
X137320000Y-104100000D03*
%TD*%
D19*
%TO.P,R3,1*%
%TO.N,+3V3*%
X134412500Y-109090000D03*
%TO.P,R3,2*%
%TO.N,Net-(SW1A-B)*%
X132587500Y-109090000D03*
%TD*%
D20*
%TO.P,SW2,2,B*%
%TO.N,Net-(SW2A-B)*%
X113330000Y-137190000D03*
%TO.P,SW2,1,A*%
%TO.N,GND*%
X113330000Y-140590004D03*
%TD*%
D21*
%TO.P,C6,1*%
%TO.N,GND*%
X126635000Y-146890000D03*
%TO.P,C6,2*%
%TO.N,Net-(SW3A-B)*%
X128360000Y-146890000D03*
%TD*%
D20*
%TO.P,SW1,1,A*%
%TO.N,GND*%
X132750000Y-112549998D03*
%TO.P,SW1,2,B*%
%TO.N,Net-(SW1A-B)*%
X132750000Y-115950002D03*
%TD*%
D21*
%TO.P,C3,1*%
%TO.N,GND*%
X116212496Y-140562500D03*
%TO.P,C3,2*%
%TO.N,Net-(SW2A-B)*%
X117937496Y-140562500D03*
%TD*%
D22*
%TO.P,SW3,2,B*%
%TO.N,Net-(SW3A-B)*%
X132950000Y-149510000D03*
%TO.P,SW3,1,A*%
%TO.N,GND*%
X129549996Y-149510000D03*
%TD*%
D23*
%TO.P,C2,1*%
%TO.N,GND*%
X134362500Y-110750000D03*
%TO.P,C2,2*%
%TO.N,Net-(SW1A-B)*%
X132637500Y-110750000D03*
%TD*%
D18*
%TO.P,J2,1,1*%
%TO.N,GND*%
X117000000Y-106640000D03*
%TO.P,J2,2,2*%
%TO.N,/SDA*%
X119540000Y-106640000D03*
%TO.P,J2,3,3*%
%TO.N,/HS*%
X122080000Y-106640000D03*
%TO.P,J2,4,4*%
%TO.N,Net-(J2-Pad4)*%
X124620000Y-106640000D03*
%TO.P,J2,5,5*%
%TO.N,/D6*%
X127160000Y-106640000D03*
%TO.P,J2,6,6*%
%TO.N,/D4*%
X129700000Y-106640000D03*
%TO.P,J2,7,7*%
%TO.N,/D2*%
X132240000Y-106640000D03*
%TO.P,J2,8,8*%
%TO.N,/D0*%
X134780000Y-106640000D03*
%TO.P,J2,9,9*%
%TO.N,GND*%
X137320000Y-106640000D03*
%TD*%
D24*
%TO.P,D4,2,A*%
%TO.N,Net-(D4-A)*%
X126122500Y-141830000D03*
%TO.P,D4,1,K*%
%TO.N,Net-(D4-K)*%
X124372500Y-141830000D03*
%TD*%
D19*
%TO.P,R12,2*%
%TO.N,Net-(R12-Pad2)*%
X124337500Y-143360000D03*
%TO.P,R12,1*%
%TO.N,Net-(D4-K)*%
X126162500Y-143360000D03*
%TD*%
D25*
%TO.P,D5,2,A*%
%TO.N,Net-(D5-A)*%
X121120000Y-141825000D03*
%TO.P,D5,1,K*%
%TO.N,GND*%
X121120000Y-143575000D03*
%TD*%
D26*
%TO.P,R13,1*%
%TO.N,Net-(D5-A)*%
X122690000Y-141797500D03*
%TO.P,R13,2*%
%TO.N,Net-(R12-Pad2)*%
X122690000Y-143622500D03*
%TD*%
D27*
%TO.P,J4,1,Pin_1*%
%TO.N,Net-(J4-Pin_1)*%
X123200001Y-149390000D03*
%TO.P,J4,2,Pin_2*%
%TO.N,GND*%
X121200000Y-149390000D03*
%TD*%
D28*
%TO.N,GND*%
X113310000Y-122050000D03*
%TO.N,Net-(JP2-B)*%
X125690000Y-144560000D03*
%TO.N,+3V3*%
X122180000Y-140740000D03*
X120240000Y-123630000D03*
X121830000Y-122040000D03*
%TO.N,GND*%
X115485210Y-120349313D03*
%TO.N,/SDA*%
X114260000Y-124960000D03*
%TO.N,GND*%
X120850000Y-139540000D03*
X121050000Y-140740000D03*
X116150000Y-141850000D03*
%TO.N,+3V3*%
X124860000Y-121050000D03*
X123910000Y-136800000D03*
X120340000Y-112230000D03*
%TO.N,GND*%
X128170000Y-148500000D03*
%TO.N,Net-(J4-Pin_1)*%
X134740000Y-142710000D03*
%TO.N,Net-(D4-A)*%
X125060000Y-140630000D03*
%TO.N,Net-(SW3A-B)*%
X128130000Y-145280000D03*
%TO.N,Net-(J4-Pin_1)*%
X127520000Y-149550000D03*
%TO.N,Net-(SW3A-B)*%
X127650000Y-133540000D03*
%TO.N,/D2*%
X121750000Y-119738528D03*
X123700000Y-119690000D03*
%TO.N,/USB_D-*%
X116170000Y-139050000D03*
%TO.N,/USB_D+*%
X116274997Y-136820400D03*
%TO.N,/SCL*%
X118087400Y-122000000D03*
%TO.N,/SDA*%
X113600000Y-128770000D03*
X119540000Y-122460000D03*
%TO.N,/PCLK*%
X121750000Y-127250000D03*
%TO.N,/D1*%
X131920000Y-133150000D03*
%TO.N,/MCLK*%
X119750000Y-128500000D03*
%TO.N,/D0*%
X133250000Y-133250000D03*
%TO.N,/D2*%
X127410000Y-119660000D03*
%TO.N,+3V3*%
X130320000Y-136810000D03*
X118290000Y-124290000D03*
%TD*%
D29*
%TO.N,/SCL*%
X140460000Y-105702184D02*
X140460000Y-106050000D01*
X137370416Y-102612600D02*
X140460000Y-105702184D01*
X121027400Y-102612600D02*
X137370416Y-102612600D01*
X119540000Y-104100000D02*
X121027400Y-102612600D01*
%TO.N,Net-(D4-A)*%
X131250000Y-139310000D02*
X132390000Y-138170000D01*
X131250000Y-140370000D02*
X131250000Y-139310000D01*
%TO.N,/USB_D-*%
X112465000Y-134465000D02*
X116340000Y-138340000D01*
X116340000Y-138340000D02*
X116340000Y-139010000D01*
X112465000Y-117234565D02*
X112465000Y-134465000D01*
X119220000Y-117410000D02*
X118347300Y-116537300D01*
X118347300Y-116537300D02*
X113162265Y-116537300D01*
X113162265Y-116537300D02*
X112465000Y-117234565D01*
X119220000Y-117950000D02*
X119220000Y-117410000D01*
X116340000Y-139010000D02*
X116320000Y-139030000D01*
%TO.N,Net-(D2-A)*%
X119820000Y-139984218D02*
X116014218Y-143790000D01*
X116014218Y-143790000D02*
X114150000Y-143790000D01*
X119820000Y-137960000D02*
X119820000Y-139984218D01*
%TO.N,Net-(U2-IO37)*%
X121760000Y-137044000D02*
X120844000Y-137960000D01*
X121760000Y-135450000D02*
X121760000Y-137044000D01*
%TO.N,Net-(JP2-B)*%
X124910001Y-145339999D02*
X125690000Y-144560000D01*
X124155400Y-145339999D02*
X124910001Y-145339999D01*
%TO.N,Net-(D4-K)*%
X125902500Y-143360000D02*
X124372500Y-141830000D01*
X126162500Y-143360000D02*
X125902500Y-143360000D01*
%TO.N,Net-(J4-Pin_1)*%
X121564600Y-147754599D02*
X121564600Y-147240001D01*
X123200001Y-149390000D02*
X121564600Y-147754599D01*
%TO.N,Net-(D4-A)*%
X126950000Y-142657500D02*
X126122500Y-141830000D01*
X126950000Y-144445401D02*
X126950000Y-142657500D01*
X124155400Y-147240001D02*
X126950000Y-144445401D01*
%TO.N,Net-(R12-Pad2)*%
X122952500Y-143360000D02*
X122690000Y-143622500D01*
X124337500Y-143360000D02*
X122952500Y-143360000D01*
X121564600Y-145339999D02*
X121564600Y-144747900D01*
X121564600Y-144747900D02*
X122690000Y-143622500D01*
%TO.N,Net-(D5-A)*%
X121120000Y-141825000D02*
X122662500Y-141825000D01*
X122662500Y-141825000D02*
X122690000Y-141797500D01*
%TO.N,+3V3*%
X123080000Y-140740000D02*
X123910000Y-139910000D01*
X122180000Y-140740000D02*
X123080000Y-140740000D01*
X119580000Y-124290000D02*
X120240000Y-123630000D01*
X118290000Y-124290000D02*
X119580000Y-124290000D01*
X120240000Y-123630000D02*
X121830000Y-122040000D01*
%TO.N,/USB_D+*%
X114880000Y-119735000D02*
X116665000Y-117950000D01*
X114880000Y-119970000D02*
X114880000Y-119735000D01*
X114880000Y-121780000D02*
X114880000Y-119970000D01*
X112865000Y-123795000D02*
X114880000Y-121780000D01*
X112865000Y-132313320D02*
X112865000Y-123795000D01*
%TO.N,/SDA*%
X113590000Y-128570000D02*
X113420000Y-128740000D01*
X113590000Y-125685000D02*
X113590000Y-128570000D01*
X115750000Y-123525000D02*
X113590000Y-125685000D01*
X116700000Y-123525000D02*
X115750000Y-123525000D01*
%TO.N,GND*%
X121050000Y-140740000D02*
X121050000Y-139740000D01*
X121050000Y-139740000D02*
X120850000Y-139540000D01*
X116212496Y-141787504D02*
X116150000Y-141850000D01*
X116212496Y-140562500D02*
X116212496Y-141787504D01*
%TO.N,+3V3*%
X138407400Y-105187400D02*
X137320000Y-104100000D01*
X138407400Y-108042600D02*
X138407400Y-105187400D01*
X134891722Y-111558278D02*
X138407400Y-108042600D01*
X134891722Y-115718278D02*
X134891722Y-111558278D01*
X133190000Y-117420000D02*
X134891722Y-115718278D01*
X133190000Y-117950000D02*
X133190000Y-117420000D01*
X124860000Y-121050000D02*
X131040000Y-121050000D01*
X131040000Y-121050000D02*
X133190000Y-118900000D01*
X133190000Y-118900000D02*
X133190000Y-117950000D01*
%TO.N,GND*%
X113357504Y-140562500D02*
X113330000Y-140590004D01*
X116212496Y-140562500D02*
X113357504Y-140562500D01*
%TO.N,Net-(SW2A-B)*%
X115927500Y-139787500D02*
X117162496Y-139787500D01*
X117162496Y-139787500D02*
X117937496Y-140562500D01*
X113330000Y-137190000D02*
X115927500Y-139787500D01*
%TO.N,+3V3*%
X123910000Y-139910000D02*
X123910000Y-136800000D01*
X123920000Y-136810000D02*
X123910000Y-136800000D01*
X120340000Y-110910000D02*
X120340000Y-112230000D01*
X118120000Y-108690000D02*
X120340000Y-110910000D01*
X118120000Y-105220000D02*
X118120000Y-108690000D01*
X117000000Y-104100000D02*
X118120000Y-105220000D01*
%TO.N,/D7*%
X121070000Y-116660000D02*
X120490000Y-117240000D01*
X120627400Y-103872600D02*
X120627400Y-106725216D01*
X120490000Y-117240000D02*
X120490000Y-117950000D01*
X121487400Y-103012600D02*
X120627400Y-103872600D01*
X120627400Y-106725216D02*
X121070000Y-107167816D01*
X126072600Y-103012600D02*
X121487400Y-103012600D01*
X121070000Y-107167816D02*
X121070000Y-116660000D01*
X127160000Y-104100000D02*
X126072600Y-103012600D01*
%TO.N,GND*%
X126635000Y-149515000D02*
X126635000Y-146890000D01*
X127270000Y-150150000D02*
X126635000Y-149515000D01*
X127768529Y-150150000D02*
X127270000Y-150150000D01*
X128170000Y-148500000D02*
X128170000Y-149748529D01*
X128170000Y-149748529D02*
X127768529Y-150150000D01*
X128170000Y-148500000D02*
X128539996Y-148500000D01*
X128539996Y-148500000D02*
X129549996Y-149510000D01*
%TO.N,Net-(SW3A-B)*%
X130330000Y-146890000D02*
X132950000Y-149510000D01*
X128360000Y-146890000D02*
X130330000Y-146890000D01*
%TO.N,Net-(D4-A)*%
X125320000Y-140370000D02*
X131250000Y-140370000D01*
%TO.N,Net-(J4-Pin_1)*%
X129450980Y-142710000D02*
X134740000Y-142710000D01*
X129395490Y-142765490D02*
X129450980Y-142710000D01*
X129395490Y-142765490D02*
X127520000Y-144640981D01*
%TO.N,Net-(D4-A)*%
X125060000Y-140630000D02*
X125320000Y-140370000D01*
%TO.N,Net-(SW3A-B)*%
X128130000Y-146660000D02*
X128360000Y-146890000D01*
X128130000Y-145280000D02*
X128130000Y-146660000D01*
%TO.N,Net-(J4-Pin_1)*%
X127520000Y-144640981D02*
X127520000Y-149550000D01*
%TO.N,Net-(SW3A-B)*%
X127650000Y-133540000D02*
X127650000Y-133610000D01*
%TO.N,/D2*%
X121726472Y-119715000D02*
X116700000Y-119715000D01*
X121750000Y-119738528D02*
X121726472Y-119715000D01*
X123730000Y-119660000D02*
X123700000Y-119690000D01*
X127410000Y-119660000D02*
X123730000Y-119660000D01*
%TO.N,Net-(SW3A-B)*%
X121760000Y-118900000D02*
X122820000Y-119960000D01*
X121760000Y-117950000D02*
X121760000Y-118900000D01*
X122820000Y-125580000D02*
X127650000Y-130410000D01*
X122820000Y-119960000D02*
X122820000Y-125580000D01*
%TO.N,Net-(SW1A-B)*%
X132000000Y-117870000D02*
X131920000Y-117950000D01*
X132587500Y-110700000D02*
X132637500Y-110750000D01*
X131600000Y-111787500D02*
X131600000Y-114800002D01*
X131920000Y-116780002D02*
X132750000Y-115950002D01*
X131920000Y-117950000D02*
X131920000Y-116780002D01*
X132637500Y-110750000D02*
X131600000Y-111787500D01*
X132587500Y-109090000D02*
X132587500Y-110700000D01*
X131600000Y-114800002D02*
X132750000Y-115950002D01*
%TO.N,GND*%
X132637500Y-112437498D02*
X132750000Y-112549998D01*
X137320000Y-107792500D02*
X137320000Y-106640000D01*
X134362500Y-110937498D02*
X134362500Y-110750000D01*
X134362500Y-110750000D02*
X137320000Y-107792500D01*
X132750000Y-112549998D02*
X134362500Y-110937498D01*
%TO.N,Net-(SW2A-B)*%
X117950000Y-135450000D02*
X117950000Y-137000000D01*
X117937496Y-137012504D02*
X117950000Y-137000000D01*
X117937496Y-140562500D02*
X117937496Y-137012504D01*
%TO.N,+3V3*%
X136232600Y-107269900D02*
X136232600Y-105187400D01*
X136232600Y-105187400D02*
X137320000Y-104100000D01*
X134412500Y-109090000D02*
X136232600Y-107269900D01*
%TO.N,Net-(SW3A-B)*%
X127650000Y-130410000D02*
X127650000Y-133540000D01*
%TO.N,/USB_D+*%
X116274997Y-136820400D02*
X116274997Y-135723317D01*
X116665000Y-117950000D02*
X117950000Y-117950000D01*
X116274997Y-135723317D02*
X112865000Y-132313320D01*
%TO.N,/SCL*%
X116700000Y-122255000D02*
X117832400Y-122255000D01*
X117832400Y-122255000D02*
X118087400Y-122000000D01*
%TO.N,/SDA*%
X118475000Y-123525000D02*
X119540000Y-122460000D01*
X116700000Y-123525000D02*
X118475000Y-123525000D01*
%TO.N,/HS*%
X122080000Y-106640000D02*
X124300000Y-108860000D01*
X124300000Y-108860000D02*
X124300000Y-117950000D01*
%TO.N,/VS*%
X123167400Y-105187400D02*
X123167400Y-107161714D01*
X123167400Y-107161714D02*
X125570000Y-109564314D01*
X122080000Y-104100000D02*
X123167400Y-105187400D01*
X125570000Y-109564314D02*
X125570000Y-117950000D01*
%TO.N,/D3*%
X130787400Y-117812600D02*
X130787400Y-105552600D01*
X130787400Y-105552600D02*
X132240000Y-104100000D01*
X130650000Y-117950000D02*
X130787400Y-117812600D01*
%TO.N,/D7*%
X120490000Y-117950000D02*
X120627400Y-117812600D01*
%TO.N,/PCLK*%
X121665000Y-127335000D02*
X121750000Y-127250000D01*
X116700000Y-127335000D02*
X121665000Y-127335000D01*
%TO.N,/D1*%
X131920000Y-133150000D02*
X131920000Y-135450000D01*
X131920000Y-133080000D02*
X131920000Y-133150000D01*
X132000000Y-133000000D02*
X131920000Y-133080000D01*
%TO.N,/MCLK*%
X119645000Y-128605000D02*
X119750000Y-128500000D01*
X116700000Y-128605000D02*
X119645000Y-128605000D01*
X116700000Y-128605000D02*
X116120000Y-128605000D01*
%TO.N,/D0*%
X133190000Y-133310000D02*
X133190000Y-135450000D01*
X133250000Y-133250000D02*
X133190000Y-133310000D01*
%TO.N,/D6*%
X127160000Y-106640000D02*
X127160000Y-117630000D01*
X127160000Y-117630000D02*
X126840000Y-117950000D01*
%TO.N,/D5*%
X128612600Y-105187400D02*
X129700000Y-104100000D01*
X128110000Y-117950000D02*
X128612600Y-117447400D01*
X128612600Y-117447400D02*
X128612600Y-105187400D01*
%TO.N,/D4*%
X129700000Y-117630000D02*
X129380000Y-117950000D01*
X129700000Y-106640000D02*
X129700000Y-117630000D01*
%TO.N,/D2*%
X127410000Y-119660000D02*
X127355000Y-119715000D01*
%TO.N,+3V3*%
X130320000Y-136810000D02*
X123920000Y-136810000D01*
%TD*%
%TA.AperFunction,Conductor*%
%TO.N,GND*%
G36*
X140264418Y-100970816D02*
G01*
X140464561Y-100985130D01*
X140482063Y-100987647D01*
X140673797Y-101029355D01*
X140690755Y-101034334D01*
X140874609Y-101102909D01*
X140890701Y-101110259D01*
X141062904Y-101204288D01*
X141077784Y-101213849D01*
X141234867Y-101331441D01*
X141248237Y-101343027D01*
X141386972Y-101481762D01*
X141398558Y-101495132D01*
X141516146Y-101652210D01*
X141525711Y-101667095D01*
X141619740Y-101839298D01*
X141627090Y-101855390D01*
X141695662Y-102039236D01*
X141700646Y-102056212D01*
X141742351Y-102247931D01*
X141744869Y-102265442D01*
X141759184Y-102465580D01*
X141759500Y-102474427D01*
X141759500Y-116396000D01*
X141739815Y-116463039D01*
X141687011Y-116508794D01*
X141635500Y-116520000D01*
X135929999Y-116520000D01*
X135920000Y-116529999D01*
X135920000Y-117678638D01*
X135900315Y-117745677D01*
X135883681Y-117766319D01*
X135870000Y-117779999D01*
X135870000Y-117780000D01*
X135870000Y-143950000D01*
X141635500Y-143950000D01*
X141702539Y-143969685D01*
X141748294Y-144022489D01*
X141759500Y-144074000D01*
X141759500Y-149465572D01*
X141759184Y-149474419D01*
X141744869Y-149674557D01*
X141742351Y-149692068D01*
X141700646Y-149883787D01*
X141695662Y-149900763D01*
X141627090Y-150084609D01*
X141619740Y-150100701D01*
X141525711Y-150272904D01*
X141516146Y-150287789D01*
X141398558Y-150444867D01*
X141386972Y-150458237D01*
X141248237Y-150596972D01*
X141234867Y-150608558D01*
X141077789Y-150726146D01*
X141062904Y-150735711D01*
X140890701Y-150829740D01*
X140874609Y-150837090D01*
X140690763Y-150905662D01*
X140673787Y-150910646D01*
X140482068Y-150952351D01*
X140464557Y-150954869D01*
X140283779Y-150967799D01*
X140264417Y-150969184D01*
X140255572Y-150969500D01*
X130342698Y-150969500D01*
X130275659Y-150949815D01*
X130229904Y-150897011D01*
X130219960Y-150827853D01*
X130248985Y-150764297D01*
X130268386Y-150746234D01*
X130307186Y-150717187D01*
X130393346Y-150602093D01*
X130393350Y-150602086D01*
X130443592Y-150467379D01*
X130443594Y-150467372D01*
X130449995Y-150407844D01*
X130449996Y-150407827D01*
X130449996Y-149760000D01*
X128649996Y-149760000D01*
X128649996Y-150407844D01*
X128656397Y-150467372D01*
X128656399Y-150467379D01*
X128706641Y-150602086D01*
X128706645Y-150602093D01*
X128792805Y-150717187D01*
X128831606Y-150746234D01*
X128873476Y-150802168D01*
X128878460Y-150871860D01*
X128844974Y-150933182D01*
X128783651Y-150966667D01*
X128757294Y-150969500D01*
X113764428Y-150969500D01*
X113755582Y-150969184D01*
X113733622Y-150967613D01*
X113555442Y-150954869D01*
X113537931Y-150952351D01*
X113346212Y-150910646D01*
X113329236Y-150905662D01*
X113145390Y-150837090D01*
X113129298Y-150829740D01*
X112957095Y-150735711D01*
X112942210Y-150726146D01*
X112930242Y-150717187D01*
X112785132Y-150608558D01*
X112771762Y-150596972D01*
X112633027Y-150458237D01*
X112621441Y-150444867D01*
X112503849Y-150287784D01*
X112494288Y-150272904D01*
X112400259Y-150100701D01*
X112392909Y-150084609D01*
X112380187Y-150050500D01*
X112324334Y-149900755D01*
X112319356Y-149883796D01*
X112277647Y-149692063D01*
X112275130Y-149674556D01*
X112272376Y-149636054D01*
X112260816Y-149474418D01*
X112260500Y-149465572D01*
X112260500Y-147928711D01*
X113399500Y-147928711D01*
X113399500Y-148171288D01*
X113411205Y-148260202D01*
X113431162Y-148411789D01*
X113447768Y-148473763D01*
X113493947Y-148646104D01*
X113549864Y-148781099D01*
X113586776Y-148870212D01*
X113708064Y-149080289D01*
X113708066Y-149080292D01*
X113708067Y-149080293D01*
X113855733Y-149272736D01*
X113855739Y-149272743D01*
X114027256Y-149444260D01*
X114027263Y-149444266D01*
X114140321Y-149531018D01*
X114219711Y-149591936D01*
X114429788Y-149713224D01*
X114653900Y-149806054D01*
X114888211Y-149868838D01*
X115067626Y-149892458D01*
X115128711Y-149900500D01*
X115128712Y-149900500D01*
X115371289Y-149900500D01*
X115432374Y-149892458D01*
X115611789Y-149868838D01*
X115846100Y-149806054D01*
X116070212Y-149713224D01*
X116280289Y-149591936D01*
X116472738Y-149444265D01*
X116527004Y-149389999D01*
X120060138Y-149389999D01*
X120060138Y-149390000D01*
X120079545Y-149599444D01*
X120137111Y-149801769D01*
X120230871Y-149990062D01*
X120237545Y-149998899D01*
X120819000Y-149417446D01*
X120819000Y-149440160D01*
X120844964Y-149537061D01*
X120895124Y-149623940D01*
X120966060Y-149694876D01*
X121052939Y-149745036D01*
X121149840Y-149771000D01*
X121172553Y-149771000D01*
X120593887Y-150349663D01*
X120691918Y-150410362D01*
X120691920Y-150410363D01*
X120888063Y-150486348D01*
X121094829Y-150525000D01*
X121305171Y-150525000D01*
X121511935Y-150486348D01*
X121511936Y-150486348D01*
X121708079Y-150410363D01*
X121708080Y-150410362D01*
X121806110Y-150349664D01*
X121806111Y-150349663D01*
X121227448Y-149771000D01*
X121250160Y-149771000D01*
X121347061Y-149745036D01*
X121433940Y-149694876D01*
X121504876Y-149623940D01*
X121555036Y-149537061D01*
X121581000Y-149440160D01*
X121581000Y-149417447D01*
X122162452Y-149998899D01*
X122162453Y-149998899D01*
X122169128Y-149990061D01*
X122257250Y-149813093D01*
X122304753Y-149761856D01*
X122372416Y-149744435D01*
X122438757Y-149766361D01*
X122475637Y-149806365D01*
X122520341Y-149883796D01*
X122520342Y-149883798D01*
X122520344Y-149883800D01*
X122637863Y-150014317D01*
X122734611Y-150084609D01*
X122779951Y-150117551D01*
X122841541Y-150144971D01*
X122940395Y-150188984D01*
X123112186Y-150225500D01*
X123287816Y-150225500D01*
X123459607Y-150188984D01*
X123620052Y-150117550D01*
X123762139Y-150014317D01*
X123879658Y-149883800D01*
X123967472Y-149731700D01*
X124021745Y-149564667D01*
X124040103Y-149390000D01*
X124021745Y-149215333D01*
X123967472Y-149048300D01*
X123959773Y-149034964D01*
X123879660Y-148896203D01*
X123879659Y-148896202D01*
X123879658Y-148896200D01*
X123762139Y-148765683D01*
X123697758Y-148718907D01*
X123620050Y-148662448D01*
X123481762Y-148600880D01*
X123459607Y-148591016D01*
X123459605Y-148591015D01*
X123459604Y-148591015D01*
X123287816Y-148554500D01*
X123112186Y-148554500D01*
X122940398Y-148591015D01*
X122940389Y-148591018D01*
X122939073Y-148591604D01*
X122938244Y-148591714D01*
X122934216Y-148593024D01*
X122933976Y-148592286D01*
X122869821Y-148600880D01*
X122806549Y-148571243D01*
X122800971Y-148565999D01*
X122141154Y-147906182D01*
X122107669Y-147844859D01*
X122112653Y-147775167D01*
X122154525Y-147719234D01*
X122219989Y-147694817D01*
X122228835Y-147694501D01*
X122244750Y-147694501D01*
X122244751Y-147694500D01*
X122259568Y-147691553D01*
X122303229Y-147682869D01*
X122303229Y-147682868D01*
X122303231Y-147682868D01*
X122369552Y-147638553D01*
X122413867Y-147572232D01*
X122413867Y-147572230D01*
X122413868Y-147572230D01*
X122425499Y-147513753D01*
X122425500Y-147513751D01*
X122425500Y-147080556D01*
X122445185Y-147013517D01*
X122475189Y-146981290D01*
X122582187Y-146901190D01*
X122582190Y-146901187D01*
X122668350Y-146786093D01*
X122668354Y-146786086D01*
X122718596Y-146651379D01*
X122718598Y-146651372D01*
X122724999Y-146591844D01*
X122725000Y-146591827D01*
X122725000Y-146540000D01*
X120404200Y-146540000D01*
X120404200Y-146591844D01*
X120410601Y-146651372D01*
X120410603Y-146651379D01*
X120460845Y-146786086D01*
X120460849Y-146786093D01*
X120547009Y-146901187D01*
X120547012Y-146901190D01*
X120654011Y-146981290D01*
X120695882Y-147037223D01*
X120703700Y-147080556D01*
X120703700Y-147513753D01*
X120715331Y-147572230D01*
X120715332Y-147572231D01*
X120759647Y-147638553D01*
X120825969Y-147682868D01*
X120825970Y-147682869D01*
X120884447Y-147694500D01*
X120884450Y-147694501D01*
X120884452Y-147694501D01*
X121142248Y-147694501D01*
X121209287Y-147714186D01*
X121255042Y-147766990D01*
X121262023Y-147786407D01*
X121264100Y-147794158D01*
X121264100Y-147794161D01*
X121284579Y-147870588D01*
X121318137Y-147928712D01*
X121324140Y-147939110D01*
X121433868Y-148048838D01*
X121467352Y-148110159D01*
X121462368Y-148179851D01*
X121420497Y-148235785D01*
X121355033Y-148260202D01*
X121323405Y-148258407D01*
X121305179Y-148255000D01*
X121094829Y-148255000D01*
X120888064Y-148293651D01*
X120888063Y-148293651D01*
X120691923Y-148369635D01*
X120593887Y-148430335D01*
X121172553Y-149009000D01*
X121149840Y-149009000D01*
X121052939Y-149034964D01*
X120966060Y-149085124D01*
X120895124Y-149156060D01*
X120844964Y-149242939D01*
X120819000Y-149339840D01*
X120819000Y-149362553D01*
X120237546Y-148781099D01*
X120237545Y-148781099D01*
X120230870Y-148789939D01*
X120137111Y-148978230D01*
X120079545Y-149180555D01*
X120060138Y-149389999D01*
X116527004Y-149389999D01*
X116644265Y-149272738D01*
X116791936Y-149080289D01*
X116913224Y-148870212D01*
X117006054Y-148646100D01*
X117068838Y-148411789D01*
X117100500Y-148171288D01*
X117100500Y-147928712D01*
X117068838Y-147688211D01*
X117006054Y-147453900D01*
X117000839Y-147441311D01*
X116956587Y-147334476D01*
X116913224Y-147229788D01*
X116791936Y-147019711D01*
X116644265Y-146827262D01*
X116644260Y-146827256D01*
X116472743Y-146655739D01*
X116472736Y-146655733D01*
X116280293Y-146508067D01*
X116280292Y-146508066D01*
X116280289Y-146508064D01*
X116070212Y-146386776D01*
X116070205Y-146386773D01*
X115846104Y-146293947D01*
X115611785Y-146231161D01*
X115371289Y-146199500D01*
X115371288Y-146199500D01*
X115128712Y-146199500D01*
X115128711Y-146199500D01*
X114888214Y-146231161D01*
X114653895Y-146293947D01*
X114429794Y-146386773D01*
X114429785Y-146386777D01*
X114219706Y-146508067D01*
X114027263Y-146655733D01*
X114027256Y-146655739D01*
X113855739Y-146827256D01*
X113855733Y-146827263D01*
X113708067Y-147019706D01*
X113586777Y-147229785D01*
X113586773Y-147229794D01*
X113493947Y-147453895D01*
X113431161Y-147688214D01*
X113399500Y-147928711D01*
X112260500Y-147928711D01*
X112260500Y-144807700D01*
X112280185Y-144740661D01*
X112332989Y-144694906D01*
X112384500Y-144683700D01*
X112401400Y-144683700D01*
X112401400Y-142896300D01*
X112384500Y-142896300D01*
X112317461Y-142876615D01*
X112271706Y-142823811D01*
X112260500Y-142772300D01*
X112260500Y-141609593D01*
X112280185Y-141542554D01*
X112332989Y-141496799D01*
X112397758Y-141486304D01*
X112432160Y-141490003D01*
X112432172Y-141490004D01*
X113080000Y-141490004D01*
X113080000Y-140840004D01*
X113580000Y-140840004D01*
X113580000Y-141490004D01*
X113783264Y-141490004D01*
X113850303Y-141509689D01*
X113896058Y-141562493D01*
X113906002Y-141631651D01*
X113890651Y-141676004D01*
X113861979Y-141725664D01*
X113861978Y-141725668D01*
X113827597Y-141853979D01*
X113827597Y-141986817D01*
X113861978Y-142115128D01*
X113928397Y-142230168D01*
X114022327Y-142324098D01*
X114137367Y-142390517D01*
X114265678Y-142424898D01*
X114265681Y-142424898D01*
X114398514Y-142424898D01*
X114398516Y-142424898D01*
X114398517Y-142424897D01*
X114406572Y-142423837D01*
X114406586Y-142423949D01*
X114429768Y-142420898D01*
X114920226Y-142420898D01*
X114943407Y-142423949D01*
X114943422Y-142423837D01*
X114951476Y-142424897D01*
X114951478Y-142424898D01*
X114951480Y-142424898D01*
X115084313Y-142424898D01*
X115084316Y-142424898D01*
X115212627Y-142390517D01*
X115327667Y-142324098D01*
X115421597Y-142230168D01*
X115488016Y-142115128D01*
X115522397Y-141986817D01*
X115522397Y-141853979D01*
X115488016Y-141725668D01*
X115488014Y-141725664D01*
X115488014Y-141725663D01*
X115488013Y-141725662D01*
X115444223Y-141649817D01*
X115427749Y-141581917D01*
X115450601Y-141515890D01*
X115505521Y-141472699D01*
X115575075Y-141466057D01*
X115591596Y-141471409D01*
X115591838Y-141470681D01*
X115762343Y-141527180D01*
X115863347Y-141537499D01*
X115962496Y-141537498D01*
X115962496Y-140812500D01*
X115174997Y-140812500D01*
X115174997Y-140849154D01*
X115185315Y-140950152D01*
X115239542Y-141113800D01*
X115239547Y-141113811D01*
X115329647Y-141259884D01*
X115348088Y-141327276D01*
X115327166Y-141393940D01*
X115273524Y-141438709D01*
X115204193Y-141447371D01*
X115192016Y-141444756D01*
X115137791Y-141430226D01*
X115084316Y-141415898D01*
X114951478Y-141415898D01*
X114951476Y-141415898D01*
X114943422Y-141416959D01*
X114943407Y-141416846D01*
X114920226Y-141419898D01*
X114729795Y-141419898D01*
X114662756Y-141400213D01*
X114617001Y-141347409D01*
X114607057Y-141278251D01*
X114620963Y-141236471D01*
X114623353Y-141232093D01*
X114673596Y-141097383D01*
X114673598Y-141097376D01*
X114679999Y-141037848D01*
X114680000Y-141037831D01*
X114680000Y-140840004D01*
X113580000Y-140840004D01*
X113080000Y-140840004D01*
X113080000Y-140340004D01*
X113580000Y-140340004D01*
X114680000Y-140340004D01*
X114680000Y-140142176D01*
X114679999Y-140142159D01*
X114673598Y-140082631D01*
X114673596Y-140082624D01*
X114623354Y-139947917D01*
X114623350Y-139947910D01*
X114537190Y-139832816D01*
X114537187Y-139832813D01*
X114422093Y-139746653D01*
X114422086Y-139746649D01*
X114287379Y-139696407D01*
X114287372Y-139696405D01*
X114227844Y-139690004D01*
X113580000Y-139690004D01*
X113580000Y-140340004D01*
X113080000Y-140340004D01*
X113080000Y-139690004D01*
X112432169Y-139690004D01*
X112397754Y-139693704D01*
X112328995Y-139681298D01*
X112277858Y-139633687D01*
X112260500Y-139570414D01*
X112260500Y-137901861D01*
X112280185Y-137834822D01*
X112332989Y-137789067D01*
X112402147Y-137779123D01*
X112408692Y-137780244D01*
X112460250Y-137790500D01*
X112460252Y-137790500D01*
X113454167Y-137790500D01*
X113521206Y-137810185D01*
X113541848Y-137826819D01*
X115367089Y-139652060D01*
X115400574Y-139713383D01*
X115395590Y-139783075D01*
X115367091Y-139827420D01*
X115330052Y-139864460D01*
X115330048Y-139864465D01*
X115239547Y-140011188D01*
X115239542Y-140011199D01*
X115185315Y-140174847D01*
X115174996Y-140275845D01*
X115174996Y-140312500D01*
X116338496Y-140312500D01*
X116405535Y-140332185D01*
X116451290Y-140384989D01*
X116462496Y-140436500D01*
X116462496Y-141537499D01*
X116561636Y-141537499D01*
X116561650Y-141537498D01*
X116662648Y-141527180D01*
X116826296Y-141472953D01*
X116826307Y-141472948D01*
X116973030Y-141382447D01*
X116973034Y-141382444D01*
X117094941Y-141260537D01*
X117158384Y-141157680D01*
X117210332Y-141110955D01*
X117279294Y-141099732D01*
X117337554Y-141123004D01*
X117382799Y-141156396D01*
X117430521Y-141191616D01*
X117555147Y-141235225D01*
X117555146Y-141235225D01*
X117584736Y-141238000D01*
X117584740Y-141238000D01*
X117841885Y-141238000D01*
X117908924Y-141257685D01*
X117954679Y-141310489D01*
X117964623Y-141379647D01*
X117935598Y-141443203D01*
X117929566Y-141449681D01*
X115926066Y-143453181D01*
X115864743Y-143486666D01*
X115838385Y-143489500D01*
X114867712Y-143489500D01*
X114800673Y-143469815D01*
X114754918Y-143417011D01*
X114745610Y-143382482D01*
X114745389Y-143382526D01*
X114744733Y-143379228D01*
X114744310Y-143377659D01*
X114744201Y-143376554D01*
X114732568Y-143318070D01*
X114732567Y-143318069D01*
X114688252Y-143251747D01*
X114621930Y-143207432D01*
X114621929Y-143207431D01*
X114563452Y-143195800D01*
X114563448Y-143195800D01*
X113736552Y-143195800D01*
X113736547Y-143195800D01*
X113678070Y-143207431D01*
X113678068Y-143207432D01*
X113672472Y-143211172D01*
X113605793Y-143232046D01*
X113538414Y-143213558D01*
X113491726Y-143161577D01*
X113489107Y-143155409D01*
X113488450Y-143154206D01*
X113402290Y-143039112D01*
X113402287Y-143039109D01*
X113287193Y-142952949D01*
X113287186Y-142952945D01*
X113152479Y-142902703D01*
X113152472Y-142902701D01*
X113092944Y-142896300D01*
X112901400Y-142896300D01*
X112901400Y-144683700D01*
X113092928Y-144683700D01*
X113092944Y-144683699D01*
X113152472Y-144677298D01*
X113152479Y-144677296D01*
X113287186Y-144627054D01*
X113287193Y-144627050D01*
X113402287Y-144540890D01*
X113402290Y-144540887D01*
X113488450Y-144425793D01*
X113492704Y-144418004D01*
X113494575Y-144419025D01*
X113529259Y-144372678D01*
X113594720Y-144348250D01*
X113662995Y-144363091D01*
X113672476Y-144368830D01*
X113678069Y-144372567D01*
X113678070Y-144372567D01*
X113678070Y-144372568D01*
X113736547Y-144384199D01*
X113736550Y-144384200D01*
X113736552Y-144384200D01*
X114563450Y-144384200D01*
X114563451Y-144384199D01*
X114578268Y-144381252D01*
X114621929Y-144372568D01*
X114621929Y-144372567D01*
X114621931Y-144372567D01*
X114688252Y-144328252D01*
X114732567Y-144261931D01*
X114732567Y-144261929D01*
X114732568Y-144261929D01*
X114744201Y-144203445D01*
X114744310Y-144202341D01*
X114744528Y-144201799D01*
X114745389Y-144197474D01*
X114746209Y-144197637D01*
X114770473Y-144137554D01*
X114827509Y-144097198D01*
X114867712Y-144090500D01*
X116053778Y-144090500D01*
X116053780Y-144090500D01*
X116130207Y-144070021D01*
X116198729Y-144030460D01*
X116254678Y-143974511D01*
X116317535Y-143911654D01*
X120145001Y-143911654D01*
X120155319Y-144012652D01*
X120209546Y-144176300D01*
X120209551Y-144176311D01*
X120300052Y-144323034D01*
X120300055Y-144323038D01*
X120421961Y-144444944D01*
X120421965Y-144444947D01*
X120568688Y-144535448D01*
X120568699Y-144535453D01*
X120732347Y-144589680D01*
X120833352Y-144599999D01*
X120870000Y-144599999D01*
X120870000Y-143825000D01*
X120145001Y-143825000D01*
X120145001Y-143911654D01*
X116317535Y-143911654D01*
X120060460Y-140168729D01*
X120100022Y-140100206D01*
X120120500Y-140023780D01*
X120120500Y-139944656D01*
X120120500Y-138475323D01*
X120140185Y-138408284D01*
X120175609Y-138372221D01*
X120202052Y-138354552D01*
X120228898Y-138314375D01*
X120282510Y-138269570D01*
X120351835Y-138260863D01*
X120414863Y-138291018D01*
X120435102Y-138314375D01*
X120461947Y-138354552D01*
X120528269Y-138398867D01*
X120528270Y-138398868D01*
X120586747Y-138410499D01*
X120586750Y-138410500D01*
X120586752Y-138410500D01*
X121101250Y-138410500D01*
X121101251Y-138410499D01*
X121116068Y-138407552D01*
X121159729Y-138398868D01*
X121159729Y-138398867D01*
X121159731Y-138398867D01*
X121226052Y-138354552D01*
X121270367Y-138288231D01*
X121270367Y-138288229D01*
X121270368Y-138288229D01*
X121281999Y-138229752D01*
X121282000Y-138229750D01*
X121282000Y-137998333D01*
X121301685Y-137931294D01*
X121318319Y-137910652D01*
X121623346Y-137605625D01*
X122000460Y-137228511D01*
X122040022Y-137159988D01*
X122060500Y-137083562D01*
X122060500Y-137004438D01*
X122060500Y-136524500D01*
X122080185Y-136457461D01*
X122132989Y-136411706D01*
X122184500Y-136400500D01*
X122229750Y-136400500D01*
X122229751Y-136400499D01*
X122244568Y-136397552D01*
X122288229Y-136388868D01*
X122288231Y-136388867D01*
X122326108Y-136363558D01*
X122392785Y-136342679D01*
X122460165Y-136361163D01*
X122463892Y-136363558D01*
X122501768Y-136388867D01*
X122501770Y-136388868D01*
X122560247Y-136400499D01*
X122560250Y-136400500D01*
X123349275Y-136400500D01*
X123416314Y-136420185D01*
X123462069Y-136472989D01*
X123472013Y-136542147D01*
X123462069Y-136576011D01*
X123424835Y-136657541D01*
X123424834Y-136657542D01*
X123404353Y-136800000D01*
X123424834Y-136942456D01*
X123458947Y-137017152D01*
X123484623Y-137073373D01*
X123578872Y-137182143D01*
X123578875Y-137182144D01*
X123579213Y-137182535D01*
X123608238Y-137246091D01*
X123609500Y-137263738D01*
X123609500Y-139734167D01*
X123589815Y-139801206D01*
X123573181Y-139821848D01*
X122991848Y-140403181D01*
X122930525Y-140436666D01*
X122904167Y-140439500D01*
X122638501Y-140439500D01*
X122571462Y-140419815D01*
X122544788Y-140396703D01*
X122511128Y-140357857D01*
X122390053Y-140280047D01*
X122390051Y-140280046D01*
X122390049Y-140280045D01*
X122390050Y-140280045D01*
X122251963Y-140239500D01*
X122251961Y-140239500D01*
X122108039Y-140239500D01*
X122108036Y-140239500D01*
X121969949Y-140280045D01*
X121848873Y-140357856D01*
X121754623Y-140466626D01*
X121754622Y-140466628D01*
X121694834Y-140597543D01*
X121674353Y-140740000D01*
X121694834Y-140882457D01*
X121694835Y-140882458D01*
X121743583Y-140989201D01*
X121753527Y-141058359D01*
X121724502Y-141121915D01*
X121665724Y-141159689D01*
X121595854Y-141159689D01*
X121573545Y-141148609D01*
X121572691Y-141150226D01*
X121564477Y-141145885D01*
X121564475Y-141145884D01*
X121520508Y-141130499D01*
X121439848Y-141102274D01*
X121439849Y-141102274D01*
X121410260Y-141099500D01*
X121410256Y-141099500D01*
X120829744Y-141099500D01*
X120829740Y-141099500D01*
X120800150Y-141102274D01*
X120675523Y-141145884D01*
X120569289Y-141224288D01*
X120569288Y-141224289D01*
X120490884Y-141330523D01*
X120447274Y-141455150D01*
X120444500Y-141484739D01*
X120444500Y-142165260D01*
X120447274Y-142194849D01*
X120490884Y-142319476D01*
X120569288Y-142425710D01*
X120574967Y-142431389D01*
X120608452Y-142492712D01*
X120603468Y-142562404D01*
X120561596Y-142618337D01*
X120552384Y-142624608D01*
X120421962Y-142705054D01*
X120300055Y-142826961D01*
X120300052Y-142826965D01*
X120209551Y-142973688D01*
X120209546Y-142973699D01*
X120155319Y-143137347D01*
X120145000Y-143238345D01*
X120145000Y-143325000D01*
X121246000Y-143325000D01*
X121313039Y-143344685D01*
X121358794Y-143397489D01*
X121370000Y-143449000D01*
X121370000Y-144466167D01*
X121350315Y-144533206D01*
X121333681Y-144553848D01*
X121324141Y-144563387D01*
X121324135Y-144563395D01*
X121284582Y-144631904D01*
X121284579Y-144631909D01*
X121264100Y-144708339D01*
X121264100Y-144761499D01*
X121244415Y-144828538D01*
X121191611Y-144874293D01*
X121140100Y-144885499D01*
X120884447Y-144885499D01*
X120825970Y-144897130D01*
X120825969Y-144897131D01*
X120759647Y-144941446D01*
X120715332Y-145007768D01*
X120715331Y-145007769D01*
X120703700Y-145066246D01*
X120703700Y-145499443D01*
X120684015Y-145566482D01*
X120654012Y-145598709D01*
X120547009Y-145678812D01*
X120460849Y-145793906D01*
X120460845Y-145793913D01*
X120410603Y-145928620D01*
X120410601Y-145928627D01*
X120404200Y-145988155D01*
X120404200Y-146040000D01*
X122725000Y-146040000D01*
X122725000Y-145988172D01*
X122724999Y-145988155D01*
X122718598Y-145928627D01*
X122718596Y-145928620D01*
X122668354Y-145793913D01*
X122668350Y-145793906D01*
X122582190Y-145678812D01*
X122475188Y-145598709D01*
X122433318Y-145542775D01*
X122425500Y-145499443D01*
X122425500Y-145066248D01*
X122425499Y-145066246D01*
X122413868Y-145007769D01*
X122413867Y-145007768D01*
X122369552Y-144941446D01*
X122303230Y-144897131D01*
X122303229Y-144897130D01*
X122244752Y-144885499D01*
X122244748Y-144885499D01*
X122151334Y-144885499D01*
X122084295Y-144865814D01*
X122038540Y-144813010D01*
X122028596Y-144743852D01*
X122057621Y-144680296D01*
X122063653Y-144673818D01*
X122390652Y-144346819D01*
X122451975Y-144313334D01*
X122478333Y-144310500D01*
X122980260Y-144310500D01*
X123009849Y-144307725D01*
X123011026Y-144307313D01*
X123134475Y-144264116D01*
X123240711Y-144185711D01*
X123319116Y-144079475D01*
X123362725Y-143954849D01*
X123365500Y-143925256D01*
X123365500Y-143784500D01*
X123385185Y-143717461D01*
X123437989Y-143671706D01*
X123489500Y-143660500D01*
X123557522Y-143660500D01*
X123624561Y-143680185D01*
X123670316Y-143732989D01*
X123674563Y-143743545D01*
X123695883Y-143804475D01*
X123695884Y-143804476D01*
X123774288Y-143910710D01*
X123774289Y-143910711D01*
X123880523Y-143989115D01*
X123880524Y-143989115D01*
X123880525Y-143989116D01*
X124005151Y-144032725D01*
X124005150Y-144032725D01*
X124034740Y-144035500D01*
X124034744Y-144035500D01*
X124640260Y-144035500D01*
X124669849Y-144032725D01*
X124676328Y-144030458D01*
X124794475Y-143989116D01*
X124900711Y-143910711D01*
X124979116Y-143804475D01*
X125022725Y-143679849D01*
X125023489Y-143671706D01*
X125025500Y-143650260D01*
X125025500Y-143207333D01*
X125045185Y-143140294D01*
X125097989Y-143094539D01*
X125167147Y-143084595D01*
X125230703Y-143113620D01*
X125237181Y-143119652D01*
X125438181Y-143320652D01*
X125471666Y-143381975D01*
X125474500Y-143408333D01*
X125474500Y-143650260D01*
X125477274Y-143679849D01*
X125520884Y-143804476D01*
X125587594Y-143894865D01*
X125611565Y-143960494D01*
X125596249Y-144028664D01*
X125546509Y-144077732D01*
X125522761Y-144087475D01*
X125479947Y-144100046D01*
X125358873Y-144177856D01*
X125264623Y-144286626D01*
X125264622Y-144286628D01*
X125204834Y-144417543D01*
X125184353Y-144560000D01*
X125184353Y-144560001D01*
X125185661Y-144569103D01*
X125175713Y-144638261D01*
X125150603Y-144674424D01*
X124969144Y-144855883D01*
X124907821Y-144889368D01*
X124857274Y-144889820D01*
X124835549Y-144885499D01*
X124835548Y-144885499D01*
X123475252Y-144885499D01*
X123475247Y-144885499D01*
X123416770Y-144897130D01*
X123416769Y-144897131D01*
X123350447Y-144941446D01*
X123306132Y-145007768D01*
X123306131Y-145007769D01*
X123294500Y-145066246D01*
X123294500Y-145613751D01*
X123306131Y-145672228D01*
X123306132Y-145672229D01*
X123350447Y-145738551D01*
X123416769Y-145782866D01*
X123416770Y-145782867D01*
X123475247Y-145794498D01*
X123475250Y-145794499D01*
X123475252Y-145794499D01*
X124835549Y-145794499D01*
X124859528Y-145789729D01*
X124929120Y-145795956D01*
X124984298Y-145838818D01*
X125007543Y-145904707D01*
X124991476Y-145972705D01*
X124971402Y-145999027D01*
X124221248Y-146749182D01*
X124159925Y-146782667D01*
X124133567Y-146785501D01*
X123475247Y-146785501D01*
X123416770Y-146797132D01*
X123416769Y-146797133D01*
X123350447Y-146841448D01*
X123306132Y-146907770D01*
X123306131Y-146907771D01*
X123294500Y-146966248D01*
X123294500Y-147513753D01*
X123306131Y-147572230D01*
X123306132Y-147572231D01*
X123350447Y-147638553D01*
X123416769Y-147682868D01*
X123416770Y-147682869D01*
X123475247Y-147694500D01*
X123475250Y-147694501D01*
X123475252Y-147694501D01*
X124835550Y-147694501D01*
X124835551Y-147694500D01*
X124850368Y-147691553D01*
X124894029Y-147682869D01*
X124894029Y-147682868D01*
X124894031Y-147682868D01*
X124960352Y-147638553D01*
X125004667Y-147572232D01*
X125004667Y-147572230D01*
X125004668Y-147572230D01*
X125016299Y-147513753D01*
X125016300Y-147513751D01*
X125016300Y-147176654D01*
X125597501Y-147176654D01*
X125607819Y-147277652D01*
X125662046Y-147441300D01*
X125662051Y-147441311D01*
X125752552Y-147588034D01*
X125752555Y-147588038D01*
X125874461Y-147709944D01*
X125874465Y-147709947D01*
X126021188Y-147800448D01*
X126021199Y-147800453D01*
X126184847Y-147854680D01*
X126285851Y-147864999D01*
X126385000Y-147864998D01*
X126385000Y-147140000D01*
X125597501Y-147140000D01*
X125597501Y-147176654D01*
X125016300Y-147176654D01*
X125016300Y-146966250D01*
X125016299Y-146966248D01*
X125002323Y-146895983D01*
X125008550Y-146826392D01*
X125036257Y-146784113D01*
X125394332Y-146426038D01*
X125455653Y-146392555D01*
X125525345Y-146397539D01*
X125581278Y-146439411D01*
X125605695Y-146504875D01*
X125605369Y-146526323D01*
X125597500Y-146603343D01*
X125597500Y-146640000D01*
X126385000Y-146640000D01*
X126385000Y-145914999D01*
X126285860Y-145915000D01*
X126285839Y-145915002D01*
X126208821Y-145922869D01*
X126140129Y-145910099D01*
X126089245Y-145862217D01*
X126072325Y-145794427D01*
X126094742Y-145728251D01*
X126108532Y-145711839D01*
X127007821Y-144812550D01*
X127069142Y-144779067D01*
X127138834Y-144784051D01*
X127194767Y-144825923D01*
X127219184Y-144891387D01*
X127219500Y-144900233D01*
X127219500Y-145801730D01*
X127199815Y-145868769D01*
X127147011Y-145914524D01*
X127082898Y-145925088D01*
X126984156Y-145915000D01*
X126885000Y-145915000D01*
X126885000Y-147864999D01*
X126984140Y-147864999D01*
X126984154Y-147864998D01*
X127082898Y-147854911D01*
X127151591Y-147867681D01*
X127202475Y-147915561D01*
X127219500Y-147978269D01*
X127219500Y-149086260D01*
X127199815Y-149153299D01*
X127189213Y-149167462D01*
X127094625Y-149276622D01*
X127094622Y-149276628D01*
X127034834Y-149407543D01*
X127014353Y-149550000D01*
X127034834Y-149692456D01*
X127089928Y-149813093D01*
X127094623Y-149823373D01*
X127188872Y-149932143D01*
X127309947Y-150009953D01*
X127309950Y-150009954D01*
X127309949Y-150009954D01*
X127448036Y-150050499D01*
X127448038Y-150050500D01*
X127448039Y-150050500D01*
X127591962Y-150050500D01*
X127591962Y-150050499D01*
X127699121Y-150019035D01*
X127730050Y-150009954D01*
X127730050Y-150009953D01*
X127730053Y-150009953D01*
X127851128Y-149932143D01*
X127945377Y-149823373D01*
X128005165Y-149692457D01*
X128025647Y-149550000D01*
X128005165Y-149407543D01*
X127945377Y-149276627D01*
X127945375Y-149276625D01*
X127945374Y-149276622D01*
X127850787Y-149167462D01*
X127821762Y-149103906D01*
X127820500Y-149086260D01*
X127820500Y-148612155D01*
X128649996Y-148612155D01*
X128649996Y-149260000D01*
X129299996Y-149260000D01*
X129799996Y-149260000D01*
X130449996Y-149260000D01*
X130449996Y-148612172D01*
X130449995Y-148612155D01*
X130443594Y-148552627D01*
X130443592Y-148552620D01*
X130393350Y-148417913D01*
X130393346Y-148417906D01*
X130307186Y-148302812D01*
X130307183Y-148302809D01*
X130192089Y-148216649D01*
X130192082Y-148216645D01*
X130057375Y-148166403D01*
X130057368Y-148166401D01*
X129997840Y-148160000D01*
X129799996Y-148160000D01*
X129799996Y-149260000D01*
X129299996Y-149260000D01*
X129299996Y-148160000D01*
X129102151Y-148160000D01*
X129042623Y-148166401D01*
X129042616Y-148166403D01*
X128907909Y-148216645D01*
X128907902Y-148216649D01*
X128792808Y-148302809D01*
X128792805Y-148302812D01*
X128706645Y-148417906D01*
X128706641Y-148417913D01*
X128656399Y-148552620D01*
X128656397Y-148552627D01*
X128649996Y-148612155D01*
X127820500Y-148612155D01*
X127820500Y-147682407D01*
X127840185Y-147615368D01*
X127892989Y-147569613D01*
X127962147Y-147559669D01*
X127970967Y-147561264D01*
X127977643Y-147562722D01*
X127977651Y-147562725D01*
X127977658Y-147562725D01*
X127977660Y-147562726D01*
X128007240Y-147565500D01*
X128007244Y-147565500D01*
X128712760Y-147565500D01*
X128742349Y-147562725D01*
X128751082Y-147559669D01*
X128866975Y-147519116D01*
X128973211Y-147440711D01*
X129051616Y-147334475D01*
X129072937Y-147273545D01*
X129113659Y-147216769D01*
X129178612Y-147191022D01*
X129189978Y-147190500D01*
X130154167Y-147190500D01*
X130221206Y-147210185D01*
X130241848Y-147226819D01*
X132313181Y-149298152D01*
X132346666Y-149359475D01*
X132349500Y-149385833D01*
X132349500Y-150379752D01*
X132361131Y-150438229D01*
X132361132Y-150438230D01*
X132405447Y-150504552D01*
X132471769Y-150548867D01*
X132471770Y-150548868D01*
X132530247Y-150560499D01*
X132530250Y-150560500D01*
X132530252Y-150560500D01*
X133369750Y-150560500D01*
X133369751Y-150560499D01*
X133384568Y-150557552D01*
X133428229Y-150548868D01*
X133428229Y-150548867D01*
X133428231Y-150548867D01*
X133494552Y-150504552D01*
X133538867Y-150438231D01*
X133538867Y-150438229D01*
X133538868Y-150438229D01*
X133550499Y-150379752D01*
X133550500Y-150379750D01*
X133550500Y-148640249D01*
X133550499Y-148640247D01*
X133538868Y-148581770D01*
X133538867Y-148581769D01*
X133494552Y-148515447D01*
X133428230Y-148471132D01*
X133428229Y-148471131D01*
X133369752Y-148459500D01*
X133369748Y-148459500D01*
X132530252Y-148459500D01*
X132530247Y-148459500D01*
X132471770Y-148471131D01*
X132460487Y-148475806D01*
X132459640Y-148473763D01*
X132408370Y-148489813D01*
X132340992Y-148471324D01*
X132318485Y-148453514D01*
X131623682Y-147758711D01*
X136949500Y-147758711D01*
X136949500Y-148001288D01*
X136981161Y-148241785D01*
X137043947Y-148476104D01*
X137136773Y-148700205D01*
X137136776Y-148700212D01*
X137258064Y-148910289D01*
X137258066Y-148910292D01*
X137258067Y-148910293D01*
X137405733Y-149102736D01*
X137405739Y-149102743D01*
X137577256Y-149274260D01*
X137577263Y-149274266D01*
X137608392Y-149298152D01*
X137769711Y-149421936D01*
X137979788Y-149543224D01*
X138203900Y-149636054D01*
X138438211Y-149698838D01*
X138618586Y-149722584D01*
X138678711Y-149730500D01*
X138678712Y-149730500D01*
X138921289Y-149730500D01*
X138969388Y-149724167D01*
X139161789Y-149698838D01*
X139396100Y-149636054D01*
X139620212Y-149543224D01*
X139830289Y-149421936D01*
X140022738Y-149274265D01*
X140194265Y-149102738D01*
X140341936Y-148910289D01*
X140463224Y-148700212D01*
X140556054Y-148476100D01*
X140618838Y-148241789D01*
X140650500Y-148001288D01*
X140650500Y-147758712D01*
X140618838Y-147518211D01*
X140556054Y-147283900D01*
X140463224Y-147059788D01*
X140341936Y-146849711D01*
X140194265Y-146657262D01*
X140194260Y-146657256D01*
X140022743Y-146485739D01*
X140022736Y-146485733D01*
X139830293Y-146338067D01*
X139830292Y-146338066D01*
X139830289Y-146338064D01*
X139645128Y-146231161D01*
X139620214Y-146216777D01*
X139620205Y-146216773D01*
X139396104Y-146123947D01*
X139161785Y-146061161D01*
X138921289Y-146029500D01*
X138921288Y-146029500D01*
X138678712Y-146029500D01*
X138678711Y-146029500D01*
X138438214Y-146061161D01*
X138203895Y-146123947D01*
X137979794Y-146216773D01*
X137979785Y-146216777D01*
X137769706Y-146338067D01*
X137577263Y-146485733D01*
X137577256Y-146485739D01*
X137405739Y-146657256D01*
X137405733Y-146657263D01*
X137258067Y-146849706D01*
X137136777Y-147059785D01*
X137136773Y-147059794D01*
X137043947Y-147283895D01*
X136981161Y-147518214D01*
X136949500Y-147758711D01*
X131623682Y-147758711D01*
X130514512Y-146649541D01*
X130514504Y-146649535D01*
X130445995Y-146609982D01*
X130445990Y-146609979D01*
X130420513Y-146603152D01*
X130369562Y-146589500D01*
X130369560Y-146589500D01*
X129189978Y-146589500D01*
X129122939Y-146569815D01*
X129077184Y-146517011D01*
X129072937Y-146506455D01*
X129051616Y-146445524D01*
X129051615Y-146445523D01*
X128973211Y-146339289D01*
X128973210Y-146339288D01*
X128866976Y-146260884D01*
X128742348Y-146217274D01*
X128742349Y-146217274D01*
X128712760Y-146214500D01*
X128712756Y-146214500D01*
X128554500Y-146214500D01*
X128487461Y-146194815D01*
X128441706Y-146142011D01*
X128430500Y-146090500D01*
X128430500Y-145743738D01*
X128450185Y-145676699D01*
X128460787Y-145662535D01*
X128461124Y-145662144D01*
X128461128Y-145662143D01*
X128555377Y-145553373D01*
X128615165Y-145422457D01*
X128635647Y-145280000D01*
X128615165Y-145137543D01*
X128555377Y-145006627D01*
X128461128Y-144897857D01*
X128340053Y-144820047D01*
X128340051Y-144820046D01*
X128340049Y-144820045D01*
X128340050Y-144820045D01*
X128201963Y-144779500D01*
X128201961Y-144779500D01*
X128105813Y-144779500D01*
X128038774Y-144759815D01*
X127993019Y-144707011D01*
X127983075Y-144637853D01*
X128012100Y-144574297D01*
X128018132Y-144567819D01*
X129539132Y-143046819D01*
X129600455Y-143013334D01*
X129626813Y-143010500D01*
X134281499Y-143010500D01*
X134348538Y-143030185D01*
X134375211Y-143053296D01*
X134408872Y-143092143D01*
X134529947Y-143169953D01*
X134529950Y-143169954D01*
X134529949Y-143169954D01*
X134668036Y-143210499D01*
X134668038Y-143210500D01*
X134668039Y-143210500D01*
X134811962Y-143210500D01*
X134811962Y-143210499D01*
X134950053Y-143169953D01*
X135071128Y-143092143D01*
X135165377Y-142983373D01*
X135225165Y-142852457D01*
X135245647Y-142710000D01*
X135225165Y-142567543D01*
X135165377Y-142436627D01*
X135071128Y-142327857D01*
X134950053Y-142250047D01*
X134950051Y-142250046D01*
X134950049Y-142250045D01*
X134950050Y-142250045D01*
X134811963Y-142209500D01*
X134811961Y-142209500D01*
X134668039Y-142209500D01*
X134668036Y-142209500D01*
X134529949Y-142250045D01*
X134408873Y-142327856D01*
X134375212Y-142366703D01*
X134316433Y-142404477D01*
X134281499Y-142409500D01*
X129411418Y-142409500D01*
X129334990Y-142429978D01*
X129266469Y-142469540D01*
X129266466Y-142469542D01*
X127462181Y-144273828D01*
X127400858Y-144307313D01*
X127331166Y-144302329D01*
X127275233Y-144260457D01*
X127250816Y-144194993D01*
X127250500Y-144186147D01*
X127250500Y-142617940D01*
X127250499Y-142617936D01*
X127240597Y-142580979D01*
X127230022Y-142541512D01*
X127190460Y-142472989D01*
X126884319Y-142166848D01*
X126850834Y-142105525D01*
X126848000Y-142079167D01*
X126848000Y-141539739D01*
X126845225Y-141510150D01*
X126812244Y-141415898D01*
X126801616Y-141385525D01*
X126799344Y-141382447D01*
X126723211Y-141279289D01*
X126723210Y-141279288D01*
X126616976Y-141200884D01*
X126492348Y-141157274D01*
X126492349Y-141157274D01*
X126462760Y-141154500D01*
X126462756Y-141154500D01*
X125782244Y-141154500D01*
X125782240Y-141154500D01*
X125752650Y-141157274D01*
X125628023Y-141200884D01*
X125521789Y-141279288D01*
X125521788Y-141279289D01*
X125443384Y-141385523D01*
X125399774Y-141510150D01*
X125397000Y-141539739D01*
X125397000Y-142120266D01*
X125397135Y-142123152D01*
X125396073Y-142123201D01*
X125383535Y-142187616D01*
X125335226Y-142238094D01*
X125267295Y-142254440D01*
X125201311Y-142231466D01*
X125185744Y-142218273D01*
X125134319Y-142166848D01*
X125100834Y-142105525D01*
X125098000Y-142079167D01*
X125098000Y-141539739D01*
X125095225Y-141510150D01*
X125051616Y-141385525D01*
X125018403Y-141340523D01*
X125009258Y-141328132D01*
X124985289Y-141262504D01*
X125000605Y-141194334D01*
X125050345Y-141145266D01*
X125109030Y-141130500D01*
X125131962Y-141130500D01*
X125131962Y-141130499D01*
X125239121Y-141099035D01*
X125270050Y-141089954D01*
X125270050Y-141089953D01*
X125270053Y-141089953D01*
X125391128Y-141012143D01*
X125485377Y-140903373D01*
X125545165Y-140772457D01*
X125545165Y-140772453D01*
X125547665Y-140763944D01*
X125550101Y-140764659D01*
X125573557Y-140713298D01*
X125632335Y-140675523D01*
X125667271Y-140670500D01*
X131289560Y-140670500D01*
X131289562Y-140670500D01*
X131365989Y-140650021D01*
X131434511Y-140610460D01*
X131490460Y-140554511D01*
X131530021Y-140485989D01*
X131550500Y-140409562D01*
X131550500Y-139485832D01*
X131570185Y-139418793D01*
X131586815Y-139398155D01*
X131931737Y-139053232D01*
X131993060Y-139019748D01*
X132062752Y-139024732D01*
X132069843Y-139027629D01*
X132100197Y-139041144D01*
X132285354Y-139080500D01*
X132285355Y-139080500D01*
X132474644Y-139080500D01*
X132474646Y-139080500D01*
X132659803Y-139041144D01*
X132832730Y-138964151D01*
X132985871Y-138852888D01*
X133112533Y-138712216D01*
X133207179Y-138548284D01*
X133265674Y-138368256D01*
X133285460Y-138180000D01*
X133265674Y-137991744D01*
X133207179Y-137811716D01*
X133112533Y-137647784D01*
X132985871Y-137507112D01*
X132985870Y-137507111D01*
X132832734Y-137395851D01*
X132832729Y-137395848D01*
X132659807Y-137318857D01*
X132659802Y-137318855D01*
X132514001Y-137287865D01*
X132474646Y-137279500D01*
X132285354Y-137279500D01*
X132252897Y-137286398D01*
X132100197Y-137318855D01*
X132100192Y-137318857D01*
X131927270Y-137395848D01*
X131927265Y-137395851D01*
X131774129Y-137507111D01*
X131647466Y-137647785D01*
X131552821Y-137811715D01*
X131552818Y-137811722D01*
X131494327Y-137991740D01*
X131494326Y-137991744D01*
X131474540Y-138180000D01*
X131494326Y-138368256D01*
X131494327Y-138368259D01*
X131537658Y-138501620D01*
X131539653Y-138571462D01*
X131507408Y-138627619D01*
X131065489Y-139069540D01*
X131009541Y-139125487D01*
X131009535Y-139125495D01*
X130969982Y-139194004D01*
X130969979Y-139194009D01*
X130949500Y-139270439D01*
X130949500Y-139945500D01*
X130929815Y-140012539D01*
X130877011Y-140058294D01*
X130825500Y-140069500D01*
X125280438Y-140069500D01*
X125204009Y-140089978D01*
X125170871Y-140109111D01*
X125164333Y-140112886D01*
X125102333Y-140129500D01*
X124988036Y-140129500D01*
X124849949Y-140170045D01*
X124728873Y-140247856D01*
X124634623Y-140356626D01*
X124634622Y-140356628D01*
X124574834Y-140487543D01*
X124554353Y-140630000D01*
X124574834Y-140772456D01*
X124634622Y-140903371D01*
X124634625Y-140903377D01*
X124674416Y-140949298D01*
X124703441Y-141012854D01*
X124693497Y-141082012D01*
X124647742Y-141134816D01*
X124580703Y-141154500D01*
X124032240Y-141154500D01*
X124002650Y-141157274D01*
X123878023Y-141200884D01*
X123771789Y-141279288D01*
X123771788Y-141279289D01*
X123693384Y-141385523D01*
X123649774Y-141510150D01*
X123647000Y-141539739D01*
X123647000Y-142120260D01*
X123649774Y-142149849D01*
X123693384Y-142274476D01*
X123771788Y-142380710D01*
X123771789Y-142380711D01*
X123878025Y-142459116D01*
X123921954Y-142474487D01*
X123933123Y-142478396D01*
X123989899Y-142519117D01*
X124015646Y-142584070D01*
X124002190Y-142652632D01*
X123953802Y-142703035D01*
X123933124Y-142712478D01*
X123880523Y-142730884D01*
X123774289Y-142809288D01*
X123774288Y-142809289D01*
X123695884Y-142915523D01*
X123695883Y-142915524D01*
X123674563Y-142976455D01*
X123633841Y-143033231D01*
X123568888Y-143058978D01*
X123557522Y-143059500D01*
X123281800Y-143059500D01*
X123214761Y-143039815D01*
X123208167Y-143035271D01*
X123203274Y-143031660D01*
X123134475Y-142980884D01*
X123134474Y-142980883D01*
X123009848Y-142937274D01*
X123009849Y-142937274D01*
X122980260Y-142934500D01*
X122980256Y-142934500D01*
X122399744Y-142934500D01*
X122399740Y-142934500D01*
X122370150Y-142937274D01*
X122245525Y-142980883D01*
X122209204Y-143007690D01*
X122143575Y-143031660D01*
X122075404Y-143016344D01*
X122030033Y-142973016D01*
X121939947Y-142826965D01*
X121939944Y-142826961D01*
X121818037Y-142705054D01*
X121687615Y-142624608D01*
X121640891Y-142572660D01*
X121629670Y-142503697D01*
X121657513Y-142439615D01*
X121665035Y-142431385D01*
X121670703Y-142425716D01*
X121670711Y-142425711D01*
X121749116Y-142319475D01*
X121780367Y-142230167D01*
X121787933Y-142208545D01*
X121828655Y-142151769D01*
X121893608Y-142126022D01*
X121904974Y-142125500D01*
X121927771Y-142125500D01*
X121994810Y-142145185D01*
X122040565Y-142197989D01*
X122044812Y-142208545D01*
X122060884Y-142254475D01*
X122060884Y-142254476D01*
X122139288Y-142360710D01*
X122139289Y-142360711D01*
X122245523Y-142439115D01*
X122245524Y-142439115D01*
X122245525Y-142439116D01*
X122370151Y-142482725D01*
X122370150Y-142482725D01*
X122399740Y-142485500D01*
X122399744Y-142485500D01*
X122980260Y-142485500D01*
X123009849Y-142482725D01*
X123022220Y-142478396D01*
X123134475Y-142439116D01*
X123240711Y-142360711D01*
X123319116Y-142254475D01*
X123362725Y-142129849D01*
X123363625Y-142120256D01*
X123365500Y-142100260D01*
X123365500Y-141494739D01*
X123362725Y-141465150D01*
X123333784Y-141382444D01*
X123319116Y-141340525D01*
X123311734Y-141330523D01*
X123240712Y-141234290D01*
X123210568Y-141212043D01*
X123168318Y-141156396D01*
X123162859Y-141086740D01*
X123195926Y-141025190D01*
X123222194Y-141004891D01*
X123264511Y-140980460D01*
X123320460Y-140924511D01*
X124150460Y-140094511D01*
X124166042Y-140067522D01*
X124190021Y-140025989D01*
X124210500Y-139949562D01*
X124210500Y-137263738D01*
X124230185Y-137196699D01*
X124240789Y-137182533D01*
X124241125Y-137182144D01*
X124241128Y-137182143D01*
X124266125Y-137153295D01*
X124324904Y-137115522D01*
X124359836Y-137110500D01*
X129861499Y-137110500D01*
X129928538Y-137130185D01*
X129955210Y-137153295D01*
X129988872Y-137192143D01*
X130109947Y-137269953D01*
X130109950Y-137269954D01*
X130109949Y-137269954D01*
X130248036Y-137310499D01*
X130248038Y-137310500D01*
X130248039Y-137310500D01*
X130391962Y-137310500D01*
X130391962Y-137310499D01*
X130530053Y-137269953D01*
X130651128Y-137192143D01*
X130745377Y-137083373D01*
X130805165Y-136952457D01*
X130825647Y-136810000D01*
X130805165Y-136667543D01*
X130800597Y-136657541D01*
X130763364Y-136576012D01*
X130753420Y-136506853D01*
X130782445Y-136443297D01*
X130841223Y-136405523D01*
X130876158Y-136400500D01*
X131119750Y-136400500D01*
X131119751Y-136400499D01*
X131134568Y-136397552D01*
X131178229Y-136388868D01*
X131178231Y-136388867D01*
X131216108Y-136363558D01*
X131282785Y-136342679D01*
X131350165Y-136361163D01*
X131353892Y-136363558D01*
X131391768Y-136388867D01*
X131391770Y-136388868D01*
X131450247Y-136400499D01*
X131450250Y-136400500D01*
X131450252Y-136400500D01*
X132389750Y-136400500D01*
X132389751Y-136400499D01*
X132404568Y-136397552D01*
X132448229Y-136388868D01*
X132448231Y-136388867D01*
X132486108Y-136363558D01*
X132552785Y-136342679D01*
X132620165Y-136361163D01*
X132623892Y-136363558D01*
X132661768Y-136388867D01*
X132661770Y-136388868D01*
X132720247Y-136400499D01*
X132720250Y-136400500D01*
X133473444Y-136400500D01*
X133540483Y-136420185D01*
X133572710Y-136450189D01*
X133652809Y-136557187D01*
X133652812Y-136557190D01*
X133767906Y-136643350D01*
X133767913Y-136643354D01*
X133902620Y-136693596D01*
X133902627Y-136693598D01*
X133962155Y-136699999D01*
X133962172Y-136700000D01*
X134210000Y-136700000D01*
X134710000Y-136700000D01*
X134957828Y-136700000D01*
X134957844Y-136699999D01*
X135017372Y-136693598D01*
X135017379Y-136693596D01*
X135152086Y-136643354D01*
X135152093Y-136643350D01*
X135267187Y-136557190D01*
X135267190Y-136557187D01*
X135353350Y-136442093D01*
X135353354Y-136442086D01*
X135403596Y-136307379D01*
X135403598Y-136307372D01*
X135409999Y-136247844D01*
X135410000Y-136247827D01*
X135410000Y-135700000D01*
X134710000Y-135700000D01*
X134710000Y-136700000D01*
X134210000Y-136700000D01*
X134210000Y-135200000D01*
X134710000Y-135200000D01*
X135410000Y-135200000D01*
X135410000Y-134652172D01*
X135409999Y-134652155D01*
X135403598Y-134592627D01*
X135403596Y-134592620D01*
X135353354Y-134457913D01*
X135353350Y-134457906D01*
X135267190Y-134342812D01*
X135267187Y-134342809D01*
X135152093Y-134256649D01*
X135152086Y-134256645D01*
X135017379Y-134206403D01*
X135017372Y-134206401D01*
X134957844Y-134200000D01*
X134710000Y-134200000D01*
X134710000Y-135200000D01*
X134210000Y-135200000D01*
X134210000Y-134200000D01*
X133962155Y-134200000D01*
X133902627Y-134206401D01*
X133902620Y-134206403D01*
X133767913Y-134256645D01*
X133767910Y-134256647D01*
X133688811Y-134315861D01*
X133623347Y-134340278D01*
X133555074Y-134325426D01*
X133505668Y-134276021D01*
X133490500Y-134216594D01*
X133490500Y-133758094D01*
X133510185Y-133691055D01*
X133547460Y-133653779D01*
X133581128Y-133632143D01*
X133675377Y-133523373D01*
X133735165Y-133392457D01*
X133755647Y-133250000D01*
X133735165Y-133107543D01*
X133675377Y-132976627D01*
X133581128Y-132867857D01*
X133460053Y-132790047D01*
X133460051Y-132790046D01*
X133460049Y-132790045D01*
X133460050Y-132790045D01*
X133321963Y-132749500D01*
X133321961Y-132749500D01*
X133178039Y-132749500D01*
X133178036Y-132749500D01*
X133039949Y-132790045D01*
X132918873Y-132867856D01*
X132824623Y-132976626D01*
X132824622Y-132976628D01*
X132764834Y-133107543D01*
X132744353Y-133250000D01*
X132764834Y-133392456D01*
X132778954Y-133423373D01*
X132824623Y-133523373D01*
X132859212Y-133563291D01*
X132888238Y-133626846D01*
X132889500Y-133644494D01*
X132889500Y-134375500D01*
X132869815Y-134442539D01*
X132817011Y-134488294D01*
X132765500Y-134499500D01*
X132720247Y-134499500D01*
X132661770Y-134511131D01*
X132661769Y-134511132D01*
X132623891Y-134536442D01*
X132557213Y-134557320D01*
X132489833Y-134538835D01*
X132486109Y-134536442D01*
X132448230Y-134511132D01*
X132448229Y-134511131D01*
X132389752Y-134499500D01*
X132389748Y-134499500D01*
X132344500Y-134499500D01*
X132277461Y-134479815D01*
X132231706Y-134427011D01*
X132220500Y-134375500D01*
X132220500Y-133613738D01*
X132240185Y-133546699D01*
X132250787Y-133532535D01*
X132251124Y-133532144D01*
X132251128Y-133532143D01*
X132345377Y-133423373D01*
X132405165Y-133292457D01*
X132425647Y-133150000D01*
X132405165Y-133007543D01*
X132345377Y-132876627D01*
X132251128Y-132767857D01*
X132130053Y-132690047D01*
X132130051Y-132690046D01*
X132130049Y-132690045D01*
X132130050Y-132690045D01*
X131991963Y-132649500D01*
X131991961Y-132649500D01*
X131848039Y-132649500D01*
X131848036Y-132649500D01*
X131709949Y-132690045D01*
X131588873Y-132767856D01*
X131494623Y-132876626D01*
X131494622Y-132876628D01*
X131434834Y-133007543D01*
X131414353Y-133150000D01*
X131434834Y-133292456D01*
X131480504Y-133392457D01*
X131494623Y-133423373D01*
X131588872Y-133532143D01*
X131588875Y-133532144D01*
X131589213Y-133532535D01*
X131618238Y-133596091D01*
X131619500Y-133613738D01*
X131619500Y-134375500D01*
X131599815Y-134442539D01*
X131547011Y-134488294D01*
X131495500Y-134499500D01*
X131450247Y-134499500D01*
X131391770Y-134511131D01*
X131391769Y-134511132D01*
X131353891Y-134536442D01*
X131287213Y-134557320D01*
X131219833Y-134538835D01*
X131216109Y-134536442D01*
X131178230Y-134511132D01*
X131178229Y-134511131D01*
X131119752Y-134499500D01*
X131119748Y-134499500D01*
X130180252Y-134499500D01*
X130180247Y-134499500D01*
X130121770Y-134511131D01*
X130121769Y-134511132D01*
X130083891Y-134536442D01*
X130017213Y-134557320D01*
X129949833Y-134538835D01*
X129946109Y-134536442D01*
X129908230Y-134511132D01*
X129908229Y-134511131D01*
X129849752Y-134499500D01*
X129849748Y-134499500D01*
X128910252Y-134499500D01*
X128910247Y-134499500D01*
X128851770Y-134511131D01*
X128851769Y-134511132D01*
X128813891Y-134536442D01*
X128747213Y-134557320D01*
X128679833Y-134538835D01*
X128676109Y-134536442D01*
X128638230Y-134511132D01*
X128638229Y-134511131D01*
X128579752Y-134499500D01*
X128579748Y-134499500D01*
X127640252Y-134499500D01*
X127640247Y-134499500D01*
X127581770Y-134511131D01*
X127581769Y-134511132D01*
X127543891Y-134536442D01*
X127477213Y-134557320D01*
X127409833Y-134538835D01*
X127406109Y-134536442D01*
X127368230Y-134511132D01*
X127368229Y-134511131D01*
X127309752Y-134499500D01*
X127309748Y-134499500D01*
X126370252Y-134499500D01*
X126370247Y-134499500D01*
X126311770Y-134511131D01*
X126311769Y-134511132D01*
X126273891Y-134536442D01*
X126207213Y-134557320D01*
X126139833Y-134538835D01*
X126136109Y-134536442D01*
X126098230Y-134511132D01*
X126098229Y-134511131D01*
X126039752Y-134499500D01*
X126039748Y-134499500D01*
X125100252Y-134499500D01*
X125100247Y-134499500D01*
X125041770Y-134511131D01*
X125041769Y-134511132D01*
X125003891Y-134536442D01*
X124937213Y-134557320D01*
X124869833Y-134538835D01*
X124866109Y-134536442D01*
X124828230Y-134511132D01*
X124828229Y-134511131D01*
X124769752Y-134499500D01*
X124769748Y-134499500D01*
X123830252Y-134499500D01*
X123830247Y-134499500D01*
X123771770Y-134511131D01*
X123771769Y-134511132D01*
X123733891Y-134536442D01*
X123667213Y-134557320D01*
X123599833Y-134538835D01*
X123596109Y-134536442D01*
X123558230Y-134511132D01*
X123558229Y-134511131D01*
X123499752Y-134499500D01*
X123499748Y-134499500D01*
X122560252Y-134499500D01*
X122560247Y-134499500D01*
X122501770Y-134511131D01*
X122501769Y-134511132D01*
X122463891Y-134536442D01*
X122397213Y-134557320D01*
X122329833Y-134538835D01*
X122326109Y-134536442D01*
X122288230Y-134511132D01*
X122288229Y-134511131D01*
X122229752Y-134499500D01*
X122229748Y-134499500D01*
X121290252Y-134499500D01*
X121290247Y-134499500D01*
X121231770Y-134511131D01*
X121231769Y-134511132D01*
X121193891Y-134536442D01*
X121127213Y-134557320D01*
X121059833Y-134538835D01*
X121056109Y-134536442D01*
X121018230Y-134511132D01*
X121018229Y-134511131D01*
X120959752Y-134499500D01*
X120959748Y-134499500D01*
X120020252Y-134499500D01*
X120020247Y-134499500D01*
X119961770Y-134511131D01*
X119961769Y-134511132D01*
X119923891Y-134536442D01*
X119857213Y-134557320D01*
X119789833Y-134538835D01*
X119786109Y-134536442D01*
X119748230Y-134511132D01*
X119748229Y-134511131D01*
X119689752Y-134499500D01*
X119689748Y-134499500D01*
X118750252Y-134499500D01*
X118750247Y-134499500D01*
X118691770Y-134511131D01*
X118691769Y-134511132D01*
X118653891Y-134536442D01*
X118587213Y-134557320D01*
X118519833Y-134538835D01*
X118516109Y-134536442D01*
X118478230Y-134511132D01*
X118478229Y-134511131D01*
X118419752Y-134499500D01*
X118419748Y-134499500D01*
X117673967Y-134499500D01*
X117606928Y-134479815D01*
X117561173Y-134427011D01*
X117551229Y-134357853D01*
X117580254Y-134294297D01*
X117586286Y-134287819D01*
X117594551Y-134279553D01*
X117596911Y-134276021D01*
X117638867Y-134213231D01*
X117638867Y-134213229D01*
X117638868Y-134213229D01*
X117650499Y-134154752D01*
X117650500Y-134154750D01*
X117650500Y-133215249D01*
X117650499Y-133215247D01*
X117638868Y-133156770D01*
X117638867Y-133156768D01*
X117613558Y-133118892D01*
X117592679Y-133052215D01*
X117611163Y-132984835D01*
X117613558Y-132981108D01*
X117638867Y-132943231D01*
X117638868Y-132943229D01*
X117650499Y-132884752D01*
X117650500Y-132884750D01*
X117650500Y-131945249D01*
X117650499Y-131945247D01*
X117638868Y-131886770D01*
X117638867Y-131886768D01*
X117613558Y-131848892D01*
X117592679Y-131782215D01*
X117611163Y-131714835D01*
X117613558Y-131711108D01*
X117638867Y-131673231D01*
X117638868Y-131673229D01*
X117650499Y-131614752D01*
X117650500Y-131614750D01*
X117650500Y-130675249D01*
X117650499Y-130675247D01*
X117638868Y-130616770D01*
X117638867Y-130616768D01*
X117613558Y-130578892D01*
X117592679Y-130512215D01*
X117611163Y-130444835D01*
X117613558Y-130441108D01*
X117638867Y-130403231D01*
X117638868Y-130403229D01*
X117650499Y-130344752D01*
X117650500Y-130344749D01*
X117650500Y-129405249D01*
X117650499Y-129405247D01*
X117638868Y-129346770D01*
X117638867Y-129346768D01*
X117613558Y-129308892D01*
X117592679Y-129242215D01*
X117611163Y-129174835D01*
X117613558Y-129171108D01*
X117638867Y-129133231D01*
X117638868Y-129133229D01*
X117650499Y-129074752D01*
X117650500Y-129074750D01*
X117650500Y-129029500D01*
X117670185Y-128962461D01*
X117722989Y-128916706D01*
X117774500Y-128905500D01*
X119418807Y-128905500D01*
X119485844Y-128925183D01*
X119539947Y-128959953D01*
X119539948Y-128959953D01*
X119539951Y-128959955D01*
X119678036Y-129000499D01*
X119678038Y-129000500D01*
X119678039Y-129000500D01*
X119821962Y-129000500D01*
X119821962Y-129000499D01*
X119929121Y-128969035D01*
X119960050Y-128959954D01*
X119960050Y-128959953D01*
X119960053Y-128959953D01*
X120081128Y-128882143D01*
X120175377Y-128773373D01*
X120235165Y-128642457D01*
X120255647Y-128500000D01*
X120235165Y-128357543D01*
X120175377Y-128226627D01*
X120081128Y-128117857D01*
X119960053Y-128040047D01*
X119960051Y-128040046D01*
X119960049Y-128040045D01*
X119960050Y-128040045D01*
X119821963Y-127999500D01*
X119821961Y-127999500D01*
X119678039Y-127999500D01*
X119678036Y-127999500D01*
X119539949Y-128040045D01*
X119418873Y-128117856D01*
X119324623Y-128226626D01*
X119324621Y-128226629D01*
X119322165Y-128232009D01*
X119276412Y-128284814D01*
X119209372Y-128304500D01*
X117774500Y-128304500D01*
X117707461Y-128284815D01*
X117661706Y-128232011D01*
X117650500Y-128180500D01*
X117650500Y-128135249D01*
X117650499Y-128135247D01*
X117638868Y-128076770D01*
X117638867Y-128076768D01*
X117613558Y-128038892D01*
X117592679Y-127972215D01*
X117611163Y-127904835D01*
X117613558Y-127901108D01*
X117638867Y-127863231D01*
X117638868Y-127863229D01*
X117650499Y-127804752D01*
X117650500Y-127804750D01*
X117650500Y-127759500D01*
X117670185Y-127692461D01*
X117722989Y-127646706D01*
X117774500Y-127635500D01*
X121387686Y-127635500D01*
X121454725Y-127655185D01*
X121539944Y-127709952D01*
X121539949Y-127709954D01*
X121678036Y-127750499D01*
X121678038Y-127750500D01*
X121678039Y-127750500D01*
X121821962Y-127750500D01*
X121821962Y-127750499D01*
X121960053Y-127709953D01*
X122081128Y-127632143D01*
X122175377Y-127523373D01*
X122235165Y-127392457D01*
X122255647Y-127250000D01*
X122235165Y-127107543D01*
X122175377Y-126976627D01*
X122081128Y-126867857D01*
X121960053Y-126790047D01*
X121960051Y-126790046D01*
X121960049Y-126790045D01*
X121960050Y-126790045D01*
X121821963Y-126749500D01*
X121821961Y-126749500D01*
X121678039Y-126749500D01*
X121678036Y-126749500D01*
X121539949Y-126790045D01*
X121418873Y-126867856D01*
X121324619Y-126976631D01*
X121324036Y-126977539D01*
X121323220Y-126978245D01*
X121318815Y-126983330D01*
X121318083Y-126982696D01*
X121271232Y-127023294D01*
X121219721Y-127034500D01*
X117774500Y-127034500D01*
X117707461Y-127014815D01*
X117661706Y-126962011D01*
X117650500Y-126910500D01*
X117650500Y-126865249D01*
X117650499Y-126865247D01*
X117638868Y-126806770D01*
X117638867Y-126806768D01*
X117613558Y-126768892D01*
X117592679Y-126702215D01*
X117611163Y-126634835D01*
X117613558Y-126631108D01*
X117638867Y-126593231D01*
X117638868Y-126593229D01*
X117650499Y-126534752D01*
X117650500Y-126534750D01*
X117650500Y-125595249D01*
X117650499Y-125595247D01*
X117638868Y-125536770D01*
X117638867Y-125536768D01*
X117613558Y-125498892D01*
X117592679Y-125432215D01*
X117611163Y-125364835D01*
X117613558Y-125361108D01*
X117638867Y-125323231D01*
X117638868Y-125323229D01*
X117650499Y-125264752D01*
X117650500Y-125264750D01*
X117650500Y-124648718D01*
X117670185Y-124581679D01*
X117722989Y-124535924D01*
X117792147Y-124525980D01*
X117855703Y-124555005D01*
X117868212Y-124567515D01*
X117958872Y-124672143D01*
X118079947Y-124749953D01*
X118079950Y-124749954D01*
X118079949Y-124749954D01*
X118218036Y-124790499D01*
X118218038Y-124790500D01*
X118218039Y-124790500D01*
X118361962Y-124790500D01*
X118361962Y-124790499D01*
X118500053Y-124749953D01*
X118621128Y-124672143D01*
X118654788Y-124633296D01*
X118713567Y-124595523D01*
X118748501Y-124590500D01*
X119619560Y-124590500D01*
X119619562Y-124590500D01*
X119695989Y-124570021D01*
X119764511Y-124530460D01*
X119820460Y-124474511D01*
X120128151Y-124166818D01*
X120189474Y-124133334D01*
X120215832Y-124130500D01*
X120311962Y-124130500D01*
X120311962Y-124130499D01*
X120450053Y-124089953D01*
X120571128Y-124012143D01*
X120665377Y-123903373D01*
X120725165Y-123772457D01*
X120745647Y-123630000D01*
X120744339Y-123620905D01*
X120754279Y-123551749D01*
X120779392Y-123515577D01*
X121718151Y-122576819D01*
X121779474Y-122543334D01*
X121805832Y-122540500D01*
X121901962Y-122540500D01*
X121901962Y-122540499D01*
X122038190Y-122500500D01*
X122040050Y-122499954D01*
X122040050Y-122499953D01*
X122040053Y-122499953D01*
X122161128Y-122422143D01*
X122255377Y-122313373D01*
X122282706Y-122253532D01*
X122328461Y-122200728D01*
X122395500Y-122181043D01*
X122462539Y-122200728D01*
X122508294Y-122253532D01*
X122519500Y-122305043D01*
X122519500Y-125619562D01*
X122526434Y-125645438D01*
X122539978Y-125695987D01*
X122556477Y-125724564D01*
X122579539Y-125764509D01*
X122579541Y-125764512D01*
X127313181Y-130498152D01*
X127346666Y-130559475D01*
X127349500Y-130585833D01*
X127349500Y-133076260D01*
X127329815Y-133143299D01*
X127319213Y-133157462D01*
X127224625Y-133266622D01*
X127224622Y-133266628D01*
X127164834Y-133397543D01*
X127144353Y-133540000D01*
X127164834Y-133682456D01*
X127224622Y-133813371D01*
X127224623Y-133813373D01*
X127318872Y-133922143D01*
X127439947Y-133999953D01*
X127439950Y-133999954D01*
X127439949Y-133999954D01*
X127578036Y-134040499D01*
X127578038Y-134040500D01*
X127578039Y-134040500D01*
X127721962Y-134040500D01*
X127721962Y-134040499D01*
X127860053Y-133999953D01*
X127981128Y-133922143D01*
X128075377Y-133813373D01*
X128135165Y-133682457D01*
X128155647Y-133540000D01*
X128135165Y-133397543D01*
X128075377Y-133266627D01*
X128075375Y-133266625D01*
X128075374Y-133266622D01*
X127980787Y-133157462D01*
X127951762Y-133093906D01*
X127950500Y-133076260D01*
X127950500Y-130370439D01*
X127950500Y-130370438D01*
X127943616Y-130344748D01*
X127930022Y-130294012D01*
X127890460Y-130225489D01*
X125426652Y-127761681D01*
X125393167Y-127700358D01*
X125398151Y-127630666D01*
X125440023Y-127574733D01*
X125505487Y-127550316D01*
X125514333Y-127550000D01*
X125837828Y-127550000D01*
X125837844Y-127549999D01*
X125897372Y-127543598D01*
X125897376Y-127543597D01*
X125996666Y-127506564D01*
X126066358Y-127501580D01*
X126083334Y-127506564D01*
X126182623Y-127543597D01*
X126182627Y-127543598D01*
X126242155Y-127549999D01*
X126242172Y-127550000D01*
X126490000Y-127550000D01*
X126990000Y-127550000D01*
X127237828Y-127550000D01*
X127237844Y-127549999D01*
X127297372Y-127543598D01*
X127297376Y-127543597D01*
X127396666Y-127506564D01*
X127466358Y-127501580D01*
X127483334Y-127506564D01*
X127582623Y-127543597D01*
X127582627Y-127543598D01*
X127642155Y-127549999D01*
X127642172Y-127550000D01*
X127890000Y-127550000D01*
X128390000Y-127550000D01*
X128637828Y-127550000D01*
X128637844Y-127549999D01*
X128697372Y-127543598D01*
X128697379Y-127543596D01*
X128832086Y-127493354D01*
X128832093Y-127493350D01*
X128947187Y-127407190D01*
X128947190Y-127407187D01*
X129033350Y-127292093D01*
X129033354Y-127292086D01*
X129083596Y-127157379D01*
X129083598Y-127157372D01*
X129089999Y-127097844D01*
X129090000Y-127097827D01*
X129090000Y-126850000D01*
X128390000Y-126850000D01*
X128390000Y-127550000D01*
X127890000Y-127550000D01*
X127890000Y-126850000D01*
X126990000Y-126850000D01*
X126990000Y-127550000D01*
X126490000Y-127550000D01*
X126490000Y-126850000D01*
X125214000Y-126850000D01*
X125146961Y-126830315D01*
X125101206Y-126777511D01*
X125090000Y-126726000D01*
X125090000Y-126350000D01*
X125590000Y-126350000D01*
X126490000Y-126350000D01*
X126990000Y-126350000D01*
X127890000Y-126350000D01*
X128390000Y-126350000D01*
X129090000Y-126350000D01*
X129090000Y-126102172D01*
X129089999Y-126102155D01*
X129083598Y-126042627D01*
X129083597Y-126042623D01*
X129046564Y-125943334D01*
X129041580Y-125873642D01*
X129046564Y-125856666D01*
X129083597Y-125757376D01*
X129083598Y-125757372D01*
X129089999Y-125697844D01*
X129090000Y-125697827D01*
X129090000Y-125450000D01*
X128390000Y-125450000D01*
X128390000Y-126350000D01*
X127890000Y-126350000D01*
X127890000Y-125450000D01*
X126990000Y-125450000D01*
X126990000Y-126350000D01*
X126490000Y-126350000D01*
X126490000Y-125450000D01*
X125590000Y-125450000D01*
X125590000Y-126350000D01*
X125090000Y-126350000D01*
X125090000Y-125450000D01*
X124390000Y-125450000D01*
X124390000Y-125697844D01*
X124396401Y-125757372D01*
X124396403Y-125757383D01*
X124433434Y-125856668D01*
X124438418Y-125926360D01*
X124433434Y-125943332D01*
X124396403Y-126042616D01*
X124396401Y-126042627D01*
X124390000Y-126102155D01*
X124390000Y-126425667D01*
X124370315Y-126492706D01*
X124317511Y-126538461D01*
X124248353Y-126548405D01*
X124184797Y-126519380D01*
X124178319Y-126513348D01*
X123156819Y-125491848D01*
X123123334Y-125430525D01*
X123120500Y-125404167D01*
X123120500Y-124297844D01*
X124390000Y-124297844D01*
X124396401Y-124357372D01*
X124396403Y-124357383D01*
X124433434Y-124456668D01*
X124438418Y-124526360D01*
X124433434Y-124543332D01*
X124396403Y-124642616D01*
X124396401Y-124642627D01*
X124390000Y-124702155D01*
X124390000Y-124950000D01*
X125090000Y-124950000D01*
X125590000Y-124950000D01*
X126490000Y-124950000D01*
X126990000Y-124950000D01*
X127890000Y-124950000D01*
X128390000Y-124950000D01*
X129090000Y-124950000D01*
X129090000Y-124702172D01*
X129089999Y-124702155D01*
X129083598Y-124642627D01*
X129083597Y-124642623D01*
X129046564Y-124543334D01*
X129041580Y-124473642D01*
X129046564Y-124456666D01*
X129083597Y-124357376D01*
X129083598Y-124357372D01*
X129089999Y-124297844D01*
X129090000Y-124297827D01*
X129090000Y-124050000D01*
X128390000Y-124050000D01*
X128390000Y-124950000D01*
X127890000Y-124950000D01*
X127890000Y-124050000D01*
X126990000Y-124050000D01*
X126990000Y-124950000D01*
X126490000Y-124950000D01*
X126490000Y-124050000D01*
X125590000Y-124050000D01*
X125590000Y-124950000D01*
X125090000Y-124950000D01*
X125090000Y-124050000D01*
X124390000Y-124050000D01*
X124390000Y-124297844D01*
X123120500Y-124297844D01*
X123120500Y-123302155D01*
X124390000Y-123302155D01*
X124390000Y-123550000D01*
X125090000Y-123550000D01*
X125590000Y-123550000D01*
X126490000Y-123550000D01*
X126990000Y-123550000D01*
X127890000Y-123550000D01*
X128390000Y-123550000D01*
X129090000Y-123550000D01*
X129090000Y-123302172D01*
X129089999Y-123302155D01*
X129083598Y-123242627D01*
X129083596Y-123242620D01*
X129033354Y-123107913D01*
X129033350Y-123107906D01*
X128947190Y-122992812D01*
X128947187Y-122992809D01*
X128832093Y-122906649D01*
X128832086Y-122906645D01*
X128697379Y-122856403D01*
X128697372Y-122856401D01*
X128637844Y-122850000D01*
X128390000Y-122850000D01*
X128390000Y-123550000D01*
X127890000Y-123550000D01*
X127890000Y-122850000D01*
X127642155Y-122850000D01*
X127582627Y-122856401D01*
X127582616Y-122856403D01*
X127483332Y-122893434D01*
X127413640Y-122898418D01*
X127396668Y-122893434D01*
X127297383Y-122856403D01*
X127297372Y-122856401D01*
X127237844Y-122850000D01*
X126990000Y-122850000D01*
X126990000Y-123550000D01*
X126490000Y-123550000D01*
X126490000Y-122850000D01*
X126242155Y-122850000D01*
X126182627Y-122856401D01*
X126182616Y-122856403D01*
X126083332Y-122893434D01*
X126013640Y-122898418D01*
X125996668Y-122893434D01*
X125897383Y-122856403D01*
X125897372Y-122856401D01*
X125837844Y-122850000D01*
X125590000Y-122850000D01*
X125590000Y-123550000D01*
X125090000Y-123550000D01*
X125090000Y-122850000D01*
X124842155Y-122850000D01*
X124782627Y-122856401D01*
X124782620Y-122856403D01*
X124647913Y-122906645D01*
X124647906Y-122906649D01*
X124532812Y-122992809D01*
X124532809Y-122992812D01*
X124446649Y-123107906D01*
X124446645Y-123107913D01*
X124396403Y-123242620D01*
X124396401Y-123242627D01*
X124390000Y-123302155D01*
X123120500Y-123302155D01*
X123120500Y-120117962D01*
X123140185Y-120050923D01*
X123192989Y-120005168D01*
X123262147Y-119995224D01*
X123325703Y-120024249D01*
X123338204Y-120036750D01*
X123368872Y-120072143D01*
X123368873Y-120072144D01*
X123402534Y-120093776D01*
X123489947Y-120149953D01*
X123489950Y-120149954D01*
X123489949Y-120149954D01*
X123628036Y-120190499D01*
X123628038Y-120190500D01*
X123628039Y-120190500D01*
X123771962Y-120190500D01*
X123771962Y-120190499D01*
X123910053Y-120149953D01*
X124031128Y-120072143D01*
X124090783Y-120003297D01*
X124149561Y-119965523D01*
X124184496Y-119960500D01*
X126951499Y-119960500D01*
X127018538Y-119980185D01*
X127045211Y-120003296D01*
X127078872Y-120042143D01*
X127199947Y-120119953D01*
X127199950Y-120119954D01*
X127199949Y-120119954D01*
X127338036Y-120160499D01*
X127338038Y-120160500D01*
X127338039Y-120160500D01*
X127481962Y-120160500D01*
X127481962Y-120160499D01*
X127617608Y-120120671D01*
X127620050Y-120119954D01*
X127620050Y-120119953D01*
X127620053Y-120119953D01*
X127741128Y-120042143D01*
X127835377Y-119933373D01*
X127895165Y-119802457D01*
X127915647Y-119660000D01*
X127895165Y-119517543D01*
X127835377Y-119386627D01*
X127741128Y-119277857D01*
X127620053Y-119200047D01*
X127620051Y-119200046D01*
X127620049Y-119200045D01*
X127620050Y-119200045D01*
X127481963Y-119159500D01*
X127481961Y-119159500D01*
X127338039Y-119159500D01*
X127338036Y-119159500D01*
X127199949Y-119200045D01*
X127078873Y-119277856D01*
X127078872Y-119277856D01*
X127078872Y-119277857D01*
X127065713Y-119293044D01*
X127045212Y-119316703D01*
X126986433Y-119354477D01*
X126951499Y-119359500D01*
X124132506Y-119359500D01*
X124065467Y-119339815D01*
X124038795Y-119316705D01*
X124037796Y-119315553D01*
X124031128Y-119307857D01*
X123910053Y-119230047D01*
X123910051Y-119230046D01*
X123910049Y-119230045D01*
X123910050Y-119230045D01*
X123771963Y-119189500D01*
X123771961Y-119189500D01*
X123628039Y-119189500D01*
X123628036Y-119189500D01*
X123489949Y-119230045D01*
X123368873Y-119307856D01*
X123274623Y-119416626D01*
X123274622Y-119416628D01*
X123214834Y-119547543D01*
X123202029Y-119636606D01*
X123173003Y-119700161D01*
X123114225Y-119737935D01*
X123044355Y-119737935D01*
X122991610Y-119706639D01*
X122381458Y-119096487D01*
X122347973Y-119035164D01*
X122352957Y-118965472D01*
X122394829Y-118909539D01*
X122460293Y-118885122D01*
X122493330Y-118887189D01*
X122560247Y-118900499D01*
X122560250Y-118900500D01*
X122560252Y-118900500D01*
X123499750Y-118900500D01*
X123499751Y-118900499D01*
X123514568Y-118897552D01*
X123558229Y-118888868D01*
X123558231Y-118888867D01*
X123596108Y-118863558D01*
X123662785Y-118842679D01*
X123730165Y-118861163D01*
X123733892Y-118863558D01*
X123771768Y-118888867D01*
X123771770Y-118888868D01*
X123830247Y-118900499D01*
X123830250Y-118900500D01*
X123830252Y-118900500D01*
X124769750Y-118900500D01*
X124769751Y-118900499D01*
X124784568Y-118897552D01*
X124828229Y-118888868D01*
X124828231Y-118888867D01*
X124866108Y-118863558D01*
X124932785Y-118842679D01*
X125000165Y-118861163D01*
X125003892Y-118863558D01*
X125041768Y-118888867D01*
X125041770Y-118888868D01*
X125100247Y-118900499D01*
X125100250Y-118900500D01*
X125100252Y-118900500D01*
X126039750Y-118900500D01*
X126039751Y-118900499D01*
X126054568Y-118897552D01*
X126098229Y-118888868D01*
X126098231Y-118888867D01*
X126136108Y-118863558D01*
X126202785Y-118842679D01*
X126270165Y-118861163D01*
X126273892Y-118863558D01*
X126311768Y-118888867D01*
X126311770Y-118888868D01*
X126370247Y-118900499D01*
X126370250Y-118900500D01*
X126370252Y-118900500D01*
X127309750Y-118900500D01*
X127309751Y-118900499D01*
X127324568Y-118897552D01*
X127368229Y-118888868D01*
X127368231Y-118888867D01*
X127406108Y-118863558D01*
X127472785Y-118842679D01*
X127540165Y-118861163D01*
X127543892Y-118863558D01*
X127581768Y-118888867D01*
X127581770Y-118888868D01*
X127640247Y-118900499D01*
X127640250Y-118900500D01*
X127640252Y-118900500D01*
X128579750Y-118900500D01*
X128579751Y-118900499D01*
X128594568Y-118897552D01*
X128638229Y-118888868D01*
X128638231Y-118888867D01*
X128676108Y-118863558D01*
X128742785Y-118842679D01*
X128810165Y-118861163D01*
X128813892Y-118863558D01*
X128851768Y-118888867D01*
X128851770Y-118888868D01*
X128910247Y-118900499D01*
X128910250Y-118900500D01*
X128910252Y-118900500D01*
X129849750Y-118900500D01*
X129849751Y-118900499D01*
X129864568Y-118897552D01*
X129908229Y-118888868D01*
X129908231Y-118888867D01*
X129946108Y-118863558D01*
X130012785Y-118842679D01*
X130080165Y-118861163D01*
X130083892Y-118863558D01*
X130121768Y-118888867D01*
X130121770Y-118888868D01*
X130180247Y-118900499D01*
X130180250Y-118900500D01*
X130180252Y-118900500D01*
X131119750Y-118900500D01*
X131119751Y-118900499D01*
X131134568Y-118897552D01*
X131178229Y-118888868D01*
X131178231Y-118888867D01*
X131216108Y-118863558D01*
X131282785Y-118842679D01*
X131350165Y-118861163D01*
X131353892Y-118863558D01*
X131391768Y-118888867D01*
X131391770Y-118888868D01*
X131450247Y-118900499D01*
X131450250Y-118900500D01*
X131450252Y-118900500D01*
X132389750Y-118900500D01*
X132456668Y-118887189D01*
X132526260Y-118893416D01*
X132581437Y-118936279D01*
X132604682Y-119002169D01*
X132588614Y-119070166D01*
X132568541Y-119096487D01*
X130951848Y-120713181D01*
X130890525Y-120746666D01*
X130864167Y-120749500D01*
X125318501Y-120749500D01*
X125251462Y-120729815D01*
X125224788Y-120706703D01*
X125191128Y-120667857D01*
X125070053Y-120590047D01*
X125070051Y-120590046D01*
X125070049Y-120590045D01*
X125070050Y-120590045D01*
X124931963Y-120549500D01*
X124931961Y-120549500D01*
X124788039Y-120549500D01*
X124788036Y-120549500D01*
X124649949Y-120590045D01*
X124528873Y-120667856D01*
X124434623Y-120776626D01*
X124434622Y-120776628D01*
X124374834Y-120907543D01*
X124354353Y-121050000D01*
X124374834Y-121192456D01*
X124419591Y-121290458D01*
X124434623Y-121323373D01*
X124528872Y-121432143D01*
X124649947Y-121509953D01*
X124649950Y-121509954D01*
X124649949Y-121509954D01*
X124788036Y-121550499D01*
X124788038Y-121550500D01*
X124788039Y-121550500D01*
X124931962Y-121550500D01*
X124931962Y-121550499D01*
X125058889Y-121513231D01*
X125070050Y-121509954D01*
X125070050Y-121509953D01*
X125070053Y-121509953D01*
X125191128Y-121432143D01*
X125224788Y-121393296D01*
X125283567Y-121355523D01*
X125318501Y-121350500D01*
X131079560Y-121350500D01*
X131079562Y-121350500D01*
X131155989Y-121330021D01*
X131224511Y-121290460D01*
X131280460Y-121234511D01*
X133430460Y-119084511D01*
X133442013Y-119064500D01*
X133442016Y-119064502D01*
X133442037Y-119064457D01*
X133442223Y-119064135D01*
X133492814Y-119015951D01*
X133561428Y-119002765D01*
X133626279Y-119028768D01*
X133648837Y-119051882D01*
X133652807Y-119057185D01*
X133652812Y-119057190D01*
X133767906Y-119143350D01*
X133767913Y-119143354D01*
X133902620Y-119193596D01*
X133902627Y-119193598D01*
X133962155Y-119199999D01*
X133962172Y-119200000D01*
X134210000Y-119200000D01*
X134710000Y-119200000D01*
X134957828Y-119200000D01*
X134957844Y-119199999D01*
X135017372Y-119193598D01*
X135017379Y-119193596D01*
X135152086Y-119143354D01*
X135152093Y-119143350D01*
X135267187Y-119057190D01*
X135267190Y-119057187D01*
X135353350Y-118942093D01*
X135353354Y-118942086D01*
X135403596Y-118807379D01*
X135403598Y-118807372D01*
X135409999Y-118747844D01*
X135410000Y-118747827D01*
X135410000Y-118200000D01*
X134710000Y-118200000D01*
X134710000Y-119200000D01*
X134210000Y-119200000D01*
X134210000Y-117824000D01*
X134229685Y-117756961D01*
X134282489Y-117711206D01*
X134334000Y-117700000D01*
X135410000Y-117700000D01*
X135410000Y-117152172D01*
X135409999Y-117152155D01*
X135403598Y-117092627D01*
X135403596Y-117092620D01*
X135353354Y-116957913D01*
X135353350Y-116957906D01*
X135267190Y-116842812D01*
X135267187Y-116842809D01*
X135152093Y-116756649D01*
X135152086Y-116756645D01*
X135017379Y-116706403D01*
X135017372Y-116706401D01*
X134957844Y-116700000D01*
X134634333Y-116700000D01*
X134567294Y-116680315D01*
X134521539Y-116627511D01*
X134511595Y-116558353D01*
X134540620Y-116494797D01*
X134546652Y-116488319D01*
X134833623Y-116201348D01*
X135132182Y-115902789D01*
X135171743Y-115834267D01*
X135192222Y-115757840D01*
X135192222Y-112678711D01*
X136849500Y-112678711D01*
X136849500Y-112678712D01*
X136849500Y-112921288D01*
X136881162Y-113161789D01*
X136912554Y-113278944D01*
X136943947Y-113396104D01*
X137026790Y-113596104D01*
X137036776Y-113620212D01*
X137158064Y-113830289D01*
X137158066Y-113830292D01*
X137158067Y-113830293D01*
X137305733Y-114022736D01*
X137305739Y-114022743D01*
X137477256Y-114194260D01*
X137477262Y-114194265D01*
X137669711Y-114341936D01*
X137879788Y-114463224D01*
X138103900Y-114556054D01*
X138338211Y-114618838D01*
X138518586Y-114642584D01*
X138578711Y-114650500D01*
X138578712Y-114650500D01*
X138821289Y-114650500D01*
X138869388Y-114644167D01*
X139061789Y-114618838D01*
X139296100Y-114556054D01*
X139520212Y-114463224D01*
X139730289Y-114341936D01*
X139922738Y-114194265D01*
X140094265Y-114022738D01*
X140241936Y-113830289D01*
X140363224Y-113620212D01*
X140456054Y-113396100D01*
X140518838Y-113161789D01*
X140550500Y-112921288D01*
X140550500Y-112678712D01*
X140549576Y-112671697D01*
X140541736Y-112612143D01*
X140518838Y-112438211D01*
X140456054Y-112203900D01*
X140363224Y-111979788D01*
X140241936Y-111769711D01*
X140166585Y-111671511D01*
X140094266Y-111577263D01*
X140094260Y-111577256D01*
X139922743Y-111405739D01*
X139922736Y-111405733D01*
X139730293Y-111258067D01*
X139730292Y-111258066D01*
X139730289Y-111258064D01*
X139520212Y-111136776D01*
X139520205Y-111136773D01*
X139296104Y-111043947D01*
X139061785Y-110981161D01*
X138821289Y-110949500D01*
X138821288Y-110949500D01*
X138578712Y-110949500D01*
X138578711Y-110949500D01*
X138338214Y-110981161D01*
X138103895Y-111043947D01*
X137879794Y-111136773D01*
X137879785Y-111136777D01*
X137669706Y-111258067D01*
X137477263Y-111405733D01*
X137477256Y-111405739D01*
X137305739Y-111577256D01*
X137305733Y-111577263D01*
X137158067Y-111769706D01*
X137158064Y-111769710D01*
X137158064Y-111769711D01*
X137153704Y-111777263D01*
X137036777Y-111979785D01*
X137036773Y-111979794D01*
X136943947Y-112203895D01*
X136881161Y-112438214D01*
X136849500Y-112678711D01*
X135192222Y-112678711D01*
X135192222Y-111734111D01*
X135211907Y-111667072D01*
X135228541Y-111646430D01*
X136922977Y-109951994D01*
X138647860Y-108227111D01*
X138687422Y-108158588D01*
X138707900Y-108082162D01*
X138707900Y-108003038D01*
X138707900Y-105147838D01*
X138687421Y-105071411D01*
X138666682Y-105035489D01*
X138647864Y-105002895D01*
X138647858Y-105002887D01*
X138262822Y-104617851D01*
X138229337Y-104556528D01*
X138234321Y-104486836D01*
X138235944Y-104482711D01*
X138237107Y-104479899D01*
X138237117Y-104479882D01*
X138293606Y-104293662D01*
X138297756Y-104251521D01*
X138323916Y-104186736D01*
X138380950Y-104146376D01*
X138450750Y-104143259D01*
X138508840Y-104175995D01*
X139705267Y-105372422D01*
X139738752Y-105433745D01*
X139733768Y-105503437D01*
X139724973Y-105522103D01*
X139632821Y-105681715D01*
X139632818Y-105681722D01*
X139575406Y-105858419D01*
X139574326Y-105861744D01*
X139554540Y-106050000D01*
X139574326Y-106238256D01*
X139574327Y-106238259D01*
X139632818Y-106418277D01*
X139632821Y-106418284D01*
X139727467Y-106582216D01*
X139842725Y-106710223D01*
X139854129Y-106722888D01*
X140007265Y-106834148D01*
X140007270Y-106834151D01*
X140180192Y-106911142D01*
X140180197Y-106911144D01*
X140365354Y-106950500D01*
X140365355Y-106950500D01*
X140554644Y-106950500D01*
X140554646Y-106950500D01*
X140739803Y-106911144D01*
X140912730Y-106834151D01*
X141065871Y-106722888D01*
X141192533Y-106582216D01*
X141287179Y-106418284D01*
X141345674Y-106238256D01*
X141365460Y-106050000D01*
X141345674Y-105861744D01*
X141287179Y-105681716D01*
X141192533Y-105517784D01*
X141065871Y-105377112D01*
X141065870Y-105377111D01*
X140912734Y-105265851D01*
X140912729Y-105265848D01*
X140739807Y-105188857D01*
X140739802Y-105188855D01*
X140594001Y-105157865D01*
X140554646Y-105149500D01*
X140383649Y-105149500D01*
X140316610Y-105129815D01*
X140295968Y-105113181D01*
X138682787Y-103500000D01*
X139564540Y-103500000D01*
X139584326Y-103688256D01*
X139584327Y-103688259D01*
X139642818Y-103868277D01*
X139642821Y-103868284D01*
X139737467Y-104032216D01*
X139864129Y-104172888D01*
X140017265Y-104284148D01*
X140017270Y-104284151D01*
X140190192Y-104361142D01*
X140190197Y-104361144D01*
X140375354Y-104400500D01*
X140375355Y-104400500D01*
X140564644Y-104400500D01*
X140564646Y-104400500D01*
X140749803Y-104361144D01*
X140922730Y-104284151D01*
X141075871Y-104172888D01*
X141202533Y-104032216D01*
X141297179Y-103868284D01*
X141355674Y-103688256D01*
X141375460Y-103500000D01*
X141355674Y-103311744D01*
X141297179Y-103131716D01*
X141202533Y-102967784D01*
X141075871Y-102827112D01*
X141075870Y-102827111D01*
X140922734Y-102715851D01*
X140922729Y-102715848D01*
X140749807Y-102638857D01*
X140749802Y-102638855D01*
X140604001Y-102607865D01*
X140564646Y-102599500D01*
X140375354Y-102599500D01*
X140342897Y-102606398D01*
X140190197Y-102638855D01*
X140190192Y-102638857D01*
X140017270Y-102715848D01*
X140017265Y-102715851D01*
X139864129Y-102827111D01*
X139737466Y-102967785D01*
X139642821Y-103131715D01*
X139642818Y-103131722D01*
X139596391Y-103274612D01*
X139584326Y-103311744D01*
X139564540Y-103500000D01*
X138682787Y-103500000D01*
X137554928Y-102372141D01*
X137554920Y-102372135D01*
X137486411Y-102332582D01*
X137486406Y-102332579D01*
X137460929Y-102325752D01*
X137409978Y-102312100D01*
X120987838Y-102312100D01*
X120949624Y-102322339D01*
X120911409Y-102332579D01*
X120911404Y-102332582D01*
X120842895Y-102372135D01*
X120842887Y-102372141D01*
X120057850Y-103157177D01*
X119996527Y-103190662D01*
X119926835Y-103185678D01*
X119922717Y-103184057D01*
X119919888Y-103182885D01*
X119919882Y-103182883D01*
X119861434Y-103165153D01*
X119733660Y-103126393D01*
X119540000Y-103107320D01*
X119346339Y-103126393D01*
X119160113Y-103182884D01*
X118988502Y-103274612D01*
X118988496Y-103274617D01*
X118838068Y-103398068D01*
X118714617Y-103548496D01*
X118714612Y-103548502D01*
X118622884Y-103720113D01*
X118566393Y-103906339D01*
X118547320Y-104100000D01*
X118566393Y-104293660D01*
X118622884Y-104479886D01*
X118714612Y-104651497D01*
X118714617Y-104651503D01*
X118838068Y-104801931D01*
X118988496Y-104925382D01*
X118988502Y-104925387D01*
X119160113Y-105017115D01*
X119160115Y-105017115D01*
X119160118Y-105017117D01*
X119346338Y-105073606D01*
X119540000Y-105092680D01*
X119733662Y-105073606D01*
X119919882Y-105017117D01*
X119925113Y-105014321D01*
X120091497Y-104925387D01*
X120091504Y-104925382D01*
X120124235Y-104898521D01*
X120188545Y-104871208D01*
X120257413Y-104882999D01*
X120308973Y-104930151D01*
X120326900Y-104994374D01*
X120326900Y-105745625D01*
X120307215Y-105812664D01*
X120254411Y-105858419D01*
X120185253Y-105868363D01*
X120124237Y-105841480D01*
X120091503Y-105814616D01*
X120091497Y-105814612D01*
X119919886Y-105722884D01*
X119733660Y-105666393D01*
X119540000Y-105647320D01*
X119346339Y-105666393D01*
X119160113Y-105722884D01*
X118988502Y-105814612D01*
X118988496Y-105814617D01*
X118838068Y-105938068D01*
X118714617Y-106088496D01*
X118714615Y-106088498D01*
X118653858Y-106202167D01*
X118604895Y-106252011D01*
X118536758Y-106267471D01*
X118471078Y-106243639D01*
X118428709Y-106188081D01*
X118420500Y-106143713D01*
X118420500Y-105180439D01*
X118420500Y-105180438D01*
X118400021Y-105104011D01*
X118393479Y-105092680D01*
X118360464Y-105035495D01*
X118360458Y-105035487D01*
X117942822Y-104617851D01*
X117909337Y-104556528D01*
X117914321Y-104486836D01*
X117915944Y-104482711D01*
X117917107Y-104479899D01*
X117917117Y-104479882D01*
X117973606Y-104293662D01*
X117992680Y-104100000D01*
X117973606Y-103906338D01*
X117917117Y-103720118D01*
X117917115Y-103720115D01*
X117917115Y-103720113D01*
X117825387Y-103548502D01*
X117825382Y-103548496D01*
X117701931Y-103398068D01*
X117551503Y-103274617D01*
X117551497Y-103274612D01*
X117379886Y-103182884D01*
X117193660Y-103126393D01*
X117000000Y-103107320D01*
X116806339Y-103126393D01*
X116620113Y-103182884D01*
X116448502Y-103274612D01*
X116448496Y-103274617D01*
X116298068Y-103398068D01*
X116174617Y-103548496D01*
X116174612Y-103548502D01*
X116082884Y-103720113D01*
X116026393Y-103906339D01*
X116007320Y-104100000D01*
X116026393Y-104293660D01*
X116082884Y-104479886D01*
X116174612Y-104651497D01*
X116174617Y-104651503D01*
X116298068Y-104801931D01*
X116448496Y-104925382D01*
X116448502Y-104925387D01*
X116620113Y-105017115D01*
X116620115Y-105017115D01*
X116620118Y-105017117D01*
X116806338Y-105073606D01*
X117000000Y-105092680D01*
X117193662Y-105073606D01*
X117379882Y-105017117D01*
X117379899Y-105017107D01*
X117382711Y-105015944D01*
X117384316Y-105015771D01*
X117385712Y-105015348D01*
X117385792Y-105015612D01*
X117452180Y-105008472D01*
X117514661Y-105039744D01*
X117517851Y-105042822D01*
X117783181Y-105308152D01*
X117816666Y-105369475D01*
X117819500Y-105395833D01*
X117819500Y-105407009D01*
X117799815Y-105474048D01*
X117747011Y-105519803D01*
X117677853Y-105529747D01*
X117643095Y-105519391D01*
X117442000Y-105425619D01*
X117441991Y-105425615D01*
X117224414Y-105367316D01*
X117224403Y-105367314D01*
X117000002Y-105347682D01*
X116999998Y-105347682D01*
X116775596Y-105367314D01*
X116775585Y-105367316D01*
X116558008Y-105425615D01*
X116557999Y-105425618D01*
X116353838Y-105520821D01*
X116283573Y-105570019D01*
X116283573Y-105570020D01*
X116843319Y-106129766D01*
X116794115Y-106142950D01*
X116672485Y-106213174D01*
X116573174Y-106312485D01*
X116502950Y-106434115D01*
X116489765Y-106483319D01*
X115930019Y-105923573D01*
X115880821Y-105993838D01*
X115785618Y-106197999D01*
X115785615Y-106198008D01*
X115727316Y-106415585D01*
X115727314Y-106415596D01*
X115707682Y-106639998D01*
X115707682Y-106640001D01*
X115727314Y-106864403D01*
X115727316Y-106864414D01*
X115785615Y-107081991D01*
X115785618Y-107082000D01*
X115880819Y-107286157D01*
X115880820Y-107286159D01*
X115930020Y-107356424D01*
X115930021Y-107356425D01*
X116489765Y-106796680D01*
X116502950Y-106845885D01*
X116573174Y-106967515D01*
X116672485Y-107066826D01*
X116794115Y-107137050D01*
X116843317Y-107150233D01*
X116283573Y-107709978D01*
X116353840Y-107759179D01*
X116353842Y-107759180D01*
X116557999Y-107854381D01*
X116558008Y-107854384D01*
X116775585Y-107912683D01*
X116775596Y-107912685D01*
X116999998Y-107932318D01*
X117000002Y-107932318D01*
X117224403Y-107912685D01*
X117224414Y-107912683D01*
X117441991Y-107854384D01*
X117442000Y-107854381D01*
X117643095Y-107760608D01*
X117712172Y-107750116D01*
X117775956Y-107778635D01*
X117814196Y-107837112D01*
X117819500Y-107872990D01*
X117819500Y-108729562D01*
X117830376Y-108770150D01*
X117839979Y-108805990D01*
X117839980Y-108805991D01*
X117865122Y-108849539D01*
X117879540Y-108874511D01*
X120003181Y-110998152D01*
X120036666Y-111059475D01*
X120039500Y-111085833D01*
X120039500Y-111766260D01*
X120019815Y-111833299D01*
X120009213Y-111847462D01*
X119914625Y-111956622D01*
X119914622Y-111956628D01*
X119854834Y-112087543D01*
X119834353Y-112230000D01*
X119854834Y-112372456D01*
X119914622Y-112503371D01*
X119914623Y-112503373D01*
X120008872Y-112612143D01*
X120129947Y-112689953D01*
X120129950Y-112689954D01*
X120129949Y-112689954D01*
X120268036Y-112730499D01*
X120268038Y-112730500D01*
X120268039Y-112730500D01*
X120411962Y-112730500D01*
X120411962Y-112730499D01*
X120550053Y-112689953D01*
X120578460Y-112671697D01*
X120645500Y-112652012D01*
X120712539Y-112671697D01*
X120758294Y-112724500D01*
X120769500Y-112776012D01*
X120769500Y-116484167D01*
X120749815Y-116551206D01*
X120733181Y-116571848D01*
X120341848Y-116963181D01*
X120280525Y-116996666D01*
X120254167Y-116999500D01*
X120020247Y-116999500D01*
X119961770Y-117011131D01*
X119961769Y-117011132D01*
X119923891Y-117036442D01*
X119857213Y-117057320D01*
X119789833Y-117038835D01*
X119786109Y-117036442D01*
X119748230Y-117011132D01*
X119748229Y-117011131D01*
X119689752Y-116999500D01*
X119689748Y-116999500D01*
X119285833Y-116999500D01*
X119218794Y-116979815D01*
X119198152Y-116963181D01*
X118531812Y-116296841D01*
X118531804Y-116296835D01*
X118463295Y-116257282D01*
X118463290Y-116257279D01*
X118437813Y-116250452D01*
X118386862Y-116236800D01*
X113201827Y-116236800D01*
X113122703Y-116236800D01*
X113046275Y-116257278D01*
X112977754Y-116296840D01*
X112977751Y-116296842D01*
X112472181Y-116802413D01*
X112410858Y-116835898D01*
X112341166Y-116830914D01*
X112285233Y-116789042D01*
X112260816Y-116723578D01*
X112260500Y-116714732D01*
X112260500Y-112878711D01*
X113449500Y-112878711D01*
X113449500Y-113121288D01*
X113481161Y-113361785D01*
X113543947Y-113596104D01*
X113553933Y-113620212D01*
X113636776Y-113820212D01*
X113758064Y-114030289D01*
X113758066Y-114030292D01*
X113758067Y-114030293D01*
X113905733Y-114222736D01*
X113905739Y-114222743D01*
X114077256Y-114394260D01*
X114077262Y-114394265D01*
X114269711Y-114541936D01*
X114479788Y-114663224D01*
X114703900Y-114756054D01*
X114938211Y-114818838D01*
X115118586Y-114842584D01*
X115178711Y-114850500D01*
X115178712Y-114850500D01*
X115421289Y-114850500D01*
X115469388Y-114844167D01*
X115661789Y-114818838D01*
X115896100Y-114756054D01*
X116120212Y-114663224D01*
X116330289Y-114541936D01*
X116522738Y-114394265D01*
X116694265Y-114222738D01*
X116841936Y-114030289D01*
X116963224Y-113820212D01*
X117056054Y-113596100D01*
X117118838Y-113361789D01*
X117150500Y-113121288D01*
X117150500Y-112878712D01*
X117118838Y-112638211D01*
X117056054Y-112403900D01*
X116963224Y-112179788D01*
X116841936Y-111969711D01*
X116694265Y-111777262D01*
X116694260Y-111777256D01*
X116522743Y-111605739D01*
X116522736Y-111605733D01*
X116330293Y-111458067D01*
X116330292Y-111458066D01*
X116330289Y-111458064D01*
X116158661Y-111358974D01*
X116120214Y-111336777D01*
X116120205Y-111336773D01*
X115896104Y-111243947D01*
X115661785Y-111181161D01*
X115421289Y-111149500D01*
X115421288Y-111149500D01*
X115178712Y-111149500D01*
X115178711Y-111149500D01*
X114938214Y-111181161D01*
X114703895Y-111243947D01*
X114479794Y-111336773D01*
X114479785Y-111336777D01*
X114297851Y-111441817D01*
X114274887Y-111455076D01*
X114269706Y-111458067D01*
X114077263Y-111605733D01*
X114077256Y-111605739D01*
X113905739Y-111777256D01*
X113905733Y-111777263D01*
X113758067Y-111969706D01*
X113636777Y-112179785D01*
X113636773Y-112179794D01*
X113543947Y-112403895D01*
X113481161Y-112638214D01*
X113449500Y-112878711D01*
X112260500Y-112878711D01*
X112260500Y-106268997D01*
X112280185Y-106201958D01*
X112332989Y-106156203D01*
X112402147Y-106146259D01*
X112449779Y-106163571D01*
X112522818Y-106208796D01*
X112522822Y-106208798D01*
X112730195Y-106289134D01*
X112948807Y-106330000D01*
X113171193Y-106330000D01*
X113389809Y-106289133D01*
X113597168Y-106208801D01*
X113597181Y-106208795D01*
X113713326Y-106136879D01*
X113106447Y-105530000D01*
X113112661Y-105530000D01*
X113214394Y-105502741D01*
X113305606Y-105450080D01*
X113380080Y-105375606D01*
X113432741Y-105284394D01*
X113460000Y-105182661D01*
X113460000Y-105176447D01*
X114068861Y-105785308D01*
X114084631Y-105764425D01*
X114084633Y-105764422D01*
X114183759Y-105565350D01*
X114244621Y-105351439D01*
X114265141Y-105130000D01*
X114265141Y-105129999D01*
X114244621Y-104908560D01*
X114183759Y-104694649D01*
X114084635Y-104495580D01*
X114084630Y-104495572D01*
X114068860Y-104474690D01*
X113460000Y-105083551D01*
X113460000Y-105077339D01*
X113432741Y-104975606D01*
X113380080Y-104884394D01*
X113305606Y-104809920D01*
X113214394Y-104757259D01*
X113112661Y-104730000D01*
X113106447Y-104730000D01*
X113713327Y-104123119D01*
X113597178Y-104051202D01*
X113597177Y-104051201D01*
X113389804Y-103970865D01*
X113171193Y-103930000D01*
X112948807Y-103930000D01*
X112730195Y-103970865D01*
X112522822Y-104051201D01*
X112522820Y-104051202D01*
X112449778Y-104096429D01*
X112382417Y-104114985D01*
X112315718Y-104094177D01*
X112270856Y-104040612D01*
X112260500Y-103991002D01*
X112260500Y-103365571D01*
X112280185Y-103298532D01*
X112332989Y-103252777D01*
X112402147Y-103242833D01*
X112457381Y-103265251D01*
X112595461Y-103365571D01*
X112607270Y-103374151D01*
X112780192Y-103451142D01*
X112780197Y-103451144D01*
X112965354Y-103490500D01*
X112965355Y-103490500D01*
X113154644Y-103490500D01*
X113154646Y-103490500D01*
X113339803Y-103451144D01*
X113512730Y-103374151D01*
X113665871Y-103262888D01*
X113792533Y-103122216D01*
X113887179Y-102958284D01*
X113945674Y-102778256D01*
X113965460Y-102590000D01*
X113945674Y-102401744D01*
X113887179Y-102221716D01*
X113792533Y-102057784D01*
X113665871Y-101917112D01*
X113580918Y-101855390D01*
X113512734Y-101805851D01*
X113512729Y-101805848D01*
X113339807Y-101728857D01*
X113339802Y-101728855D01*
X113194001Y-101697865D01*
X113154646Y-101689500D01*
X112965354Y-101689500D01*
X112932897Y-101696398D01*
X112780197Y-101728855D01*
X112780192Y-101728857D01*
X112714819Y-101757964D01*
X112645569Y-101767249D01*
X112582292Y-101737621D01*
X112545079Y-101678486D01*
X112545744Y-101608620D01*
X112565116Y-101570375D01*
X112621441Y-101495133D01*
X112633020Y-101481769D01*
X112771769Y-101343020D01*
X112785123Y-101331448D01*
X112942221Y-101213845D01*
X112957089Y-101204291D01*
X113129298Y-101110258D01*
X113145385Y-101102911D01*
X113329248Y-101034333D01*
X113346199Y-101029356D01*
X113537938Y-100987646D01*
X113555436Y-100985130D01*
X113755582Y-100970816D01*
X113764428Y-100970500D01*
X113825892Y-100970500D01*
X140194108Y-100970500D01*
X140255572Y-100970500D01*
X140264418Y-100970816D01*
G37*
%TD.AperFunction*%
%TA.AperFunction,Conductor*%
G36*
X115668834Y-119473651D02*
G01*
X115724767Y-119515523D01*
X115749184Y-119580987D01*
X115749500Y-119589833D01*
X115749500Y-120184752D01*
X115761131Y-120243229D01*
X115761132Y-120243230D01*
X115786442Y-120281109D01*
X115807320Y-120347787D01*
X115788835Y-120415167D01*
X115786442Y-120418891D01*
X115761132Y-120456769D01*
X115761131Y-120456770D01*
X115749500Y-120515247D01*
X115749500Y-121454752D01*
X115761131Y-121513229D01*
X115761132Y-121513230D01*
X115786442Y-121551109D01*
X115807320Y-121617787D01*
X115788835Y-121685167D01*
X115786442Y-121688891D01*
X115761132Y-121726769D01*
X115761131Y-121726770D01*
X115749500Y-121785247D01*
X115749500Y-122724752D01*
X115761131Y-122783229D01*
X115761132Y-122783230D01*
X115786442Y-122821109D01*
X115807320Y-122887787D01*
X115788835Y-122955167D01*
X115786442Y-122958891D01*
X115761132Y-122996769D01*
X115761131Y-122996770D01*
X115749500Y-123055247D01*
X115749500Y-123118885D01*
X115729815Y-123185924D01*
X115677011Y-123231679D01*
X115657596Y-123238659D01*
X115634013Y-123244978D01*
X115634004Y-123244982D01*
X115565495Y-123284535D01*
X115565487Y-123284541D01*
X114426847Y-124423181D01*
X114365524Y-124456666D01*
X114339166Y-124459500D01*
X114188036Y-124459500D01*
X114049949Y-124500045D01*
X113928873Y-124577856D01*
X113834623Y-124686626D01*
X113834622Y-124686628D01*
X113774834Y-124817543D01*
X113754353Y-124960000D01*
X113762574Y-125017183D01*
X113752630Y-125086342D01*
X113727517Y-125122510D01*
X113405489Y-125444540D01*
X113377181Y-125472848D01*
X113315858Y-125506333D01*
X113246166Y-125501349D01*
X113190233Y-125459477D01*
X113165816Y-125394013D01*
X113165500Y-125385167D01*
X113165500Y-123970833D01*
X113185185Y-123903794D01*
X113201819Y-123883152D01*
X114154523Y-122930448D01*
X115120460Y-121964511D01*
X115143842Y-121924012D01*
X115160021Y-121895989D01*
X115180500Y-121819562D01*
X115180500Y-119930438D01*
X115180500Y-119910833D01*
X115200185Y-119843794D01*
X115216819Y-119823152D01*
X115537819Y-119502152D01*
X115599142Y-119468667D01*
X115668834Y-119473651D01*
G37*
%TD.AperFunction*%
%TA.AperFunction,Conductor*%
G36*
X114547005Y-120649351D02*
G01*
X114577721Y-120712107D01*
X114579500Y-120733034D01*
X114579500Y-121604167D01*
X114559815Y-121671206D01*
X114543181Y-121691848D01*
X112977181Y-123257848D01*
X112915858Y-123291333D01*
X112846166Y-123286349D01*
X112790233Y-123244477D01*
X112765816Y-123179013D01*
X112765500Y-123170167D01*
X112765500Y-120895167D01*
X112785185Y-120828128D01*
X112837989Y-120782373D01*
X112907147Y-120772429D01*
X112968165Y-120799314D01*
X113066664Y-120880149D01*
X113066671Y-120880155D01*
X113231662Y-120968344D01*
X113231668Y-120968347D01*
X113410707Y-121022658D01*
X113596900Y-121040996D01*
X113783093Y-121022658D01*
X113962132Y-120968347D01*
X114075888Y-120907543D01*
X114127128Y-120880155D01*
X114127130Y-120880152D01*
X114127134Y-120880151D01*
X114271760Y-120761460D01*
X114359646Y-120654369D01*
X114417392Y-120615035D01*
X114487237Y-120613164D01*
X114547005Y-120649351D01*
G37*
%TD.AperFunction*%
%TA.AperFunction,Conductor*%
G36*
X134555539Y-110519685D02*
G01*
X134601294Y-110572489D01*
X134612500Y-110624000D01*
X134612500Y-111422982D01*
X134608275Y-111455073D01*
X134592519Y-111513877D01*
X134591222Y-111518717D01*
X134591222Y-115542444D01*
X134571537Y-115609483D01*
X134554903Y-115630125D01*
X134012181Y-116172847D01*
X133950858Y-116206332D01*
X133881166Y-116201348D01*
X133825233Y-116159476D01*
X133800816Y-116094012D01*
X133800500Y-116085166D01*
X133800500Y-115530251D01*
X133800499Y-115530249D01*
X133788868Y-115471772D01*
X133788867Y-115471771D01*
X133744552Y-115405449D01*
X133678230Y-115361134D01*
X133678229Y-115361133D01*
X133619752Y-115349502D01*
X133619748Y-115349502D01*
X132625833Y-115349502D01*
X132558794Y-115329817D01*
X132538152Y-115313183D01*
X131936819Y-114711850D01*
X131903334Y-114650527D01*
X131900500Y-114624169D01*
X131900500Y-113573998D01*
X131920185Y-113506959D01*
X131972989Y-113461204D01*
X132024500Y-113449998D01*
X132500000Y-113449998D01*
X133000000Y-113449998D01*
X133647828Y-113449998D01*
X133647844Y-113449997D01*
X133707372Y-113443596D01*
X133707379Y-113443594D01*
X133842086Y-113393352D01*
X133842093Y-113393348D01*
X133957187Y-113307188D01*
X133957190Y-113307185D01*
X134043350Y-113192091D01*
X134043354Y-113192084D01*
X134093596Y-113057377D01*
X134093598Y-113057370D01*
X134099999Y-112997842D01*
X134100000Y-112997825D01*
X134100000Y-112799998D01*
X133000000Y-112799998D01*
X133000000Y-113449998D01*
X132500000Y-113449998D01*
X132500000Y-112423998D01*
X132519685Y-112356959D01*
X132572489Y-112311204D01*
X132624000Y-112299998D01*
X134100000Y-112299998D01*
X134100000Y-112102170D01*
X134099999Y-112102153D01*
X134093598Y-112042625D01*
X134093596Y-112042618D01*
X134040254Y-111899599D01*
X134041606Y-111899094D01*
X134028783Y-111840157D01*
X134053197Y-111774691D01*
X134091433Y-111746065D01*
X134112500Y-111724999D01*
X134112500Y-110624000D01*
X134132185Y-110556961D01*
X134184989Y-110511206D01*
X134236500Y-110500000D01*
X134488500Y-110500000D01*
X134555539Y-110519685D01*
G37*
%TD.AperFunction*%
%TA.AperFunction,Conductor*%
G36*
X136436739Y-107593245D02*
G01*
X136481086Y-107621746D01*
X136489312Y-107629972D01*
X136673839Y-107759179D01*
X136673841Y-107759180D01*
X136877999Y-107854380D01*
X136878008Y-107854384D01*
X137095585Y-107912683D01*
X137095596Y-107912685D01*
X137319998Y-107932318D01*
X137320002Y-107932318D01*
X137544403Y-107912685D01*
X137544414Y-107912683D01*
X137761991Y-107854384D01*
X137762000Y-107854381D01*
X137890348Y-107794531D01*
X137959425Y-107784039D01*
X138023209Y-107812558D01*
X138061449Y-107871035D01*
X138062004Y-107940902D01*
X138030434Y-107994594D01*
X135599027Y-110426000D01*
X135537704Y-110459485D01*
X135468012Y-110454501D01*
X135412079Y-110412629D01*
X135392097Y-110368680D01*
X135391811Y-110368776D01*
X135390923Y-110366099D01*
X135390091Y-110364267D01*
X135389679Y-110362342D01*
X135335453Y-110198699D01*
X135335448Y-110198688D01*
X135244947Y-110051965D01*
X135244944Y-110051961D01*
X135123038Y-109930055D01*
X135123034Y-109930052D01*
X134985407Y-109845162D01*
X134938682Y-109793214D01*
X134927461Y-109724252D01*
X134955304Y-109660170D01*
X134971629Y-109644792D01*
X134975707Y-109640713D01*
X134975711Y-109640711D01*
X135054116Y-109534475D01*
X135097725Y-109409849D01*
X135100500Y-109380256D01*
X135100500Y-108878333D01*
X135120185Y-108811294D01*
X135136819Y-108790652D01*
X135700361Y-108227110D01*
X136305726Y-107621744D01*
X136367047Y-107588261D01*
X136436739Y-107593245D01*
G37*
%TD.AperFunction*%
%TD*%
M02*
