%TF.GenerationSoftware,KiCad,Pcbnew,8.0.5*%
%TF.CreationDate,2025-04-10T23:54:11-07:00*%
%TF.ProjectId,ESP32,45535033-322e-46b6-9963-61645f706362,rev?*%
%TF.SameCoordinates,Original*%
%TF.FileFunction,Copper,L2,Bot*%
%TF.FilePolarity,Positive*%
%FSLAX46Y46*%
G04 Gerber Fmt 4.6, Leading zero omitted, Abs format (unit mm)*
G04 Created by KiCad (PCBNEW 8.0.5) date 2025-04-10 23:54:11*
%MOMM*%
%LPD*%
G01*
G04 APERTURE LIST*
G04 Aperture macros list*
%AMRoundRect*
0 Rectangle with rounded corners*
0 $1 Rounding radius*
0 $2 $3 $4 $5 $6 $7 $8 $9 X,Y pos of 4 corners*
0 Add a 4 corners polygon primitive as box body*
4,1,4,$2,$3,$4,$5,$6,$7,$8,$9,$2,$3,0*
0 Add four circle primitives for the rounded corners*
1,1,$1+$1,$2,$3*
1,1,$1+$1,$4,$5*
1,1,$1+$1,$6,$7*
1,1,$1+$1,$8,$9*
0 Add four rect primitives between the rounded corners*
20,1,$1+$1,$2,$3,$4,$5,0*
20,1,$1+$1,$4,$5,$6,$7,0*
20,1,$1+$1,$6,$7,$8,$9,0*
20,1,$1+$1,$8,$9,$2,$3,0*%
G04 Aperture macros list end*
%TA.AperFunction,EtchedComponent*%
%ADD10C,0.000000*%
%TD*%
%TA.AperFunction,ComponentPad*%
%ADD11C,1.400000*%
%TD*%
%TA.AperFunction,ComponentPad*%
%ADD12C,1.498600*%
%TD*%
%TA.AperFunction,ComponentPad*%
%ADD13C,1.574800*%
%TD*%
%TA.AperFunction,SMDPad,CuDef*%
%ADD14RoundRect,0.237500X-0.300000X-0.237500X0.300000X-0.237500X0.300000X0.237500X-0.300000X0.237500X0*%
%TD*%
%TA.AperFunction,SMDPad,CuDef*%
%ADD15RoundRect,0.237500X0.237500X-0.250000X0.237500X0.250000X-0.237500X0.250000X-0.237500X-0.250000X0*%
%TD*%
%TA.AperFunction,SMDPad,CuDef*%
%ADD16RoundRect,0.237500X-0.237500X0.250000X-0.237500X-0.250000X0.237500X-0.250000X0.237500X0.250000X0*%
%TD*%
%TA.AperFunction,SMDPad,CuDef*%
%ADD17RoundRect,0.237500X0.300000X0.237500X-0.300000X0.237500X-0.300000X-0.237500X0.300000X-0.237500X0*%
%TD*%
%TA.AperFunction,SMDPad,CuDef*%
%ADD18RoundRect,0.237500X0.237500X-0.300000X0.237500X0.300000X-0.237500X0.300000X-0.237500X-0.300000X0*%
%TD*%
%TA.AperFunction,SMDPad,CuDef*%
%ADD19RoundRect,0.237500X0.250000X0.237500X-0.250000X0.237500X-0.250000X-0.237500X0.250000X-0.237500X0*%
%TD*%
%TA.AperFunction,SMDPad,CuDef*%
%ADD20R,0.457200X1.117600*%
%TD*%
%TA.AperFunction,SMDPad,CuDef*%
%ADD21R,1.500000X1.000000*%
%TD*%
%TA.AperFunction,ComponentPad*%
%ADD22C,1.270000*%
%TD*%
%TA.AperFunction,SMDPad,CuDef*%
%ADD23RoundRect,0.237500X-0.237500X0.300000X-0.237500X-0.300000X0.237500X-0.300000X0.237500X0.300000X0*%
%TD*%
%TA.AperFunction,SMDPad,CuDef*%
%ADD24O,0.249999X1.150000*%
%TD*%
%TA.AperFunction,SMDPad,CuDef*%
%ADD25R,1.346200X0.406400*%
%TD*%
%TA.AperFunction,SMDPad,CuDef*%
%ADD26R,1.397000X1.600200*%
%TD*%
%TA.AperFunction,SMDPad,CuDef*%
%ADD27R,1.905000X1.905000*%
%TD*%
%TA.AperFunction,SMDPad,CuDef*%
%ADD28O,1.600200X0.889000*%
%TD*%
%TA.AperFunction,SMDPad,CuDef*%
%ADD29RoundRect,0.150000X0.150000X-0.512500X0.150000X0.512500X-0.150000X0.512500X-0.150000X-0.512500X0*%
%TD*%
%TA.AperFunction,SMDPad,CuDef*%
%ADD30R,1.651000X1.574800*%
%TD*%
%TA.AperFunction,SMDPad,CuDef*%
%ADD31R,1.574800X1.651000*%
%TD*%
%TA.AperFunction,ViaPad*%
%ADD32C,0.600000*%
%TD*%
%TA.AperFunction,Conductor*%
%ADD33C,0.200000*%
%TD*%
G04 APERTURE END LIST*
D10*
%TA.AperFunction,EtchedComponent*%
%TO.C,JP2*%
G36*
X121444996Y-137842500D02*
G01*
X121044996Y-137842500D01*
X121044996Y-137342500D01*
X121444996Y-137342500D01*
X121444996Y-137842500D01*
G37*
%TD.AperFunction*%
%TA.AperFunction,EtchedComponent*%
G36*
X122244996Y-137842500D02*
G01*
X121844996Y-137842500D01*
X121844996Y-137342500D01*
X122244996Y-137342500D01*
X122244996Y-137842500D01*
G37*
%TD.AperFunction*%
%TD*%
D11*
%TO.P,,1*%
%TO.N,Net-(D4-A)*%
X132380000Y-138180000D03*
%TD*%
%TO.P,,1*%
%TO.N,/SDA*%
X140470000Y-103500000D03*
%TD*%
%TO.P,,1*%
%TO.N,/SCL*%
X140460000Y-106050000D03*
%TD*%
%TO.P,REF\u002A\u002A,1*%
%TO.N,+3V3*%
X113060000Y-102590000D03*
%TO.P,REF\u002A\u002A,2*%
%TO.N,GND*%
X113060000Y-105130000D03*
%TD*%
D12*
%TO.P,J3,1,Pin_1*%
%TO.N,Net-(J3-Pin_1)*%
X113596900Y-120086600D03*
%TO.P,J3,2,Pin_2*%
%TO.N,Net-(J3-Pin_2)*%
X113596900Y-117586600D03*
%TD*%
D13*
%TO.P,J1,1,1*%
%TO.N,+3V3*%
X117000000Y-104100000D03*
%TO.P,J1,2,2*%
%TO.N,/SCL*%
X119540000Y-104100000D03*
%TO.P,J1,3,3*%
%TO.N,/VS*%
X122080000Y-104100000D03*
%TO.P,J1,4,4*%
%TO.N,/PCLK*%
X124620000Y-104100000D03*
%TO.P,J1,5,5*%
%TO.N,/D7*%
X127160000Y-104100000D03*
%TO.P,J1,6,6*%
%TO.N,/D5*%
X129700000Y-104100000D03*
%TO.P,J1,7,7*%
%TO.N,/D3*%
X132240000Y-104100000D03*
%TO.P,J1,8,8*%
%TO.N,/D1*%
X134780000Y-104100000D03*
%TO.P,J1,9,9*%
%TO.N,+3V3*%
X137320000Y-104100000D03*
%TD*%
D14*
%TO.P,C4,1*%
%TO.N,+3V3*%
X124817500Y-112630000D03*
%TO.P,C4,2*%
%TO.N,GND*%
X126542500Y-112630000D03*
%TD*%
D13*
%TO.P,J2,1,1*%
%TO.N,GND*%
X117000000Y-106640000D03*
%TO.P,J2,2,2*%
%TO.N,/SDA*%
X119540000Y-106640000D03*
%TO.P,J2,3,3*%
%TO.N,/HS*%
X122080000Y-106640000D03*
%TO.P,J2,4,4*%
%TO.N,Net-(J2-Pad4)*%
X124620000Y-106640000D03*
%TO.P,J2,5,5*%
%TO.N,/D6*%
X127160000Y-106640000D03*
%TO.P,J2,6,6*%
%TO.N,/D4*%
X129700000Y-106640000D03*
%TO.P,J2,7,7*%
%TO.N,/D2*%
X132240000Y-106640000D03*
%TO.P,J2,8,8*%
%TO.N,/D0*%
X134780000Y-106640000D03*
%TO.P,J2,9,9*%
%TO.N,GND*%
X137320000Y-106640000D03*
%TD*%
D14*
%TO.P,C5,1*%
%TO.N,+3V3*%
X124837500Y-114650000D03*
%TO.P,C5,2*%
%TO.N,GND*%
X126562500Y-114650000D03*
%TD*%
D15*
%TO.P,R4,1*%
%TO.N,/MCLK*%
X121750000Y-115912500D03*
%TO.P,R4,2*%
%TO.N,Net-(J2-Pad4)*%
X121750000Y-114087500D03*
%TD*%
D16*
%TO.P,R5,1*%
%TO.N,+3V3*%
X119030000Y-131445000D03*
%TO.P,R5,2*%
%TO.N,/SCL*%
X119030000Y-133270000D03*
%TD*%
D15*
%TO.P,R10,1*%
%TO.N,+3V3*%
X113075000Y-131737500D03*
%TO.P,R10,2*%
%TO.N,/SDA*%
X113075000Y-129912500D03*
%TD*%
%TO.P,R2,1*%
%TO.N,Net-(J2-Pad4)*%
X121750000Y-112412500D03*
%TO.P,R2,2*%
%TO.N,GND*%
X121750000Y-110587500D03*
%TD*%
D16*
%TO.P,R17,2*%
%TO.N,GND*%
X119600000Y-141965000D03*
%TO.P,R17,1*%
%TO.N,Net-(D4-A)*%
X119600000Y-140140000D03*
%TD*%
D15*
%TO.P,R18,1*%
%TO.N,Net-(JP2-B)*%
X126244996Y-140155000D03*
%TO.P,R18,2*%
%TO.N,GND*%
X126244996Y-138330000D03*
%TD*%
D17*
%TO.P,C10,1*%
%TO.N,Net-(U5-REG)*%
X116520000Y-129840000D03*
%TO.P,C10,2*%
%TO.N,GND*%
X114795000Y-129840000D03*
%TD*%
D18*
%TO.P,C8,1*%
%TO.N,Net-(J4-Pin_1)*%
X126340000Y-150552500D03*
%TO.P,C8,2*%
%TO.N,GND*%
X126340000Y-148827500D03*
%TD*%
D19*
%TO.P,R8,1*%
%TO.N,+3V3*%
X116612500Y-131400000D03*
%TO.P,R8,2*%
%TO.N,/SCL*%
X114787500Y-131400000D03*
%TD*%
D15*
%TO.P,R19,1*%
%TO.N,GND*%
X119494996Y-138505000D03*
%TO.P,R19,2*%
%TO.N,Net-(JP2-A)*%
X119494996Y-136680000D03*
%TD*%
D20*
%TO.P,Q1,1,D*%
%TO.N,Net-(J4-Pin_1)*%
X134750400Y-141530400D03*
%TO.P,Q1,2,G*%
%TO.N,Net-(D4-A)*%
X133429600Y-141530400D03*
%TO.P,Q1,3,S*%
%TO.N,Net-(D1-A)*%
X134090000Y-139600000D03*
%TD*%
D21*
%TO.P,JP2,1,A*%
%TO.N,Net-(JP2-A)*%
X121644996Y-136942500D03*
%TO.P,JP2,2,B*%
%TO.N,Net-(JP2-B)*%
X121644996Y-138242500D03*
%TD*%
D22*
%TO.P,J4,1,Pin_1*%
%TO.N,Net-(J4-Pin_1)*%
X123200001Y-149390000D03*
%TO.P,J4,2,Pin_2*%
%TO.N,GND*%
X121200000Y-149390000D03*
%TD*%
D19*
%TO.P,R1,2*%
%TO.N,/SDA*%
X115217500Y-133250000D03*
%TO.P,R1,1*%
%TO.N,+3V3*%
X117042500Y-133250000D03*
%TD*%
D23*
%TO.P,C9,2*%
%TO.N,Net-(U5-EN)*%
X112470000Y-127292500D03*
%TO.P,C9,1*%
%TO.N,GND*%
X112470000Y-125567500D03*
%TD*%
D17*
%TO.P,C12,1*%
%TO.N,GND*%
X129732500Y-142170000D03*
%TO.P,C12,2*%
%TO.N,Net-(D1-K)*%
X128007500Y-142170000D03*
%TD*%
D14*
%TO.P,C13,2*%
%TO.N,GND*%
X119112500Y-143980000D03*
%TO.P,C13,1*%
%TO.N,+3V3*%
X117387500Y-143980000D03*
%TD*%
D24*
%TO.P,U5,10,VDD*%
%TO.N,+3V3*%
X117100000Y-123830000D03*
%TO.P,U5,9,OUT-*%
%TO.N,Net-(J3-Pin_2)*%
X116600001Y-123830000D03*
%TO.P,U5,8,GND*%
%TO.N,GND*%
X116099999Y-123830000D03*
%TO.P,U5,7,OUT+*%
%TO.N,Net-(J3-Pin_1)*%
X115600000Y-123830000D03*
%TO.P,U5,6,VDD_NC*%
%TO.N,+3V3*%
X115099998Y-123830000D03*
%TO.P,U5,5,EN*%
%TO.N,Net-(U5-EN)*%
X115099998Y-128080000D03*
%TO.P,U5,4,IN_TRIG*%
%TO.N,GND*%
X115600000Y-128080000D03*
%TO.P,U5,3,SDA*%
%TO.N,/SDA*%
X116099999Y-128080000D03*
%TO.P,U5,2,SCL*%
%TO.N,/SCL*%
X116600001Y-128080000D03*
%TO.P,U5,1,REG*%
%TO.N,Net-(U5-REG)*%
X117100000Y-128080000D03*
%TD*%
D25*
%TO.P,J5,1,VBUS*%
%TO.N,Net-(D4-A)*%
X117549997Y-139920400D03*
%TO.P,J5,2,D-*%
%TO.N,/USB_D-*%
X117549997Y-139270399D03*
%TO.P,J5,3,D+*%
%TO.N,/USB_D+*%
X117549997Y-138620400D03*
%TO.P,J5,4,ID*%
%TO.N,GND*%
X117549997Y-137970401D03*
%TO.P,J5,5,GND*%
X117549997Y-137320400D03*
D26*
%TO.P,J5,6,Shield*%
X117324996Y-141820401D03*
%TO.P,J5,7*%
%TO.N,N/C*%
X117324996Y-135420399D03*
D27*
%TO.P,J5,8*%
X114674997Y-139820400D03*
%TO.P,J5,9*%
X114674997Y-137420400D03*
D28*
%TO.P,J5,10*%
X114674997Y-141920398D03*
%TO.P,J5,11*%
X114674997Y-135320402D03*
%TD*%
D29*
%TO.P,U6,1,VIN*%
%TO.N,Net-(D1-K)*%
X129910000Y-140390000D03*
%TO.P,U6,2,GND*%
%TO.N,GND*%
X128960000Y-140390000D03*
%TO.P,U6,3,EN*%
%TO.N,Net-(D1-K)*%
X128010000Y-140390000D03*
%TO.P,U6,4,NC*%
%TO.N,unconnected-(U6-NC-Pad4)*%
X128010000Y-138115000D03*
%TO.P,U6,5,VOUT*%
%TO.N,+3V3*%
X129910000Y-138115000D03*
%TD*%
D30*
%TO.P,D6,1,K*%
%TO.N,Net-(D1-K)*%
X129610000Y-133409000D03*
%TO.P,D6,2,A*%
%TO.N,Net-(D4-A)*%
X129610000Y-129091000D03*
%TD*%
D31*
%TO.P,D1,2,A*%
%TO.N,Net-(D1-A)*%
X134089000Y-144810000D03*
%TO.P,D1,1,K*%
%TO.N,Net-(D1-K)*%
X129771000Y-144810000D03*
%TD*%
D32*
%TO.N,GND*%
X113310000Y-122050000D03*
%TO.N,Net-(JP2-B)*%
X125690000Y-144560000D03*
%TO.N,+3V3*%
X122180000Y-140740000D03*
X120240000Y-123630000D03*
X121830000Y-122040000D03*
%TO.N,GND*%
X115485210Y-120349313D03*
%TO.N,/SDA*%
X114260000Y-124960000D03*
%TO.N,GND*%
X120850000Y-139540000D03*
X121050000Y-140740000D03*
X116150000Y-141850000D03*
%TO.N,+3V3*%
X124860000Y-121050000D03*
X123910000Y-136800000D03*
X120340000Y-112230000D03*
%TO.N,GND*%
X128170000Y-148500000D03*
%TO.N,Net-(J4-Pin_1)*%
X134740000Y-142710000D03*
%TO.N,Net-(D4-A)*%
X125060000Y-140630000D03*
%TO.N,Net-(SW3A-B)*%
X128130000Y-145280000D03*
%TO.N,Net-(J4-Pin_1)*%
X127520000Y-149550000D03*
%TO.N,Net-(SW3A-B)*%
X127650000Y-133540000D03*
%TO.N,/D2*%
X121750000Y-119738528D03*
X123700000Y-119690000D03*
%TO.N,/USB_D-*%
X116170000Y-139050000D03*
%TO.N,/USB_D+*%
X116274997Y-136820400D03*
%TO.N,/SCL*%
X118087400Y-122000000D03*
%TO.N,/SDA*%
X113600000Y-128770000D03*
X119540000Y-122460000D03*
%TO.N,/PCLK*%
X121750000Y-127250000D03*
%TO.N,/D1*%
X131920000Y-133150000D03*
%TO.N,/MCLK*%
X119750000Y-128500000D03*
%TO.N,/D0*%
X133250000Y-133250000D03*
%TO.N,/D2*%
X127410000Y-119660000D03*
%TO.N,+3V3*%
X130320000Y-136810000D03*
X118290000Y-124290000D03*
%TD*%
D33*
%TO.N,GND*%
X112470000Y-122890000D02*
X112470000Y-125567500D01*
X113310000Y-122050000D02*
X112470000Y-122890000D01*
%TO.N,/SDA*%
X138570000Y-101600000D02*
X140470000Y-103500000D01*
X122170000Y-101600000D02*
X138570000Y-101600000D01*
X120992600Y-105187400D02*
X119540000Y-106640000D01*
X120992600Y-102777400D02*
X120992600Y-105187400D01*
X122170000Y-101600000D02*
X120992600Y-102777400D01*
%TO.N,GND*%
X117000000Y-106640000D02*
X114710000Y-106640000D01*
X114710000Y-106640000D02*
X113190000Y-105120000D01*
%TO.N,+3V3*%
X117000000Y-104100000D02*
X114710000Y-104100000D01*
X114710000Y-104100000D02*
X113190000Y-102580000D01*
X116900000Y-104200000D02*
X117000000Y-104100000D01*
%TO.N,Net-(D4-A)*%
X131320000Y-133911900D02*
X132390000Y-134981900D01*
X132390000Y-134981900D02*
X132390000Y-138170000D01*
X131320000Y-130075378D02*
X131320000Y-133911900D01*
X133429600Y-141530400D02*
X133429600Y-139209600D01*
X133429600Y-139209600D02*
X132390000Y-138170000D01*
X130335622Y-129091000D02*
X131320000Y-130075378D01*
X129610000Y-129091000D02*
X130335622Y-129091000D01*
%TO.N,Net-(J3-Pin_2)*%
X113596900Y-118646900D02*
X113596900Y-117586600D01*
X113760000Y-118810000D02*
X113596900Y-118646900D01*
%TO.N,Net-(J3-Pin_1)*%
X115600000Y-122089700D02*
X113596900Y-120086600D01*
X115600000Y-123830000D02*
X115600000Y-122089700D01*
%TO.N,Net-(JP2-B)*%
X125722500Y-140677496D02*
X125722500Y-144527500D01*
X125722500Y-144527500D02*
X125690000Y-144560000D01*
X126244996Y-140155000D02*
X125722500Y-140677496D01*
%TO.N,+3V3*%
X122180000Y-143566814D02*
X122180000Y-140740000D01*
X120991814Y-144755000D02*
X122180000Y-143566814D01*
X118162500Y-144755000D02*
X120991814Y-144755000D01*
X117387500Y-143980000D02*
X118162500Y-144755000D01*
X117100000Y-123830000D02*
X117830000Y-123830000D01*
X117830000Y-123830000D02*
X118290000Y-124290000D01*
%TO.N,/SCL*%
X118880681Y-127180000D02*
X118065861Y-127994820D01*
X118900000Y-127180000D02*
X118880681Y-127180000D01*
X118900000Y-122812600D02*
X118900000Y-127180000D01*
X118087400Y-122000000D02*
X118900000Y-122812600D01*
%TO.N,+3V3*%
X117042500Y-133815000D02*
X116800000Y-134057500D01*
X117042500Y-133250000D02*
X117042500Y-133815000D01*
%TO.N,/SCL*%
X115562500Y-132175000D02*
X114787500Y-131400000D01*
X117935000Y-132175000D02*
X115562500Y-132175000D01*
X119030000Y-133270000D02*
X117935000Y-132175000D01*
%TO.N,/SDA*%
X113075000Y-130483278D02*
X113075000Y-129912500D01*
X113990000Y-131398278D02*
X113075000Y-130483278D01*
X113990000Y-133072500D02*
X113990000Y-131398278D01*
X114167500Y-133250000D02*
X113990000Y-133072500D01*
X115217500Y-133250000D02*
X114167500Y-133250000D01*
%TO.N,+3V3*%
X116800000Y-134057500D02*
X119370000Y-134057500D01*
X113745000Y-134095000D02*
X116762500Y-134095000D01*
X116762500Y-134095000D02*
X116800000Y-134057500D01*
X113075000Y-133425000D02*
X113745000Y-134095000D01*
X113075000Y-131737500D02*
X113075000Y-133425000D01*
X119501471Y-127900000D02*
X119030000Y-128371471D01*
X119784314Y-127900000D02*
X119501471Y-127900000D01*
X120240000Y-127444314D02*
X119784314Y-127900000D01*
X120240000Y-123630000D02*
X120240000Y-127444314D01*
X119030000Y-128371471D02*
X119030000Y-131445000D01*
%TO.N,/PCLK*%
X125690000Y-123275200D02*
X125707400Y-123292600D01*
X125690000Y-110453278D02*
X125690000Y-123275200D01*
X125707400Y-110435878D02*
X125690000Y-110453278D01*
X125707400Y-105187400D02*
X125707400Y-110435878D01*
%TO.N,/SCL*%
X118065861Y-128354139D02*
X118050000Y-128370000D01*
X118065861Y-128125861D02*
X118065861Y-128354139D01*
X118050000Y-128370000D02*
X118050000Y-129720000D01*
X118050000Y-128265000D02*
X118050000Y-128370000D01*
X117055861Y-130625000D02*
X117090430Y-130659569D01*
X115562500Y-130625000D02*
X117055861Y-130625000D01*
%TO.N,+3V3*%
X122820000Y-121050000D02*
X121830000Y-122040000D01*
X124860000Y-121050000D02*
X122820000Y-121050000D01*
X115415000Y-124705000D02*
X115099998Y-124389998D01*
X117000000Y-124705000D02*
X115415000Y-124705000D01*
X117100000Y-124605000D02*
X117000000Y-124705000D01*
X115099998Y-124389998D02*
X115099998Y-123830000D01*
X117100000Y-123830000D02*
X117100000Y-124605000D01*
%TO.N,GND*%
X116099999Y-120964102D02*
X115485210Y-120349313D01*
X116099999Y-123830000D02*
X116099999Y-120964102D01*
%TO.N,Net-(J3-Pin_2)*%
X116040000Y-118810000D02*
X116600001Y-119370001D01*
X113760000Y-118810000D02*
X116040000Y-118810000D01*
X116600001Y-119370001D02*
X116600001Y-123830000D01*
%TO.N,/SDA*%
X114604910Y-125304910D02*
X114260000Y-124960000D01*
X114604910Y-125744224D02*
X114604910Y-125304910D01*
%TO.N,/USB_D-*%
X116390399Y-139270399D02*
X116170000Y-139050000D01*
X117549997Y-139270399D02*
X116390399Y-139270399D01*
%TO.N,/SCL*%
X116600001Y-127528958D02*
X116600001Y-128080000D01*
X117276041Y-127205000D02*
X116923959Y-127205000D01*
X116923959Y-127205000D02*
X116600001Y-127528958D01*
X118065861Y-128125861D02*
X118065861Y-127994820D01*
X118065861Y-127994820D02*
X117276041Y-127205000D01*
X115562500Y-130625000D02*
X114787500Y-131400000D01*
X118029569Y-129720430D02*
X117090430Y-130659569D01*
%TO.N,GND*%
X117549997Y-137970401D02*
X117549997Y-137320400D01*
%TO.N,/SDA*%
X116099999Y-127239313D02*
X116099999Y-128080000D01*
X114604910Y-125744224D02*
X116099999Y-127239313D01*
%TO.N,GND*%
X115600000Y-127305000D02*
X113862500Y-125567500D01*
X115600000Y-128080000D02*
X115600000Y-127305000D01*
X113862500Y-125567500D02*
X112470000Y-125567500D01*
%TO.N,Net-(U5-EN)*%
X113257500Y-128080000D02*
X112470000Y-127292500D01*
X115099998Y-128080000D02*
X113257500Y-128080000D01*
%TO.N,/SDA*%
X113420000Y-129567500D02*
X113075000Y-129912500D01*
X113420000Y-128740000D02*
X113420000Y-129567500D01*
%TO.N,GND*%
X115600000Y-128080000D02*
X115600000Y-129035000D01*
X115600000Y-129035000D02*
X114795000Y-129840000D01*
%TO.N,Net-(U5-REG)*%
X117100000Y-129260000D02*
X117100000Y-128080000D01*
X116520000Y-129840000D02*
X117100000Y-129260000D01*
%TO.N,GND*%
X114795000Y-129840000D02*
X114795000Y-129835000D01*
X120529996Y-139540000D02*
X119494996Y-138505000D01*
X120254222Y-140740000D02*
X121050000Y-140740000D01*
X120850000Y-139540000D02*
X120529996Y-139540000D01*
X119173821Y-141820401D02*
X120254222Y-140740000D01*
X117324996Y-141820401D02*
X119173821Y-141820401D01*
X117295397Y-141850000D02*
X117324996Y-141820401D01*
X116150000Y-141850000D02*
X117295397Y-141850000D01*
%TO.N,+3V3*%
X124837500Y-121027500D02*
X124860000Y-121050000D01*
X124837500Y-114650000D02*
X124837500Y-121027500D01*
%TO.N,GND*%
X118960397Y-137970401D02*
X119494996Y-138505000D01*
X117549997Y-137970401D02*
X118960397Y-137970401D01*
X117324996Y-141820401D02*
X117199599Y-141820401D01*
X119455401Y-141820401D02*
X119600000Y-141965000D01*
X117324996Y-141820401D02*
X119455401Y-141820401D01*
X119517500Y-143575000D02*
X119112500Y-143980000D01*
%TO.N,+3V3*%
X117387500Y-143980000D02*
X117387500Y-144367500D01*
X123910000Y-136800000D02*
X121167500Y-134057500D01*
X121167500Y-134057500D02*
X119370000Y-134057500D01*
X119370000Y-134057500D02*
X119496722Y-134057500D01*
X129910000Y-138115000D02*
X129910000Y-137220000D01*
%TO.N,GND*%
X119600000Y-143492500D02*
X119112500Y-143980000D01*
X119600000Y-141965000D02*
X119600000Y-143492500D01*
%TO.N,+3V3*%
X119810000Y-133744222D02*
X119810000Y-132225000D01*
X119496722Y-134057500D02*
X119810000Y-133744222D01*
X119810000Y-132225000D02*
X119030000Y-131445000D01*
X118985000Y-131400000D02*
X119030000Y-131445000D01*
X116612500Y-131400000D02*
X118985000Y-131400000D01*
X122572500Y-114875000D02*
X124817500Y-112630000D01*
X120340000Y-114181722D02*
X121033278Y-114875000D01*
X121033278Y-114875000D02*
X122572500Y-114875000D01*
X120340000Y-112230000D02*
X120340000Y-114181722D01*
X124837500Y-112650000D02*
X124817500Y-112630000D01*
X124837500Y-114650000D02*
X124837500Y-112650000D01*
%TO.N,GND*%
X127842500Y-148827500D02*
X128170000Y-148500000D01*
X126340000Y-148827500D02*
X127842500Y-148827500D01*
%TO.N,Net-(D4-A)*%
X133390000Y-141570000D02*
X133429600Y-141530400D01*
%TO.N,Net-(J4-Pin_1)*%
X134750400Y-142699600D02*
X134740000Y-142710000D01*
X134750400Y-141530400D02*
X134750400Y-142699600D01*
%TO.N,Net-(D1-A)*%
X134090000Y-142511471D02*
X134090000Y-139600000D01*
X134089000Y-142512471D02*
X134090000Y-142511471D01*
X134089000Y-142512471D02*
X134089000Y-144810000D01*
%TO.N,/SCL*%
X119130000Y-111190000D02*
X119130000Y-114750000D01*
X118087400Y-110147400D02*
X119130000Y-111190000D01*
X119130000Y-114750000D02*
X118087400Y-115792600D01*
X118087400Y-105552600D02*
X118087400Y-110147400D01*
X118087400Y-115792600D02*
X118087400Y-122000000D01*
X119540000Y-104100000D02*
X118087400Y-105552600D01*
%TO.N,Net-(D4-A)*%
X125057496Y-140632504D02*
X125060000Y-140630000D01*
X124372500Y-140632504D02*
X125057496Y-140632504D01*
X117769597Y-140140000D02*
X117549997Y-139920400D01*
X119600000Y-140140000D02*
X117769597Y-140140000D01*
X123879996Y-140140000D02*
X119600000Y-140140000D01*
X124372500Y-140632504D02*
X123879996Y-140140000D01*
%TO.N,Net-(SW3A-B)*%
X126947500Y-144097500D02*
X128130000Y-145280000D01*
X126947500Y-141522500D02*
X126947500Y-144097500D01*
X127387500Y-141082500D02*
X126947500Y-141522500D01*
%TO.N,Net-(J4-Pin_1)*%
X127342500Y-149550000D02*
X126340000Y-150552500D01*
X127520000Y-149550000D02*
X127342500Y-149550000D01*
%TO.N,Net-(D4-K)*%
X126152500Y-141860000D02*
X126122500Y-141830000D01*
%TO.N,Net-(D1-K)*%
X128007500Y-143046500D02*
X128007500Y-142170000D01*
X129771000Y-144810000D02*
X128007500Y-143046500D01*
X127987500Y-142150000D02*
X128007500Y-142170000D01*
X127987500Y-140012500D02*
X127987500Y-142150000D01*
%TO.N,Net-(J4-Pin_1)*%
X124362501Y-150552500D02*
X126340000Y-150552500D01*
X123200001Y-149390000D02*
X124362501Y-150552500D01*
%TO.N,Net-(SW3A-B)*%
X127387500Y-133802500D02*
X127387500Y-141082500D01*
X127650000Y-133540000D02*
X127387500Y-133802500D01*
%TO.N,/D2*%
X123700000Y-119690000D02*
X121798528Y-119690000D01*
X121798528Y-119690000D02*
X121750000Y-119738528D01*
%TO.N,/USB_D+*%
X116274997Y-136820400D02*
X116274997Y-138218500D01*
X116274997Y-138218500D02*
X116676897Y-138620400D01*
X116676897Y-138620400D02*
X117549997Y-138620400D01*
%TO.N,Net-(J2-Pad4)*%
X124620000Y-109542500D02*
X121750000Y-112412500D01*
X124620000Y-106640000D02*
X124620000Y-109542500D01*
X121750000Y-112412500D02*
X121750000Y-114087500D01*
%TO.N,Net-(JP2-A)*%
X121644996Y-136942500D02*
X119757496Y-136942500D01*
%TO.N,/SDA*%
X119540000Y-106640000D02*
X119540000Y-122460000D01*
%TO.N,Net-(JP2-B)*%
X125207496Y-139117500D02*
X122519996Y-139117500D01*
X122519996Y-139117500D02*
X121644996Y-138242500D01*
X126244996Y-140155000D02*
X125207496Y-139117500D01*
%TO.N,/PCLK*%
X124620000Y-104100000D02*
X125707400Y-105187400D01*
X125707400Y-123292600D02*
X121750000Y-127250000D01*
%TO.N,/D1*%
X133327400Y-131722600D02*
X132040000Y-133010000D01*
X134780000Y-104100000D02*
X133327400Y-105552600D01*
X133327400Y-105552600D02*
X133327400Y-131722600D01*
%TO.N,/MCLK*%
X121750000Y-115912500D02*
X121150000Y-116512500D01*
X121150000Y-116512500D02*
X121150000Y-127100000D01*
X121150000Y-127100000D02*
X119750000Y-128500000D01*
%TO.N,/D0*%
X133250000Y-133250000D02*
X134780000Y-131720000D01*
X134780000Y-106640000D02*
X134780000Y-131720000D01*
%TO.N,/D2*%
X132240000Y-106640000D02*
X132240000Y-114830000D01*
X132240000Y-114830000D02*
X127410000Y-119660000D01*
%TO.N,Net-(D4-A)*%
X117784597Y-140155000D02*
X117549997Y-139920400D01*
%TO.N,Net-(D1-K)*%
X129610000Y-133409000D02*
X129287500Y-133731500D01*
X129310000Y-133709000D02*
X129310000Y-138310000D01*
X129310000Y-138310000D02*
X129310000Y-138427501D01*
X129610000Y-133409000D02*
X129310000Y-133709000D01*
X129310000Y-138818052D02*
X129310000Y-138310000D01*
X129910000Y-139418052D02*
X129310000Y-138818052D01*
X129910000Y-140390000D02*
X129910000Y-139418052D01*
%TO.N,GND*%
X128937500Y-141375000D02*
X129732500Y-142170000D01*
X128937500Y-140012500D02*
X128937500Y-141375000D01*
%TO.N,Net-(D1-K)*%
X128010000Y-139727501D02*
X128010000Y-140390000D01*
X129310000Y-138427501D02*
X128010000Y-139727501D01*
%TO.N,+3V3*%
X129910000Y-137220000D02*
X130320000Y-136810000D01*
%TD*%
%TA.AperFunction,Conductor*%
%TO.N,GND*%
G36*
X140264418Y-100970816D02*
G01*
X140464561Y-100985130D01*
X140482063Y-100987647D01*
X140673797Y-101029355D01*
X140690755Y-101034334D01*
X140874609Y-101102909D01*
X140890701Y-101110259D01*
X141062904Y-101204288D01*
X141077784Y-101213849D01*
X141234867Y-101331441D01*
X141248237Y-101343027D01*
X141386972Y-101481762D01*
X141398558Y-101495132D01*
X141516146Y-101652210D01*
X141525711Y-101667095D01*
X141619740Y-101839298D01*
X141627090Y-101855390D01*
X141695662Y-102039236D01*
X141700646Y-102056212D01*
X141742351Y-102247931D01*
X141744869Y-102265442D01*
X141759184Y-102465580D01*
X141759500Y-102474427D01*
X141759500Y-116396000D01*
X141739815Y-116463039D01*
X141687011Y-116508794D01*
X141635500Y-116520000D01*
X135929999Y-116520000D01*
X135920000Y-116529999D01*
X135920000Y-117678638D01*
X135900315Y-117745677D01*
X135883681Y-117766319D01*
X135870000Y-117779999D01*
X135870000Y-117780000D01*
X135870000Y-143950000D01*
X141635500Y-143950000D01*
X141702539Y-143969685D01*
X141748294Y-144022489D01*
X141759500Y-144074000D01*
X141759500Y-149465572D01*
X141759184Y-149474419D01*
X141744869Y-149674557D01*
X141742351Y-149692068D01*
X141700646Y-149883787D01*
X141695662Y-149900763D01*
X141627090Y-150084609D01*
X141619740Y-150100701D01*
X141525711Y-150272904D01*
X141516146Y-150287789D01*
X141398558Y-150444867D01*
X141386972Y-150458237D01*
X141248237Y-150596972D01*
X141234867Y-150608558D01*
X141077789Y-150726146D01*
X141062904Y-150735711D01*
X140890701Y-150829740D01*
X140874609Y-150837090D01*
X140690763Y-150905662D01*
X140673787Y-150910646D01*
X140482068Y-150952351D01*
X140464557Y-150954869D01*
X140283779Y-150967799D01*
X140264417Y-150969184D01*
X140255572Y-150969500D01*
X127139500Y-150969500D01*
X127072461Y-150949815D01*
X127026706Y-150897011D01*
X127015500Y-150845500D01*
X127015500Y-150353332D01*
X127035185Y-150286293D01*
X127051815Y-150265655D01*
X127256046Y-150061423D01*
X127317367Y-150027940D01*
X127378659Y-150030129D01*
X127448036Y-150050499D01*
X127448038Y-150050500D01*
X127448039Y-150050500D01*
X127591962Y-150050500D01*
X127591962Y-150050499D01*
X127699121Y-150019035D01*
X127730050Y-150009954D01*
X127730050Y-150009953D01*
X127730053Y-150009953D01*
X127851128Y-149932143D01*
X127945377Y-149823373D01*
X128005165Y-149692457D01*
X128025647Y-149550000D01*
X128005165Y-149407543D01*
X127945377Y-149276627D01*
X127851128Y-149167857D01*
X127730053Y-149090047D01*
X127730051Y-149090046D01*
X127730049Y-149090045D01*
X127730050Y-149090045D01*
X127591963Y-149049500D01*
X127591961Y-149049500D01*
X127448039Y-149049500D01*
X127448038Y-149049500D01*
X127369785Y-149072477D01*
X127334850Y-149077500D01*
X125365001Y-149077500D01*
X125365001Y-149176654D01*
X125375319Y-149277652D01*
X125429546Y-149441300D01*
X125429551Y-149441311D01*
X125520052Y-149588034D01*
X125520055Y-149588038D01*
X125641960Y-149709943D01*
X125744820Y-149773388D01*
X125791544Y-149825336D01*
X125802767Y-149894299D01*
X125779494Y-149952560D01*
X125710883Y-150045526D01*
X125667693Y-150168955D01*
X125626971Y-150225731D01*
X125562018Y-150251478D01*
X125550652Y-150252000D01*
X124538334Y-150252000D01*
X124471295Y-150232315D01*
X124450653Y-150215681D01*
X124021007Y-149786035D01*
X123987522Y-149724712D01*
X123990756Y-149660037D01*
X124021745Y-149564667D01*
X124040103Y-149390000D01*
X124021745Y-149215333D01*
X123967472Y-149048300D01*
X123960629Y-149036447D01*
X123879660Y-148896203D01*
X123879659Y-148896202D01*
X123879658Y-148896200D01*
X123762139Y-148765683D01*
X123697758Y-148718907D01*
X123620050Y-148662448D01*
X123496869Y-148607606D01*
X123459607Y-148591016D01*
X123459605Y-148591015D01*
X123459604Y-148591015D01*
X123287816Y-148554500D01*
X123112186Y-148554500D01*
X122940397Y-148591015D01*
X122779951Y-148662448D01*
X122637864Y-148765682D01*
X122637863Y-148765683D01*
X122520344Y-148896200D01*
X122520342Y-148896201D01*
X122520341Y-148896204D01*
X122475637Y-148973634D01*
X122425070Y-149021850D01*
X122356463Y-149035073D01*
X122291598Y-149009104D01*
X122257250Y-148966906D01*
X122169130Y-148789941D01*
X122169128Y-148789937D01*
X122162453Y-148781099D01*
X122162452Y-148781098D01*
X121581000Y-149362551D01*
X121581000Y-149339840D01*
X121555036Y-149242939D01*
X121504876Y-149156060D01*
X121433940Y-149085124D01*
X121347061Y-149034964D01*
X121250160Y-149009000D01*
X121227448Y-149009000D01*
X121758101Y-148478345D01*
X125365000Y-148478345D01*
X125365000Y-148577500D01*
X126090000Y-148577500D01*
X126590000Y-148577500D01*
X127314999Y-148577500D01*
X127314999Y-148478360D01*
X127314998Y-148478345D01*
X127304680Y-148377347D01*
X127250453Y-148213699D01*
X127250448Y-148213688D01*
X127159947Y-148066965D01*
X127159944Y-148066961D01*
X127038038Y-147945055D01*
X127038034Y-147945052D01*
X126891311Y-147854551D01*
X126891300Y-147854546D01*
X126727652Y-147800319D01*
X126626654Y-147790000D01*
X126590000Y-147790000D01*
X126590000Y-148577500D01*
X126090000Y-148577500D01*
X126090000Y-147790000D01*
X126053361Y-147790000D01*
X126053343Y-147790001D01*
X125952347Y-147800319D01*
X125788699Y-147854546D01*
X125788688Y-147854551D01*
X125641965Y-147945052D01*
X125641961Y-147945055D01*
X125520055Y-148066961D01*
X125520052Y-148066965D01*
X125429551Y-148213688D01*
X125429546Y-148213699D01*
X125375319Y-148377347D01*
X125365000Y-148478345D01*
X121758101Y-148478345D01*
X121806111Y-148430335D01*
X121806110Y-148430334D01*
X121708083Y-148369638D01*
X121708077Y-148369636D01*
X121511936Y-148293651D01*
X121305171Y-148255000D01*
X121094829Y-148255000D01*
X120888064Y-148293651D01*
X120888063Y-148293651D01*
X120691923Y-148369635D01*
X120593887Y-148430335D01*
X121172553Y-149009000D01*
X121149840Y-149009000D01*
X121052939Y-149034964D01*
X120966060Y-149085124D01*
X120895124Y-149156060D01*
X120844964Y-149242939D01*
X120819000Y-149339840D01*
X120819000Y-149362553D01*
X120237546Y-148781099D01*
X120237545Y-148781099D01*
X120230870Y-148789939D01*
X120137111Y-148978230D01*
X120079545Y-149180555D01*
X120060138Y-149389999D01*
X120060138Y-149390000D01*
X120079545Y-149599444D01*
X120137111Y-149801769D01*
X120230871Y-149990062D01*
X120237545Y-149998899D01*
X120819000Y-149417446D01*
X120819000Y-149440160D01*
X120844964Y-149537061D01*
X120895124Y-149623940D01*
X120966060Y-149694876D01*
X121052939Y-149745036D01*
X121149840Y-149771000D01*
X121172553Y-149771000D01*
X120593887Y-150349663D01*
X120691918Y-150410362D01*
X120691920Y-150410363D01*
X120888063Y-150486348D01*
X121094829Y-150525000D01*
X121305171Y-150525000D01*
X121511935Y-150486348D01*
X121511936Y-150486348D01*
X121708079Y-150410363D01*
X121708080Y-150410362D01*
X121806110Y-150349664D01*
X121806111Y-150349663D01*
X121227448Y-149771000D01*
X121250160Y-149771000D01*
X121347061Y-149745036D01*
X121433940Y-149694876D01*
X121504876Y-149623940D01*
X121555036Y-149537061D01*
X121581000Y-149440160D01*
X121581000Y-149417447D01*
X122162452Y-149998899D01*
X122162453Y-149998899D01*
X122169128Y-149990061D01*
X122257250Y-149813093D01*
X122304753Y-149761856D01*
X122372416Y-149744435D01*
X122438757Y-149766361D01*
X122475637Y-149806365D01*
X122520341Y-149883796D01*
X122520342Y-149883798D01*
X122520344Y-149883800D01*
X122637863Y-150014317D01*
X122702701Y-150061425D01*
X122779951Y-150117551D01*
X122841541Y-150144971D01*
X122940395Y-150188984D01*
X123112186Y-150225500D01*
X123287816Y-150225500D01*
X123459607Y-150188984D01*
X123460901Y-150188407D01*
X123461719Y-150188297D01*
X123465791Y-150186975D01*
X123466032Y-150187718D01*
X123530147Y-150179114D01*
X123593427Y-150208734D01*
X123599030Y-150214000D01*
X124142849Y-150757819D01*
X124176334Y-150819142D01*
X124171350Y-150888834D01*
X124129478Y-150944767D01*
X124064014Y-150969184D01*
X124055168Y-150969500D01*
X113764428Y-150969500D01*
X113755582Y-150969184D01*
X113733622Y-150967613D01*
X113555442Y-150954869D01*
X113537931Y-150952351D01*
X113346212Y-150910646D01*
X113329236Y-150905662D01*
X113145390Y-150837090D01*
X113129298Y-150829740D01*
X112957095Y-150735711D01*
X112942210Y-150726146D01*
X112785132Y-150608558D01*
X112771762Y-150596972D01*
X112633027Y-150458237D01*
X112621441Y-150444867D01*
X112503849Y-150287784D01*
X112494288Y-150272904D01*
X112400259Y-150100701D01*
X112392909Y-150084609D01*
X112380187Y-150050500D01*
X112324334Y-149900755D01*
X112319356Y-149883796D01*
X112277647Y-149692063D01*
X112275130Y-149674556D01*
X112274091Y-149660035D01*
X112260816Y-149474418D01*
X112260500Y-149465572D01*
X112260500Y-147928711D01*
X113399500Y-147928711D01*
X113399500Y-148171288D01*
X113431161Y-148411785D01*
X113493947Y-148646104D01*
X113586773Y-148870205D01*
X113586776Y-148870212D01*
X113708064Y-149080289D01*
X113708066Y-149080292D01*
X113708067Y-149080293D01*
X113855733Y-149272736D01*
X113855739Y-149272743D01*
X114027256Y-149444260D01*
X114027263Y-149444266D01*
X114140321Y-149531018D01*
X114219711Y-149591936D01*
X114429788Y-149713224D01*
X114653900Y-149806054D01*
X114888211Y-149868838D01*
X115067626Y-149892458D01*
X115128711Y-149900500D01*
X115128712Y-149900500D01*
X115371289Y-149900500D01*
X115432374Y-149892458D01*
X115611789Y-149868838D01*
X115846100Y-149806054D01*
X116070212Y-149713224D01*
X116280289Y-149591936D01*
X116472738Y-149444265D01*
X116644265Y-149272738D01*
X116791936Y-149080289D01*
X116913224Y-148870212D01*
X117006054Y-148646100D01*
X117068838Y-148411789D01*
X117100500Y-148171288D01*
X117100500Y-147928712D01*
X117078119Y-147758711D01*
X136949500Y-147758711D01*
X136949500Y-148001288D01*
X136981161Y-148241785D01*
X137043947Y-148476104D01*
X137136773Y-148700205D01*
X137136776Y-148700212D01*
X137258064Y-148910289D01*
X137258066Y-148910292D01*
X137258067Y-148910293D01*
X137405733Y-149102736D01*
X137405739Y-149102743D01*
X137577256Y-149274260D01*
X137577263Y-149274266D01*
X137581676Y-149277652D01*
X137769711Y-149421936D01*
X137979788Y-149543224D01*
X138203900Y-149636054D01*
X138438211Y-149698838D01*
X138618586Y-149722584D01*
X138678711Y-149730500D01*
X138678712Y-149730500D01*
X138921289Y-149730500D01*
X138969388Y-149724167D01*
X139161789Y-149698838D01*
X139396100Y-149636054D01*
X139620212Y-149543224D01*
X139830289Y-149421936D01*
X140022738Y-149274265D01*
X140194265Y-149102738D01*
X140341936Y-148910289D01*
X140463224Y-148700212D01*
X140556054Y-148476100D01*
X140618838Y-148241789D01*
X140650500Y-148001288D01*
X140650500Y-147758712D01*
X140618838Y-147518211D01*
X140556054Y-147283900D01*
X140463224Y-147059788D01*
X140341936Y-146849711D01*
X140194265Y-146657262D01*
X140194260Y-146657256D01*
X140022743Y-146485739D01*
X140022736Y-146485733D01*
X139830293Y-146338067D01*
X139830292Y-146338066D01*
X139830289Y-146338064D01*
X139620212Y-146216776D01*
X139578504Y-146199500D01*
X139396104Y-146123947D01*
X139161785Y-146061161D01*
X138921289Y-146029500D01*
X138921288Y-146029500D01*
X138678712Y-146029500D01*
X138678711Y-146029500D01*
X138438214Y-146061161D01*
X138203895Y-146123947D01*
X137979794Y-146216773D01*
X137979785Y-146216777D01*
X137769706Y-146338067D01*
X137577263Y-146485733D01*
X137577256Y-146485739D01*
X137405739Y-146657256D01*
X137405733Y-146657263D01*
X137258067Y-146849706D01*
X137136777Y-147059785D01*
X137136773Y-147059794D01*
X137043947Y-147283895D01*
X136981161Y-147518214D01*
X136949500Y-147758711D01*
X117078119Y-147758711D01*
X117068838Y-147688211D01*
X117006054Y-147453900D01*
X116913224Y-147229788D01*
X116791936Y-147019711D01*
X116644265Y-146827262D01*
X116644260Y-146827256D01*
X116472743Y-146655739D01*
X116472736Y-146655733D01*
X116280293Y-146508067D01*
X116280292Y-146508066D01*
X116280289Y-146508064D01*
X116070212Y-146386776D01*
X116070205Y-146386773D01*
X115846104Y-146293947D01*
X115611785Y-146231161D01*
X115371289Y-146199500D01*
X115371288Y-146199500D01*
X115128712Y-146199500D01*
X115128711Y-146199500D01*
X114888214Y-146231161D01*
X114653895Y-146293947D01*
X114429794Y-146386773D01*
X114429785Y-146386777D01*
X114219706Y-146508067D01*
X114027263Y-146655733D01*
X114027256Y-146655739D01*
X113855739Y-146827256D01*
X113855733Y-146827263D01*
X113708067Y-147019706D01*
X113586777Y-147229785D01*
X113586773Y-147229794D01*
X113493947Y-147453895D01*
X113431161Y-147688214D01*
X113399500Y-147928711D01*
X112260500Y-147928711D01*
X112260500Y-141856866D01*
X113674397Y-141856866D01*
X113674397Y-141983929D01*
X113699182Y-142108530D01*
X113699185Y-142108542D01*
X113747801Y-142225913D01*
X113747808Y-142225926D01*
X113818392Y-142331561D01*
X113818395Y-142331565D01*
X113908229Y-142421399D01*
X113908233Y-142421402D01*
X114013868Y-142491986D01*
X114013881Y-142491993D01*
X114102769Y-142528811D01*
X114131257Y-142540611D01*
X114255865Y-142565397D01*
X114255869Y-142565398D01*
X114255870Y-142565398D01*
X115094125Y-142565398D01*
X115094126Y-142565397D01*
X115218737Y-142540611D01*
X115336119Y-142491990D01*
X115441761Y-142421402D01*
X115531601Y-142331562D01*
X115602189Y-142225920D01*
X115650810Y-142108538D01*
X115675597Y-141983925D01*
X115675597Y-141856871D01*
X115650810Y-141732258D01*
X115623301Y-141665845D01*
X115602192Y-141614882D01*
X115602185Y-141614869D01*
X115531601Y-141509234D01*
X115531598Y-141509230D01*
X115441764Y-141419396D01*
X115441760Y-141419393D01*
X115336125Y-141348809D01*
X115336112Y-141348802D01*
X115218741Y-141300186D01*
X115218729Y-141300183D01*
X115094128Y-141275398D01*
X115094124Y-141275398D01*
X114255870Y-141275398D01*
X114255865Y-141275398D01*
X114131264Y-141300183D01*
X114131252Y-141300186D01*
X114013881Y-141348802D01*
X114013868Y-141348809D01*
X113908233Y-141419393D01*
X113908229Y-141419396D01*
X113818395Y-141509230D01*
X113818392Y-141509234D01*
X113747808Y-141614869D01*
X113747801Y-141614882D01*
X113699185Y-141732253D01*
X113699182Y-141732265D01*
X113674397Y-141856866D01*
X112260500Y-141856866D01*
X112260500Y-135256870D01*
X113674397Y-135256870D01*
X113674397Y-135383933D01*
X113699182Y-135508534D01*
X113699185Y-135508546D01*
X113747801Y-135625917D01*
X113747808Y-135625930D01*
X113818392Y-135731565D01*
X113818395Y-135731569D01*
X113908229Y-135821403D01*
X113908233Y-135821406D01*
X114013868Y-135891990D01*
X114013881Y-135891997D01*
X114059781Y-135911009D01*
X114131257Y-135940615D01*
X114255865Y-135965401D01*
X114255869Y-135965402D01*
X114255870Y-135965402D01*
X115094125Y-135965402D01*
X115094126Y-135965401D01*
X115218737Y-135940615D01*
X115325692Y-135896313D01*
X115336112Y-135891997D01*
X115336112Y-135891996D01*
X115336119Y-135891994D01*
X115441761Y-135821406D01*
X115531601Y-135731566D01*
X115602189Y-135625924D01*
X115650810Y-135508542D01*
X115675597Y-135383929D01*
X115675597Y-135256875D01*
X115650810Y-135132262D01*
X115625042Y-135070052D01*
X115602192Y-135014886D01*
X115602185Y-135014873D01*
X115531601Y-134909237D01*
X115441764Y-134819400D01*
X115441760Y-134819397D01*
X115336125Y-134748813D01*
X115336112Y-134748806D01*
X115218741Y-134700190D01*
X115218729Y-134700187D01*
X115094128Y-134675402D01*
X115094124Y-134675402D01*
X114255870Y-134675402D01*
X114255865Y-134675402D01*
X114131264Y-134700187D01*
X114131252Y-134700190D01*
X114013881Y-134748806D01*
X114013868Y-134748813D01*
X113908233Y-134819397D01*
X113908229Y-134819400D01*
X113818395Y-134909234D01*
X113818393Y-134909237D01*
X113747808Y-135014873D01*
X113747801Y-135014886D01*
X113699185Y-135132257D01*
X113699182Y-135132269D01*
X113674397Y-135256870D01*
X112260500Y-135256870D01*
X112260500Y-134549500D01*
X112280185Y-134482461D01*
X112332989Y-134436706D01*
X112384500Y-134425500D01*
X116182659Y-134425500D01*
X116183109Y-134425491D01*
X116189991Y-134425369D01*
X116198837Y-134425053D01*
X116263316Y-134412227D01*
X116271158Y-134409301D01*
X116340850Y-134404313D01*
X116402174Y-134437795D01*
X116435663Y-134499116D01*
X116436116Y-134549671D01*
X116425996Y-134600551D01*
X116425996Y-136195900D01*
X116406311Y-136262939D01*
X116353507Y-136308694D01*
X116301996Y-136319900D01*
X116203033Y-136319900D01*
X116064946Y-136360445D01*
X116064943Y-136360447D01*
X115979848Y-136415133D01*
X115912809Y-136434817D01*
X115845769Y-136415132D01*
X115809708Y-136379708D01*
X115772049Y-136323347D01*
X115705727Y-136279032D01*
X115705726Y-136279031D01*
X115647249Y-136267400D01*
X115647245Y-136267400D01*
X113702749Y-136267400D01*
X113702744Y-136267400D01*
X113644267Y-136279031D01*
X113644266Y-136279032D01*
X113577944Y-136323347D01*
X113533629Y-136389669D01*
X113533628Y-136389670D01*
X113521997Y-136448147D01*
X113521997Y-138392652D01*
X113533628Y-138451129D01*
X113533629Y-138451130D01*
X113577945Y-138517453D01*
X113586580Y-138526088D01*
X113585751Y-138526916D01*
X113622520Y-138570915D01*
X113631224Y-138640241D01*
X113601067Y-138703267D01*
X113578286Y-138723005D01*
X113577945Y-138723346D01*
X113533629Y-138789669D01*
X113533628Y-138789670D01*
X113521997Y-138848147D01*
X113521997Y-140792652D01*
X113533628Y-140851129D01*
X113533629Y-140851130D01*
X113577944Y-140917452D01*
X113644266Y-140961767D01*
X113644267Y-140961768D01*
X113702744Y-140973399D01*
X113702747Y-140973400D01*
X113702749Y-140973400D01*
X115647247Y-140973400D01*
X115647248Y-140973399D01*
X115662065Y-140970452D01*
X115705726Y-140961768D01*
X115705726Y-140961767D01*
X115705728Y-140961767D01*
X115772049Y-140917452D01*
X115816364Y-140851131D01*
X115816364Y-140851129D01*
X115816365Y-140851129D01*
X115827996Y-140792652D01*
X115827997Y-140792650D01*
X115827997Y-139636853D01*
X115847682Y-139569814D01*
X115900486Y-139524059D01*
X115969644Y-139514115D01*
X115986926Y-139517874D01*
X116029727Y-139530442D01*
X116098038Y-139550500D01*
X116250830Y-139550500D01*
X116250830Y-139551814D01*
X116287837Y-139554017D01*
X116350837Y-139570899D01*
X116552397Y-139570899D01*
X116619436Y-139590584D01*
X116665191Y-139643388D01*
X116676397Y-139694899D01*
X116676397Y-140143352D01*
X116688028Y-140201829D01*
X116688029Y-140201830D01*
X116732344Y-140268151D01*
X116769830Y-140293199D01*
X116814634Y-140346812D01*
X116823341Y-140416137D01*
X116793186Y-140479164D01*
X116733743Y-140515883D01*
X116700938Y-140520301D01*
X116578651Y-140520301D01*
X116519123Y-140526702D01*
X116519116Y-140526704D01*
X116384409Y-140576946D01*
X116384402Y-140576950D01*
X116269308Y-140663110D01*
X116269305Y-140663113D01*
X116183145Y-140778207D01*
X116183141Y-140778214D01*
X116132899Y-140912921D01*
X116132897Y-140912928D01*
X116126496Y-140972456D01*
X116126496Y-141570401D01*
X117450996Y-141570401D01*
X117518035Y-141590086D01*
X117563790Y-141642890D01*
X117574996Y-141694401D01*
X117574996Y-141946401D01*
X117555311Y-142013440D01*
X117502507Y-142059195D01*
X117450996Y-142070401D01*
X116126496Y-142070401D01*
X116126496Y-142668345D01*
X116132897Y-142727873D01*
X116132899Y-142727880D01*
X116183141Y-142862587D01*
X116183145Y-142862594D01*
X116269305Y-142977688D01*
X116269308Y-142977691D01*
X116384402Y-143063851D01*
X116384409Y-143063855D01*
X116519116Y-143114097D01*
X116519123Y-143114099D01*
X116578651Y-143120500D01*
X116578668Y-143120501D01*
X116816440Y-143120501D01*
X116883479Y-143140186D01*
X116929234Y-143192990D01*
X116939178Y-143262148D01*
X116910153Y-143325704D01*
X116887043Y-143344068D01*
X116888001Y-143345366D01*
X116774289Y-143429288D01*
X116774288Y-143429289D01*
X116695884Y-143535523D01*
X116652274Y-143660150D01*
X116649500Y-143689739D01*
X116649500Y-144270260D01*
X116652274Y-144299849D01*
X116695884Y-144424476D01*
X116774288Y-144530710D01*
X116774289Y-144530711D01*
X116880523Y-144609115D01*
X116880524Y-144609115D01*
X116880525Y-144609116D01*
X117005151Y-144652725D01*
X117005150Y-144652725D01*
X117034740Y-144655500D01*
X117034744Y-144655500D01*
X117284962Y-144655500D01*
X117317054Y-144659725D01*
X117332351Y-144663823D01*
X117347938Y-144668000D01*
X117347940Y-144668000D01*
X117427060Y-144668000D01*
X117427062Y-144668000D01*
X117446100Y-144662898D01*
X117457946Y-144659725D01*
X117490038Y-144655500D01*
X117586667Y-144655500D01*
X117653706Y-144675185D01*
X117674348Y-144691819D01*
X117977989Y-144995460D01*
X118008941Y-145013330D01*
X118046508Y-145035020D01*
X118046512Y-145035022D01*
X118122938Y-145055500D01*
X118122940Y-145055500D01*
X121031374Y-145055500D01*
X121031376Y-145055500D01*
X121107803Y-145035021D01*
X121176325Y-144995460D01*
X121232274Y-144939511D01*
X122420460Y-143751325D01*
X122460022Y-143682802D01*
X122480500Y-143606376D01*
X122480500Y-143527252D01*
X122480500Y-141203738D01*
X122500185Y-141136699D01*
X122510787Y-141122535D01*
X122511124Y-141122144D01*
X122511128Y-141122143D01*
X122605377Y-141013373D01*
X122665165Y-140882457D01*
X122685647Y-140740000D01*
X122665165Y-140597543D01*
X122663903Y-140588765D01*
X122665720Y-140588503D01*
X122665722Y-140529562D01*
X122703498Y-140470785D01*
X122767055Y-140441762D01*
X122784698Y-140440500D01*
X123704163Y-140440500D01*
X123771202Y-140460185D01*
X123791844Y-140476819D01*
X124132040Y-140817015D01*
X124187989Y-140872964D01*
X124187991Y-140872965D01*
X124187995Y-140872968D01*
X124247123Y-140907105D01*
X124256511Y-140912525D01*
X124332938Y-140933004D01*
X124412062Y-140933004D01*
X124603669Y-140933004D01*
X124670708Y-140952689D01*
X124697380Y-140975799D01*
X124728872Y-141012143D01*
X124849947Y-141089953D01*
X124849950Y-141089954D01*
X124849949Y-141089954D01*
X124946196Y-141118214D01*
X124985583Y-141129779D01*
X124988036Y-141130499D01*
X124988038Y-141130500D01*
X124988039Y-141130500D01*
X125131961Y-141130500D01*
X125263065Y-141092005D01*
X125332935Y-141092005D01*
X125391713Y-141129779D01*
X125420738Y-141193335D01*
X125422000Y-141210982D01*
X125422000Y-144069577D01*
X125402315Y-144136616D01*
X125365044Y-144173890D01*
X125358873Y-144177855D01*
X125264623Y-144286626D01*
X125264622Y-144286628D01*
X125204834Y-144417543D01*
X125184353Y-144560000D01*
X125204834Y-144702456D01*
X125240389Y-144780309D01*
X125264623Y-144833373D01*
X125358872Y-144942143D01*
X125479947Y-145019953D01*
X125479950Y-145019954D01*
X125479949Y-145019954D01*
X125587107Y-145051417D01*
X125601010Y-145055500D01*
X125618036Y-145060499D01*
X125618038Y-145060500D01*
X125618039Y-145060500D01*
X125761962Y-145060500D01*
X125761962Y-145060499D01*
X125900053Y-145019953D01*
X126021128Y-144942143D01*
X126115377Y-144833373D01*
X126175165Y-144702457D01*
X126195647Y-144560000D01*
X126175165Y-144417543D01*
X126115377Y-144286627D01*
X126115375Y-144286625D01*
X126115374Y-144286622D01*
X126053287Y-144214970D01*
X126024262Y-144151415D01*
X126023000Y-144133768D01*
X126023000Y-142284500D01*
X126042685Y-142217461D01*
X126095489Y-142171706D01*
X126147000Y-142160500D01*
X126192060Y-142160500D01*
X126192062Y-142160500D01*
X126268488Y-142140021D01*
X126337011Y-142100460D01*
X126392960Y-142044511D01*
X126409892Y-142015182D01*
X126415612Y-142005276D01*
X126466178Y-141957059D01*
X126534785Y-141943835D01*
X126599650Y-141969802D01*
X126640180Y-142026716D01*
X126647000Y-142067274D01*
X126647000Y-144137062D01*
X126656868Y-144173890D01*
X126667479Y-144213490D01*
X126667480Y-144213491D01*
X126686867Y-144247071D01*
X126687103Y-144247479D01*
X126707039Y-144282009D01*
X126707041Y-144282012D01*
X127590604Y-145165575D01*
X127624089Y-145226898D01*
X127625661Y-145270902D01*
X127624353Y-145279999D01*
X127644834Y-145422456D01*
X127679606Y-145498595D01*
X127704623Y-145553373D01*
X127798872Y-145662143D01*
X127919947Y-145739953D01*
X127919950Y-145739954D01*
X127919949Y-145739954D01*
X128027107Y-145771417D01*
X128056513Y-145780052D01*
X128058036Y-145780499D01*
X128058038Y-145780500D01*
X128058039Y-145780500D01*
X128201962Y-145780500D01*
X128201962Y-145780499D01*
X128340053Y-145739953D01*
X128461128Y-145662143D01*
X128555377Y-145553373D01*
X128555378Y-145553371D01*
X128561185Y-145546670D01*
X128562385Y-145547710D01*
X128607584Y-145508542D01*
X128676742Y-145498595D01*
X128740299Y-145527618D01*
X128778076Y-145586395D01*
X128783100Y-145621334D01*
X128783100Y-145655252D01*
X128794731Y-145713729D01*
X128794732Y-145713730D01*
X128839047Y-145780052D01*
X128905369Y-145824367D01*
X128905370Y-145824368D01*
X128963847Y-145835999D01*
X128963850Y-145836000D01*
X130485200Y-145836000D01*
X130552239Y-145855685D01*
X130597994Y-145908489D01*
X130609200Y-145960000D01*
X130609200Y-146232400D01*
X133250800Y-146232400D01*
X133250800Y-145960000D01*
X133270485Y-145892961D01*
X133323289Y-145847206D01*
X133374800Y-145836000D01*
X134896150Y-145836000D01*
X134896151Y-145835999D01*
X134910968Y-145833052D01*
X134954629Y-145824368D01*
X134954629Y-145824367D01*
X134954631Y-145824367D01*
X135020952Y-145780052D01*
X135065267Y-145713731D01*
X135065267Y-145713729D01*
X135065268Y-145713729D01*
X135076899Y-145655252D01*
X135076900Y-145655250D01*
X135076900Y-143964749D01*
X135076899Y-143964747D01*
X135065268Y-143906270D01*
X135065267Y-143906269D01*
X135020952Y-143839947D01*
X134954630Y-143795632D01*
X134954629Y-143795631D01*
X134896152Y-143784000D01*
X134896148Y-143784000D01*
X134513500Y-143784000D01*
X134446461Y-143764315D01*
X134400706Y-143711511D01*
X134389500Y-143660000D01*
X134389500Y-143294358D01*
X134409185Y-143227319D01*
X134461989Y-143181564D01*
X134531147Y-143171620D01*
X134548428Y-143175379D01*
X134608405Y-143192990D01*
X134668038Y-143210500D01*
X134668039Y-143210500D01*
X134811962Y-143210500D01*
X134811962Y-143210499D01*
X134950053Y-143169953D01*
X135071128Y-143092143D01*
X135165377Y-142983373D01*
X135225165Y-142852457D01*
X135245647Y-142710000D01*
X135225165Y-142567543D01*
X135165377Y-142436627D01*
X135127150Y-142392510D01*
X135098126Y-142328954D01*
X135108070Y-142259795D01*
X135117762Y-142242416D01*
X135123550Y-142233753D01*
X135123552Y-142233752D01*
X135167867Y-142167431D01*
X135173320Y-142140020D01*
X135179499Y-142108952D01*
X135179500Y-142108950D01*
X135179500Y-140951849D01*
X135179499Y-140951847D01*
X135167868Y-140893370D01*
X135167867Y-140893369D01*
X135123552Y-140827047D01*
X135057230Y-140782732D01*
X135057229Y-140782731D01*
X134998752Y-140771100D01*
X134998748Y-140771100D01*
X134514500Y-140771100D01*
X134447461Y-140751415D01*
X134401706Y-140698611D01*
X134390500Y-140647100D01*
X134390500Y-140418176D01*
X134410185Y-140351137D01*
X134445608Y-140315074D01*
X134463152Y-140303352D01*
X134507467Y-140237031D01*
X134507467Y-140237029D01*
X134507468Y-140237029D01*
X134519099Y-140178552D01*
X134519100Y-140178550D01*
X134519100Y-139021449D01*
X134519099Y-139021447D01*
X134507468Y-138962970D01*
X134507467Y-138962969D01*
X134463152Y-138896647D01*
X134396830Y-138852332D01*
X134396829Y-138852331D01*
X134338352Y-138840700D01*
X134338348Y-138840700D01*
X133841652Y-138840700D01*
X133841647Y-138840700D01*
X133783170Y-138852331D01*
X133783169Y-138852332D01*
X133706693Y-138903433D01*
X133706070Y-138902501D01*
X133655591Y-138930066D01*
X133585899Y-138925082D01*
X133541552Y-138896581D01*
X133257495Y-138612524D01*
X133224010Y-138551201D01*
X133227244Y-138486528D01*
X133265674Y-138368256D01*
X133285460Y-138180000D01*
X133265674Y-137991744D01*
X133207179Y-137811716D01*
X133112533Y-137647784D01*
X132985871Y-137507112D01*
X132985223Y-137506641D01*
X132832730Y-137395848D01*
X132764064Y-137365276D01*
X132710827Y-137320026D01*
X132690506Y-137253177D01*
X132690500Y-137251997D01*
X132690500Y-134942340D01*
X132690499Y-134942336D01*
X132681631Y-134909238D01*
X132670022Y-134865912D01*
X132630460Y-134797389D01*
X131675600Y-133842529D01*
X131642115Y-133781206D01*
X131647099Y-133711514D01*
X131688971Y-133655581D01*
X131754435Y-133631164D01*
X131798216Y-133635871D01*
X131848038Y-133650500D01*
X131848039Y-133650500D01*
X131991962Y-133650500D01*
X131991962Y-133650499D01*
X132111662Y-133615353D01*
X132130050Y-133609954D01*
X132130050Y-133609953D01*
X132130053Y-133609953D01*
X132251128Y-133532143D01*
X132345377Y-133423373D01*
X132405165Y-133292457D01*
X132425647Y-133150000D01*
X132421824Y-133123414D01*
X132431767Y-133054260D01*
X132456878Y-133018091D01*
X132612896Y-132862073D01*
X132674217Y-132828590D01*
X132743909Y-132833574D01*
X132799842Y-132875446D01*
X132824259Y-132940910D01*
X132813369Y-133001267D01*
X132764835Y-133107541D01*
X132764834Y-133107542D01*
X132744353Y-133250000D01*
X132764834Y-133392456D01*
X132815969Y-133504423D01*
X132824623Y-133523373D01*
X132918872Y-133632143D01*
X133039947Y-133709953D01*
X133039950Y-133709954D01*
X133039949Y-133709954D01*
X133178036Y-133750499D01*
X133178038Y-133750500D01*
X133178039Y-133750500D01*
X133321962Y-133750500D01*
X133321962Y-133750499D01*
X133460053Y-133709953D01*
X133581128Y-133632143D01*
X133675377Y-133523373D01*
X133735165Y-133392457D01*
X133755647Y-133250000D01*
X133754339Y-133240905D01*
X133764279Y-133171749D01*
X133789392Y-133135577D01*
X135020460Y-131904511D01*
X135060022Y-131835988D01*
X135080500Y-131759562D01*
X135080500Y-131680438D01*
X135080500Y-112678711D01*
X136849500Y-112678711D01*
X136849500Y-112921288D01*
X136881161Y-113161785D01*
X136943947Y-113396104D01*
X137026790Y-113596104D01*
X137036776Y-113620212D01*
X137158064Y-113830289D01*
X137158066Y-113830292D01*
X137158067Y-113830293D01*
X137305733Y-114022736D01*
X137305739Y-114022743D01*
X137477256Y-114194260D01*
X137477263Y-114194266D01*
X137491936Y-114205525D01*
X137669711Y-114341936D01*
X137879788Y-114463224D01*
X138103900Y-114556054D01*
X138338211Y-114618838D01*
X138508116Y-114641206D01*
X138578711Y-114650500D01*
X138578712Y-114650500D01*
X138821289Y-114650500D01*
X138891884Y-114641206D01*
X139061789Y-114618838D01*
X139296100Y-114556054D01*
X139520212Y-114463224D01*
X139730289Y-114341936D01*
X139922738Y-114194265D01*
X140094265Y-114022738D01*
X140241936Y-113830289D01*
X140363224Y-113620212D01*
X140456054Y-113396100D01*
X140518838Y-113161789D01*
X140550500Y-112921288D01*
X140550500Y-112678712D01*
X140518838Y-112438211D01*
X140456054Y-112203900D01*
X140363224Y-111979788D01*
X140241936Y-111769711D01*
X140094265Y-111577262D01*
X140094260Y-111577256D01*
X139922743Y-111405739D01*
X139922736Y-111405733D01*
X139730293Y-111258067D01*
X139730292Y-111258066D01*
X139730289Y-111258064D01*
X139520212Y-111136776D01*
X139520205Y-111136773D01*
X139296104Y-111043947D01*
X139061785Y-110981161D01*
X138821289Y-110949500D01*
X138821288Y-110949500D01*
X138578712Y-110949500D01*
X138578711Y-110949500D01*
X138338214Y-110981161D01*
X138103895Y-111043947D01*
X137879794Y-111136773D01*
X137879785Y-111136777D01*
X137669706Y-111258067D01*
X137477263Y-111405733D01*
X137477256Y-111405739D01*
X137305739Y-111577256D01*
X137305733Y-111577263D01*
X137158067Y-111769706D01*
X137158064Y-111769710D01*
X137158064Y-111769711D01*
X137153704Y-111777263D01*
X137036777Y-111979785D01*
X137036773Y-111979794D01*
X136943947Y-112203895D01*
X136881161Y-112438214D01*
X136849500Y-112678711D01*
X135080500Y-112678711D01*
X135080500Y-107672852D01*
X135100185Y-107605813D01*
X135152989Y-107560058D01*
X135157053Y-107558289D01*
X135159884Y-107557116D01*
X135331497Y-107465387D01*
X135331499Y-107465384D01*
X135331503Y-107465383D01*
X135481931Y-107341931D01*
X135605383Y-107191503D01*
X135605384Y-107191499D01*
X135605387Y-107191497D01*
X135697115Y-107019886D01*
X135697115Y-107019885D01*
X135697117Y-107019882D01*
X135753606Y-106833662D01*
X135772680Y-106640000D01*
X135772680Y-106639998D01*
X136027682Y-106639998D01*
X136027682Y-106640001D01*
X136047314Y-106864403D01*
X136047316Y-106864414D01*
X136105615Y-107081991D01*
X136105618Y-107082000D01*
X136200819Y-107286157D01*
X136200820Y-107286159D01*
X136250020Y-107356424D01*
X136250021Y-107356425D01*
X136809765Y-106796680D01*
X136822950Y-106845885D01*
X136893174Y-106967515D01*
X136992485Y-107066826D01*
X137114115Y-107137050D01*
X137163318Y-107150233D01*
X136603573Y-107709978D01*
X136673840Y-107759179D01*
X136673842Y-107759180D01*
X136877999Y-107854381D01*
X136878008Y-107854384D01*
X137095585Y-107912683D01*
X137095596Y-107912685D01*
X137319998Y-107932318D01*
X137320002Y-107932318D01*
X137544403Y-107912685D01*
X137544414Y-107912683D01*
X137761991Y-107854384D01*
X137762000Y-107854380D01*
X137966156Y-107759181D01*
X138036425Y-107709978D01*
X137476681Y-107150233D01*
X137525885Y-107137050D01*
X137647515Y-107066826D01*
X137746826Y-106967515D01*
X137817050Y-106845885D01*
X137830233Y-106796680D01*
X138389978Y-107356425D01*
X138439181Y-107286156D01*
X138534380Y-107082000D01*
X138534384Y-107081991D01*
X138592683Y-106864414D01*
X138592685Y-106864403D01*
X138612318Y-106640001D01*
X138612318Y-106639998D01*
X138592685Y-106415596D01*
X138592683Y-106415585D01*
X138534384Y-106198008D01*
X138534381Y-106197999D01*
X138465367Y-106050000D01*
X139554540Y-106050000D01*
X139574326Y-106238256D01*
X139574327Y-106238259D01*
X139632818Y-106418277D01*
X139632821Y-106418284D01*
X139727467Y-106582216D01*
X139842725Y-106710223D01*
X139854129Y-106722888D01*
X140007265Y-106834148D01*
X140007270Y-106834151D01*
X140180192Y-106911142D01*
X140180197Y-106911144D01*
X140365354Y-106950500D01*
X140365355Y-106950500D01*
X140554644Y-106950500D01*
X140554646Y-106950500D01*
X140739803Y-106911144D01*
X140912730Y-106834151D01*
X141065871Y-106722888D01*
X141192533Y-106582216D01*
X141287179Y-106418284D01*
X141345674Y-106238256D01*
X141365460Y-106050000D01*
X141345674Y-105861744D01*
X141287179Y-105681716D01*
X141192533Y-105517784D01*
X141065871Y-105377112D01*
X141065870Y-105377111D01*
X140912734Y-105265851D01*
X140912729Y-105265848D01*
X140739807Y-105188857D01*
X140739802Y-105188855D01*
X140594001Y-105157865D01*
X140554646Y-105149500D01*
X140365354Y-105149500D01*
X140333089Y-105156358D01*
X140180197Y-105188855D01*
X140180192Y-105188857D01*
X140007270Y-105265848D01*
X140007265Y-105265851D01*
X139854129Y-105377111D01*
X139727466Y-105517785D01*
X139632821Y-105681715D01*
X139632818Y-105681722D01*
X139580910Y-105841480D01*
X139574326Y-105861744D01*
X139554540Y-106050000D01*
X138465367Y-106050000D01*
X138439180Y-105993842D01*
X138439179Y-105993840D01*
X138389978Y-105923574D01*
X138389978Y-105923573D01*
X137830233Y-106483318D01*
X137817050Y-106434115D01*
X137746826Y-106312485D01*
X137647515Y-106213174D01*
X137525885Y-106142950D01*
X137476680Y-106129765D01*
X138036425Y-105570021D01*
X138036424Y-105570020D01*
X137966159Y-105520820D01*
X137966157Y-105520819D01*
X137762000Y-105425618D01*
X137761991Y-105425615D01*
X137544414Y-105367316D01*
X137544403Y-105367314D01*
X137320002Y-105347682D01*
X137319998Y-105347682D01*
X137095596Y-105367314D01*
X137095585Y-105367316D01*
X136878008Y-105425615D01*
X136877999Y-105425618D01*
X136673838Y-105520821D01*
X136603573Y-105570019D01*
X137163319Y-106129765D01*
X137114115Y-106142950D01*
X136992485Y-106213174D01*
X136893174Y-106312485D01*
X136822950Y-106434115D01*
X136809765Y-106483319D01*
X136250019Y-105923573D01*
X136200821Y-105993838D01*
X136105618Y-106197999D01*
X136105615Y-106198008D01*
X136047316Y-106415585D01*
X136047314Y-106415596D01*
X136027682Y-106639998D01*
X135772680Y-106639998D01*
X135753606Y-106446338D01*
X135697117Y-106260118D01*
X135697115Y-106260115D01*
X135697115Y-106260113D01*
X135605387Y-106088502D01*
X135605382Y-106088496D01*
X135481931Y-105938068D01*
X135331503Y-105814617D01*
X135331497Y-105814612D01*
X135159886Y-105722884D01*
X134973660Y-105666393D01*
X134780000Y-105647320D01*
X134586339Y-105666393D01*
X134400113Y-105722884D01*
X134228502Y-105814612D01*
X134228496Y-105814617D01*
X134078068Y-105938068D01*
X133954617Y-106088496D01*
X133954612Y-106088502D01*
X133861258Y-106263157D01*
X133812296Y-106313002D01*
X133744158Y-106328462D01*
X133678478Y-106304630D01*
X133636110Y-106249073D01*
X133627900Y-106204704D01*
X133627900Y-105728432D01*
X133647585Y-105661393D01*
X133664215Y-105640755D01*
X134262149Y-105042820D01*
X134323470Y-105009337D01*
X134393161Y-105014321D01*
X134397277Y-105015940D01*
X134400114Y-105017115D01*
X134400118Y-105017117D01*
X134586338Y-105073606D01*
X134780000Y-105092680D01*
X134973662Y-105073606D01*
X135159882Y-105017117D01*
X135170267Y-105011566D01*
X135331497Y-104925387D01*
X135331499Y-104925384D01*
X135331503Y-104925383D01*
X135481931Y-104801931D01*
X135605383Y-104651503D01*
X135605384Y-104651499D01*
X135605387Y-104651497D01*
X135697115Y-104479886D01*
X135697116Y-104479884D01*
X135697117Y-104479882D01*
X135753606Y-104293662D01*
X135772680Y-104100000D01*
X136327320Y-104100000D01*
X136346393Y-104293660D01*
X136402884Y-104479886D01*
X136494612Y-104651497D01*
X136494617Y-104651503D01*
X136618068Y-104801931D01*
X136768496Y-104925382D01*
X136768502Y-104925387D01*
X136940113Y-105017115D01*
X136940115Y-105017115D01*
X136940118Y-105017117D01*
X137126338Y-105073606D01*
X137320000Y-105092680D01*
X137513662Y-105073606D01*
X137699882Y-105017117D01*
X137710267Y-105011566D01*
X137871497Y-104925387D01*
X137871499Y-104925384D01*
X137871503Y-104925383D01*
X138021931Y-104801931D01*
X138145383Y-104651503D01*
X138145384Y-104651499D01*
X138145387Y-104651497D01*
X138237115Y-104479886D01*
X138237116Y-104479884D01*
X138237117Y-104479882D01*
X138293606Y-104293662D01*
X138312680Y-104100000D01*
X138293606Y-103906338D01*
X138237117Y-103720118D01*
X138237115Y-103720115D01*
X138237115Y-103720113D01*
X138145387Y-103548502D01*
X138145382Y-103548496D01*
X138021931Y-103398068D01*
X137871503Y-103274617D01*
X137871497Y-103274612D01*
X137699886Y-103182884D01*
X137513660Y-103126393D01*
X137320000Y-103107320D01*
X137126339Y-103126393D01*
X136940113Y-103182884D01*
X136768502Y-103274612D01*
X136768496Y-103274617D01*
X136618068Y-103398068D01*
X136494617Y-103548496D01*
X136494612Y-103548502D01*
X136402884Y-103720113D01*
X136346393Y-103906339D01*
X136327320Y-104100000D01*
X135772680Y-104100000D01*
X135753606Y-103906338D01*
X135697117Y-103720118D01*
X135697115Y-103720115D01*
X135697115Y-103720113D01*
X135605387Y-103548502D01*
X135605382Y-103548496D01*
X135481931Y-103398068D01*
X135331503Y-103274617D01*
X135331497Y-103274612D01*
X135159886Y-103182884D01*
X134973660Y-103126393D01*
X134780000Y-103107320D01*
X134586339Y-103126393D01*
X134400113Y-103182884D01*
X134228502Y-103274612D01*
X134228496Y-103274617D01*
X134078068Y-103398068D01*
X133954617Y-103548496D01*
X133954612Y-103548502D01*
X133862884Y-103720113D01*
X133806393Y-103906339D01*
X133787320Y-104100000D01*
X133806393Y-104293660D01*
X133838803Y-104400500D01*
X133862881Y-104479877D01*
X133862885Y-104479888D01*
X133864057Y-104482717D01*
X133864229Y-104484317D01*
X133864652Y-104485712D01*
X133864387Y-104485792D01*
X133871526Y-104552187D01*
X133840250Y-104614666D01*
X133837177Y-104617850D01*
X133142889Y-105312140D01*
X133086941Y-105368087D01*
X133086935Y-105368095D01*
X133047382Y-105436604D01*
X133047379Y-105436609D01*
X133026900Y-105513039D01*
X133026900Y-105745625D01*
X133007215Y-105812664D01*
X132954411Y-105858419D01*
X132885253Y-105868363D01*
X132824237Y-105841480D01*
X132791503Y-105814616D01*
X132791497Y-105814612D01*
X132619886Y-105722884D01*
X132433660Y-105666393D01*
X132240000Y-105647320D01*
X132046339Y-105666393D01*
X131860113Y-105722884D01*
X131688502Y-105814612D01*
X131688496Y-105814617D01*
X131538068Y-105938068D01*
X131414617Y-106088496D01*
X131414612Y-106088502D01*
X131322884Y-106260113D01*
X131266393Y-106446339D01*
X131247320Y-106640000D01*
X131266393Y-106833660D01*
X131322884Y-107019886D01*
X131414612Y-107191497D01*
X131414617Y-107191503D01*
X131538068Y-107341931D01*
X131688496Y-107465382D01*
X131688502Y-107465387D01*
X131860115Y-107557116D01*
X131862947Y-107558289D01*
X131864203Y-107559301D01*
X131865490Y-107559989D01*
X131865359Y-107560232D01*
X131917353Y-107602127D01*
X131939421Y-107668420D01*
X131939500Y-107672852D01*
X131939500Y-114654166D01*
X131919815Y-114721205D01*
X131903181Y-114741847D01*
X127521847Y-119123181D01*
X127460524Y-119156666D01*
X127434166Y-119159500D01*
X127338036Y-119159500D01*
X127199949Y-119200045D01*
X127078873Y-119277856D01*
X126984623Y-119386626D01*
X126984622Y-119386628D01*
X126924834Y-119517543D01*
X126904353Y-119660000D01*
X126924834Y-119802456D01*
X126984622Y-119933371D01*
X126984623Y-119933373D01*
X127078872Y-120042143D01*
X127199947Y-120119953D01*
X127199950Y-120119954D01*
X127199949Y-120119954D01*
X127338036Y-120160499D01*
X127338038Y-120160500D01*
X127338039Y-120160500D01*
X127481962Y-120160500D01*
X127481962Y-120160499D01*
X127620053Y-120119953D01*
X127741128Y-120042143D01*
X127835377Y-119933373D01*
X127895165Y-119802457D01*
X127915647Y-119660000D01*
X127914339Y-119650905D01*
X127924279Y-119581749D01*
X127949392Y-119545577D01*
X132480460Y-115014511D01*
X132520022Y-114945988D01*
X132540500Y-114869562D01*
X132540500Y-114790438D01*
X132540500Y-107672852D01*
X132560185Y-107605813D01*
X132612989Y-107560058D01*
X132617053Y-107558289D01*
X132619884Y-107557116D01*
X132791497Y-107465387D01*
X132791504Y-107465382D01*
X132824235Y-107438521D01*
X132888545Y-107411208D01*
X132957413Y-107422999D01*
X133008973Y-107470151D01*
X133026900Y-107534374D01*
X133026900Y-131546767D01*
X133007215Y-131613806D01*
X132990581Y-131634448D01*
X132011848Y-132613181D01*
X131950525Y-132646666D01*
X131924167Y-132649500D01*
X131848035Y-132649500D01*
X131779434Y-132669643D01*
X131709564Y-132669643D01*
X131650786Y-132631868D01*
X131621762Y-132568312D01*
X131620500Y-132550666D01*
X131620500Y-130035818D01*
X131620499Y-130035814D01*
X131610909Y-130000021D01*
X131600022Y-129959390D01*
X131560460Y-129890867D01*
X130672319Y-129002726D01*
X130638834Y-128941403D01*
X130636000Y-128915045D01*
X130636000Y-128283849D01*
X130635999Y-128283847D01*
X130624368Y-128225370D01*
X130624367Y-128225369D01*
X130580052Y-128159047D01*
X130513730Y-128114732D01*
X130513729Y-128114731D01*
X130455252Y-128103100D01*
X130455248Y-128103100D01*
X128764752Y-128103100D01*
X128764747Y-128103100D01*
X128706270Y-128114731D01*
X128706269Y-128114732D01*
X128639947Y-128159047D01*
X128595632Y-128225369D01*
X128595631Y-128225370D01*
X128584000Y-128283847D01*
X128584000Y-129805200D01*
X128564315Y-129872239D01*
X128511511Y-129917994D01*
X128460000Y-129929200D01*
X128187600Y-129929200D01*
X128187600Y-132570800D01*
X128460000Y-132570800D01*
X128527039Y-132590485D01*
X128572794Y-132643289D01*
X128584000Y-132694800D01*
X128584000Y-134216152D01*
X128595631Y-134274629D01*
X128595632Y-134274630D01*
X128639947Y-134340952D01*
X128706269Y-134385267D01*
X128706270Y-134385268D01*
X128764747Y-134396899D01*
X128764750Y-134396900D01*
X128764752Y-134396900D01*
X128885500Y-134396900D01*
X128952539Y-134416585D01*
X128998294Y-134469389D01*
X129009500Y-134520900D01*
X129009500Y-138251668D01*
X128989815Y-138318707D01*
X128973181Y-138339349D01*
X128722181Y-138590349D01*
X128660858Y-138623834D01*
X128591166Y-138618850D01*
X128535233Y-138576978D01*
X128510816Y-138511514D01*
X128510500Y-138502668D01*
X128510500Y-137569239D01*
X128502104Y-137511615D01*
X128500573Y-137501107D01*
X128449198Y-137396017D01*
X128449196Y-137396015D01*
X128449196Y-137396014D01*
X128366485Y-137313303D01*
X128320472Y-137290809D01*
X128277809Y-137269952D01*
X128261391Y-137261926D01*
X128193261Y-137252000D01*
X128193260Y-137252000D01*
X127826740Y-137252000D01*
X127826738Y-137252000D01*
X127822269Y-137252324D01*
X127822133Y-137250458D01*
X127760641Y-137241702D01*
X127707775Y-137196019D01*
X127688000Y-137129006D01*
X127688000Y-134143297D01*
X127707685Y-134076258D01*
X127760489Y-134030503D01*
X127777066Y-134024320D01*
X127860050Y-133999954D01*
X127860050Y-133999953D01*
X127860053Y-133999953D01*
X127981128Y-133922143D01*
X128075377Y-133813373D01*
X128135165Y-133682457D01*
X128155647Y-133540000D01*
X128135165Y-133397543D01*
X128075377Y-133266627D01*
X127981128Y-133157857D01*
X127860053Y-133080047D01*
X127860051Y-133080046D01*
X127860049Y-133080045D01*
X127860050Y-133080045D01*
X127721963Y-133039500D01*
X127721961Y-133039500D01*
X127578039Y-133039500D01*
X127578036Y-133039500D01*
X127439949Y-133080045D01*
X127318873Y-133157856D01*
X127224623Y-133266626D01*
X127224622Y-133266628D01*
X127164834Y-133397543D01*
X127144353Y-133540000D01*
X127144353Y-133540001D01*
X127147758Y-133563687D01*
X127137813Y-133632846D01*
X127132408Y-133643330D01*
X127107481Y-133686506D01*
X127107479Y-133686509D01*
X127087000Y-133762939D01*
X127087000Y-137364179D01*
X127067315Y-137431218D01*
X127014511Y-137476973D01*
X126945353Y-137486917D01*
X126897903Y-137469717D01*
X126796307Y-137407051D01*
X126796296Y-137407046D01*
X126632648Y-137352819D01*
X126531650Y-137342500D01*
X126494996Y-137342500D01*
X126494996Y-138456000D01*
X126475311Y-138523039D01*
X126422507Y-138568794D01*
X126370996Y-138580000D01*
X125269997Y-138580000D01*
X125269997Y-138629152D01*
X125275233Y-138680397D01*
X125262464Y-138749090D01*
X125214584Y-138799975D01*
X125151875Y-138817000D01*
X122719496Y-138817000D01*
X122652457Y-138797315D01*
X122606702Y-138744511D01*
X122595496Y-138693000D01*
X122595496Y-138030845D01*
X125269996Y-138030845D01*
X125269996Y-138080000D01*
X125994996Y-138080000D01*
X125994996Y-137342500D01*
X125958357Y-137342500D01*
X125958339Y-137342501D01*
X125857343Y-137352819D01*
X125693695Y-137407046D01*
X125693684Y-137407051D01*
X125546961Y-137497552D01*
X125546957Y-137497555D01*
X125425051Y-137619461D01*
X125425048Y-137619465D01*
X125334547Y-137766188D01*
X125334542Y-137766199D01*
X125280315Y-137929847D01*
X125269996Y-138030845D01*
X122595496Y-138030845D01*
X122595496Y-137722749D01*
X122595495Y-137722747D01*
X122583864Y-137664270D01*
X122583863Y-137664268D01*
X122581941Y-137661392D01*
X122579677Y-137654164D01*
X122579190Y-137652987D01*
X122579295Y-137652943D01*
X122561062Y-137594715D01*
X122579546Y-137527335D01*
X122581941Y-137523608D01*
X122583863Y-137520731D01*
X122583864Y-137520729D01*
X122595495Y-137462252D01*
X122595496Y-137462250D01*
X122595496Y-136422749D01*
X122595495Y-136422747D01*
X122583864Y-136364270D01*
X122583863Y-136364269D01*
X122539548Y-136297947D01*
X122473226Y-136253632D01*
X122473225Y-136253631D01*
X122414748Y-136242000D01*
X122414744Y-136242000D01*
X120875248Y-136242000D01*
X120875243Y-136242000D01*
X120816766Y-136253631D01*
X120816765Y-136253632D01*
X120750443Y-136297947D01*
X120706128Y-136364269D01*
X120706127Y-136364270D01*
X120694496Y-136422747D01*
X120694496Y-136518000D01*
X120674811Y-136585039D01*
X120622007Y-136630794D01*
X120570496Y-136642000D01*
X120294496Y-136642000D01*
X120227457Y-136622315D01*
X120181702Y-136569511D01*
X120170496Y-136518000D01*
X120170496Y-136377239D01*
X120167721Y-136347650D01*
X120134822Y-136253632D01*
X120124112Y-136223025D01*
X120087304Y-136173152D01*
X120045707Y-136116789D01*
X120045706Y-136116788D01*
X119939472Y-136038384D01*
X119814844Y-135994774D01*
X119814845Y-135994774D01*
X119785256Y-135992000D01*
X119785252Y-135992000D01*
X119204740Y-135992000D01*
X119204736Y-135992000D01*
X119175146Y-135994774D01*
X119050519Y-136038384D01*
X118944285Y-136116788D01*
X118944284Y-136116789D01*
X118865880Y-136223023D01*
X118822270Y-136347650D01*
X118819496Y-136377239D01*
X118819496Y-136706997D01*
X118799811Y-136774036D01*
X118747007Y-136819791D01*
X118677849Y-136829735D01*
X118614293Y-136800710D01*
X118596231Y-136781310D01*
X118580286Y-136760011D01*
X118580284Y-136760009D01*
X118465190Y-136673849D01*
X118465183Y-136673845D01*
X118330476Y-136623603D01*
X118330469Y-136623601D01*
X118270941Y-136617200D01*
X118199455Y-136617200D01*
X118132416Y-136597515D01*
X118086661Y-136544711D01*
X118076717Y-136475553D01*
X118105742Y-136411997D01*
X118130563Y-136390098D01*
X118131205Y-136389669D01*
X118168048Y-136365051D01*
X118212363Y-136298730D01*
X118212363Y-136298728D01*
X118212364Y-136298728D01*
X118223995Y-136240251D01*
X118223996Y-136240249D01*
X118223996Y-134600548D01*
X118223995Y-134600546D01*
X118212364Y-134542069D01*
X118207690Y-134530786D01*
X118211470Y-134529219D01*
X118197380Y-134484191D01*
X118215877Y-134416814D01*
X118267865Y-134370133D01*
X118321361Y-134358000D01*
X119330438Y-134358000D01*
X119457160Y-134358000D01*
X119536284Y-134358000D01*
X120991667Y-134358000D01*
X121058706Y-134377685D01*
X121079348Y-134394319D01*
X122858181Y-136173152D01*
X122891666Y-136234475D01*
X122894500Y-136260833D01*
X122894500Y-137278638D01*
X122895678Y-137300618D01*
X122898511Y-137326965D01*
X122898512Y-137326967D01*
X122922470Y-137403478D01*
X122922471Y-137403483D01*
X122926543Y-137410940D01*
X122955956Y-137464805D01*
X122955958Y-137464808D01*
X122955960Y-137464811D01*
X122990998Y-137511615D01*
X122991001Y-137511619D01*
X122991009Y-137511629D01*
X122991018Y-137511638D01*
X122998366Y-137518987D01*
X123014716Y-137533674D01*
X123014730Y-137533686D01*
X123014738Y-137533693D01*
X123023136Y-137540460D01*
X123035379Y-137550327D01*
X123106424Y-137587490D01*
X123173456Y-137607173D01*
X123173458Y-137607173D01*
X123173464Y-137607175D01*
X123231362Y-137615500D01*
X123231366Y-137615500D01*
X124615991Y-137615500D01*
X124616000Y-137615500D01*
X124659684Y-137610803D01*
X124688875Y-137604452D01*
X124711174Y-137599602D01*
X124711190Y-137599598D01*
X124711195Y-137599597D01*
X124721373Y-137597110D01*
X124802085Y-137554100D01*
X124854889Y-137508345D01*
X124872843Y-137490754D01*
X124917490Y-137410937D01*
X124937175Y-137343898D01*
X124945500Y-137286000D01*
X124945500Y-136171362D01*
X124944322Y-136149393D01*
X124941488Y-136123035D01*
X124917529Y-136046518D01*
X124884044Y-135985195D01*
X124850671Y-135940615D01*
X124849001Y-135938384D01*
X124848998Y-135938381D01*
X124848991Y-135938371D01*
X124821629Y-135911009D01*
X124821628Y-135911008D01*
X124821623Y-135911003D01*
X124805283Y-135896325D01*
X124805269Y-135896313D01*
X124784620Y-135879672D01*
X124713575Y-135842509D01*
X124646543Y-135822826D01*
X124636646Y-135821403D01*
X124588638Y-135814500D01*
X124588634Y-135814500D01*
X123400833Y-135814500D01*
X123333794Y-135794815D01*
X123313152Y-135778181D01*
X121352013Y-133817041D01*
X121348439Y-133814978D01*
X121348438Y-133814977D01*
X121283492Y-133777480D01*
X121283493Y-133777480D01*
X121274460Y-133775059D01*
X121207062Y-133757000D01*
X121207060Y-133757000D01*
X120234500Y-133757000D01*
X120167461Y-133737315D01*
X120121706Y-133684511D01*
X120110500Y-133633000D01*
X120110500Y-132185440D01*
X120110500Y-132185438D01*
X120090022Y-132109012D01*
X120050460Y-132040489D01*
X119741819Y-131731848D01*
X119708334Y-131670525D01*
X119705500Y-131644167D01*
X119705500Y-131142239D01*
X119702725Y-131112650D01*
X119672758Y-131027011D01*
X119659116Y-130988025D01*
X119651174Y-130977264D01*
X119580711Y-130881789D01*
X119580710Y-130881788D01*
X119474476Y-130803384D01*
X119474475Y-130803383D01*
X119413545Y-130782063D01*
X119356769Y-130741341D01*
X119331022Y-130676388D01*
X119330500Y-130665022D01*
X119330500Y-129052438D01*
X119350185Y-128985399D01*
X119402989Y-128939644D01*
X119472147Y-128929700D01*
X119521541Y-128948124D01*
X119539947Y-128959953D01*
X119539949Y-128959954D01*
X119678036Y-129000499D01*
X119678038Y-129000500D01*
X119678039Y-129000500D01*
X119821962Y-129000500D01*
X119821962Y-129000499D01*
X119932988Y-128967900D01*
X119960050Y-128959954D01*
X119960050Y-128959953D01*
X119960053Y-128959953D01*
X120081128Y-128882143D01*
X120175377Y-128773373D01*
X120235165Y-128642457D01*
X120255647Y-128500000D01*
X120254339Y-128490905D01*
X120264279Y-128421749D01*
X120289392Y-128385577D01*
X121150123Y-127524846D01*
X121211444Y-127491363D01*
X121281136Y-127496347D01*
X121331515Y-127531327D01*
X121359116Y-127563181D01*
X121418872Y-127632143D01*
X121539947Y-127709953D01*
X121539950Y-127709954D01*
X121539949Y-127709954D01*
X121678036Y-127750499D01*
X121678038Y-127750500D01*
X121678039Y-127750500D01*
X121821962Y-127750500D01*
X121821962Y-127750499D01*
X121960053Y-127709953D01*
X122081128Y-127632143D01*
X122175377Y-127523373D01*
X122235165Y-127392457D01*
X122255647Y-127250000D01*
X122254339Y-127240905D01*
X122264279Y-127171749D01*
X122289392Y-127135577D01*
X125947860Y-123477111D01*
X125987422Y-123408588D01*
X126007900Y-123332162D01*
X126007900Y-123253038D01*
X126000206Y-123224324D01*
X125994725Y-123203866D01*
X125990500Y-123171774D01*
X125990500Y-115739546D01*
X126010185Y-115672507D01*
X126062989Y-115626752D01*
X126127103Y-115616188D01*
X126213351Y-115624999D01*
X126812500Y-115624999D01*
X126911640Y-115624999D01*
X126911654Y-115624998D01*
X127012652Y-115614680D01*
X127176300Y-115560453D01*
X127176311Y-115560448D01*
X127323034Y-115469947D01*
X127323038Y-115469944D01*
X127444944Y-115348038D01*
X127444947Y-115348034D01*
X127535448Y-115201311D01*
X127535453Y-115201300D01*
X127589680Y-115037652D01*
X127599999Y-114936654D01*
X127600000Y-114936641D01*
X127600000Y-114900000D01*
X126812500Y-114900000D01*
X126812500Y-115624999D01*
X126213351Y-115624999D01*
X126312500Y-115624998D01*
X126312500Y-113661432D01*
X126295334Y-113629995D01*
X126294105Y-113618565D01*
X126792500Y-113618565D01*
X126809666Y-113650003D01*
X126812500Y-113676361D01*
X126812500Y-114400000D01*
X127599999Y-114400000D01*
X127599999Y-114363360D01*
X127599998Y-114363345D01*
X127589680Y-114262347D01*
X127535453Y-114098699D01*
X127535448Y-114098688D01*
X127444947Y-113951965D01*
X127444944Y-113951961D01*
X127323037Y-113830054D01*
X127176015Y-113739369D01*
X127129291Y-113687421D01*
X127118070Y-113618458D01*
X127145913Y-113554376D01*
X127176016Y-113528292D01*
X127303039Y-113449943D01*
X127424944Y-113328038D01*
X127424947Y-113328034D01*
X127515448Y-113181311D01*
X127515453Y-113181300D01*
X127569680Y-113017652D01*
X127579999Y-112916654D01*
X127580000Y-112916641D01*
X127580000Y-112880000D01*
X126792500Y-112880000D01*
X126792500Y-113618565D01*
X126294105Y-113618565D01*
X126292500Y-113603637D01*
X126292500Y-112380000D01*
X126792500Y-112380000D01*
X127579999Y-112380000D01*
X127579999Y-112343360D01*
X127579998Y-112343345D01*
X127569680Y-112242347D01*
X127515453Y-112078699D01*
X127515448Y-112078688D01*
X127424947Y-111931965D01*
X127424944Y-111931961D01*
X127303038Y-111810055D01*
X127303034Y-111810052D01*
X127156311Y-111719551D01*
X127156300Y-111719546D01*
X126992652Y-111665319D01*
X126891654Y-111655000D01*
X126792500Y-111655000D01*
X126792500Y-112380000D01*
X126292500Y-112380000D01*
X126292500Y-111654999D01*
X126193360Y-111655000D01*
X126193339Y-111655002D01*
X126127100Y-111661768D01*
X126058408Y-111648998D01*
X126007524Y-111601116D01*
X125990500Y-111538410D01*
X125990500Y-110556702D01*
X125994725Y-110524608D01*
X126007900Y-110475440D01*
X126007900Y-107075295D01*
X126027585Y-107008256D01*
X126080389Y-106962501D01*
X126149547Y-106952557D01*
X126213103Y-106981582D01*
X126241258Y-107016842D01*
X126334613Y-107191497D01*
X126334617Y-107191503D01*
X126458068Y-107341931D01*
X126608496Y-107465382D01*
X126608502Y-107465387D01*
X126780113Y-107557115D01*
X126780115Y-107557115D01*
X126780118Y-107557117D01*
X126966338Y-107613606D01*
X127160000Y-107632680D01*
X127353662Y-107613606D01*
X127539882Y-107557117D01*
X127582431Y-107534374D01*
X127711497Y-107465387D01*
X127711499Y-107465384D01*
X127711503Y-107465383D01*
X127861931Y-107341931D01*
X127985383Y-107191503D01*
X127985384Y-107191499D01*
X127985387Y-107191497D01*
X128077115Y-107019886D01*
X128077115Y-107019885D01*
X128077117Y-107019882D01*
X128133606Y-106833662D01*
X128152680Y-106640000D01*
X128707320Y-106640000D01*
X128726393Y-106833660D01*
X128782884Y-107019886D01*
X128874612Y-107191497D01*
X128874617Y-107191503D01*
X128998068Y-107341931D01*
X129148496Y-107465382D01*
X129148502Y-107465387D01*
X129320113Y-107557115D01*
X129320115Y-107557115D01*
X129320118Y-107557117D01*
X129506338Y-107613606D01*
X129700000Y-107632680D01*
X129893662Y-107613606D01*
X130079882Y-107557117D01*
X130122431Y-107534374D01*
X130251497Y-107465387D01*
X130251499Y-107465384D01*
X130251503Y-107465383D01*
X130401931Y-107341931D01*
X130525383Y-107191503D01*
X130525384Y-107191499D01*
X130525387Y-107191497D01*
X130617115Y-107019886D01*
X130617115Y-107019885D01*
X130617117Y-107019882D01*
X130673606Y-106833662D01*
X130692680Y-106640000D01*
X130673606Y-106446338D01*
X130617117Y-106260118D01*
X130617115Y-106260115D01*
X130617115Y-106260113D01*
X130525387Y-106088502D01*
X130525382Y-106088496D01*
X130401931Y-105938068D01*
X130251503Y-105814617D01*
X130251497Y-105814612D01*
X130079886Y-105722884D01*
X129893660Y-105666393D01*
X129700000Y-105647320D01*
X129506339Y-105666393D01*
X129320113Y-105722884D01*
X129148502Y-105814612D01*
X129148496Y-105814617D01*
X128998068Y-105938068D01*
X128874617Y-106088496D01*
X128874612Y-106088502D01*
X128782884Y-106260113D01*
X128726393Y-106446339D01*
X128707320Y-106640000D01*
X128152680Y-106640000D01*
X128133606Y-106446338D01*
X128077117Y-106260118D01*
X128077115Y-106260115D01*
X128077115Y-106260113D01*
X127985387Y-106088502D01*
X127985382Y-106088496D01*
X127861931Y-105938068D01*
X127711503Y-105814617D01*
X127711497Y-105814612D01*
X127539886Y-105722884D01*
X127353660Y-105666393D01*
X127160000Y-105647320D01*
X126966339Y-105666393D01*
X126780113Y-105722884D01*
X126608502Y-105814612D01*
X126608496Y-105814617D01*
X126458068Y-105938068D01*
X126334617Y-106088496D01*
X126334612Y-106088502D01*
X126241258Y-106263157D01*
X126192296Y-106313002D01*
X126124158Y-106328462D01*
X126058478Y-106304630D01*
X126016110Y-106249073D01*
X126007900Y-106204704D01*
X126007900Y-105147839D01*
X126003120Y-105129999D01*
X125987421Y-105071411D01*
X125969138Y-105039744D01*
X125947864Y-105002895D01*
X125947858Y-105002887D01*
X125562822Y-104617851D01*
X125529337Y-104556528D01*
X125534321Y-104486836D01*
X125535944Y-104482711D01*
X125537107Y-104479899D01*
X125537117Y-104479882D01*
X125593606Y-104293662D01*
X125612680Y-104100000D01*
X126167320Y-104100000D01*
X126186393Y-104293660D01*
X126242884Y-104479886D01*
X126334612Y-104651497D01*
X126334617Y-104651503D01*
X126458068Y-104801931D01*
X126608496Y-104925382D01*
X126608502Y-104925387D01*
X126780113Y-105017115D01*
X126780115Y-105017115D01*
X126780118Y-105017117D01*
X126966338Y-105073606D01*
X127160000Y-105092680D01*
X127353662Y-105073606D01*
X127539882Y-105017117D01*
X127550267Y-105011566D01*
X127711497Y-104925387D01*
X127711499Y-104925384D01*
X127711503Y-104925383D01*
X127861931Y-104801931D01*
X127985383Y-104651503D01*
X127985384Y-104651499D01*
X127985387Y-104651497D01*
X128077115Y-104479886D01*
X128077116Y-104479884D01*
X128077117Y-104479882D01*
X128133606Y-104293662D01*
X128152680Y-104100000D01*
X128707320Y-104100000D01*
X128726393Y-104293660D01*
X128782884Y-104479886D01*
X128874612Y-104651497D01*
X128874617Y-104651503D01*
X128998068Y-104801931D01*
X129148496Y-104925382D01*
X129148502Y-104925387D01*
X129320113Y-105017115D01*
X129320115Y-105017115D01*
X129320118Y-105017117D01*
X129506338Y-105073606D01*
X129700000Y-105092680D01*
X129893662Y-105073606D01*
X130079882Y-105017117D01*
X130090267Y-105011566D01*
X130251497Y-104925387D01*
X130251499Y-104925384D01*
X130251503Y-104925383D01*
X130401931Y-104801931D01*
X130525383Y-104651503D01*
X130525384Y-104651499D01*
X130525387Y-104651497D01*
X130617115Y-104479886D01*
X130617116Y-104479884D01*
X130617117Y-104479882D01*
X130673606Y-104293662D01*
X130692680Y-104100000D01*
X131247320Y-104100000D01*
X131266393Y-104293660D01*
X131322884Y-104479886D01*
X131414612Y-104651497D01*
X131414617Y-104651503D01*
X131538068Y-104801931D01*
X131688496Y-104925382D01*
X131688502Y-104925387D01*
X131860113Y-105017115D01*
X131860115Y-105017115D01*
X131860118Y-105017117D01*
X132046338Y-105073606D01*
X132240000Y-105092680D01*
X132433662Y-105073606D01*
X132619882Y-105017117D01*
X132630267Y-105011566D01*
X132791497Y-104925387D01*
X132791499Y-104925384D01*
X132791503Y-104925383D01*
X132941931Y-104801931D01*
X133065383Y-104651503D01*
X133065384Y-104651499D01*
X133065387Y-104651497D01*
X133157115Y-104479886D01*
X133157116Y-104479884D01*
X133157117Y-104479882D01*
X133213606Y-104293662D01*
X133232680Y-104100000D01*
X133213606Y-103906338D01*
X133157117Y-103720118D01*
X133157115Y-103720115D01*
X133157115Y-103720113D01*
X133065387Y-103548502D01*
X133065382Y-103548496D01*
X132941931Y-103398068D01*
X132791503Y-103274617D01*
X132791497Y-103274612D01*
X132619886Y-103182884D01*
X132433660Y-103126393D01*
X132240000Y-103107320D01*
X132046339Y-103126393D01*
X131860113Y-103182884D01*
X131688502Y-103274612D01*
X131688496Y-103274617D01*
X131538068Y-103398068D01*
X131414617Y-103548496D01*
X131414612Y-103548502D01*
X131322884Y-103720113D01*
X131266393Y-103906339D01*
X131247320Y-104100000D01*
X130692680Y-104100000D01*
X130673606Y-103906338D01*
X130617117Y-103720118D01*
X130617115Y-103720115D01*
X130617115Y-103720113D01*
X130525387Y-103548502D01*
X130525382Y-103548496D01*
X130401931Y-103398068D01*
X130251503Y-103274617D01*
X130251497Y-103274612D01*
X130079886Y-103182884D01*
X129893660Y-103126393D01*
X129700000Y-103107320D01*
X129506339Y-103126393D01*
X129320113Y-103182884D01*
X129148502Y-103274612D01*
X129148496Y-103274617D01*
X128998068Y-103398068D01*
X128874617Y-103548496D01*
X128874612Y-103548502D01*
X128782884Y-103720113D01*
X128726393Y-103906339D01*
X128707320Y-104100000D01*
X128152680Y-104100000D01*
X128133606Y-103906338D01*
X128077117Y-103720118D01*
X128077115Y-103720115D01*
X128077115Y-103720113D01*
X127985387Y-103548502D01*
X127985382Y-103548496D01*
X127861931Y-103398068D01*
X127711503Y-103274617D01*
X127711497Y-103274612D01*
X127539886Y-103182884D01*
X127353660Y-103126393D01*
X127160000Y-103107320D01*
X126966339Y-103126393D01*
X126780113Y-103182884D01*
X126608502Y-103274612D01*
X126608496Y-103274617D01*
X126458068Y-103398068D01*
X126334617Y-103548496D01*
X126334612Y-103548502D01*
X126242884Y-103720113D01*
X126186393Y-103906339D01*
X126167320Y-104100000D01*
X125612680Y-104100000D01*
X125593606Y-103906338D01*
X125537117Y-103720118D01*
X125537115Y-103720115D01*
X125537115Y-103720113D01*
X125445387Y-103548502D01*
X125445382Y-103548496D01*
X125321931Y-103398068D01*
X125171503Y-103274617D01*
X125171497Y-103274612D01*
X124999886Y-103182884D01*
X124813660Y-103126393D01*
X124620000Y-103107320D01*
X124426339Y-103126393D01*
X124240113Y-103182884D01*
X124068502Y-103274612D01*
X124068496Y-103274617D01*
X123918068Y-103398068D01*
X123794617Y-103548496D01*
X123794612Y-103548502D01*
X123702884Y-103720113D01*
X123646393Y-103906339D01*
X123627320Y-104100000D01*
X123646393Y-104293660D01*
X123702884Y-104479886D01*
X123794612Y-104651497D01*
X123794617Y-104651503D01*
X123918068Y-104801931D01*
X124068496Y-104925382D01*
X124068502Y-104925387D01*
X124240113Y-105017115D01*
X124240115Y-105017115D01*
X124240118Y-105017117D01*
X124426338Y-105073606D01*
X124620000Y-105092680D01*
X124813662Y-105073606D01*
X124999882Y-105017117D01*
X124999899Y-105017107D01*
X125002711Y-105015944D01*
X125004316Y-105015771D01*
X125005712Y-105015348D01*
X125005792Y-105015612D01*
X125072180Y-105008472D01*
X125134661Y-105039744D01*
X125137851Y-105042822D01*
X125370581Y-105275552D01*
X125404066Y-105336875D01*
X125406900Y-105363233D01*
X125406900Y-105745625D01*
X125387215Y-105812664D01*
X125334411Y-105858419D01*
X125265253Y-105868363D01*
X125204237Y-105841480D01*
X125171503Y-105814616D01*
X125171497Y-105814612D01*
X124999886Y-105722884D01*
X124813660Y-105666393D01*
X124620000Y-105647320D01*
X124426339Y-105666393D01*
X124240113Y-105722884D01*
X124068502Y-105814612D01*
X124068496Y-105814617D01*
X123918068Y-105938068D01*
X123794617Y-106088496D01*
X123794612Y-106088502D01*
X123702884Y-106260113D01*
X123646393Y-106446339D01*
X123627320Y-106640000D01*
X123646393Y-106833660D01*
X123702884Y-107019886D01*
X123794612Y-107191497D01*
X123794617Y-107191503D01*
X123918068Y-107341931D01*
X124068496Y-107465382D01*
X124068502Y-107465387D01*
X124240115Y-107557116D01*
X124242947Y-107558289D01*
X124244203Y-107559301D01*
X124245490Y-107559989D01*
X124245359Y-107560232D01*
X124297353Y-107602127D01*
X124319421Y-107668420D01*
X124319500Y-107672852D01*
X124319500Y-109366666D01*
X124299815Y-109433705D01*
X124283181Y-109454347D01*
X122900195Y-110837333D01*
X122838872Y-110870818D01*
X122769180Y-110865834D01*
X122725093Y-110837500D01*
X120775001Y-110837500D01*
X120775001Y-110886654D01*
X120785319Y-110987652D01*
X120839546Y-111151300D01*
X120839551Y-111151311D01*
X120930052Y-111298034D01*
X120930055Y-111298038D01*
X121051961Y-111419944D01*
X121051965Y-111419947D01*
X121198688Y-111510448D01*
X121198701Y-111510454D01*
X121291205Y-111541106D01*
X121348650Y-111580878D01*
X121375474Y-111645393D01*
X121363160Y-111714169D01*
X121315617Y-111765370D01*
X121310150Y-111768439D01*
X121305523Y-111770884D01*
X121199289Y-111849288D01*
X121199288Y-111849289D01*
X121120884Y-111955523D01*
X121077274Y-112080151D01*
X121074865Y-112105845D01*
X121049008Y-112170754D01*
X120992162Y-112211379D01*
X120922378Y-112214822D01*
X120861809Y-112179990D01*
X120829688Y-112117942D01*
X120828669Y-112111914D01*
X120825165Y-112087543D01*
X120807505Y-112048874D01*
X120765377Y-111956627D01*
X120671128Y-111847857D01*
X120550053Y-111770047D01*
X120550051Y-111770046D01*
X120550049Y-111770045D01*
X120550050Y-111770045D01*
X120411963Y-111729500D01*
X120411961Y-111729500D01*
X120268039Y-111729500D01*
X120268036Y-111729500D01*
X120129949Y-111770045D01*
X120031539Y-111833289D01*
X119964499Y-111852973D01*
X119897460Y-111833288D01*
X119851705Y-111780484D01*
X119840500Y-111728973D01*
X119840500Y-110288345D01*
X120775000Y-110288345D01*
X120775000Y-110337500D01*
X121500000Y-110337500D01*
X122000000Y-110337500D01*
X122724999Y-110337500D01*
X122724999Y-110288360D01*
X122724998Y-110288345D01*
X122714680Y-110187347D01*
X122660453Y-110023699D01*
X122660448Y-110023688D01*
X122569947Y-109876965D01*
X122569944Y-109876961D01*
X122448038Y-109755055D01*
X122448034Y-109755052D01*
X122301311Y-109664551D01*
X122301300Y-109664546D01*
X122137652Y-109610319D01*
X122036654Y-109600000D01*
X122000000Y-109600000D01*
X122000000Y-110337500D01*
X121500000Y-110337500D01*
X121500000Y-109600000D01*
X121463361Y-109600000D01*
X121463343Y-109600001D01*
X121362347Y-109610319D01*
X121198699Y-109664546D01*
X121198688Y-109664551D01*
X121051965Y-109755052D01*
X121051961Y-109755055D01*
X120930055Y-109876961D01*
X120930052Y-109876965D01*
X120839551Y-110023688D01*
X120839546Y-110023699D01*
X120785319Y-110187347D01*
X120775000Y-110288345D01*
X119840500Y-110288345D01*
X119840500Y-107672852D01*
X119860185Y-107605813D01*
X119912989Y-107560058D01*
X119917053Y-107558289D01*
X119919884Y-107557116D01*
X120091497Y-107465387D01*
X120091499Y-107465384D01*
X120091503Y-107465383D01*
X120241931Y-107341931D01*
X120365383Y-107191503D01*
X120365384Y-107191499D01*
X120365387Y-107191497D01*
X120457115Y-107019886D01*
X120457115Y-107019885D01*
X120457117Y-107019882D01*
X120513606Y-106833662D01*
X120532680Y-106640000D01*
X121087320Y-106640000D01*
X121106393Y-106833660D01*
X121162884Y-107019886D01*
X121254612Y-107191497D01*
X121254617Y-107191503D01*
X121378068Y-107341931D01*
X121528496Y-107465382D01*
X121528502Y-107465387D01*
X121700113Y-107557115D01*
X121700115Y-107557115D01*
X121700118Y-107557117D01*
X121886338Y-107613606D01*
X122080000Y-107632680D01*
X122273662Y-107613606D01*
X122459882Y-107557117D01*
X122502431Y-107534374D01*
X122631497Y-107465387D01*
X122631499Y-107465384D01*
X122631503Y-107465383D01*
X122781931Y-107341931D01*
X122905383Y-107191503D01*
X122905384Y-107191499D01*
X122905387Y-107191497D01*
X122997115Y-107019886D01*
X122997115Y-107019885D01*
X122997117Y-107019882D01*
X123053606Y-106833662D01*
X123072680Y-106640000D01*
X123053606Y-106446338D01*
X122997117Y-106260118D01*
X122997115Y-106260115D01*
X122997115Y-106260113D01*
X122905387Y-106088502D01*
X122905382Y-106088496D01*
X122781931Y-105938068D01*
X122631503Y-105814617D01*
X122631497Y-105814612D01*
X122459886Y-105722884D01*
X122273660Y-105666393D01*
X122080000Y-105647320D01*
X121886339Y-105666393D01*
X121700113Y-105722884D01*
X121528502Y-105814612D01*
X121528496Y-105814617D01*
X121378068Y-105938068D01*
X121254617Y-106088496D01*
X121254612Y-106088502D01*
X121162884Y-106260113D01*
X121106393Y-106446339D01*
X121087320Y-106640000D01*
X120532680Y-106640000D01*
X120513606Y-106446338D01*
X120457117Y-106260118D01*
X120457116Y-106260116D01*
X120455940Y-106257277D01*
X120455767Y-106255670D01*
X120455348Y-106254288D01*
X120455610Y-106254208D01*
X120448474Y-106187807D01*
X120479751Y-106125329D01*
X120482792Y-106122177D01*
X121233060Y-105371911D01*
X121272622Y-105303388D01*
X121293100Y-105226962D01*
X121293100Y-105147838D01*
X121293100Y-104994374D01*
X121312785Y-104927335D01*
X121365589Y-104881580D01*
X121434747Y-104871636D01*
X121495765Y-104898521D01*
X121528495Y-104925382D01*
X121528502Y-104925387D01*
X121700113Y-105017115D01*
X121700115Y-105017115D01*
X121700118Y-105017117D01*
X121886338Y-105073606D01*
X122080000Y-105092680D01*
X122273662Y-105073606D01*
X122459882Y-105017117D01*
X122470267Y-105011566D01*
X122631497Y-104925387D01*
X122631499Y-104925384D01*
X122631503Y-104925383D01*
X122781931Y-104801931D01*
X122905383Y-104651503D01*
X122905384Y-104651499D01*
X122905387Y-104651497D01*
X122997115Y-104479886D01*
X122997116Y-104479884D01*
X122997117Y-104479882D01*
X123053606Y-104293662D01*
X123072680Y-104100000D01*
X123053606Y-103906338D01*
X122997117Y-103720118D01*
X122997115Y-103720115D01*
X122997115Y-103720113D01*
X122905387Y-103548502D01*
X122905382Y-103548496D01*
X122781931Y-103398068D01*
X122631503Y-103274617D01*
X122631497Y-103274612D01*
X122459886Y-103182884D01*
X122273660Y-103126393D01*
X122080000Y-103107320D01*
X121886339Y-103126393D01*
X121700113Y-103182884D01*
X121528502Y-103274612D01*
X121528496Y-103274616D01*
X121495763Y-103301480D01*
X121431453Y-103328792D01*
X121362585Y-103316999D01*
X121311026Y-103269846D01*
X121293100Y-103205625D01*
X121293100Y-102953233D01*
X121312785Y-102886194D01*
X121329419Y-102865552D01*
X122258152Y-101936819D01*
X122319475Y-101903334D01*
X122345833Y-101900500D01*
X138394167Y-101900500D01*
X138461206Y-101920185D01*
X138481848Y-101936819D01*
X139597408Y-103052379D01*
X139630893Y-103113702D01*
X139627658Y-103178377D01*
X139584327Y-103311739D01*
X139584327Y-103311740D01*
X139584326Y-103311744D01*
X139564540Y-103500000D01*
X139584326Y-103688256D01*
X139584327Y-103688259D01*
X139642818Y-103868277D01*
X139642821Y-103868284D01*
X139737467Y-104032216D01*
X139811993Y-104114985D01*
X139864129Y-104172888D01*
X140017265Y-104284148D01*
X140017270Y-104284151D01*
X140190192Y-104361142D01*
X140190197Y-104361144D01*
X140375354Y-104400500D01*
X140375355Y-104400500D01*
X140564644Y-104400500D01*
X140564646Y-104400500D01*
X140749803Y-104361144D01*
X140922730Y-104284151D01*
X141075871Y-104172888D01*
X141202533Y-104032216D01*
X141297179Y-103868284D01*
X141355674Y-103688256D01*
X141375460Y-103500000D01*
X141355674Y-103311744D01*
X141297179Y-103131716D01*
X141202533Y-102967784D01*
X141075871Y-102827112D01*
X141046747Y-102805952D01*
X140922734Y-102715851D01*
X140922729Y-102715848D01*
X140749807Y-102638857D01*
X140749802Y-102638855D01*
X140604001Y-102607865D01*
X140564646Y-102599500D01*
X140375354Y-102599500D01*
X140335999Y-102607865D01*
X140190198Y-102638855D01*
X140190193Y-102638857D01*
X140159850Y-102652366D01*
X140090600Y-102661649D01*
X140027324Y-102632018D01*
X140021737Y-102626766D01*
X138754512Y-101359541D01*
X138754507Y-101359537D01*
X138725909Y-101343027D01*
X138715044Y-101336754D01*
X138715042Y-101336752D01*
X138715042Y-101336753D01*
X138715040Y-101336752D01*
X138705842Y-101331441D01*
X138685990Y-101319979D01*
X138685991Y-101319979D01*
X138647775Y-101309739D01*
X138609562Y-101299500D01*
X122130438Y-101299500D01*
X122092224Y-101309739D01*
X122054009Y-101319979D01*
X122034158Y-101331441D01*
X122024956Y-101336754D01*
X122014091Y-101343027D01*
X121985489Y-101359539D01*
X120752141Y-102592887D01*
X120752135Y-102592895D01*
X120712582Y-102661404D01*
X120712579Y-102661409D01*
X120692100Y-102737839D01*
X120692100Y-103664704D01*
X120672415Y-103731743D01*
X120619611Y-103777498D01*
X120550453Y-103787442D01*
X120486897Y-103758417D01*
X120458742Y-103723157D01*
X120365387Y-103548502D01*
X120365382Y-103548496D01*
X120241931Y-103398068D01*
X120091503Y-103274617D01*
X120091497Y-103274612D01*
X119919886Y-103182884D01*
X119733660Y-103126393D01*
X119540000Y-103107320D01*
X119346339Y-103126393D01*
X119160113Y-103182884D01*
X118988502Y-103274612D01*
X118988496Y-103274617D01*
X118838068Y-103398068D01*
X118714617Y-103548496D01*
X118714612Y-103548502D01*
X118622884Y-103720113D01*
X118566393Y-103906339D01*
X118547320Y-104100000D01*
X118566393Y-104293660D01*
X118598803Y-104400500D01*
X118622881Y-104479877D01*
X118622885Y-104479888D01*
X118624057Y-104482717D01*
X118624229Y-104484317D01*
X118624652Y-104485712D01*
X118624387Y-104485792D01*
X118631526Y-104552187D01*
X118600250Y-104614666D01*
X118597177Y-104617850D01*
X117902889Y-105312140D01*
X117846941Y-105368087D01*
X117846935Y-105368095D01*
X117807382Y-105436604D01*
X117804270Y-105444118D01*
X117802812Y-105443514D01*
X117771283Y-105495225D01*
X117708432Y-105525745D01*
X117639057Y-105517440D01*
X117635482Y-105515841D01*
X117442000Y-105425619D01*
X117441991Y-105425615D01*
X117224414Y-105367316D01*
X117224403Y-105367314D01*
X117000002Y-105347682D01*
X116999998Y-105347682D01*
X116775596Y-105367314D01*
X116775585Y-105367316D01*
X116558008Y-105425615D01*
X116557999Y-105425618D01*
X116353838Y-105520821D01*
X116283573Y-105570019D01*
X116283573Y-105570020D01*
X116843319Y-106129766D01*
X116794115Y-106142950D01*
X116672485Y-106213174D01*
X116573174Y-106312485D01*
X116502950Y-106434115D01*
X116489765Y-106483319D01*
X115930019Y-105923573D01*
X115880821Y-105993838D01*
X115785618Y-106197999D01*
X115785615Y-106198008D01*
X115727316Y-106415585D01*
X115727314Y-106415596D01*
X115707682Y-106639998D01*
X115707682Y-106640001D01*
X115727314Y-106864403D01*
X115727316Y-106864414D01*
X115785615Y-107081991D01*
X115785618Y-107082000D01*
X115880819Y-107286157D01*
X115880820Y-107286159D01*
X115930020Y-107356424D01*
X115930021Y-107356425D01*
X116489765Y-106796680D01*
X116502950Y-106845885D01*
X116573174Y-106967515D01*
X116672485Y-107066826D01*
X116794115Y-107137050D01*
X116843317Y-107150233D01*
X116283573Y-107709978D01*
X116353840Y-107759179D01*
X116353842Y-107759180D01*
X116557999Y-107854381D01*
X116558008Y-107854384D01*
X116775585Y-107912683D01*
X116775596Y-107912685D01*
X116999998Y-107932318D01*
X117000002Y-107932318D01*
X117224403Y-107912685D01*
X117224414Y-107912683D01*
X117441991Y-107854384D01*
X117442000Y-107854381D01*
X117610495Y-107775810D01*
X117679572Y-107765318D01*
X117743356Y-107793837D01*
X117781596Y-107852314D01*
X117786900Y-107888192D01*
X117786900Y-110186962D01*
X117807379Y-110263389D01*
X117840000Y-110319890D01*
X117840003Y-110319895D01*
X117846940Y-110331911D01*
X117846941Y-110331913D01*
X118793181Y-111278152D01*
X118826666Y-111339475D01*
X118829500Y-111365833D01*
X118829500Y-114574167D01*
X118809815Y-114641206D01*
X118793181Y-114661848D01*
X117846941Y-115608087D01*
X117846935Y-115608095D01*
X117807382Y-115676604D01*
X117807379Y-115676609D01*
X117786900Y-115753039D01*
X117786900Y-121536260D01*
X117767215Y-121603299D01*
X117756613Y-121617462D01*
X117662025Y-121726622D01*
X117662022Y-121726628D01*
X117602234Y-121857543D01*
X117581753Y-122000000D01*
X117602234Y-122142456D01*
X117662022Y-122273371D01*
X117662023Y-122273373D01*
X117756272Y-122382143D01*
X117877347Y-122459953D01*
X117877350Y-122459954D01*
X117877349Y-122459954D01*
X117984507Y-122491417D01*
X118013579Y-122499954D01*
X118015436Y-122500499D01*
X118015438Y-122500500D01*
X118111567Y-122500500D01*
X118178606Y-122520185D01*
X118199248Y-122536819D01*
X118435248Y-122772819D01*
X118468733Y-122834142D01*
X118463749Y-122903834D01*
X118421877Y-122959767D01*
X118356413Y-122984184D01*
X118347567Y-122984500D01*
X117848991Y-122984500D01*
X117805316Y-122989196D01*
X117768127Y-122997287D01*
X117753804Y-123000403D01*
X117753792Y-123000405D01*
X117753787Y-123000407D01*
X117743628Y-123002889D01*
X117743626Y-123002890D01*
X117662916Y-123045898D01*
X117617073Y-123085621D01*
X117616987Y-123085694D01*
X117610114Y-123091650D01*
X117610113Y-123091650D01*
X117592155Y-123109247D01*
X117579325Y-123132183D01*
X117569617Y-123146956D01*
X117556758Y-123163776D01*
X117555388Y-123162728D01*
X117519712Y-123203057D01*
X117452474Y-123222052D01*
X117385640Y-123201681D01*
X117366066Y-123185740D01*
X117299863Y-123119537D01*
X117299861Y-123119535D01*
X117225638Y-123076682D01*
X117142853Y-123054500D01*
X117057147Y-123054500D01*
X117057144Y-123054500D01*
X117056587Y-123054650D01*
X117056098Y-123054638D01*
X117049091Y-123055561D01*
X117048947Y-123054467D01*
X116986737Y-123052983D01*
X116928877Y-123013816D01*
X116901377Y-122949586D01*
X116900501Y-122934873D01*
X116900501Y-119330440D01*
X116894450Y-119307857D01*
X116880022Y-119254012D01*
X116860614Y-119220396D01*
X116840465Y-119185496D01*
X116840459Y-119185488D01*
X116224512Y-118569541D01*
X116224504Y-118569535D01*
X116155995Y-118529982D01*
X116155990Y-118529979D01*
X116130513Y-118523152D01*
X116079562Y-118509500D01*
X116079560Y-118509500D01*
X114316080Y-118509500D01*
X114249041Y-118489815D01*
X114203286Y-118437011D01*
X114193342Y-118367853D01*
X114222367Y-118304297D01*
X114237415Y-118289647D01*
X114271760Y-118261460D01*
X114390451Y-118116834D01*
X114390452Y-118116830D01*
X114390455Y-118116828D01*
X114478644Y-117951837D01*
X114478647Y-117951832D01*
X114532958Y-117772793D01*
X114551296Y-117586600D01*
X114532958Y-117400407D01*
X114478647Y-117221368D01*
X114478644Y-117221362D01*
X114390455Y-117056371D01*
X114390449Y-117056364D01*
X114271760Y-116911739D01*
X114127135Y-116793050D01*
X114127128Y-116793044D01*
X113962137Y-116704855D01*
X113962134Y-116704854D01*
X113962132Y-116704853D01*
X113783093Y-116650542D01*
X113783090Y-116650541D01*
X113596900Y-116632204D01*
X113410709Y-116650541D01*
X113287859Y-116687807D01*
X113231668Y-116704853D01*
X113231667Y-116704853D01*
X113231662Y-116704855D01*
X113066671Y-116793044D01*
X113066664Y-116793050D01*
X112922039Y-116911739D01*
X112803350Y-117056364D01*
X112803344Y-117056371D01*
X112715155Y-117221362D01*
X112660841Y-117400409D01*
X112642504Y-117586600D01*
X112660841Y-117772790D01*
X112715155Y-117951837D01*
X112803344Y-118116828D01*
X112803350Y-118116835D01*
X112922039Y-118261460D01*
X112974237Y-118304297D01*
X113066666Y-118380151D01*
X113066669Y-118380152D01*
X113066671Y-118380154D01*
X113143696Y-118421324D01*
X113230853Y-118467911D01*
X113280697Y-118516873D01*
X113296400Y-118577269D01*
X113296400Y-118686462D01*
X113310052Y-118737413D01*
X113316879Y-118762890D01*
X113316882Y-118762895D01*
X113356435Y-118831404D01*
X113356441Y-118831412D01*
X113467638Y-118942609D01*
X113501123Y-119003932D01*
X113496139Y-119073624D01*
X113454267Y-119129557D01*
X113415953Y-119148951D01*
X113410708Y-119150541D01*
X113410707Y-119150542D01*
X113231668Y-119204853D01*
X113231667Y-119204853D01*
X113231662Y-119204855D01*
X113066671Y-119293044D01*
X113066664Y-119293050D01*
X112922039Y-119411739D01*
X112803350Y-119556364D01*
X112803344Y-119556371D01*
X112715155Y-119721362D01*
X112660841Y-119900409D01*
X112642504Y-120086600D01*
X112660841Y-120272790D01*
X112660842Y-120272793D01*
X112714884Y-120450946D01*
X112715155Y-120451837D01*
X112803344Y-120616828D01*
X112803350Y-120616835D01*
X112922039Y-120761460D01*
X113066664Y-120880149D01*
X113066671Y-120880155D01*
X113231002Y-120967991D01*
X113231668Y-120968347D01*
X113410707Y-121022658D01*
X113596900Y-121040996D01*
X113783093Y-121022658D01*
X113961248Y-120968614D01*
X114031113Y-120967991D01*
X114084923Y-120999594D01*
X115263181Y-122177852D01*
X115296666Y-122239175D01*
X115299500Y-122265533D01*
X115299500Y-122934874D01*
X115279815Y-123001913D01*
X115227011Y-123047668D01*
X115157853Y-123057612D01*
X115143412Y-123054650D01*
X115142855Y-123054500D01*
X115142851Y-123054500D01*
X115057145Y-123054500D01*
X114974359Y-123076682D01*
X114933731Y-123100139D01*
X114900137Y-123119535D01*
X114900135Y-123119536D01*
X114893099Y-123123599D01*
X114892082Y-123121837D01*
X114837094Y-123143092D01*
X114768650Y-123129049D01*
X114718663Y-123080231D01*
X114705356Y-123044638D01*
X114702127Y-123029028D01*
X114659117Y-122948316D01*
X114613362Y-122895512D01*
X114613356Y-122895505D01*
X114595774Y-122877561D01*
X114595773Y-122877560D01*
X114595771Y-122877558D01*
X114595769Y-122877557D01*
X114595767Y-122877555D01*
X114515957Y-122832912D01*
X114515952Y-122832910D01*
X114448920Y-122813227D01*
X114448916Y-122813226D01*
X114448915Y-122813226D01*
X114391017Y-122804901D01*
X112894500Y-122804901D01*
X112894492Y-122804901D01*
X112850813Y-122809598D01*
X112799325Y-122820798D01*
X112789127Y-122823291D01*
X112789124Y-122823292D01*
X112708416Y-122866300D01*
X112708413Y-122866302D01*
X112655604Y-122912061D01*
X112637660Y-122929643D01*
X112637654Y-122929650D01*
X112593011Y-123009460D01*
X112593009Y-123009465D01*
X112573326Y-123076497D01*
X112573325Y-123076502D01*
X112573325Y-123076503D01*
X112566554Y-123123599D01*
X112565000Y-123134404D01*
X112565000Y-124737501D01*
X112565216Y-124746951D01*
X112565738Y-124758317D01*
X112579982Y-124824612D01*
X112605727Y-124889562D01*
X112616407Y-124912328D01*
X112676995Y-124980827D01*
X112679098Y-124982726D01*
X112680060Y-124984292D01*
X112681612Y-124986047D01*
X112681304Y-124986318D01*
X112715665Y-125042263D01*
X112720000Y-125074763D01*
X112720000Y-125693500D01*
X112700315Y-125760539D01*
X112647511Y-125806294D01*
X112596000Y-125817500D01*
X112384500Y-125817500D01*
X112317461Y-125797815D01*
X112271706Y-125745011D01*
X112260500Y-125693500D01*
X112260500Y-112878711D01*
X113449500Y-112878711D01*
X113449500Y-113121288D01*
X113481161Y-113361785D01*
X113543947Y-113596104D01*
X113622085Y-113784744D01*
X113636776Y-113820212D01*
X113758064Y-114030289D01*
X113758066Y-114030292D01*
X113758067Y-114030293D01*
X113905733Y-114222736D01*
X113905739Y-114222743D01*
X114077256Y-114394260D01*
X114077262Y-114394265D01*
X114269711Y-114541936D01*
X114479788Y-114663224D01*
X114703900Y-114756054D01*
X114938211Y-114818838D01*
X115118586Y-114842584D01*
X115178711Y-114850500D01*
X115178712Y-114850500D01*
X115421289Y-114850500D01*
X115469388Y-114844167D01*
X115661789Y-114818838D01*
X115896100Y-114756054D01*
X116120212Y-114663224D01*
X116330289Y-114541936D01*
X116522738Y-114394265D01*
X116694265Y-114222738D01*
X116841936Y-114030289D01*
X116963224Y-113820212D01*
X117056054Y-113596100D01*
X117118838Y-113361789D01*
X117150500Y-113121288D01*
X117150500Y-112878712D01*
X117118838Y-112638211D01*
X117056054Y-112403900D01*
X116963224Y-112179788D01*
X116841936Y-111969711D01*
X116719426Y-111810052D01*
X116694266Y-111777263D01*
X116694260Y-111777256D01*
X116522743Y-111605739D01*
X116522736Y-111605733D01*
X116330293Y-111458067D01*
X116330292Y-111458066D01*
X116330289Y-111458064D01*
X116120212Y-111336776D01*
X116066363Y-111314471D01*
X115896104Y-111243947D01*
X115661785Y-111181161D01*
X115421289Y-111149500D01*
X115421288Y-111149500D01*
X115178712Y-111149500D01*
X115178711Y-111149500D01*
X114938214Y-111181161D01*
X114703895Y-111243947D01*
X114479794Y-111336773D01*
X114479785Y-111336777D01*
X114269706Y-111458067D01*
X114077263Y-111605733D01*
X114077256Y-111605739D01*
X113905739Y-111777256D01*
X113905733Y-111777263D01*
X113758067Y-111969706D01*
X113758064Y-111969710D01*
X113758064Y-111969711D01*
X113752248Y-111979785D01*
X113636777Y-112179785D01*
X113636773Y-112179794D01*
X113543947Y-112403895D01*
X113481161Y-112638214D01*
X113449500Y-112878711D01*
X112260500Y-112878711D01*
X112260500Y-106268997D01*
X112280185Y-106201958D01*
X112332989Y-106156203D01*
X112402147Y-106146259D01*
X112449779Y-106163571D01*
X112522818Y-106208796D01*
X112522822Y-106208798D01*
X112730195Y-106289134D01*
X112948807Y-106330000D01*
X113171193Y-106330000D01*
X113389809Y-106289133D01*
X113597168Y-106208801D01*
X113597181Y-106208795D01*
X113713326Y-106136879D01*
X113106447Y-105530000D01*
X113112661Y-105530000D01*
X113214394Y-105502741D01*
X113305606Y-105450080D01*
X113380080Y-105375606D01*
X113432741Y-105284394D01*
X113460000Y-105182661D01*
X113460000Y-105176447D01*
X114068861Y-105785308D01*
X114084631Y-105764425D01*
X114084633Y-105764422D01*
X114183759Y-105565350D01*
X114244621Y-105351439D01*
X114265141Y-105130000D01*
X114265141Y-105129999D01*
X114244621Y-104908560D01*
X114183759Y-104694649D01*
X114084635Y-104495580D01*
X114084630Y-104495572D01*
X114068860Y-104474690D01*
X113460000Y-105083551D01*
X113460000Y-105077339D01*
X113432741Y-104975606D01*
X113380080Y-104884394D01*
X113305606Y-104809920D01*
X113214394Y-104757259D01*
X113112661Y-104730000D01*
X113106447Y-104730000D01*
X113713327Y-104123119D01*
X113597178Y-104051202D01*
X113597177Y-104051201D01*
X113389804Y-103970865D01*
X113171193Y-103930000D01*
X112948807Y-103930000D01*
X112730195Y-103970865D01*
X112522822Y-104051201D01*
X112522820Y-104051202D01*
X112449778Y-104096429D01*
X112382417Y-104114985D01*
X112315718Y-104094177D01*
X112270856Y-104040612D01*
X112260500Y-103991002D01*
X112260500Y-103365571D01*
X112280185Y-103298532D01*
X112332989Y-103252777D01*
X112402147Y-103242833D01*
X112457381Y-103265251D01*
X112580366Y-103354604D01*
X112607270Y-103374151D01*
X112780192Y-103451142D01*
X112780197Y-103451144D01*
X112965354Y-103490500D01*
X112965355Y-103490500D01*
X113154644Y-103490500D01*
X113154646Y-103490500D01*
X113339803Y-103451144D01*
X113467015Y-103394505D01*
X113536265Y-103385220D01*
X113599541Y-103414848D01*
X113605132Y-103420103D01*
X114525489Y-104340460D01*
X114594012Y-104380022D01*
X114670438Y-104400500D01*
X114749562Y-104400500D01*
X115967148Y-104400500D01*
X116034187Y-104420185D01*
X116079942Y-104472989D01*
X116081711Y-104477053D01*
X116082883Y-104479884D01*
X116174612Y-104651497D01*
X116174617Y-104651503D01*
X116298068Y-104801931D01*
X116448496Y-104925382D01*
X116448502Y-104925387D01*
X116620113Y-105017115D01*
X116620115Y-105017115D01*
X116620118Y-105017117D01*
X116806338Y-105073606D01*
X117000000Y-105092680D01*
X117193662Y-105073606D01*
X117379882Y-105017117D01*
X117390267Y-105011566D01*
X117551497Y-104925387D01*
X117551499Y-104925384D01*
X117551503Y-104925383D01*
X117701931Y-104801931D01*
X117825383Y-104651503D01*
X117825384Y-104651499D01*
X117825387Y-104651497D01*
X117917115Y-104479886D01*
X117917116Y-104479884D01*
X117917117Y-104479882D01*
X117973606Y-104293662D01*
X117992680Y-104100000D01*
X117973606Y-103906338D01*
X117917117Y-103720118D01*
X117917115Y-103720115D01*
X117917115Y-103720113D01*
X117825387Y-103548502D01*
X117825382Y-103548496D01*
X117701931Y-103398068D01*
X117551503Y-103274617D01*
X117551497Y-103274612D01*
X117379886Y-103182884D01*
X117193660Y-103126393D01*
X117000000Y-103107320D01*
X116806339Y-103126393D01*
X116620113Y-103182884D01*
X116448502Y-103274612D01*
X116448496Y-103274617D01*
X116298068Y-103398068D01*
X116174617Y-103548496D01*
X116174612Y-103548502D01*
X116082883Y-103720115D01*
X116081711Y-103722947D01*
X116080698Y-103724203D01*
X116080011Y-103725490D01*
X116079767Y-103725359D01*
X116037873Y-103777353D01*
X115971580Y-103799421D01*
X115967148Y-103799500D01*
X114885833Y-103799500D01*
X114818794Y-103779815D01*
X114798152Y-103763181D01*
X113966924Y-102931953D01*
X113933439Y-102870630D01*
X113936675Y-102805952D01*
X113945672Y-102778261D01*
X113945674Y-102778256D01*
X113965460Y-102590000D01*
X113945674Y-102401744D01*
X113887179Y-102221716D01*
X113792533Y-102057784D01*
X113665871Y-101917112D01*
X113665870Y-101917111D01*
X113512734Y-101805851D01*
X113512729Y-101805848D01*
X113339807Y-101728857D01*
X113339802Y-101728855D01*
X113194001Y-101697865D01*
X113154646Y-101689500D01*
X112965354Y-101689500D01*
X112932897Y-101696398D01*
X112780197Y-101728855D01*
X112780192Y-101728857D01*
X112714819Y-101757964D01*
X112645569Y-101767249D01*
X112582292Y-101737621D01*
X112545079Y-101678486D01*
X112545744Y-101608620D01*
X112565116Y-101570375D01*
X112621441Y-101495133D01*
X112633020Y-101481769D01*
X112771769Y-101343020D01*
X112785123Y-101331448D01*
X112942221Y-101213845D01*
X112957089Y-101204291D01*
X113129298Y-101110258D01*
X113145385Y-101102911D01*
X113329248Y-101034333D01*
X113346199Y-101029356D01*
X113537938Y-100987646D01*
X113555436Y-100985130D01*
X113755582Y-100970816D01*
X113764428Y-100970500D01*
X113825892Y-100970500D01*
X140194108Y-100970500D01*
X140255572Y-100970500D01*
X140264418Y-100970816D01*
G37*
%TD.AperFunction*%
%TA.AperFunction,Conductor*%
G36*
X121642341Y-140460185D02*
G01*
X121688096Y-140512989D01*
X121698040Y-140582147D01*
X121695116Y-140595587D01*
X121674353Y-140740000D01*
X121694834Y-140882456D01*
X121752749Y-141009269D01*
X121754623Y-141013373D01*
X121848872Y-141122143D01*
X121848875Y-141122144D01*
X121849213Y-141122535D01*
X121878238Y-141186091D01*
X121879500Y-141203738D01*
X121879500Y-143390981D01*
X121859815Y-143458020D01*
X121843181Y-143478662D01*
X120903662Y-144418181D01*
X120842339Y-144451666D01*
X120815981Y-144454500D01*
X120268122Y-144454500D01*
X120201083Y-144434815D01*
X120155328Y-144382011D01*
X120144764Y-144317897D01*
X120149999Y-144266654D01*
X120150000Y-144266641D01*
X120150000Y-144230000D01*
X118986500Y-144230000D01*
X118919461Y-144210315D01*
X118873706Y-144157511D01*
X118862500Y-144106000D01*
X118862500Y-143854000D01*
X118882185Y-143786961D01*
X118934989Y-143741206D01*
X118986500Y-143730000D01*
X120149999Y-143730000D01*
X120149999Y-143693360D01*
X120149998Y-143693345D01*
X120139680Y-143592347D01*
X120085453Y-143428699D01*
X120085448Y-143428688D01*
X119994947Y-143281965D01*
X119994944Y-143281961D01*
X119870500Y-143157517D01*
X119837015Y-143096194D01*
X119841999Y-143026502D01*
X119883871Y-142970569D01*
X119945582Y-142946478D01*
X119987651Y-142942181D01*
X120151300Y-142887953D01*
X120151311Y-142887948D01*
X120298034Y-142797447D01*
X120298038Y-142797444D01*
X120419944Y-142675538D01*
X120419947Y-142675534D01*
X120510448Y-142528811D01*
X120510453Y-142528800D01*
X120564680Y-142365152D01*
X120574999Y-142264154D01*
X120575000Y-142264141D01*
X120575000Y-142215000D01*
X119474000Y-142215000D01*
X119406961Y-142195315D01*
X119361206Y-142142511D01*
X119350000Y-142091000D01*
X119350000Y-141839000D01*
X119369685Y-141771961D01*
X119422489Y-141726206D01*
X119474000Y-141715000D01*
X120574999Y-141715000D01*
X120574999Y-141665860D01*
X120574998Y-141665845D01*
X120564680Y-141564847D01*
X120510453Y-141401199D01*
X120510448Y-141401188D01*
X120419947Y-141254465D01*
X120419944Y-141254461D01*
X120298038Y-141132555D01*
X120298034Y-141132552D01*
X120151311Y-141042051D01*
X120151300Y-141042046D01*
X120058793Y-141011393D01*
X120001348Y-140971621D01*
X119974525Y-140907105D01*
X119986840Y-140838329D01*
X120034383Y-140787129D01*
X120039859Y-140784055D01*
X120044470Y-140781617D01*
X120044475Y-140781616D01*
X120150711Y-140703211D01*
X120229116Y-140596975D01*
X120252705Y-140529562D01*
X120254811Y-140523545D01*
X120295533Y-140466769D01*
X120360486Y-140441022D01*
X120371852Y-140440500D01*
X121575302Y-140440500D01*
X121642341Y-140460185D01*
G37*
%TD.AperFunction*%
%TA.AperFunction,Conductor*%
G36*
X130962539Y-132590485D02*
G01*
X131008294Y-132643289D01*
X131019500Y-132694800D01*
X131019500Y-133951462D01*
X131032493Y-133999953D01*
X131039979Y-134027890D01*
X131039980Y-134027891D01*
X131055897Y-134055460D01*
X131055898Y-134055461D01*
X131079539Y-134096409D01*
X131079541Y-134096412D01*
X132053181Y-135070052D01*
X132086666Y-135131375D01*
X132089500Y-135157733D01*
X132089500Y-137243092D01*
X132069815Y-137310131D01*
X132017011Y-137355886D01*
X132015936Y-137356371D01*
X131927269Y-137395848D01*
X131774129Y-137507111D01*
X131647466Y-137647785D01*
X131552821Y-137811715D01*
X131552818Y-137811722D01*
X131510749Y-137941199D01*
X131494326Y-137991744D01*
X131474540Y-138180000D01*
X131494326Y-138368256D01*
X131494327Y-138368259D01*
X131552818Y-138548277D01*
X131552821Y-138548284D01*
X131647467Y-138712216D01*
X131717207Y-138789670D01*
X131774129Y-138852888D01*
X131927265Y-138964148D01*
X131927270Y-138964151D01*
X132100192Y-139041142D01*
X132100197Y-139041144D01*
X132285354Y-139080500D01*
X132285355Y-139080500D01*
X132474644Y-139080500D01*
X132474646Y-139080500D01*
X132659803Y-139041144D01*
X132703981Y-139021473D01*
X132773231Y-139012187D01*
X132836508Y-139041814D01*
X132842100Y-139047071D01*
X133092781Y-139297752D01*
X133126266Y-139359075D01*
X133129100Y-139385433D01*
X133129100Y-140712223D01*
X133109415Y-140779262D01*
X133073993Y-140815324D01*
X133056447Y-140827047D01*
X133012132Y-140893369D01*
X133012131Y-140893370D01*
X133000500Y-140951847D01*
X133000500Y-142108952D01*
X133012131Y-142167429D01*
X133012132Y-142167430D01*
X133056447Y-142233752D01*
X133122769Y-142278067D01*
X133122770Y-142278068D01*
X133181247Y-142289699D01*
X133181250Y-142289700D01*
X133665500Y-142289700D01*
X133732539Y-142309385D01*
X133778294Y-142362189D01*
X133789500Y-142413700D01*
X133789500Y-142457187D01*
X133788500Y-142472443D01*
X133788500Y-143660000D01*
X133768815Y-143727039D01*
X133716011Y-143772794D01*
X133664500Y-143784000D01*
X133374800Y-143784000D01*
X133307761Y-143764315D01*
X133262006Y-143711511D01*
X133250800Y-143660000D01*
X133250800Y-143387600D01*
X130609200Y-143387600D01*
X130609200Y-143660000D01*
X130589515Y-143727039D01*
X130536711Y-143772794D01*
X130485200Y-143784000D01*
X129221333Y-143784000D01*
X129154294Y-143764315D01*
X129133652Y-143747681D01*
X128410012Y-143024041D01*
X128376527Y-142962718D01*
X128381511Y-142893026D01*
X128423383Y-142837093D01*
X128456733Y-142819320D01*
X128514475Y-142799116D01*
X128607440Y-142730505D01*
X128673067Y-142706535D01*
X128741238Y-142721850D01*
X128786610Y-142765179D01*
X128850052Y-142868034D01*
X128850055Y-142868038D01*
X128971961Y-142989944D01*
X128971965Y-142989947D01*
X129118688Y-143080448D01*
X129118699Y-143080453D01*
X129282347Y-143134680D01*
X129383351Y-143144999D01*
X129982500Y-143144999D01*
X130081640Y-143144999D01*
X130081654Y-143144998D01*
X130182652Y-143134680D01*
X130346300Y-143080453D01*
X130346311Y-143080448D01*
X130493034Y-142989947D01*
X130493038Y-142989944D01*
X130614944Y-142868038D01*
X130614947Y-142868034D01*
X130705448Y-142721311D01*
X130705453Y-142721300D01*
X130759680Y-142557652D01*
X130769999Y-142456654D01*
X130770000Y-142456641D01*
X130770000Y-142420000D01*
X129982500Y-142420000D01*
X129982500Y-143144999D01*
X129383351Y-143144999D01*
X129482500Y-143144998D01*
X129482500Y-142044000D01*
X129502185Y-141976961D01*
X129554989Y-141931206D01*
X129606500Y-141920000D01*
X130769999Y-141920000D01*
X130769999Y-141883360D01*
X130769998Y-141883345D01*
X130759680Y-141782347D01*
X130705453Y-141618699D01*
X130705448Y-141618688D01*
X130614947Y-141471965D01*
X130614944Y-141471961D01*
X130493038Y-141350055D01*
X130493034Y-141350052D01*
X130386578Y-141284389D01*
X130339853Y-141232441D01*
X130328632Y-141163479D01*
X130346043Y-141118878D01*
X130344685Y-141118214D01*
X130357498Y-141092005D01*
X130400573Y-141003893D01*
X130410500Y-140935760D01*
X130410500Y-139844240D01*
X130409809Y-139839500D01*
X130400573Y-139776108D01*
X130396126Y-139767011D01*
X130349198Y-139671017D01*
X130349196Y-139671015D01*
X130349196Y-139671014D01*
X130266483Y-139588301D01*
X130262445Y-139585418D01*
X130219324Y-139530442D01*
X130210500Y-139484502D01*
X130210500Y-139378491D01*
X130206695Y-139364290D01*
X130190021Y-139302063D01*
X130161666Y-139252950D01*
X130150464Y-139233547D01*
X130150458Y-139233539D01*
X130094895Y-139177976D01*
X130061410Y-139116653D01*
X130066394Y-139046961D01*
X130108266Y-138991028D01*
X130152705Y-138972574D01*
X130152193Y-138970916D01*
X130161390Y-138968074D01*
X130161391Y-138968073D01*
X130161393Y-138968073D01*
X130266483Y-138916698D01*
X130349198Y-138833983D01*
X130400573Y-138728893D01*
X130410500Y-138660760D01*
X130410500Y-137569240D01*
X130400573Y-137501107D01*
X130398837Y-137497555D01*
X130382554Y-137464247D01*
X130370794Y-137395374D01*
X130398138Y-137331077D01*
X130455902Y-137291770D01*
X130458956Y-137290828D01*
X130530053Y-137269953D01*
X130651128Y-137192143D01*
X130745377Y-137083373D01*
X130805165Y-136952457D01*
X130825647Y-136810000D01*
X130805165Y-136667543D01*
X130745377Y-136536627D01*
X130651128Y-136427857D01*
X130530053Y-136350047D01*
X130530051Y-136350046D01*
X130530049Y-136350045D01*
X130530050Y-136350045D01*
X130391963Y-136309500D01*
X130391961Y-136309500D01*
X130248039Y-136309500D01*
X130248036Y-136309500D01*
X130109949Y-136350045D01*
X129988873Y-136427856D01*
X129894623Y-136536626D01*
X129894622Y-136536628D01*
X129847294Y-136640262D01*
X129801539Y-136693066D01*
X129734500Y-136712750D01*
X129667460Y-136693065D01*
X129621705Y-136640261D01*
X129610500Y-136588750D01*
X129610500Y-134520900D01*
X129630185Y-134453861D01*
X129682989Y-134408106D01*
X129734500Y-134396900D01*
X130455250Y-134396900D01*
X130455251Y-134396899D01*
X130470068Y-134393952D01*
X130513729Y-134385268D01*
X130513729Y-134385267D01*
X130513731Y-134385267D01*
X130580052Y-134340952D01*
X130624367Y-134274631D01*
X130624367Y-134274629D01*
X130624368Y-134274629D01*
X130635999Y-134216152D01*
X130636000Y-134216150D01*
X130636000Y-132694800D01*
X130655685Y-132627761D01*
X130708489Y-132582006D01*
X130760000Y-132570800D01*
X130895500Y-132570800D01*
X130962539Y-132590485D01*
G37*
%TD.AperFunction*%
%TA.AperFunction,Conductor*%
G36*
X120679091Y-138776492D02*
G01*
X120703344Y-138814010D01*
X120706127Y-138820728D01*
X120750443Y-138887052D01*
X120816765Y-138931367D01*
X120816766Y-138931368D01*
X120875243Y-138942999D01*
X120875246Y-138943000D01*
X120875248Y-138943000D01*
X121869163Y-138943000D01*
X121936202Y-138962685D01*
X121956844Y-138979319D01*
X122279536Y-139302011D01*
X122335485Y-139357960D01*
X122335487Y-139357961D01*
X122335491Y-139357964D01*
X122404000Y-139397517D01*
X122404007Y-139397521D01*
X122480434Y-139418000D01*
X122559558Y-139418000D01*
X125031663Y-139418000D01*
X125098702Y-139437685D01*
X125119344Y-139454319D01*
X125533177Y-139868152D01*
X125566662Y-139929475D01*
X125569496Y-139955833D01*
X125569496Y-140135397D01*
X125549811Y-140202436D01*
X125497007Y-140248191D01*
X125427849Y-140258135D01*
X125378457Y-140239713D01*
X125270050Y-140170045D01*
X125131963Y-140129500D01*
X125131961Y-140129500D01*
X124988039Y-140129500D01*
X124988036Y-140129500D01*
X124849949Y-140170045D01*
X124728869Y-140247858D01*
X124693044Y-140289205D01*
X124634267Y-140326981D01*
X124599330Y-140332004D01*
X124548333Y-140332004D01*
X124481294Y-140312319D01*
X124460652Y-140295685D01*
X124064506Y-139899539D01*
X124048310Y-139890189D01*
X124032114Y-139880838D01*
X123995987Y-139859980D01*
X123995986Y-139859979D01*
X123967118Y-139852244D01*
X123919558Y-139839500D01*
X123919556Y-139839500D01*
X120371852Y-139839500D01*
X120304813Y-139819815D01*
X120259058Y-139767011D01*
X120254811Y-139756455D01*
X120242908Y-139722440D01*
X120229116Y-139683025D01*
X120196601Y-139638969D01*
X120150711Y-139576789D01*
X120140969Y-139569599D01*
X120098719Y-139513951D01*
X120093262Y-139444295D01*
X120126329Y-139382746D01*
X120149509Y-139364290D01*
X120193035Y-139337443D01*
X120314940Y-139215538D01*
X120314943Y-139215534D01*
X120405444Y-139068811D01*
X120405449Y-139068800D01*
X120459677Y-138905151D01*
X120465427Y-138848865D01*
X120491823Y-138784173D01*
X120549003Y-138744022D01*
X120618814Y-138741158D01*
X120679091Y-138776492D01*
G37*
%TD.AperFunction*%
%TA.AperFunction,Conductor*%
G36*
X118825971Y-137116829D02*
G01*
X118881908Y-137158697D01*
X118882415Y-137159380D01*
X118942801Y-137241200D01*
X118944285Y-137243211D01*
X119050521Y-137321616D01*
X119050525Y-137321617D01*
X119055140Y-137324057D01*
X119105212Y-137372786D01*
X119120991Y-137440850D01*
X119097466Y-137506641D01*
X119042107Y-137549269D01*
X119036202Y-137551393D01*
X118943695Y-137582046D01*
X118943686Y-137582050D01*
X118912193Y-137601476D01*
X118844801Y-137619916D01*
X118778137Y-137598993D01*
X118733368Y-137545351D01*
X118730355Y-137530858D01*
X118723097Y-137523600D01*
X117753197Y-137523600D01*
X117753197Y-138049601D01*
X117733512Y-138116640D01*
X117680708Y-138162395D01*
X117629197Y-138173601D01*
X117470797Y-138173601D01*
X117403758Y-138153916D01*
X117358003Y-138101112D01*
X117346797Y-138049601D01*
X117346797Y-137241200D01*
X117366482Y-137174161D01*
X117419286Y-137128406D01*
X117470797Y-137117200D01*
X118746480Y-137117200D01*
X118756280Y-137111848D01*
X118825971Y-137116829D01*
G37*
%TD.AperFunction*%
%TA.AperFunction,Conductor*%
G36*
X113982582Y-125379721D02*
G01*
X114005116Y-125391143D01*
X114049946Y-125419953D01*
X114049949Y-125419954D01*
X114133513Y-125444490D01*
X114188039Y-125460500D01*
X114188043Y-125460500D01*
X114196816Y-125461762D01*
X114196325Y-125465173D01*
X114247449Y-125480185D01*
X114293204Y-125532989D01*
X114304410Y-125584500D01*
X114304410Y-125783786D01*
X114316395Y-125828515D01*
X114314732Y-125898365D01*
X114275569Y-125956227D01*
X114211341Y-125983731D01*
X114142438Y-125972144D01*
X114108939Y-125948289D01*
X113919662Y-125759012D01*
X113903312Y-125744325D01*
X113903298Y-125744313D01*
X113882649Y-125727672D01*
X113811601Y-125690508D01*
X113782508Y-125681965D01*
X113723731Y-125644189D01*
X113694708Y-125580633D01*
X113704653Y-125511475D01*
X113750409Y-125458672D01*
X113765924Y-125450200D01*
X113824086Y-125423636D01*
X113846271Y-125411813D01*
X113851290Y-125406894D01*
X113912945Y-125374033D01*
X113982582Y-125379721D01*
G37*
%TD.AperFunction*%
%TA.AperFunction,Conductor*%
G36*
X115931206Y-119130185D02*
G01*
X115951848Y-119146819D01*
X116263182Y-119458153D01*
X116296667Y-119519476D01*
X116299501Y-119545834D01*
X116299501Y-122631773D01*
X116279816Y-122698812D01*
X116227012Y-122744567D01*
X116167648Y-122754461D01*
X116167648Y-122755000D01*
X116164416Y-122755000D01*
X116163354Y-122755177D01*
X116161556Y-122755000D01*
X116038439Y-122755000D01*
X116036652Y-122755176D01*
X116035724Y-122755000D01*
X116032350Y-122755000D01*
X116032350Y-122754360D01*
X115968006Y-122742156D01*
X115917297Y-122694090D01*
X115900500Y-122631773D01*
X115900500Y-122050139D01*
X115887065Y-122000000D01*
X115880021Y-121973711D01*
X115873115Y-121961749D01*
X115840464Y-121905195D01*
X115840458Y-121905187D01*
X114509894Y-120574623D01*
X114476409Y-120513300D01*
X114478914Y-120450948D01*
X114532958Y-120272793D01*
X114551296Y-120086600D01*
X114532958Y-119900407D01*
X114478647Y-119721368D01*
X114478644Y-119721362D01*
X114390455Y-119556371D01*
X114390449Y-119556364D01*
X114381807Y-119545834D01*
X114309850Y-119458153D01*
X114271760Y-119411739D01*
X114172590Y-119330353D01*
X114133256Y-119272608D01*
X114131385Y-119202763D01*
X114167572Y-119142995D01*
X114230328Y-119112279D01*
X114251255Y-119110500D01*
X115864167Y-119110500D01*
X115931206Y-119130185D01*
G37*
%TD.AperFunction*%
%TD*%
%TA.AperFunction,Conductor*%
%TO.N,+3V3*%
G36*
X113268039Y-131507185D02*
G01*
X113313794Y-131559989D01*
X113325000Y-131611500D01*
X113325000Y-132724999D01*
X113361640Y-132724999D01*
X113361654Y-132724998D01*
X113462652Y-132714680D01*
X113526496Y-132693525D01*
X113596324Y-132691123D01*
X113656366Y-132726855D01*
X113687559Y-132789375D01*
X113689500Y-132811231D01*
X113689500Y-133112062D01*
X113700741Y-133154012D01*
X113709979Y-133188490D01*
X113709980Y-133188491D01*
X113734198Y-133230438D01*
X113749540Y-133257011D01*
X113927040Y-133434511D01*
X113982989Y-133490460D01*
X113982991Y-133490461D01*
X113982995Y-133490464D01*
X114017630Y-133510460D01*
X114051511Y-133530021D01*
X114127938Y-133550500D01*
X114437522Y-133550500D01*
X114504561Y-133570185D01*
X114550316Y-133622989D01*
X114554563Y-133633545D01*
X114575883Y-133694475D01*
X114575884Y-133694476D01*
X114654288Y-133800710D01*
X114654289Y-133800711D01*
X114760523Y-133879115D01*
X114760524Y-133879115D01*
X114760525Y-133879116D01*
X114885151Y-133922725D01*
X114885150Y-133922725D01*
X114914740Y-133925500D01*
X114914744Y-133925500D01*
X115520260Y-133925500D01*
X115549849Y-133922725D01*
X115674475Y-133879116D01*
X115780711Y-133800711D01*
X115859116Y-133694475D01*
X115859117Y-133694470D01*
X115861555Y-133689859D01*
X115910282Y-133639785D01*
X115978346Y-133624004D01*
X116044138Y-133647526D01*
X116086767Y-133702884D01*
X116088893Y-133708793D01*
X116119546Y-133801300D01*
X116119551Y-133801311D01*
X116210052Y-133948034D01*
X116210055Y-133948038D01*
X116270336Y-134008319D01*
X116303821Y-134069642D01*
X116298837Y-134139334D01*
X116256965Y-134195267D01*
X116191501Y-134219684D01*
X116182655Y-134220000D01*
X112384500Y-134220000D01*
X112317461Y-134200315D01*
X112271706Y-134147511D01*
X112260500Y-134096000D01*
X112260500Y-132720285D01*
X112280185Y-132653246D01*
X112332989Y-132607491D01*
X112402147Y-132597547D01*
X112449598Y-132614747D01*
X112523692Y-132660450D01*
X112523699Y-132660453D01*
X112687347Y-132714680D01*
X112788352Y-132724999D01*
X112825000Y-132724999D01*
X112825000Y-131611500D01*
X112844685Y-131544461D01*
X112897489Y-131498706D01*
X112949000Y-131487500D01*
X113201000Y-131487500D01*
X113268039Y-131507185D01*
G37*
%TD.AperFunction*%
%TA.AperFunction,Conductor*%
G36*
X117750002Y-126954628D02*
G01*
X117730317Y-127021667D01*
X117677513Y-127067422D01*
X117608355Y-127077366D01*
X117544799Y-127048341D01*
X117538321Y-127042309D01*
X117460553Y-126964541D01*
X117460548Y-126964537D01*
X117451462Y-126959291D01*
X117451460Y-126959291D01*
X117417250Y-126939540D01*
X117392031Y-126924979D01*
X117366554Y-126918152D01*
X117315603Y-126904500D01*
X116884397Y-126904500D01*
X116816998Y-126922559D01*
X116807966Y-126924980D01*
X116748539Y-126959291D01*
X116739451Y-126964537D01*
X116739446Y-126964541D01*
X116567729Y-127136258D01*
X116506406Y-127169743D01*
X116436714Y-127164759D01*
X116380781Y-127122887D01*
X116372661Y-127110577D01*
X116340461Y-127054805D01*
X116340457Y-127054800D01*
X115885657Y-126600000D01*
X117620000Y-126600000D01*
X117749998Y-126470002D01*
X117749998Y-124960000D01*
X117750002Y-124960000D01*
X117750002Y-126954628D01*
G37*
%TD.AperFunction*%
%TD*%
%TA.AperFunction,Conductor*%
%TO.N,+3V3*%
G36*
X118542539Y-123209685D02*
G01*
X118588294Y-123262489D01*
X118599500Y-123314000D01*
X118599500Y-124836000D01*
X118579815Y-124903039D01*
X118527011Y-124948794D01*
X118475500Y-124960000D01*
X117749998Y-124960000D01*
X117749998Y-123242356D01*
X117797488Y-123201206D01*
X117848999Y-123190000D01*
X118475500Y-123190000D01*
X118542539Y-123209685D01*
G37*
%TD.AperFunction*%
%TD*%
%TA.AperFunction,Conductor*%
%TO.N,+3V3*%
G36*
X117749998Y-126470002D02*
G01*
X117620000Y-126600000D01*
X115885657Y-126600000D01*
X114941729Y-125656072D01*
X114908244Y-125594749D01*
X114905410Y-125568391D01*
X114905410Y-125265349D01*
X114891850Y-125214744D01*
X114884931Y-125188921D01*
X114878585Y-125177930D01*
X114845374Y-125120405D01*
X114845368Y-125120397D01*
X114817593Y-125092622D01*
X114784108Y-125031299D01*
X114789092Y-124961607D01*
X114830964Y-124905674D01*
X114896428Y-124881257D01*
X114929465Y-124883324D01*
X115038436Y-124904999D01*
X115038440Y-124905000D01*
X115161556Y-124905000D01*
X115161559Y-124904999D01*
X115282295Y-124880983D01*
X115282303Y-124880981D01*
X115396043Y-124833869D01*
X115396052Y-124833864D01*
X115498411Y-124765469D01*
X115498415Y-124765466D01*
X115585465Y-124678416D01*
X115606365Y-124647136D01*
X115659976Y-124602329D01*
X115677367Y-124596251D01*
X115725638Y-124583318D01*
X115787999Y-124547313D01*
X115855897Y-124530840D01*
X115911997Y-124547312D01*
X115974361Y-124583318D01*
X116057146Y-124605500D01*
X116057148Y-124605500D01*
X116142850Y-124605500D01*
X116142852Y-124605500D01*
X116225637Y-124583318D01*
X116287999Y-124547312D01*
X116355898Y-124530839D01*
X116411999Y-124547312D01*
X116439614Y-124563255D01*
X116474360Y-124583317D01*
X116474362Y-124583317D01*
X116474363Y-124583318D01*
X116522620Y-124596248D01*
X116582281Y-124632613D01*
X116593629Y-124647132D01*
X116614531Y-124678414D01*
X116614534Y-124678418D01*
X116701582Y-124765466D01*
X116701586Y-124765469D01*
X116803945Y-124833864D01*
X116803954Y-124833869D01*
X116917694Y-124880981D01*
X116917702Y-124880983D01*
X117038438Y-124904999D01*
X117038442Y-124905000D01*
X117161558Y-124905000D01*
X117161561Y-124904999D01*
X117282297Y-124880983D01*
X117282305Y-124880981D01*
X117396045Y-124833869D01*
X117396054Y-124833864D01*
X117498413Y-124765469D01*
X117498417Y-124765466D01*
X117585465Y-124678418D01*
X117585468Y-124678414D01*
X117653863Y-124576055D01*
X117653868Y-124576046D01*
X117700980Y-124462306D01*
X117700982Y-124462298D01*
X117724998Y-124341562D01*
X117724999Y-124341559D01*
X117724999Y-123314000D01*
X117744684Y-123246961D01*
X117749998Y-123242356D01*
X117749998Y-126470002D01*
G37*
%TD.AperFunction*%
%TD*%
%TA.AperFunction,Conductor*%
%TO.N,+3V3*%
G36*
X124655677Y-136039685D02*
G01*
X124676319Y-136056319D01*
X124703681Y-136083681D01*
X124737166Y-136145004D01*
X124740000Y-136171362D01*
X124740000Y-137286000D01*
X124720315Y-137353039D01*
X124667511Y-137398794D01*
X124616000Y-137410000D01*
X123231362Y-137410000D01*
X123164323Y-137390315D01*
X123143681Y-137373681D01*
X123136319Y-137366319D01*
X123102834Y-137304996D01*
X123100000Y-137278638D01*
X123100000Y-136144000D01*
X123119685Y-136076961D01*
X123172489Y-136031206D01*
X123224000Y-136020000D01*
X124588638Y-136020000D01*
X124655677Y-136039685D01*
G37*
%TD.AperFunction*%
%TD*%
%TA.AperFunction,Conductor*%
%TO.N,+3V3*%
G36*
X120673039Y-123219685D02*
G01*
X120718794Y-123272489D01*
X120730000Y-123324000D01*
X120730000Y-124328638D01*
X120710315Y-124395677D01*
X120693681Y-124416319D01*
X120176319Y-124933681D01*
X120114996Y-124967166D01*
X120088638Y-124970000D01*
X119324500Y-124970000D01*
X119257461Y-124950315D01*
X119211706Y-124897511D01*
X119200500Y-124846000D01*
X119200500Y-123324000D01*
X119220185Y-123256961D01*
X119272989Y-123211206D01*
X119324500Y-123200000D01*
X120606000Y-123200000D01*
X120673039Y-123219685D01*
G37*
%TD.AperFunction*%
%TD*%
M02*
