%TF.GenerationSoftware,KiCad,Pcbnew,8.0.5*%
%TF.CreationDate,2025-04-10T23:54:11-07:00*%
%TF.ProjectId,ESP32,45535033-322e-46b6-9963-61645f706362,rev?*%
%TF.SameCoordinates,Original*%
%TF.FileFunction,Soldermask,Top*%
%TF.FilePolarity,Negative*%
%FSLAX46Y46*%
G04 Gerber Fmt 4.6, Leading zero omitted, Abs format (unit mm)*
G04 Created by KiCad (PCBNEW 8.0.5) date 2025-04-10 23:54:11*
%MOMM*%
%LPD*%
G01*
G04 APERTURE LIST*
G04 Aperture macros list*
%AMRoundRect*
0 Rectangle with rounded corners*
0 $1 Rounding radius*
0 $2 $3 $4 $5 $6 $7 $8 $9 X,Y pos of 4 corners*
0 Add a 4 corners polygon primitive as box body*
4,1,4,$2,$3,$4,$5,$6,$7,$8,$9,$2,$3,0*
0 Add four circle primitives for the rounded corners*
1,1,$1+$1,$2,$3*
1,1,$1+$1,$4,$5*
1,1,$1+$1,$6,$7*
1,1,$1+$1,$8,$9*
0 Add four rect primitives between the rounded corners*
20,1,$1+$1,$2,$3,$4,$5,0*
20,1,$1+$1,$4,$5,$6,$7,0*
20,1,$1+$1,$6,$7,$8,$9,0*
20,1,$1+$1,$8,$9,$2,$3,0*%
G04 Aperture macros list end*
%ADD10C,1.400000*%
%ADD11R,1.320800X0.508000*%
%ADD12RoundRect,0.102000X0.237500X0.250000X-0.237500X0.250000X-0.237500X-0.250000X0.237500X-0.250000X0*%
%ADD13C,1.498600*%
%ADD14R,0.787400X0.787400*%
%ADD15RoundRect,0.102000X-0.450000X0.750000X-0.450000X-0.750000X0.450000X-0.750000X0.450000X0.750000X0*%
%ADD16RoundRect,0.102000X-0.750000X0.450000X-0.750000X-0.450000X0.750000X-0.450000X0.750000X0.450000X0*%
%ADD17RoundRect,0.102000X-0.450000X0.450000X-0.450000X-0.450000X0.450000X-0.450000X0.450000X0.450000X0*%
%ADD18C,3.200000*%
%ADD19C,1.574800*%
%ADD20RoundRect,0.237500X0.250000X0.237500X-0.250000X0.237500X-0.250000X-0.237500X0.250000X-0.237500X0*%
%ADD21R,1.700000X0.800000*%
%ADD22RoundRect,0.237500X-0.300000X-0.237500X0.300000X-0.237500X0.300000X0.237500X-0.300000X0.237500X0*%
%ADD23R,0.800000X1.700000*%
%ADD24RoundRect,0.237500X0.300000X0.237500X-0.300000X0.237500X-0.300000X-0.237500X0.300000X-0.237500X0*%
%ADD25RoundRect,0.237500X-0.287500X-0.237500X0.287500X-0.237500X0.287500X0.237500X-0.287500X0.237500X0*%
%ADD26RoundRect,0.237500X0.237500X-0.287500X0.237500X0.287500X-0.237500X0.287500X-0.237500X-0.287500X0*%
%ADD27RoundRect,0.237500X-0.237500X0.250000X-0.237500X-0.250000X0.237500X-0.250000X0.237500X0.250000X0*%
%ADD28C,1.270000*%
G04 APERTURE END LIST*
D10*
%TO.C,*%
X132380000Y-138180000D03*
%TD*%
%TO.C,*%
X140470000Y-103500000D03*
%TD*%
%TO.C,*%
X140460000Y-106050000D03*
%TD*%
%TO.C,REF\u002A\u002A*%
X113060000Y-102590000D03*
X113060000Y-105130000D03*
%TD*%
D11*
%TO.C,U4*%
X121564600Y-145339999D03*
X121564600Y-146290000D03*
X121564600Y-147240001D03*
X124155400Y-147240001D03*
X124155400Y-145339999D03*
%TD*%
D12*
%TO.C,R6*%
X119820000Y-137960000D03*
X120844000Y-137960000D03*
%TD*%
D13*
%TO.C,J3*%
X113596900Y-120086600D03*
X113596900Y-117586600D03*
%TD*%
D14*
%TO.C,D2*%
X114150000Y-143790000D03*
X112651400Y-143790000D03*
%TD*%
D15*
%TO.C,U2*%
X134460000Y-117950000D03*
X133190000Y-117950000D03*
X131920000Y-117950000D03*
X130650000Y-117950000D03*
X129380000Y-117950000D03*
X128110000Y-117950000D03*
X126840000Y-117950000D03*
X125570000Y-117950000D03*
X124300000Y-117950000D03*
X123030000Y-117950000D03*
X121760000Y-117950000D03*
X120490000Y-117950000D03*
X119220000Y-117950000D03*
X117950000Y-117950000D03*
D16*
X116700000Y-119715000D03*
X116700000Y-120985000D03*
X116700000Y-122255000D03*
X116700000Y-123525000D03*
X116700000Y-124795000D03*
X116700000Y-126065000D03*
X116700000Y-127335000D03*
X116700000Y-128605000D03*
X116700000Y-129875000D03*
X116700000Y-131145000D03*
X116700000Y-132415000D03*
X116700000Y-133685000D03*
D15*
X117950000Y-135450000D03*
X119220000Y-135450000D03*
X120490000Y-135450000D03*
X121760000Y-135450000D03*
X123030000Y-135450000D03*
X124300000Y-135450000D03*
X125570000Y-135450000D03*
X126840000Y-135450000D03*
X128110000Y-135450000D03*
X129380000Y-135450000D03*
X130650000Y-135450000D03*
X131920000Y-135450000D03*
X133190000Y-135450000D03*
X134460000Y-135450000D03*
D17*
X128140000Y-123800000D03*
X128140000Y-125200000D03*
X128140000Y-126600000D03*
X126740000Y-123800000D03*
X126740000Y-125200000D03*
X126740000Y-126600000D03*
X125340000Y-123800000D03*
X125340000Y-125200000D03*
X125340000Y-126600000D03*
%TD*%
D18*
%TO.C,REF\u002A\u002A*%
X138800000Y-147880000D03*
%TD*%
D19*
%TO.C,J1*%
X117000000Y-104100000D03*
X119540000Y-104100000D03*
X122080000Y-104100000D03*
X124620000Y-104100000D03*
X127160000Y-104100000D03*
X129700000Y-104100000D03*
X132240000Y-104100000D03*
X134780000Y-104100000D03*
X137320000Y-104100000D03*
%TD*%
D20*
%TO.C,R3*%
X134412500Y-109090000D03*
X132587500Y-109090000D03*
%TD*%
D18*
%TO.C,REF\u002A\u002A*%
X115250000Y-148050000D03*
%TD*%
%TO.C,REF\u002A\u002A*%
X115300000Y-113000000D03*
%TD*%
D21*
%TO.C,SW2*%
X113330000Y-137190000D03*
X113330000Y-140590004D03*
%TD*%
D22*
%TO.C,C6*%
X126635000Y-146890000D03*
X128360000Y-146890000D03*
%TD*%
D21*
%TO.C,SW1*%
X132750000Y-112549998D03*
X132750000Y-115950002D03*
%TD*%
D22*
%TO.C,C3*%
X116212496Y-140562500D03*
X117937496Y-140562500D03*
%TD*%
D23*
%TO.C,SW3*%
X132950000Y-149510000D03*
X129549996Y-149510000D03*
%TD*%
D18*
%TO.C,REF\u002A\u002A*%
X138700000Y-112800000D03*
%TD*%
D24*
%TO.C,C2*%
X134362500Y-110750000D03*
X132637500Y-110750000D03*
%TD*%
D19*
%TO.C,J2*%
X117000000Y-106640000D03*
X119540000Y-106640000D03*
X122080000Y-106640000D03*
X124620000Y-106640000D03*
X127160000Y-106640000D03*
X129700000Y-106640000D03*
X132240000Y-106640000D03*
X134780000Y-106640000D03*
X137320000Y-106640000D03*
%TD*%
D25*
%TO.C,D4*%
X126122500Y-141830000D03*
X124372500Y-141830000D03*
%TD*%
D20*
%TO.C,R12*%
X124337500Y-143360000D03*
X126162500Y-143360000D03*
%TD*%
D26*
%TO.C,D5*%
X121120000Y-141825000D03*
X121120000Y-143575000D03*
%TD*%
D27*
%TO.C,R13*%
X122690000Y-141797500D03*
X122690000Y-143622500D03*
%TD*%
D28*
%TO.C,J4*%
X123200001Y-149390000D03*
X121200000Y-149390000D03*
%TD*%
M02*
