%TF.GenerationSoftware,KiCad,Pcbnew,8.0.5*%
%TF.CreationDate,2025-04-10T23:54:11-07:00*%
%TF.ProjectId,ESP32,45535033-322e-46b6-9963-61645f706362,rev?*%
%TF.SameCoordinates,Original*%
%TF.FileFunction,Paste,Top*%
%TF.FilePolarity,Positive*%
%FSLAX46Y46*%
G04 Gerber Fmt 4.6, Leading zero omitted, Abs format (unit mm)*
G04 Created by KiCad (PCBNEW 8.0.5) date 2025-04-10 23:54:11*
%MOMM*%
%LPD*%
G01*
G04 APERTURE LIST*
G04 Aperture macros list*
%AMRoundRect*
0 Rectangle with rounded corners*
0 $1 Rounding radius*
0 $2 $3 $4 $5 $6 $7 $8 $9 X,Y pos of 4 corners*
0 Add a 4 corners polygon primitive as box body*
4,1,4,$2,$3,$4,$5,$6,$7,$8,$9,$2,$3,0*
0 Add four circle primitives for the rounded corners*
1,1,$1+$1,$2,$3*
1,1,$1+$1,$4,$5*
1,1,$1+$1,$6,$7*
1,1,$1+$1,$8,$9*
0 Add four rect primitives between the rounded corners*
20,1,$1+$1,$2,$3,$4,$5,0*
20,1,$1+$1,$4,$5,$6,$7,0*
20,1,$1+$1,$6,$7,$8,$9,0*
20,1,$1+$1,$8,$9,$2,$3,0*%
G04 Aperture macros list end*
%ADD10R,1.320800X0.508000*%
%ADD11R,0.475000X0.500000*%
%ADD12R,0.787400X0.787400*%
%ADD13R,0.900000X1.500000*%
%ADD14R,1.500000X0.900000*%
%ADD15R,0.900000X0.900000*%
%ADD16RoundRect,0.237500X0.250000X0.237500X-0.250000X0.237500X-0.250000X-0.237500X0.250000X-0.237500X0*%
%ADD17R,1.700000X0.800000*%
%ADD18RoundRect,0.237500X-0.300000X-0.237500X0.300000X-0.237500X0.300000X0.237500X-0.300000X0.237500X0*%
%ADD19R,0.800000X1.700000*%
%ADD20RoundRect,0.237500X0.300000X0.237500X-0.300000X0.237500X-0.300000X-0.237500X0.300000X-0.237500X0*%
%ADD21RoundRect,0.237500X-0.287500X-0.237500X0.287500X-0.237500X0.287500X0.237500X-0.287500X0.237500X0*%
%ADD22RoundRect,0.237500X0.237500X-0.287500X0.237500X0.287500X-0.237500X0.287500X-0.237500X-0.287500X0*%
%ADD23RoundRect,0.237500X-0.237500X0.250000X-0.237500X-0.250000X0.237500X-0.250000X0.237500X0.250000X0*%
G04 APERTURE END LIST*
D10*
%TO.C,U4*%
X121564600Y-145339999D03*
X121564600Y-146290000D03*
X121564600Y-147240001D03*
X124155400Y-147240001D03*
X124155400Y-145339999D03*
%TD*%
D11*
%TO.C,R6*%
X119820000Y-137960000D03*
X120844000Y-137960000D03*
%TD*%
D12*
%TO.C,D2*%
X114150000Y-143790000D03*
X112651400Y-143790000D03*
%TD*%
D13*
%TO.C,U2*%
X134460000Y-117950000D03*
X133190000Y-117950000D03*
X131920000Y-117950000D03*
X130650000Y-117950000D03*
X129380000Y-117950000D03*
X128110000Y-117950000D03*
X126840000Y-117950000D03*
X125570000Y-117950000D03*
X124300000Y-117950000D03*
X123030000Y-117950000D03*
X121760000Y-117950000D03*
X120490000Y-117950000D03*
X119220000Y-117950000D03*
X117950000Y-117950000D03*
D14*
X116700000Y-119715000D03*
X116700000Y-120985000D03*
X116700000Y-122255000D03*
X116700000Y-123525000D03*
X116700000Y-124795000D03*
X116700000Y-126065000D03*
X116700000Y-127335000D03*
X116700000Y-128605000D03*
X116700000Y-129875000D03*
X116700000Y-131145000D03*
X116700000Y-132415000D03*
X116700000Y-133685000D03*
D13*
X117950000Y-135450000D03*
X119220000Y-135450000D03*
X120490000Y-135450000D03*
X121760000Y-135450000D03*
X123030000Y-135450000D03*
X124300000Y-135450000D03*
X125570000Y-135450000D03*
X126840000Y-135450000D03*
X128110000Y-135450000D03*
X129380000Y-135450000D03*
X130650000Y-135450000D03*
X131920000Y-135450000D03*
X133190000Y-135450000D03*
X134460000Y-135450000D03*
D15*
X128140000Y-123800000D03*
X128140000Y-125200000D03*
X128140000Y-126600000D03*
X126740000Y-123800000D03*
X126740000Y-125200000D03*
X126740000Y-126600000D03*
X125340000Y-123800000D03*
X125340000Y-125200000D03*
X125340000Y-126600000D03*
%TD*%
D16*
%TO.C,R3*%
X134412500Y-109090000D03*
X132587500Y-109090000D03*
%TD*%
D17*
%TO.C,SW2*%
X113330000Y-137190000D03*
X113330000Y-140590004D03*
%TD*%
D18*
%TO.C,C6*%
X126635000Y-146890000D03*
X128360000Y-146890000D03*
%TD*%
D17*
%TO.C,SW1*%
X132750000Y-112549998D03*
X132750000Y-115950002D03*
%TD*%
D18*
%TO.C,C3*%
X116212496Y-140562500D03*
X117937496Y-140562500D03*
%TD*%
D19*
%TO.C,SW3*%
X132950000Y-149510000D03*
X129549996Y-149510000D03*
%TD*%
D20*
%TO.C,C2*%
X134362500Y-110750000D03*
X132637500Y-110750000D03*
%TD*%
D21*
%TO.C,D4*%
X126122500Y-141830000D03*
X124372500Y-141830000D03*
%TD*%
D16*
%TO.C,R12*%
X124337500Y-143360000D03*
X126162500Y-143360000D03*
%TD*%
D22*
%TO.C,D5*%
X121120000Y-141825000D03*
X121120000Y-143575000D03*
%TD*%
D23*
%TO.C,R13*%
X122690000Y-141797500D03*
X122690000Y-143622500D03*
%TD*%
M02*
