%TF.GenerationSoftware,KiCad,Pcbnew,8.0.5*%
%TF.CreationDate,2025-04-10T23:54:24-07:00*%
%TF.ProjectId,ESP32,45535033-322e-46b6-9963-61645f706362,rev?*%
%TF.SameCoordinates,Original*%
%TF.FileFunction,Drillmap*%
%TF.FilePolarity,Positive*%
%FSLAX45Y45*%
G04 Gerber Fmt 4.5, Leading zero omitted, Abs format (unit mm)*
G04 Created by KiCad (PCBNEW 8.0.5) date 2025-04-10 23:54:24*
%MOMM*%
%LPD*%
G01*
G04 APERTURE LIST*
%ADD10C,0.050000*%
%ADD11C,0.508000*%
%ADD12C,0.200000*%
%ADD13C,0.100000*%
%ADD14C,0.320000*%
G04 APERTURE END LIST*
D10*
X11176000Y-10247000D02*
G75*
G02*
X11376000Y-10047000I200000J0D01*
G01*
X14026000Y-10047000D02*
G75*
G02*
X14226000Y-10247000I0J-200000D01*
G01*
X11376000Y-15147000D02*
G75*
G02*
X11176000Y-14947000I0J200000D01*
G01*
X14226000Y-14947000D02*
G75*
G02*
X14026000Y-15147000I-200000J0D01*
G01*
X11176000Y-14947000D02*
X11176000Y-10247000D01*
X14226000Y-10247000D02*
X14226000Y-14947000D01*
X11376000Y-10047000D02*
X14026000Y-10047000D01*
X14026000Y-15147000D02*
X11376000Y-15147000D01*
D11*
X11501790Y-13532040D02*
X11433210Y-13532040D01*
X11501790Y-14192040D02*
X11433210Y-14192040D01*
D12*
D13*
X11407810Y-13506640D02*
X11458610Y-13557440D01*
X11458610Y-13506640D02*
X11407810Y-13557440D01*
X11407810Y-14166640D02*
X11458610Y-14217440D01*
X11458610Y-14166640D02*
X11407810Y-14217440D01*
X11476390Y-13506640D02*
X11527190Y-13557440D01*
X11527190Y-13506640D02*
X11476390Y-13557440D01*
X11476390Y-14166640D02*
X11527190Y-14217440D01*
X11527190Y-14166640D02*
X11476390Y-14217440D01*
D14*
X11685000Y-14805000D02*
G75*
G02*
X11365000Y-14805000I-160000J0D01*
G01*
X11365000Y-14805000D02*
G75*
G02*
X11685000Y-14805000I160000J0D01*
G01*
X11690000Y-11300000D02*
G75*
G02*
X11370000Y-11300000I-160000J0D01*
G01*
X11370000Y-11300000D02*
G75*
G02*
X11690000Y-11300000I160000J0D01*
G01*
X14030000Y-11280000D02*
G75*
G02*
X13710000Y-11280000I-160000J0D01*
G01*
X13710000Y-11280000D02*
G75*
G02*
X14030000Y-11280000I160000J0D01*
G01*
X14040000Y-14788000D02*
G75*
G02*
X13720000Y-14788000I-160000J0D01*
G01*
X13720000Y-14788000D02*
G75*
G02*
X14040000Y-14788000I160000J0D01*
G01*
D12*
X11434277Y-15460984D02*
X11434277Y-15260984D01*
X11434277Y-15260984D02*
X11481896Y-15260984D01*
X11481896Y-15260984D02*
X11510467Y-15270508D01*
X11510467Y-15270508D02*
X11529515Y-15289555D01*
X11529515Y-15289555D02*
X11539039Y-15308603D01*
X11539039Y-15308603D02*
X11548562Y-15346698D01*
X11548562Y-15346698D02*
X11548562Y-15375269D01*
X11548562Y-15375269D02*
X11539039Y-15413365D01*
X11539039Y-15413365D02*
X11529515Y-15432412D01*
X11529515Y-15432412D02*
X11510467Y-15451460D01*
X11510467Y-15451460D02*
X11481896Y-15460984D01*
X11481896Y-15460984D02*
X11434277Y-15460984D01*
X11634277Y-15460984D02*
X11634277Y-15327650D01*
X11634277Y-15365746D02*
X11643801Y-15346698D01*
X11643801Y-15346698D02*
X11653324Y-15337174D01*
X11653324Y-15337174D02*
X11672372Y-15327650D01*
X11672372Y-15327650D02*
X11691420Y-15327650D01*
X11758086Y-15460984D02*
X11758086Y-15327650D01*
X11758086Y-15260984D02*
X11748562Y-15270508D01*
X11748562Y-15270508D02*
X11758086Y-15280031D01*
X11758086Y-15280031D02*
X11767610Y-15270508D01*
X11767610Y-15270508D02*
X11758086Y-15260984D01*
X11758086Y-15260984D02*
X11758086Y-15280031D01*
X11881896Y-15460984D02*
X11862848Y-15451460D01*
X11862848Y-15451460D02*
X11853324Y-15432412D01*
X11853324Y-15432412D02*
X11853324Y-15260984D01*
X11986658Y-15460984D02*
X11967610Y-15451460D01*
X11967610Y-15451460D02*
X11958086Y-15432412D01*
X11958086Y-15432412D02*
X11958086Y-15260984D01*
X12215229Y-15460984D02*
X12215229Y-15260984D01*
X12215229Y-15260984D02*
X12281896Y-15403841D01*
X12281896Y-15403841D02*
X12348562Y-15260984D01*
X12348562Y-15260984D02*
X12348562Y-15460984D01*
X12529515Y-15460984D02*
X12529515Y-15356222D01*
X12529515Y-15356222D02*
X12519991Y-15337174D01*
X12519991Y-15337174D02*
X12500943Y-15327650D01*
X12500943Y-15327650D02*
X12462848Y-15327650D01*
X12462848Y-15327650D02*
X12443801Y-15337174D01*
X12529515Y-15451460D02*
X12510467Y-15460984D01*
X12510467Y-15460984D02*
X12462848Y-15460984D01*
X12462848Y-15460984D02*
X12443801Y-15451460D01*
X12443801Y-15451460D02*
X12434277Y-15432412D01*
X12434277Y-15432412D02*
X12434277Y-15413365D01*
X12434277Y-15413365D02*
X12443801Y-15394317D01*
X12443801Y-15394317D02*
X12462848Y-15384793D01*
X12462848Y-15384793D02*
X12510467Y-15384793D01*
X12510467Y-15384793D02*
X12529515Y-15375269D01*
X12624753Y-15327650D02*
X12624753Y-15527650D01*
X12624753Y-15337174D02*
X12643801Y-15327650D01*
X12643801Y-15327650D02*
X12681896Y-15327650D01*
X12681896Y-15327650D02*
X12700943Y-15337174D01*
X12700943Y-15337174D02*
X12710467Y-15346698D01*
X12710467Y-15346698D02*
X12719991Y-15365746D01*
X12719991Y-15365746D02*
X12719991Y-15422888D01*
X12719991Y-15422888D02*
X12710467Y-15441936D01*
X12710467Y-15441936D02*
X12700943Y-15451460D01*
X12700943Y-15451460D02*
X12681896Y-15460984D01*
X12681896Y-15460984D02*
X12643801Y-15460984D01*
X12643801Y-15460984D02*
X12624753Y-15451460D01*
X12805705Y-15441936D02*
X12815229Y-15451460D01*
X12815229Y-15451460D02*
X12805705Y-15460984D01*
X12805705Y-15460984D02*
X12796182Y-15451460D01*
X12796182Y-15451460D02*
X12805705Y-15441936D01*
X12805705Y-15441936D02*
X12805705Y-15460984D01*
X12805705Y-15337174D02*
X12815229Y-15346698D01*
X12815229Y-15346698D02*
X12805705Y-15356222D01*
X12805705Y-15356222D02*
X12796182Y-15346698D01*
X12796182Y-15346698D02*
X12805705Y-15337174D01*
X12805705Y-15337174D02*
X12805705Y-15356222D01*
D13*
X11122700Y-15764100D02*
X11173500Y-15814900D01*
X11173500Y-15764100D02*
X11122700Y-15814900D01*
D12*
X11472372Y-15680984D02*
X11491420Y-15680984D01*
X11491420Y-15680984D02*
X11510467Y-15690508D01*
X11510467Y-15690508D02*
X11519991Y-15700031D01*
X11519991Y-15700031D02*
X11529515Y-15719079D01*
X11529515Y-15719079D02*
X11539039Y-15757174D01*
X11539039Y-15757174D02*
X11539039Y-15804793D01*
X11539039Y-15804793D02*
X11529515Y-15842888D01*
X11529515Y-15842888D02*
X11519991Y-15861936D01*
X11519991Y-15861936D02*
X11510467Y-15871460D01*
X11510467Y-15871460D02*
X11491420Y-15880984D01*
X11491420Y-15880984D02*
X11472372Y-15880984D01*
X11472372Y-15880984D02*
X11453324Y-15871460D01*
X11453324Y-15871460D02*
X11443801Y-15861936D01*
X11443801Y-15861936D02*
X11434277Y-15842888D01*
X11434277Y-15842888D02*
X11424753Y-15804793D01*
X11424753Y-15804793D02*
X11424753Y-15757174D01*
X11424753Y-15757174D02*
X11434277Y-15719079D01*
X11434277Y-15719079D02*
X11443801Y-15700031D01*
X11443801Y-15700031D02*
X11453324Y-15690508D01*
X11453324Y-15690508D02*
X11472372Y-15680984D01*
X11624753Y-15861936D02*
X11634277Y-15871460D01*
X11634277Y-15871460D02*
X11624753Y-15880984D01*
X11624753Y-15880984D02*
X11615229Y-15871460D01*
X11615229Y-15871460D02*
X11624753Y-15861936D01*
X11624753Y-15861936D02*
X11624753Y-15880984D01*
X11815229Y-15680984D02*
X11719991Y-15680984D01*
X11719991Y-15680984D02*
X11710467Y-15776222D01*
X11710467Y-15776222D02*
X11719991Y-15766698D01*
X11719991Y-15766698D02*
X11739039Y-15757174D01*
X11739039Y-15757174D02*
X11786658Y-15757174D01*
X11786658Y-15757174D02*
X11805705Y-15766698D01*
X11805705Y-15766698D02*
X11815229Y-15776222D01*
X11815229Y-15776222D02*
X11824753Y-15795269D01*
X11824753Y-15795269D02*
X11824753Y-15842888D01*
X11824753Y-15842888D02*
X11815229Y-15861936D01*
X11815229Y-15861936D02*
X11805705Y-15871460D01*
X11805705Y-15871460D02*
X11786658Y-15880984D01*
X11786658Y-15880984D02*
X11739039Y-15880984D01*
X11739039Y-15880984D02*
X11719991Y-15871460D01*
X11719991Y-15871460D02*
X11710467Y-15861936D01*
X11948562Y-15680984D02*
X11967610Y-15680984D01*
X11967610Y-15680984D02*
X11986658Y-15690508D01*
X11986658Y-15690508D02*
X11996182Y-15700031D01*
X11996182Y-15700031D02*
X12005705Y-15719079D01*
X12005705Y-15719079D02*
X12015229Y-15757174D01*
X12015229Y-15757174D02*
X12015229Y-15804793D01*
X12015229Y-15804793D02*
X12005705Y-15842888D01*
X12005705Y-15842888D02*
X11996182Y-15861936D01*
X11996182Y-15861936D02*
X11986658Y-15871460D01*
X11986658Y-15871460D02*
X11967610Y-15880984D01*
X11967610Y-15880984D02*
X11948562Y-15880984D01*
X11948562Y-15880984D02*
X11929515Y-15871460D01*
X11929515Y-15871460D02*
X11919991Y-15861936D01*
X11919991Y-15861936D02*
X11910467Y-15842888D01*
X11910467Y-15842888D02*
X11900943Y-15804793D01*
X11900943Y-15804793D02*
X11900943Y-15757174D01*
X11900943Y-15757174D02*
X11910467Y-15719079D01*
X11910467Y-15719079D02*
X11919991Y-15700031D01*
X11919991Y-15700031D02*
X11929515Y-15690508D01*
X11929515Y-15690508D02*
X11948562Y-15680984D01*
X12129515Y-15766698D02*
X12110467Y-15757174D01*
X12110467Y-15757174D02*
X12100943Y-15747650D01*
X12100943Y-15747650D02*
X12091420Y-15728603D01*
X12091420Y-15728603D02*
X12091420Y-15719079D01*
X12091420Y-15719079D02*
X12100943Y-15700031D01*
X12100943Y-15700031D02*
X12110467Y-15690508D01*
X12110467Y-15690508D02*
X12129515Y-15680984D01*
X12129515Y-15680984D02*
X12167610Y-15680984D01*
X12167610Y-15680984D02*
X12186658Y-15690508D01*
X12186658Y-15690508D02*
X12196182Y-15700031D01*
X12196182Y-15700031D02*
X12205705Y-15719079D01*
X12205705Y-15719079D02*
X12205705Y-15728603D01*
X12205705Y-15728603D02*
X12196182Y-15747650D01*
X12196182Y-15747650D02*
X12186658Y-15757174D01*
X12186658Y-15757174D02*
X12167610Y-15766698D01*
X12167610Y-15766698D02*
X12129515Y-15766698D01*
X12129515Y-15766698D02*
X12110467Y-15776222D01*
X12110467Y-15776222D02*
X12100943Y-15785746D01*
X12100943Y-15785746D02*
X12091420Y-15804793D01*
X12091420Y-15804793D02*
X12091420Y-15842888D01*
X12091420Y-15842888D02*
X12100943Y-15861936D01*
X12100943Y-15861936D02*
X12110467Y-15871460D01*
X12110467Y-15871460D02*
X12129515Y-15880984D01*
X12129515Y-15880984D02*
X12167610Y-15880984D01*
X12167610Y-15880984D02*
X12186658Y-15871460D01*
X12186658Y-15871460D02*
X12196182Y-15861936D01*
X12196182Y-15861936D02*
X12205705Y-15842888D01*
X12205705Y-15842888D02*
X12205705Y-15804793D01*
X12205705Y-15804793D02*
X12196182Y-15785746D01*
X12196182Y-15785746D02*
X12186658Y-15776222D01*
X12186658Y-15776222D02*
X12167610Y-15766698D01*
X12291420Y-15880984D02*
X12291420Y-15747650D01*
X12291420Y-15766698D02*
X12300943Y-15757174D01*
X12300943Y-15757174D02*
X12319991Y-15747650D01*
X12319991Y-15747650D02*
X12348563Y-15747650D01*
X12348563Y-15747650D02*
X12367610Y-15757174D01*
X12367610Y-15757174D02*
X12377134Y-15776222D01*
X12377134Y-15776222D02*
X12377134Y-15880984D01*
X12377134Y-15776222D02*
X12386658Y-15757174D01*
X12386658Y-15757174D02*
X12405705Y-15747650D01*
X12405705Y-15747650D02*
X12434277Y-15747650D01*
X12434277Y-15747650D02*
X12453324Y-15757174D01*
X12453324Y-15757174D02*
X12462848Y-15776222D01*
X12462848Y-15776222D02*
X12462848Y-15880984D01*
X12558086Y-15880984D02*
X12558086Y-15747650D01*
X12558086Y-15766698D02*
X12567610Y-15757174D01*
X12567610Y-15757174D02*
X12586658Y-15747650D01*
X12586658Y-15747650D02*
X12615229Y-15747650D01*
X12615229Y-15747650D02*
X12634277Y-15757174D01*
X12634277Y-15757174D02*
X12643801Y-15776222D01*
X12643801Y-15776222D02*
X12643801Y-15880984D01*
X12643801Y-15776222D02*
X12653324Y-15757174D01*
X12653324Y-15757174D02*
X12672372Y-15747650D01*
X12672372Y-15747650D02*
X12700943Y-15747650D01*
X12700943Y-15747650D02*
X12719991Y-15757174D01*
X12719991Y-15757174D02*
X12729515Y-15776222D01*
X12729515Y-15776222D02*
X12729515Y-15880984D01*
X13119991Y-15671460D02*
X12948563Y-15928603D01*
X13377134Y-15680984D02*
X13396182Y-15680984D01*
X13396182Y-15680984D02*
X13415229Y-15690508D01*
X13415229Y-15690508D02*
X13424753Y-15700031D01*
X13424753Y-15700031D02*
X13434277Y-15719079D01*
X13434277Y-15719079D02*
X13443801Y-15757174D01*
X13443801Y-15757174D02*
X13443801Y-15804793D01*
X13443801Y-15804793D02*
X13434277Y-15842888D01*
X13434277Y-15842888D02*
X13424753Y-15861936D01*
X13424753Y-15861936D02*
X13415229Y-15871460D01*
X13415229Y-15871460D02*
X13396182Y-15880984D01*
X13396182Y-15880984D02*
X13377134Y-15880984D01*
X13377134Y-15880984D02*
X13358086Y-15871460D01*
X13358086Y-15871460D02*
X13348563Y-15861936D01*
X13348563Y-15861936D02*
X13339039Y-15842888D01*
X13339039Y-15842888D02*
X13329515Y-15804793D01*
X13329515Y-15804793D02*
X13329515Y-15757174D01*
X13329515Y-15757174D02*
X13339039Y-15719079D01*
X13339039Y-15719079D02*
X13348563Y-15700031D01*
X13348563Y-15700031D02*
X13358086Y-15690508D01*
X13358086Y-15690508D02*
X13377134Y-15680984D01*
X13529515Y-15861936D02*
X13539039Y-15871460D01*
X13539039Y-15871460D02*
X13529515Y-15880984D01*
X13529515Y-15880984D02*
X13519991Y-15871460D01*
X13519991Y-15871460D02*
X13529515Y-15861936D01*
X13529515Y-15861936D02*
X13529515Y-15880984D01*
X13662848Y-15680984D02*
X13681896Y-15680984D01*
X13681896Y-15680984D02*
X13700944Y-15690508D01*
X13700944Y-15690508D02*
X13710467Y-15700031D01*
X13710467Y-15700031D02*
X13719991Y-15719079D01*
X13719991Y-15719079D02*
X13729515Y-15757174D01*
X13729515Y-15757174D02*
X13729515Y-15804793D01*
X13729515Y-15804793D02*
X13719991Y-15842888D01*
X13719991Y-15842888D02*
X13710467Y-15861936D01*
X13710467Y-15861936D02*
X13700944Y-15871460D01*
X13700944Y-15871460D02*
X13681896Y-15880984D01*
X13681896Y-15880984D02*
X13662848Y-15880984D01*
X13662848Y-15880984D02*
X13643801Y-15871460D01*
X13643801Y-15871460D02*
X13634277Y-15861936D01*
X13634277Y-15861936D02*
X13624753Y-15842888D01*
X13624753Y-15842888D02*
X13615229Y-15804793D01*
X13615229Y-15804793D02*
X13615229Y-15757174D01*
X13615229Y-15757174D02*
X13624753Y-15719079D01*
X13624753Y-15719079D02*
X13634277Y-15700031D01*
X13634277Y-15700031D02*
X13643801Y-15690508D01*
X13643801Y-15690508D02*
X13662848Y-15680984D01*
X13805706Y-15700031D02*
X13815229Y-15690508D01*
X13815229Y-15690508D02*
X13834277Y-15680984D01*
X13834277Y-15680984D02*
X13881896Y-15680984D01*
X13881896Y-15680984D02*
X13900944Y-15690508D01*
X13900944Y-15690508D02*
X13910467Y-15700031D01*
X13910467Y-15700031D02*
X13919991Y-15719079D01*
X13919991Y-15719079D02*
X13919991Y-15738127D01*
X13919991Y-15738127D02*
X13910467Y-15766698D01*
X13910467Y-15766698D02*
X13796182Y-15880984D01*
X13796182Y-15880984D02*
X13919991Y-15880984D01*
X14043801Y-15680984D02*
X14062848Y-15680984D01*
X14062848Y-15680984D02*
X14081896Y-15690508D01*
X14081896Y-15690508D02*
X14091420Y-15700031D01*
X14091420Y-15700031D02*
X14100944Y-15719079D01*
X14100944Y-15719079D02*
X14110467Y-15757174D01*
X14110467Y-15757174D02*
X14110467Y-15804793D01*
X14110467Y-15804793D02*
X14100944Y-15842888D01*
X14100944Y-15842888D02*
X14091420Y-15861936D01*
X14091420Y-15861936D02*
X14081896Y-15871460D01*
X14081896Y-15871460D02*
X14062848Y-15880984D01*
X14062848Y-15880984D02*
X14043801Y-15880984D01*
X14043801Y-15880984D02*
X14024753Y-15871460D01*
X14024753Y-15871460D02*
X14015229Y-15861936D01*
X14015229Y-15861936D02*
X14005706Y-15842888D01*
X14005706Y-15842888D02*
X13996182Y-15804793D01*
X13996182Y-15804793D02*
X13996182Y-15757174D01*
X13996182Y-15757174D02*
X14005706Y-15719079D01*
X14005706Y-15719079D02*
X14015229Y-15700031D01*
X14015229Y-15700031D02*
X14024753Y-15690508D01*
X14024753Y-15690508D02*
X14043801Y-15680984D01*
X14234277Y-15680984D02*
X14253325Y-15680984D01*
X14253325Y-15680984D02*
X14272372Y-15690508D01*
X14272372Y-15690508D02*
X14281896Y-15700031D01*
X14281896Y-15700031D02*
X14291420Y-15719079D01*
X14291420Y-15719079D02*
X14300944Y-15757174D01*
X14300944Y-15757174D02*
X14300944Y-15804793D01*
X14300944Y-15804793D02*
X14291420Y-15842888D01*
X14291420Y-15842888D02*
X14281896Y-15861936D01*
X14281896Y-15861936D02*
X14272372Y-15871460D01*
X14272372Y-15871460D02*
X14253325Y-15880984D01*
X14253325Y-15880984D02*
X14234277Y-15880984D01*
X14234277Y-15880984D02*
X14215229Y-15871460D01*
X14215229Y-15871460D02*
X14205706Y-15861936D01*
X14205706Y-15861936D02*
X14196182Y-15842888D01*
X14196182Y-15842888D02*
X14186658Y-15804793D01*
X14186658Y-15804793D02*
X14186658Y-15757174D01*
X14186658Y-15757174D02*
X14196182Y-15719079D01*
X14196182Y-15719079D02*
X14205706Y-15700031D01*
X14205706Y-15700031D02*
X14215229Y-15690508D01*
X14215229Y-15690508D02*
X14234277Y-15680984D01*
X14377134Y-15680984D02*
X14377134Y-15719079D01*
X14453325Y-15680984D02*
X14453325Y-15719079D01*
X14748563Y-15957174D02*
X14739039Y-15947650D01*
X14739039Y-15947650D02*
X14719991Y-15919079D01*
X14719991Y-15919079D02*
X14710468Y-15900031D01*
X14710468Y-15900031D02*
X14700944Y-15871460D01*
X14700944Y-15871460D02*
X14691420Y-15823841D01*
X14691420Y-15823841D02*
X14691420Y-15785746D01*
X14691420Y-15785746D02*
X14700944Y-15738127D01*
X14700944Y-15738127D02*
X14710468Y-15709555D01*
X14710468Y-15709555D02*
X14719991Y-15690508D01*
X14719991Y-15690508D02*
X14739039Y-15661936D01*
X14739039Y-15661936D02*
X14748563Y-15652412D01*
X14910468Y-15747650D02*
X14910468Y-15880984D01*
X14862848Y-15671460D02*
X14815229Y-15814317D01*
X14815229Y-15814317D02*
X14939039Y-15814317D01*
X15167610Y-15880984D02*
X15167610Y-15680984D01*
X15253325Y-15880984D02*
X15253325Y-15776222D01*
X15253325Y-15776222D02*
X15243801Y-15757174D01*
X15243801Y-15757174D02*
X15224753Y-15747650D01*
X15224753Y-15747650D02*
X15196182Y-15747650D01*
X15196182Y-15747650D02*
X15177134Y-15757174D01*
X15177134Y-15757174D02*
X15167610Y-15766698D01*
X15377134Y-15880984D02*
X15358087Y-15871460D01*
X15358087Y-15871460D02*
X15348563Y-15861936D01*
X15348563Y-15861936D02*
X15339039Y-15842888D01*
X15339039Y-15842888D02*
X15339039Y-15785746D01*
X15339039Y-15785746D02*
X15348563Y-15766698D01*
X15348563Y-15766698D02*
X15358087Y-15757174D01*
X15358087Y-15757174D02*
X15377134Y-15747650D01*
X15377134Y-15747650D02*
X15405706Y-15747650D01*
X15405706Y-15747650D02*
X15424753Y-15757174D01*
X15424753Y-15757174D02*
X15434277Y-15766698D01*
X15434277Y-15766698D02*
X15443801Y-15785746D01*
X15443801Y-15785746D02*
X15443801Y-15842888D01*
X15443801Y-15842888D02*
X15434277Y-15861936D01*
X15434277Y-15861936D02*
X15424753Y-15871460D01*
X15424753Y-15871460D02*
X15405706Y-15880984D01*
X15405706Y-15880984D02*
X15377134Y-15880984D01*
X15558087Y-15880984D02*
X15539039Y-15871460D01*
X15539039Y-15871460D02*
X15529515Y-15852412D01*
X15529515Y-15852412D02*
X15529515Y-15680984D01*
X15710468Y-15871460D02*
X15691420Y-15880984D01*
X15691420Y-15880984D02*
X15653325Y-15880984D01*
X15653325Y-15880984D02*
X15634277Y-15871460D01*
X15634277Y-15871460D02*
X15624753Y-15852412D01*
X15624753Y-15852412D02*
X15624753Y-15776222D01*
X15624753Y-15776222D02*
X15634277Y-15757174D01*
X15634277Y-15757174D02*
X15653325Y-15747650D01*
X15653325Y-15747650D02*
X15691420Y-15747650D01*
X15691420Y-15747650D02*
X15710468Y-15757174D01*
X15710468Y-15757174D02*
X15719991Y-15776222D01*
X15719991Y-15776222D02*
X15719991Y-15795269D01*
X15719991Y-15795269D02*
X15624753Y-15814317D01*
X15796182Y-15871460D02*
X15815230Y-15880984D01*
X15815230Y-15880984D02*
X15853325Y-15880984D01*
X15853325Y-15880984D02*
X15872372Y-15871460D01*
X15872372Y-15871460D02*
X15881896Y-15852412D01*
X15881896Y-15852412D02*
X15881896Y-15842888D01*
X15881896Y-15842888D02*
X15872372Y-15823841D01*
X15872372Y-15823841D02*
X15853325Y-15814317D01*
X15853325Y-15814317D02*
X15824753Y-15814317D01*
X15824753Y-15814317D02*
X15805706Y-15804793D01*
X15805706Y-15804793D02*
X15796182Y-15785746D01*
X15796182Y-15785746D02*
X15796182Y-15776222D01*
X15796182Y-15776222D02*
X15805706Y-15757174D01*
X15805706Y-15757174D02*
X15824753Y-15747650D01*
X15824753Y-15747650D02*
X15853325Y-15747650D01*
X15853325Y-15747650D02*
X15872372Y-15757174D01*
X15948563Y-15957174D02*
X15958087Y-15947650D01*
X15958087Y-15947650D02*
X15977134Y-15919079D01*
X15977134Y-15919079D02*
X15986658Y-15900031D01*
X15986658Y-15900031D02*
X15996182Y-15871460D01*
X15996182Y-15871460D02*
X16005706Y-15823841D01*
X16005706Y-15823841D02*
X16005706Y-15785746D01*
X16005706Y-15785746D02*
X15996182Y-15738127D01*
X15996182Y-15738127D02*
X15986658Y-15709555D01*
X15986658Y-15709555D02*
X15977134Y-15690508D01*
X15977134Y-15690508D02*
X15958087Y-15661936D01*
X15958087Y-15661936D02*
X15948563Y-15652412D01*
X16310468Y-15957174D02*
X16300944Y-15947650D01*
X16300944Y-15947650D02*
X16281896Y-15919079D01*
X16281896Y-15919079D02*
X16272372Y-15900031D01*
X16272372Y-15900031D02*
X16262849Y-15871460D01*
X16262849Y-15871460D02*
X16253325Y-15823841D01*
X16253325Y-15823841D02*
X16253325Y-15785746D01*
X16253325Y-15785746D02*
X16262849Y-15738127D01*
X16262849Y-15738127D02*
X16272372Y-15709555D01*
X16272372Y-15709555D02*
X16281896Y-15690508D01*
X16281896Y-15690508D02*
X16300944Y-15661936D01*
X16300944Y-15661936D02*
X16310468Y-15652412D01*
X16386658Y-15747650D02*
X16386658Y-15880984D01*
X16386658Y-15766698D02*
X16396182Y-15757174D01*
X16396182Y-15757174D02*
X16415230Y-15747650D01*
X16415230Y-15747650D02*
X16443801Y-15747650D01*
X16443801Y-15747650D02*
X16462849Y-15757174D01*
X16462849Y-15757174D02*
X16472372Y-15776222D01*
X16472372Y-15776222D02*
X16472372Y-15880984D01*
X16596182Y-15880984D02*
X16577134Y-15871460D01*
X16577134Y-15871460D02*
X16567611Y-15861936D01*
X16567611Y-15861936D02*
X16558087Y-15842888D01*
X16558087Y-15842888D02*
X16558087Y-15785746D01*
X16558087Y-15785746D02*
X16567611Y-15766698D01*
X16567611Y-15766698D02*
X16577134Y-15757174D01*
X16577134Y-15757174D02*
X16596182Y-15747650D01*
X16596182Y-15747650D02*
X16624753Y-15747650D01*
X16624753Y-15747650D02*
X16643801Y-15757174D01*
X16643801Y-15757174D02*
X16653325Y-15766698D01*
X16653325Y-15766698D02*
X16662849Y-15785746D01*
X16662849Y-15785746D02*
X16662849Y-15842888D01*
X16662849Y-15842888D02*
X16653325Y-15861936D01*
X16653325Y-15861936D02*
X16643801Y-15871460D01*
X16643801Y-15871460D02*
X16624753Y-15880984D01*
X16624753Y-15880984D02*
X16596182Y-15880984D01*
X16719992Y-15747650D02*
X16796182Y-15747650D01*
X16748563Y-15680984D02*
X16748563Y-15852412D01*
X16748563Y-15852412D02*
X16758087Y-15871460D01*
X16758087Y-15871460D02*
X16777134Y-15880984D01*
X16777134Y-15880984D02*
X16796182Y-15880984D01*
X17015230Y-15747650D02*
X17015230Y-15947650D01*
X17015230Y-15757174D02*
X17034277Y-15747650D01*
X17034277Y-15747650D02*
X17072373Y-15747650D01*
X17072373Y-15747650D02*
X17091420Y-15757174D01*
X17091420Y-15757174D02*
X17100944Y-15766698D01*
X17100944Y-15766698D02*
X17110468Y-15785746D01*
X17110468Y-15785746D02*
X17110468Y-15842888D01*
X17110468Y-15842888D02*
X17100944Y-15861936D01*
X17100944Y-15861936D02*
X17091420Y-15871460D01*
X17091420Y-15871460D02*
X17072373Y-15880984D01*
X17072373Y-15880984D02*
X17034277Y-15880984D01*
X17034277Y-15880984D02*
X17015230Y-15871460D01*
X17224754Y-15880984D02*
X17205706Y-15871460D01*
X17205706Y-15871460D02*
X17196182Y-15852412D01*
X17196182Y-15852412D02*
X17196182Y-15680984D01*
X17386658Y-15880984D02*
X17386658Y-15776222D01*
X17386658Y-15776222D02*
X17377135Y-15757174D01*
X17377135Y-15757174D02*
X17358087Y-15747650D01*
X17358087Y-15747650D02*
X17319992Y-15747650D01*
X17319992Y-15747650D02*
X17300944Y-15757174D01*
X17386658Y-15871460D02*
X17367611Y-15880984D01*
X17367611Y-15880984D02*
X17319992Y-15880984D01*
X17319992Y-15880984D02*
X17300944Y-15871460D01*
X17300944Y-15871460D02*
X17291420Y-15852412D01*
X17291420Y-15852412D02*
X17291420Y-15833365D01*
X17291420Y-15833365D02*
X17300944Y-15814317D01*
X17300944Y-15814317D02*
X17319992Y-15804793D01*
X17319992Y-15804793D02*
X17367611Y-15804793D01*
X17367611Y-15804793D02*
X17386658Y-15795269D01*
X17453325Y-15747650D02*
X17529515Y-15747650D01*
X17481896Y-15680984D02*
X17481896Y-15852412D01*
X17481896Y-15852412D02*
X17491420Y-15871460D01*
X17491420Y-15871460D02*
X17510468Y-15880984D01*
X17510468Y-15880984D02*
X17529515Y-15880984D01*
X17672373Y-15871460D02*
X17653325Y-15880984D01*
X17653325Y-15880984D02*
X17615230Y-15880984D01*
X17615230Y-15880984D02*
X17596182Y-15871460D01*
X17596182Y-15871460D02*
X17586658Y-15852412D01*
X17586658Y-15852412D02*
X17586658Y-15776222D01*
X17586658Y-15776222D02*
X17596182Y-15757174D01*
X17596182Y-15757174D02*
X17615230Y-15747650D01*
X17615230Y-15747650D02*
X17653325Y-15747650D01*
X17653325Y-15747650D02*
X17672373Y-15757174D01*
X17672373Y-15757174D02*
X17681896Y-15776222D01*
X17681896Y-15776222D02*
X17681896Y-15795269D01*
X17681896Y-15795269D02*
X17586658Y-15814317D01*
X17853325Y-15880984D02*
X17853325Y-15680984D01*
X17853325Y-15871460D02*
X17834277Y-15880984D01*
X17834277Y-15880984D02*
X17796182Y-15880984D01*
X17796182Y-15880984D02*
X17777135Y-15871460D01*
X17777135Y-15871460D02*
X17767611Y-15861936D01*
X17767611Y-15861936D02*
X17758087Y-15842888D01*
X17758087Y-15842888D02*
X17758087Y-15785746D01*
X17758087Y-15785746D02*
X17767611Y-15766698D01*
X17767611Y-15766698D02*
X17777135Y-15757174D01*
X17777135Y-15757174D02*
X17796182Y-15747650D01*
X17796182Y-15747650D02*
X17834277Y-15747650D01*
X17834277Y-15747650D02*
X17853325Y-15757174D01*
X17929516Y-15957174D02*
X17939039Y-15947650D01*
X17939039Y-15947650D02*
X17958087Y-15919079D01*
X17958087Y-15919079D02*
X17967611Y-15900031D01*
X17967611Y-15900031D02*
X17977135Y-15871460D01*
X17977135Y-15871460D02*
X17986658Y-15823841D01*
X17986658Y-15823841D02*
X17986658Y-15785746D01*
X17986658Y-15785746D02*
X17977135Y-15738127D01*
X17977135Y-15738127D02*
X17967611Y-15709555D01*
X17967611Y-15709555D02*
X17958087Y-15690508D01*
X17958087Y-15690508D02*
X17939039Y-15661936D01*
X17939039Y-15661936D02*
X17929516Y-15652412D01*
X11173500Y-16053500D02*
G75*
G02*
X10973500Y-16053500I-100000J0D01*
G01*
X10973500Y-16053500D02*
G75*
G02*
X11173500Y-16053500I100000J0D01*
G01*
X11415229Y-15944984D02*
X11539039Y-15944984D01*
X11539039Y-15944984D02*
X11472372Y-16021174D01*
X11472372Y-16021174D02*
X11500943Y-16021174D01*
X11500943Y-16021174D02*
X11519991Y-16030698D01*
X11519991Y-16030698D02*
X11529515Y-16040222D01*
X11529515Y-16040222D02*
X11539039Y-16059269D01*
X11539039Y-16059269D02*
X11539039Y-16106888D01*
X11539039Y-16106888D02*
X11529515Y-16125936D01*
X11529515Y-16125936D02*
X11519991Y-16135460D01*
X11519991Y-16135460D02*
X11500943Y-16144984D01*
X11500943Y-16144984D02*
X11443801Y-16144984D01*
X11443801Y-16144984D02*
X11424753Y-16135460D01*
X11424753Y-16135460D02*
X11415229Y-16125936D01*
X11624753Y-16125936D02*
X11634277Y-16135460D01*
X11634277Y-16135460D02*
X11624753Y-16144984D01*
X11624753Y-16144984D02*
X11615229Y-16135460D01*
X11615229Y-16135460D02*
X11624753Y-16125936D01*
X11624753Y-16125936D02*
X11624753Y-16144984D01*
X11710467Y-15964031D02*
X11719991Y-15954508D01*
X11719991Y-15954508D02*
X11739039Y-15944984D01*
X11739039Y-15944984D02*
X11786658Y-15944984D01*
X11786658Y-15944984D02*
X11805705Y-15954508D01*
X11805705Y-15954508D02*
X11815229Y-15964031D01*
X11815229Y-15964031D02*
X11824753Y-15983079D01*
X11824753Y-15983079D02*
X11824753Y-16002127D01*
X11824753Y-16002127D02*
X11815229Y-16030698D01*
X11815229Y-16030698D02*
X11700943Y-16144984D01*
X11700943Y-16144984D02*
X11824753Y-16144984D01*
X11948562Y-15944984D02*
X11967610Y-15944984D01*
X11967610Y-15944984D02*
X11986658Y-15954508D01*
X11986658Y-15954508D02*
X11996182Y-15964031D01*
X11996182Y-15964031D02*
X12005705Y-15983079D01*
X12005705Y-15983079D02*
X12015229Y-16021174D01*
X12015229Y-16021174D02*
X12015229Y-16068793D01*
X12015229Y-16068793D02*
X12005705Y-16106888D01*
X12005705Y-16106888D02*
X11996182Y-16125936D01*
X11996182Y-16125936D02*
X11986658Y-16135460D01*
X11986658Y-16135460D02*
X11967610Y-16144984D01*
X11967610Y-16144984D02*
X11948562Y-16144984D01*
X11948562Y-16144984D02*
X11929515Y-16135460D01*
X11929515Y-16135460D02*
X11919991Y-16125936D01*
X11919991Y-16125936D02*
X11910467Y-16106888D01*
X11910467Y-16106888D02*
X11900943Y-16068793D01*
X11900943Y-16068793D02*
X11900943Y-16021174D01*
X11900943Y-16021174D02*
X11910467Y-15983079D01*
X11910467Y-15983079D02*
X11919991Y-15964031D01*
X11919991Y-15964031D02*
X11929515Y-15954508D01*
X11929515Y-15954508D02*
X11948562Y-15944984D01*
X12139039Y-15944984D02*
X12158086Y-15944984D01*
X12158086Y-15944984D02*
X12177134Y-15954508D01*
X12177134Y-15954508D02*
X12186658Y-15964031D01*
X12186658Y-15964031D02*
X12196182Y-15983079D01*
X12196182Y-15983079D02*
X12205705Y-16021174D01*
X12205705Y-16021174D02*
X12205705Y-16068793D01*
X12205705Y-16068793D02*
X12196182Y-16106888D01*
X12196182Y-16106888D02*
X12186658Y-16125936D01*
X12186658Y-16125936D02*
X12177134Y-16135460D01*
X12177134Y-16135460D02*
X12158086Y-16144984D01*
X12158086Y-16144984D02*
X12139039Y-16144984D01*
X12139039Y-16144984D02*
X12119991Y-16135460D01*
X12119991Y-16135460D02*
X12110467Y-16125936D01*
X12110467Y-16125936D02*
X12100943Y-16106888D01*
X12100943Y-16106888D02*
X12091420Y-16068793D01*
X12091420Y-16068793D02*
X12091420Y-16021174D01*
X12091420Y-16021174D02*
X12100943Y-15983079D01*
X12100943Y-15983079D02*
X12110467Y-15964031D01*
X12110467Y-15964031D02*
X12119991Y-15954508D01*
X12119991Y-15954508D02*
X12139039Y-15944984D01*
X12291420Y-16144984D02*
X12291420Y-16011650D01*
X12291420Y-16030698D02*
X12300943Y-16021174D01*
X12300943Y-16021174D02*
X12319991Y-16011650D01*
X12319991Y-16011650D02*
X12348563Y-16011650D01*
X12348563Y-16011650D02*
X12367610Y-16021174D01*
X12367610Y-16021174D02*
X12377134Y-16040222D01*
X12377134Y-16040222D02*
X12377134Y-16144984D01*
X12377134Y-16040222D02*
X12386658Y-16021174D01*
X12386658Y-16021174D02*
X12405705Y-16011650D01*
X12405705Y-16011650D02*
X12434277Y-16011650D01*
X12434277Y-16011650D02*
X12453324Y-16021174D01*
X12453324Y-16021174D02*
X12462848Y-16040222D01*
X12462848Y-16040222D02*
X12462848Y-16144984D01*
X12558086Y-16144984D02*
X12558086Y-16011650D01*
X12558086Y-16030698D02*
X12567610Y-16021174D01*
X12567610Y-16021174D02*
X12586658Y-16011650D01*
X12586658Y-16011650D02*
X12615229Y-16011650D01*
X12615229Y-16011650D02*
X12634277Y-16021174D01*
X12634277Y-16021174D02*
X12643801Y-16040222D01*
X12643801Y-16040222D02*
X12643801Y-16144984D01*
X12643801Y-16040222D02*
X12653324Y-16021174D01*
X12653324Y-16021174D02*
X12672372Y-16011650D01*
X12672372Y-16011650D02*
X12700943Y-16011650D01*
X12700943Y-16011650D02*
X12719991Y-16021174D01*
X12719991Y-16021174D02*
X12729515Y-16040222D01*
X12729515Y-16040222D02*
X12729515Y-16144984D01*
X13119991Y-15935460D02*
X12948563Y-16192603D01*
X13377134Y-15944984D02*
X13396182Y-15944984D01*
X13396182Y-15944984D02*
X13415229Y-15954508D01*
X13415229Y-15954508D02*
X13424753Y-15964031D01*
X13424753Y-15964031D02*
X13434277Y-15983079D01*
X13434277Y-15983079D02*
X13443801Y-16021174D01*
X13443801Y-16021174D02*
X13443801Y-16068793D01*
X13443801Y-16068793D02*
X13434277Y-16106888D01*
X13434277Y-16106888D02*
X13424753Y-16125936D01*
X13424753Y-16125936D02*
X13415229Y-16135460D01*
X13415229Y-16135460D02*
X13396182Y-16144984D01*
X13396182Y-16144984D02*
X13377134Y-16144984D01*
X13377134Y-16144984D02*
X13358086Y-16135460D01*
X13358086Y-16135460D02*
X13348563Y-16125936D01*
X13348563Y-16125936D02*
X13339039Y-16106888D01*
X13339039Y-16106888D02*
X13329515Y-16068793D01*
X13329515Y-16068793D02*
X13329515Y-16021174D01*
X13329515Y-16021174D02*
X13339039Y-15983079D01*
X13339039Y-15983079D02*
X13348563Y-15964031D01*
X13348563Y-15964031D02*
X13358086Y-15954508D01*
X13358086Y-15954508D02*
X13377134Y-15944984D01*
X13529515Y-16125936D02*
X13539039Y-16135460D01*
X13539039Y-16135460D02*
X13529515Y-16144984D01*
X13529515Y-16144984D02*
X13519991Y-16135460D01*
X13519991Y-16135460D02*
X13529515Y-16125936D01*
X13529515Y-16125936D02*
X13529515Y-16144984D01*
X13729515Y-16144984D02*
X13615229Y-16144984D01*
X13672372Y-16144984D02*
X13672372Y-15944984D01*
X13672372Y-15944984D02*
X13653325Y-15973555D01*
X13653325Y-15973555D02*
X13634277Y-15992603D01*
X13634277Y-15992603D02*
X13615229Y-16002127D01*
X13805706Y-15964031D02*
X13815229Y-15954508D01*
X13815229Y-15954508D02*
X13834277Y-15944984D01*
X13834277Y-15944984D02*
X13881896Y-15944984D01*
X13881896Y-15944984D02*
X13900944Y-15954508D01*
X13900944Y-15954508D02*
X13910467Y-15964031D01*
X13910467Y-15964031D02*
X13919991Y-15983079D01*
X13919991Y-15983079D02*
X13919991Y-16002127D01*
X13919991Y-16002127D02*
X13910467Y-16030698D01*
X13910467Y-16030698D02*
X13796182Y-16144984D01*
X13796182Y-16144984D02*
X13919991Y-16144984D01*
X14091420Y-15944984D02*
X14053325Y-15944984D01*
X14053325Y-15944984D02*
X14034277Y-15954508D01*
X14034277Y-15954508D02*
X14024753Y-15964031D01*
X14024753Y-15964031D02*
X14005706Y-15992603D01*
X14005706Y-15992603D02*
X13996182Y-16030698D01*
X13996182Y-16030698D02*
X13996182Y-16106888D01*
X13996182Y-16106888D02*
X14005706Y-16125936D01*
X14005706Y-16125936D02*
X14015229Y-16135460D01*
X14015229Y-16135460D02*
X14034277Y-16144984D01*
X14034277Y-16144984D02*
X14072372Y-16144984D01*
X14072372Y-16144984D02*
X14091420Y-16135460D01*
X14091420Y-16135460D02*
X14100944Y-16125936D01*
X14100944Y-16125936D02*
X14110467Y-16106888D01*
X14110467Y-16106888D02*
X14110467Y-16059269D01*
X14110467Y-16059269D02*
X14100944Y-16040222D01*
X14100944Y-16040222D02*
X14091420Y-16030698D01*
X14091420Y-16030698D02*
X14072372Y-16021174D01*
X14072372Y-16021174D02*
X14034277Y-16021174D01*
X14034277Y-16021174D02*
X14015229Y-16030698D01*
X14015229Y-16030698D02*
X14005706Y-16040222D01*
X14005706Y-16040222D02*
X13996182Y-16059269D01*
X14234277Y-15944984D02*
X14253325Y-15944984D01*
X14253325Y-15944984D02*
X14272372Y-15954508D01*
X14272372Y-15954508D02*
X14281896Y-15964031D01*
X14281896Y-15964031D02*
X14291420Y-15983079D01*
X14291420Y-15983079D02*
X14300944Y-16021174D01*
X14300944Y-16021174D02*
X14300944Y-16068793D01*
X14300944Y-16068793D02*
X14291420Y-16106888D01*
X14291420Y-16106888D02*
X14281896Y-16125936D01*
X14281896Y-16125936D02*
X14272372Y-16135460D01*
X14272372Y-16135460D02*
X14253325Y-16144984D01*
X14253325Y-16144984D02*
X14234277Y-16144984D01*
X14234277Y-16144984D02*
X14215229Y-16135460D01*
X14215229Y-16135460D02*
X14205706Y-16125936D01*
X14205706Y-16125936D02*
X14196182Y-16106888D01*
X14196182Y-16106888D02*
X14186658Y-16068793D01*
X14186658Y-16068793D02*
X14186658Y-16021174D01*
X14186658Y-16021174D02*
X14196182Y-15983079D01*
X14196182Y-15983079D02*
X14205706Y-15964031D01*
X14205706Y-15964031D02*
X14215229Y-15954508D01*
X14215229Y-15954508D02*
X14234277Y-15944984D01*
X14377134Y-15944984D02*
X14377134Y-15983079D01*
X14453325Y-15944984D02*
X14453325Y-15983079D01*
X14748563Y-16221174D02*
X14739039Y-16211650D01*
X14739039Y-16211650D02*
X14719991Y-16183079D01*
X14719991Y-16183079D02*
X14710468Y-16164031D01*
X14710468Y-16164031D02*
X14700944Y-16135460D01*
X14700944Y-16135460D02*
X14691420Y-16087841D01*
X14691420Y-16087841D02*
X14691420Y-16049746D01*
X14691420Y-16049746D02*
X14700944Y-16002127D01*
X14700944Y-16002127D02*
X14710468Y-15973555D01*
X14710468Y-15973555D02*
X14719991Y-15954508D01*
X14719991Y-15954508D02*
X14739039Y-15925936D01*
X14739039Y-15925936D02*
X14748563Y-15916412D01*
X14910468Y-16011650D02*
X14910468Y-16144984D01*
X14862848Y-15935460D02*
X14815229Y-16078317D01*
X14815229Y-16078317D02*
X14939039Y-16078317D01*
X15167610Y-16144984D02*
X15167610Y-15944984D01*
X15253325Y-16144984D02*
X15253325Y-16040222D01*
X15253325Y-16040222D02*
X15243801Y-16021174D01*
X15243801Y-16021174D02*
X15224753Y-16011650D01*
X15224753Y-16011650D02*
X15196182Y-16011650D01*
X15196182Y-16011650D02*
X15177134Y-16021174D01*
X15177134Y-16021174D02*
X15167610Y-16030698D01*
X15377134Y-16144984D02*
X15358087Y-16135460D01*
X15358087Y-16135460D02*
X15348563Y-16125936D01*
X15348563Y-16125936D02*
X15339039Y-16106888D01*
X15339039Y-16106888D02*
X15339039Y-16049746D01*
X15339039Y-16049746D02*
X15348563Y-16030698D01*
X15348563Y-16030698D02*
X15358087Y-16021174D01*
X15358087Y-16021174D02*
X15377134Y-16011650D01*
X15377134Y-16011650D02*
X15405706Y-16011650D01*
X15405706Y-16011650D02*
X15424753Y-16021174D01*
X15424753Y-16021174D02*
X15434277Y-16030698D01*
X15434277Y-16030698D02*
X15443801Y-16049746D01*
X15443801Y-16049746D02*
X15443801Y-16106888D01*
X15443801Y-16106888D02*
X15434277Y-16125936D01*
X15434277Y-16125936D02*
X15424753Y-16135460D01*
X15424753Y-16135460D02*
X15405706Y-16144984D01*
X15405706Y-16144984D02*
X15377134Y-16144984D01*
X15558087Y-16144984D02*
X15539039Y-16135460D01*
X15539039Y-16135460D02*
X15529515Y-16116412D01*
X15529515Y-16116412D02*
X15529515Y-15944984D01*
X15710468Y-16135460D02*
X15691420Y-16144984D01*
X15691420Y-16144984D02*
X15653325Y-16144984D01*
X15653325Y-16144984D02*
X15634277Y-16135460D01*
X15634277Y-16135460D02*
X15624753Y-16116412D01*
X15624753Y-16116412D02*
X15624753Y-16040222D01*
X15624753Y-16040222D02*
X15634277Y-16021174D01*
X15634277Y-16021174D02*
X15653325Y-16011650D01*
X15653325Y-16011650D02*
X15691420Y-16011650D01*
X15691420Y-16011650D02*
X15710468Y-16021174D01*
X15710468Y-16021174D02*
X15719991Y-16040222D01*
X15719991Y-16040222D02*
X15719991Y-16059269D01*
X15719991Y-16059269D02*
X15624753Y-16078317D01*
X15796182Y-16135460D02*
X15815230Y-16144984D01*
X15815230Y-16144984D02*
X15853325Y-16144984D01*
X15853325Y-16144984D02*
X15872372Y-16135460D01*
X15872372Y-16135460D02*
X15881896Y-16116412D01*
X15881896Y-16116412D02*
X15881896Y-16106888D01*
X15881896Y-16106888D02*
X15872372Y-16087841D01*
X15872372Y-16087841D02*
X15853325Y-16078317D01*
X15853325Y-16078317D02*
X15824753Y-16078317D01*
X15824753Y-16078317D02*
X15805706Y-16068793D01*
X15805706Y-16068793D02*
X15796182Y-16049746D01*
X15796182Y-16049746D02*
X15796182Y-16040222D01*
X15796182Y-16040222D02*
X15805706Y-16021174D01*
X15805706Y-16021174D02*
X15824753Y-16011650D01*
X15824753Y-16011650D02*
X15853325Y-16011650D01*
X15853325Y-16011650D02*
X15872372Y-16021174D01*
X15948563Y-16221174D02*
X15958087Y-16211650D01*
X15958087Y-16211650D02*
X15977134Y-16183079D01*
X15977134Y-16183079D02*
X15986658Y-16164031D01*
X15986658Y-16164031D02*
X15996182Y-16135460D01*
X15996182Y-16135460D02*
X16005706Y-16087841D01*
X16005706Y-16087841D02*
X16005706Y-16049746D01*
X16005706Y-16049746D02*
X15996182Y-16002127D01*
X15996182Y-16002127D02*
X15986658Y-15973555D01*
X15986658Y-15973555D02*
X15977134Y-15954508D01*
X15977134Y-15954508D02*
X15958087Y-15925936D01*
X15958087Y-15925936D02*
X15948563Y-15916412D01*
X16310468Y-16221174D02*
X16300944Y-16211650D01*
X16300944Y-16211650D02*
X16281896Y-16183079D01*
X16281896Y-16183079D02*
X16272372Y-16164031D01*
X16272372Y-16164031D02*
X16262849Y-16135460D01*
X16262849Y-16135460D02*
X16253325Y-16087841D01*
X16253325Y-16087841D02*
X16253325Y-16049746D01*
X16253325Y-16049746D02*
X16262849Y-16002127D01*
X16262849Y-16002127D02*
X16272372Y-15973555D01*
X16272372Y-15973555D02*
X16281896Y-15954508D01*
X16281896Y-15954508D02*
X16300944Y-15925936D01*
X16300944Y-15925936D02*
X16310468Y-15916412D01*
X16386658Y-16011650D02*
X16386658Y-16144984D01*
X16386658Y-16030698D02*
X16396182Y-16021174D01*
X16396182Y-16021174D02*
X16415230Y-16011650D01*
X16415230Y-16011650D02*
X16443801Y-16011650D01*
X16443801Y-16011650D02*
X16462849Y-16021174D01*
X16462849Y-16021174D02*
X16472372Y-16040222D01*
X16472372Y-16040222D02*
X16472372Y-16144984D01*
X16596182Y-16144984D02*
X16577134Y-16135460D01*
X16577134Y-16135460D02*
X16567611Y-16125936D01*
X16567611Y-16125936D02*
X16558087Y-16106888D01*
X16558087Y-16106888D02*
X16558087Y-16049746D01*
X16558087Y-16049746D02*
X16567611Y-16030698D01*
X16567611Y-16030698D02*
X16577134Y-16021174D01*
X16577134Y-16021174D02*
X16596182Y-16011650D01*
X16596182Y-16011650D02*
X16624753Y-16011650D01*
X16624753Y-16011650D02*
X16643801Y-16021174D01*
X16643801Y-16021174D02*
X16653325Y-16030698D01*
X16653325Y-16030698D02*
X16662849Y-16049746D01*
X16662849Y-16049746D02*
X16662849Y-16106888D01*
X16662849Y-16106888D02*
X16653325Y-16125936D01*
X16653325Y-16125936D02*
X16643801Y-16135460D01*
X16643801Y-16135460D02*
X16624753Y-16144984D01*
X16624753Y-16144984D02*
X16596182Y-16144984D01*
X16719992Y-16011650D02*
X16796182Y-16011650D01*
X16748563Y-15944984D02*
X16748563Y-16116412D01*
X16748563Y-16116412D02*
X16758087Y-16135460D01*
X16758087Y-16135460D02*
X16777134Y-16144984D01*
X16777134Y-16144984D02*
X16796182Y-16144984D01*
X17015230Y-16011650D02*
X17015230Y-16211650D01*
X17015230Y-16021174D02*
X17034277Y-16011650D01*
X17034277Y-16011650D02*
X17072373Y-16011650D01*
X17072373Y-16011650D02*
X17091420Y-16021174D01*
X17091420Y-16021174D02*
X17100944Y-16030698D01*
X17100944Y-16030698D02*
X17110468Y-16049746D01*
X17110468Y-16049746D02*
X17110468Y-16106888D01*
X17110468Y-16106888D02*
X17100944Y-16125936D01*
X17100944Y-16125936D02*
X17091420Y-16135460D01*
X17091420Y-16135460D02*
X17072373Y-16144984D01*
X17072373Y-16144984D02*
X17034277Y-16144984D01*
X17034277Y-16144984D02*
X17015230Y-16135460D01*
X17224754Y-16144984D02*
X17205706Y-16135460D01*
X17205706Y-16135460D02*
X17196182Y-16116412D01*
X17196182Y-16116412D02*
X17196182Y-15944984D01*
X17386658Y-16144984D02*
X17386658Y-16040222D01*
X17386658Y-16040222D02*
X17377135Y-16021174D01*
X17377135Y-16021174D02*
X17358087Y-16011650D01*
X17358087Y-16011650D02*
X17319992Y-16011650D01*
X17319992Y-16011650D02*
X17300944Y-16021174D01*
X17386658Y-16135460D02*
X17367611Y-16144984D01*
X17367611Y-16144984D02*
X17319992Y-16144984D01*
X17319992Y-16144984D02*
X17300944Y-16135460D01*
X17300944Y-16135460D02*
X17291420Y-16116412D01*
X17291420Y-16116412D02*
X17291420Y-16097365D01*
X17291420Y-16097365D02*
X17300944Y-16078317D01*
X17300944Y-16078317D02*
X17319992Y-16068793D01*
X17319992Y-16068793D02*
X17367611Y-16068793D01*
X17367611Y-16068793D02*
X17386658Y-16059269D01*
X17453325Y-16011650D02*
X17529515Y-16011650D01*
X17481896Y-15944984D02*
X17481896Y-16116412D01*
X17481896Y-16116412D02*
X17491420Y-16135460D01*
X17491420Y-16135460D02*
X17510468Y-16144984D01*
X17510468Y-16144984D02*
X17529515Y-16144984D01*
X17672373Y-16135460D02*
X17653325Y-16144984D01*
X17653325Y-16144984D02*
X17615230Y-16144984D01*
X17615230Y-16144984D02*
X17596182Y-16135460D01*
X17596182Y-16135460D02*
X17586658Y-16116412D01*
X17586658Y-16116412D02*
X17586658Y-16040222D01*
X17586658Y-16040222D02*
X17596182Y-16021174D01*
X17596182Y-16021174D02*
X17615230Y-16011650D01*
X17615230Y-16011650D02*
X17653325Y-16011650D01*
X17653325Y-16011650D02*
X17672373Y-16021174D01*
X17672373Y-16021174D02*
X17681896Y-16040222D01*
X17681896Y-16040222D02*
X17681896Y-16059269D01*
X17681896Y-16059269D02*
X17586658Y-16078317D01*
X17853325Y-16144984D02*
X17853325Y-15944984D01*
X17853325Y-16135460D02*
X17834277Y-16144984D01*
X17834277Y-16144984D02*
X17796182Y-16144984D01*
X17796182Y-16144984D02*
X17777135Y-16135460D01*
X17777135Y-16135460D02*
X17767611Y-16125936D01*
X17767611Y-16125936D02*
X17758087Y-16106888D01*
X17758087Y-16106888D02*
X17758087Y-16049746D01*
X17758087Y-16049746D02*
X17767611Y-16030698D01*
X17767611Y-16030698D02*
X17777135Y-16021174D01*
X17777135Y-16021174D02*
X17796182Y-16011650D01*
X17796182Y-16011650D02*
X17834277Y-16011650D01*
X17834277Y-16011650D02*
X17853325Y-16021174D01*
X17929516Y-16221174D02*
X17939039Y-16211650D01*
X17939039Y-16211650D02*
X17958087Y-16183079D01*
X17958087Y-16183079D02*
X17967611Y-16164031D01*
X17967611Y-16164031D02*
X17977135Y-16135460D01*
X17977135Y-16135460D02*
X17986658Y-16087841D01*
X17986658Y-16087841D02*
X17986658Y-16049746D01*
X17986658Y-16049746D02*
X17977135Y-16002127D01*
X17977135Y-16002127D02*
X17967611Y-15973555D01*
X17967611Y-15973555D02*
X17958087Y-15954508D01*
X17958087Y-15954508D02*
X17939039Y-15925936D01*
X17939039Y-15925936D02*
X17929516Y-15916412D01*
M02*
