M48
; DRILL file {KiCad 8.0.5} date 2025-04-10T23:54:22-0700
; FORMAT={-:-/ absolute / inch / decimal}
; #@! TF.CreationDate,2025-04-10T23:54:22-07:00
; #@! TF.GenerationSoftware,Kicad,Pcbnew,8.0.5
; #@! TF.FileFunction,Plated,1,2,PTH
FMAT,2
INCH
; #@! TA.AperFunction,Plated,PTH,ViaDrill
T1C0.0118
; #@! TA.AperFunction,Plated,PTH,ComponentDrill
T2C0.0300
; #@! TA.AperFunction,Plated,PTH,ComponentDrill
T3C0.0315
; #@! TA.AperFunction,Plated,PTH,ComponentDrill
T4C0.0390
; #@! TA.AperFunction,Plated,PTH,ComponentDrill
T5C0.0420
%
G90
G05
T1
X4.461Y-4.8051
X4.4724Y-5.0697
X4.4984Y-4.9197
X4.5467Y-4.7382
X4.5728Y-5.5846
X4.5736Y-5.4744
X4.5778Y-5.3866
X4.6491Y-4.8031
X4.6571Y-4.8933
X4.7063Y-4.8213
X4.7146Y-5.0591
X4.7339Y-4.8673
X4.7378Y-4.4185
X4.7579Y-5.4937
X4.7657Y-5.5409
X4.7933Y-4.7141
X4.7933Y-5.0098
X4.7965Y-4.8047
X4.8102Y-5.5409
X4.8701Y-4.7122
X4.8783Y-5.3858
X4.9157Y-4.7657
X4.9236Y-5.5366
X4.9484Y-5.6913
X5.0161Y-4.711
X5.0205Y-5.8878
X5.0256Y-5.2575
X5.0445Y-5.7197
X5.0461Y-5.8465
X5.1307Y-5.3862
X5.1937Y-5.2421
X5.2461Y-5.2461
X5.3047Y-5.6185
T2
X4.7717Y-5.8815
X4.8504Y-5.8815
T3
X4.4512Y-4.039
X4.4512Y-4.139
X5.2118Y-5.4402
X5.5299Y-4.1752
X5.5303Y-4.0748
T4
X4.4723Y-4.6294
X4.4723Y-4.7278
T5
X4.6063Y-4.0984
X4.6063Y-4.1984
X4.7063Y-4.0984
X4.7063Y-4.1984
X4.8063Y-4.0984
X4.8063Y-4.1984
X4.9063Y-4.0984
X4.9063Y-4.1984
X5.0063Y-4.0984
X5.0063Y-4.1984
X5.1063Y-4.0984
X5.1063Y-4.1984
X5.2063Y-4.0984
X5.2063Y-4.1984
X5.3063Y-4.0984
X5.3063Y-4.1984
X5.4063Y-4.0984
X5.4063Y-4.1984
M30
